<?xml version="1.0" encoding="UTF-8" standalone="no"?>
<!DOCTYPE svg PUBLIC "-//W3C//DTD SVG 1.1//EN"
 "http://www.w3.org/Graphics/SVG/1.1/DTD/svg11.dtd">
<!-- Generated by graphviz version 12.2.1 (20241206.2353)
 -->
<!-- Title: dependency&#45;cruiser output Pages: 1 -->
<svg width="1109pt" height="363pt"
 viewBox="0.00 0.00 1109.00 362.93" xmlns="http://www.w3.org/2000/svg" xmlns:xlink="http://www.w3.org/1999/xlink">
<g id="graph0" class="graph" transform="scale(1 1) rotate(0) translate(4 358.93)">
<title>dependency&#45;cruiser output</title>
<polygon fill="white" stroke="none" points="-4,4 -4,-358.93 1105,-358.93 1105,4 -4,4"/>
<g id="clust1" class="cluster">
<title>cluster_app</title>
<path fill="#ffffff" stroke="black" stroke-width="2" d="M20,-8C20,-8 786,-8 786,-8 792,-8 798,-14 798,-20 798,-20 798,-334.93 798,-334.93 798,-340.93 792,-346.93 786,-346.93 786,-346.93 20,-346.93 20,-346.93 14,-346.93 8,-340.93 8,-334.93 8,-334.93 8,-20 8,-20 8,-14 14,-8 20,-8"/>
<text text-anchor="middle" x="403" y="-334.38" font-family="Helvetica,sans-Serif" font-weight="bold" font-size="9.00">app</text>
</g>
<g id="clust2" class="cluster">
<title>cluster_app/api&#45;v2</title>
<path fill="#ffffff" stroke="black" stroke-width="2" d="M627,-218.18C627,-218.18 732,-218.18 732,-218.18 738,-218.18 744,-224.18 744,-230.18 744,-230.18 744,-257.68 744,-257.68 744,-263.68 738,-269.68 732,-269.68 732,-269.68 627,-269.68 627,-269.68 621,-269.68 615,-263.68 615,-257.68 615,-257.68 615,-230.18 615,-230.18 615,-224.18 621,-218.18 627,-218.18"/>
<text text-anchor="start" x="666.38" y="-257.12" font-family="Helvetica,sans-Serif" font-weight="bold" font-size="9.00">api&#45;v2</text>
</g>
<g id="clust3" class="cluster">
<title>cluster_app/controllers</title>
<path fill="#ffffff" stroke="black" stroke-width="2" d="M164,-72.5C164,-72.5 366,-72.5 366,-72.5 372,-72.5 378,-78.5 378,-84.5 378,-84.5 378,-283.43 378,-283.43 378,-289.43 372,-295.43 366,-295.43 366,-295.43 164,-295.43 164,-295.43 158,-295.43 152,-289.43 152,-283.43 152,-283.43 152,-84.5 152,-84.5 152,-78.5 158,-72.5 164,-72.5"/>
<text text-anchor="start" x="241.75" y="-282.88" font-family="Helvetica,sans-Serif" font-weight="bold" font-size="9.00">controllers</text>
</g>
<g id="clust4" class="cluster">
<title>cluster_app/controllers/admin</title>
<path fill="#ffffff" stroke="black" stroke-width="2" d="M234,-218.18C234,-218.18 296,-218.18 296,-218.18 302,-218.18 308,-224.18 308,-230.18 308,-230.18 308,-257.68 308,-257.68 308,-263.68 302,-269.68 296,-269.68 296,-269.68 234,-269.68 234,-269.68 228,-269.68 222,-263.68 222,-257.68 222,-257.68 222,-230.18 222,-230.18 222,-224.18 228,-218.18 234,-218.18"/>
<text text-anchor="start" x="251.88" y="-257.12" font-family="Helvetica,sans-Serif" font-weight="bold" font-size="9.00">admin</text>
</g>
<g id="clust5" class="cluster">
<title>cluster_app/domain</title>
<path fill="#ffffff" stroke="black" stroke-width="2" d="M398,-65.42C398,-65.42 460,-65.42 460,-65.42 466,-65.42 472,-71.42 472,-77.42 472,-77.42 472,-104.92 472,-104.92 472,-110.92 466,-116.92 460,-116.92 460,-116.92 398,-116.92 398,-116.92 392,-116.92 386,-110.92 386,-104.92 386,-104.92 386,-77.42 386,-77.42 386,-71.42 392,-65.42 398,-65.42"/>
<text text-anchor="start" x="413.25" y="-104.38" font-family="Helvetica,sans-Serif" font-weight="bold" font-size="9.00">domain</text>
</g>
<g id="clust6" class="cluster">
<title>cluster_app/infrastructure</title>
<path fill="#ffffff" stroke="black" stroke-width="2" d="M398,-132.93C398,-132.93 461,-132.93 461,-132.93 467,-132.93 473,-138.93 473,-144.93 473,-144.93 473,-172.43 473,-172.43 473,-178.43 467,-184.43 461,-184.43 461,-184.43 398,-184.43 398,-184.43 392,-184.43 386,-178.43 386,-172.43 386,-172.43 386,-144.93 386,-144.93 386,-138.93 392,-132.93 398,-132.93"/>
<text text-anchor="start" x="399.88" y="-171.88" font-family="Helvetica,sans-Serif" font-weight="bold" font-size="9.00">infrastructure</text>
</g>
<g id="clust7" class="cluster">
<title>cluster_app/lib</title>
<path fill="#ffffff" stroke="black" stroke-width="2" d="M493,-124.93C493,-124.93 778,-124.93 778,-124.93 784,-124.93 790,-130.93 790,-136.93 790,-136.93 790,-198.18 790,-198.18 790,-204.18 784,-210.18 778,-210.18 778,-210.18 493,-210.18 493,-210.18 487,-210.18 481,-204.18 481,-198.18 481,-198.18 481,-136.93 481,-136.93 481,-130.93 487,-124.93 493,-124.93"/>
<text text-anchor="start" x="630.62" y="-197.62" font-family="Helvetica,sans-Serif" font-weight="bold" font-size="9.00">lib</text>
</g>
<g id="clust8" class="cluster">
<title>cluster_app/lib/my&#45;http&#45;wrapper</title>
<path fill="#ffffff" stroke="black" stroke-width="2" d="M695,-132.93C695,-132.93 758,-132.93 758,-132.93 764,-132.93 770,-138.93 770,-144.93 770,-144.93 770,-172.43 770,-172.43 770,-178.43 764,-184.43 758,-184.43 758,-184.43 695,-184.43 695,-184.43 689,-184.43 683,-178.43 683,-172.43 683,-172.43 683,-144.93 683,-144.93 683,-138.93 689,-132.93 695,-132.93"/>
<text text-anchor="middle" x="726.5" y="-171.88" font-family="Helvetica,sans-Serif" font-weight="bold" font-size="9.00">my&#45;http&#45;wrapper</text>
</g>
<!-- . -->
<g id="node1" class="node">
<title>.</title>
<g id="a_node1"><a xlink:href="https://nodejs.org/api/..html" xlink:title=".">
<polygon fill="#ffffcc" stroke="grey" points="972,-26.68 919.97,-26.68 918,-24.7 918,-8.93 970.03,-8.93 972,-10.9 972,-26.68"/>
<polyline fill="none" stroke="grey" points="970.03,-24.7 918,-24.7"/>
<polyline fill="none" stroke="grey" points="970.03,-24.7 970.03,-8.93"/>
<polyline fill="none" stroke="grey" points="970.03,-24.7 972,-26.68"/>
<text text-anchor="middle" x="945" y="-14.12" font-family="Helvetica,sans-Serif" font-size="9.00" fill="grey">.</text>
</a>
</g>
</g>
<!-- .. -->
<g id="node2" class="node">
<title>..</title>
<g id="a_node2"><a xlink:title="..">
<polygon fill="#ffffcc" stroke="black" points="926,-91.17 873.97,-91.17 872,-89.2 872,-73.42 924.03,-73.42 926,-75.4 926,-91.17"/>
<polyline fill="none" stroke="black" points="924.03,-89.2 872,-89.2"/>
<polyline fill="none" stroke="black" points="924.03,-89.2 924.03,-73.42"/>
<polyline fill="none" stroke="black" points="924.03,-89.2 926,-91.17"/>
<text text-anchor="middle" x="899" y="-78.62" font-family="Helvetica,sans-Serif" font-size="9.00">..</text>
</a>
</g>
</g>
<!-- app -->
<!-- app&#45;&gt;. -->
<g id="edge1" class="edge">
<title>app&#45;&gt;.</title>
<path fill="none" stroke="#000000" stroke-dasharray="5,2" stroke-opacity="0.200000" d="M158.92,-17.8C409.4,-17.8 659.87,-17.8 910.34,-17.8"/>
<polygon fill="#000000" fill-opacity="0.200000" stroke="#000000" stroke-opacity="0.200000" points="910.23,-19.9 916.23,-17.8 910.23,-15.7 910.23,-19.9"/>
</g>
<!-- app/api&#45;v2 -->
<!-- app/api&#45;v2&#45;&gt;. -->
<g id="edge5" class="edge">
<title>app/api&#45;v2&#45;&gt;.</title>
<path fill="none" stroke="#000000" stroke-dasharray="5,2" stroke-opacity="0.200000" d="M735.92,-234.06C761.55,-234.23 1035.51,-235.46 1059,-210.18 1084.79,-182.42 1083.26,-68.78 1059,-39.67 1049.02,-27.71 1009.39,-22.58 979.64,-20.4"/>
<polygon fill="#000000" fill-opacity="0.200000" stroke="#000000" stroke-opacity="0.200000" points="979.95,-18.31 973.83,-20 979.67,-22.5 979.95,-18.31"/>
</g>
<!-- app/infrastructure/mongodb -->
<g id="node5" class="node">
<title>app/infrastructure/mongodb</title>
<g id="a_node5"><a xlink:href="app/infrastructure/mongodb" xlink:title="mongodb">
<polygon fill="#ffffcc" stroke="black" points="449.5,-158.68 396.47,-158.68 394.5,-156.7 394.5,-140.93 447.53,-140.93 449.5,-142.9 449.5,-158.68"/>
<polyline fill="none" stroke="black" points="447.53,-156.7 394.5,-156.7"/>
<polyline fill="none" stroke="black" points="447.53,-156.7 447.53,-140.93"/>
<polyline fill="none" stroke="black" points="447.53,-156.7 449.5,-158.68"/>
<text text-anchor="start" x="402.5" y="-146.12" font-family="Helvetica,sans-Serif" font-size="9.00">mongodb</text>
</a>
</g>
</g>
<!-- app/api&#45;v2&#45;&gt;app/infrastructure/mongodb -->
<g id="edge2" class="edge">
<title>app/api&#45;v2&#45;&gt;app/infrastructure/mongodb</title>
<path fill="none" stroke="#000000" stroke-width="2" stroke-opacity="0.200000" d="M733.9,-232.95C733.57,-229.97 732.2,-221.67 727,-218.18 701.92,-201.29 480.83,-225.89 455,-210.18 439.63,-200.82 430.86,-181.53 426.28,-167.46"/>
<polygon fill="#000000" fill-opacity="0.200000" stroke="#000000" stroke-width="2" stroke-opacity="0.200000" points="428.39,-167.21 424.7,-162.04 424.36,-168.39 428.39,-167.21"/>
</g>
<!-- app/lib/auth0 -->
<g id="node6" class="node">
<title>app/lib/auth0</title>
<g id="a_node6"><a xlink:href="app/lib/auth0" xlink:title="auth0">
<polygon fill="#ffffcc" stroke="black" points="543,-158.68 490.97,-158.68 489,-156.7 489,-140.93 541.03,-140.93 543,-142.9 543,-158.68"/>
<polyline fill="none" stroke="black" points="541.03,-156.7 489,-156.7"/>
<polyline fill="none" stroke="black" points="541.03,-156.7 541.03,-140.93"/>
<polyline fill="none" stroke="black" points="541.03,-156.7 543,-158.68"/>
<text text-anchor="start" x="504.38" y="-146.12" font-family="Helvetica,sans-Serif" font-size="9.00">auth0</text>
</a>
</g>
</g>
<!-- app/api&#45;v2&#45;&gt;app/lib/auth0 -->
<g id="edge3" class="edge">
<title>app/api&#45;v2&#45;&gt;app/lib/auth0</title>
<path fill="none" stroke="#000000" stroke-width="2" stroke-opacity="0.200000" d="M733.9,-232.96C733.56,-229.98 732.17,-221.71 727,-218.18 694.33,-195.81 582.67,-231.01 549,-210.18 533.7,-200.71 524.91,-181.43 520.31,-167.41"/>
<polygon fill="#000000" fill-opacity="0.200000" stroke="#000000" stroke-width="2" stroke-opacity="0.200000" points="522.43,-167.17 518.72,-162 518.4,-168.35 522.43,-167.17"/>
</g>
<!-- app/lib -->
<!-- app/api&#45;v2&#45;&gt;app/lib -->
<g id="edge4" class="edge">
<title>app/api&#45;v2&#45;&gt;app/lib</title>
<path fill="none" stroke="#000000" stroke-width="2" stroke-opacity="0.200000" d="M735.54,-233.64C741.55,-231.94 763.58,-224.88 773,-210.18 782.67,-195.07 782.47,-173.31 781.33,-160.76"/>
<polygon fill="#000000" fill-opacity="0.200000" stroke="#000000" stroke-width="2" stroke-opacity="0.200000" points="783.44,-160.75 780.61,-155.06 779.28,-161.28 783.44,-160.75"/>
</g>
<!-- app/models -->
<g id="node9" class="node">
<title>app/models</title>
<g id="a_node9"><a xlink:href="app/models" xlink:title="models">
<polygon fill="#ffffcc" stroke="orange" points="144,-91.17 91.97,-91.17 90,-89.2 90,-73.42 142.03,-73.42 144,-75.4 144,-91.17"/>
<polyline fill="none" stroke="orange" points="142.03,-89.2 90,-89.2"/>
<polyline fill="none" stroke="orange" points="142.03,-89.2 142.03,-73.42"/>
<polyline fill="none" stroke="orange" points="142.03,-89.2 144,-91.17"/>
<text text-anchor="start" x="102" y="-78.62" font-family="Helvetica,sans-Serif" font-size="9.00" fill="orange">models</text>
</a>
</g>
</g>
<!-- app/infrastructure/mongodb&#45;&gt;app/models -->
<g id="edge36" class="edge">
<title>app/infrastructure/mongodb&#45;&gt;app/models</title>
<path fill="none" stroke="#000000" stroke-width="2" stroke-opacity="0.200000" d="M411.2,-140.51C403.3,-134.96 392.08,-128.12 381,-124.93 356.22,-117.77 172.53,-127.5 149,-116.92 140.25,-113 132.73,-105.46 127.17,-98.51"/>
<polygon fill="#000000" fill-opacity="0.200000" stroke="#000000" stroke-width="2" stroke-opacity="0.200000" points="128.99,-97.44 123.75,-93.85 125.61,-99.93 128.99,-97.44"/>
</g>
<!-- app/domain/user -->
<g id="node21" class="node">
<title>app/domain/user</title>
<g id="a_node21"><a xlink:href="app/domain/user" xlink:title="user">
<polygon fill="#ffffcc" stroke="black" points="464,-91.17 411.97,-91.17 410,-89.2 410,-73.42 462.03,-73.42 464,-75.4 464,-91.17"/>
<polyline fill="none" stroke="black" points="462.03,-89.2 410,-89.2"/>
<polyline fill="none" stroke="black" points="462.03,-89.2 462.03,-73.42"/>
<polyline fill="none" stroke="black" points="462.03,-89.2 464,-91.17"/>
<text text-anchor="start" x="428" y="-78.62" font-family="Helvetica,sans-Serif" font-size="9.00">user</text>
</a>
</g>
</g>
<!-- app/infrastructure/mongodb&#45;&gt;app/domain/user -->
<g id="edge35" class="edge">
<title>app/infrastructure/mongodb&#45;&gt;app/domain/user</title>
<path fill="none" stroke="#000000" stroke-width="2" stroke-opacity="0.200000" d="M423.9,-140.5C426.23,-130.31 430.25,-112.77 433.22,-99.8"/>
<polygon fill="#000000" fill-opacity="0.200000" stroke="#000000" stroke-width="2" stroke-opacity="0.200000" points="435.19,-100.59 434.49,-94.27 431.1,-99.65 435.19,-100.59"/>
</g>
<!-- app/api&#45;v2/provisional&#45;features -->
<g id="node8" class="node">
<title>app/api&#45;v2/provisional&#45;features</title>
<g id="a_node8"><a xlink:href="app/api-v2/provisional-features" xlink:title="provisional&#45;features">
<polygon fill="#ffffcc" stroke="black" points="720.5,-243.93 625.47,-243.93 623.5,-241.95 623.5,-226.18 718.53,-226.18 720.5,-228.15 720.5,-243.93"/>
<polyline fill="none" stroke="black" points="718.53,-241.95 623.5,-241.95"/>
<polyline fill="none" stroke="black" points="718.53,-241.95 718.53,-226.18"/>
<polyline fill="none" stroke="black" points="718.53,-241.95 720.5,-243.93"/>
<text text-anchor="start" x="631.5" y="-231.38" font-family="Helvetica,sans-Serif" font-size="9.00">provisional&#45;features</text>
</a>
</g>
</g>
<!-- app/api&#45;v2/provisional&#45;features&#45;&gt;app/models -->
<g id="edge6" class="edge">
<title>app/api&#45;v2/provisional&#45;features&#45;&gt;app/models</title>
<path fill="none" stroke="#000000" stroke-width="2" stroke-opacity="0.200000" d="M623.1,-231.08C565.29,-227.64 466.17,-221.97 381,-218.18 368.12,-217.6 158.73,-218.64 149,-210.18 119.96,-184.94 144.67,-161.89 134,-124.93 131.51,-116.3 127.83,-107.02 124.53,-99.42"/>
<polygon fill="#000000" fill-opacity="0.200000" stroke="#000000" stroke-width="2" stroke-opacity="0.200000" points="126.54,-98.78 122.16,-94.17 122.71,-100.5 126.54,-98.78"/>
</g>
<!-- app/models&#45;&gt;. -->
<g id="edge43" class="edge">
<title>app/models&#45;&gt;.</title>
<path fill="none" stroke="#000000" stroke-dasharray="5,2" stroke-opacity="0.200000" d="M130.86,-72.93C136.32,-70.04 142.77,-67.1 149,-65.42 159.4,-62.62 525.24,-40.3 536,-39.67 653.72,-32.87 683.24,-32.78 801,-26.68 838.3,-24.74 881.02,-22.39 910.18,-20.76"/>
<polygon fill="#000000" fill-opacity="0.200000" stroke="#000000" stroke-opacity="0.200000" points="910.28,-22.86 916.15,-20.43 910.05,-18.66 910.28,-22.86"/>
</g>
<!-- app/models&#45;&gt;app -->
<g id="edge44" class="edge">
<title>app/models&#45;&gt;app</title>
<path fill="none" stroke="#000000" stroke-width="2" stroke-opacity="0.200000" d="M112.72,-72.94C108.8,-63.99 104.51,-49.74 111,-39.67 118.76,-27.64 135.33,-22.46 146.32,-20.29"/>
<polygon fill="#000000" fill-opacity="0.200000" stroke="#000000" stroke-width="2" stroke-opacity="0.200000" points="146.54,-22.39 152.15,-19.41 145.91,-18.23 146.54,-22.39"/>
</g>
<!-- app/models&#45;&gt;app/lib/auth0 -->
<g id="edge47" class="edge">
<title>app/models&#45;&gt;app/lib/auth0</title>
<path fill="none" stroke="#000000" stroke-width="2" stroke-opacity="0.200000" d="M121.95,-91.43C127.42,-99.57 137.07,-111.63 149,-116.92 182.23,-131.66 441.08,-114.84 476,-124.93 483.82,-127.18 491.67,-131.36 498.32,-135.59"/>
<polygon fill="#000000" fill-opacity="0.200000" stroke="#000000" stroke-width="2" stroke-opacity="0.200000" points="496.86,-137.13 503,-138.77 499.22,-133.66 496.86,-137.13"/>
</g>
<!-- app/templates -->
<g id="node11" class="node">
<title>app/templates</title>
<g id="a_node11"><a xlink:href="app/templates" xlink:title="templates">
<polygon fill="#ffffcc" stroke="black" points="238.88,-57.42 185.1,-57.42 183.12,-55.45 183.12,-39.67 236.9,-39.67 238.88,-41.65 238.88,-57.42"/>
<polyline fill="none" stroke="black" points="236.9,-55.45 183.12,-55.45"/>
<polyline fill="none" stroke="black" points="236.9,-55.45 236.9,-39.67"/>
<polyline fill="none" stroke="black" points="236.9,-55.45 238.88,-57.42"/>
<text text-anchor="start" x="191.12" y="-44.88" font-family="Helvetica,sans-Serif" font-size="9.00">templates</text>
</a>
</g>
</g>
<!-- app/models&#45;&gt;app/templates -->
<g id="edge45" class="edge">
<title>app/models&#45;&gt;app/templates</title>
<g id="a_edge45"><a xlink:title="no&#45;circular">
<path fill="none" stroke="orange" stroke-width="2" d="M126.35,-73.04C131.28,-70.36 137.3,-67.54 143,-65.42 147.35,-63.81 155.45,-61.56 164.61,-59.26"/>
<polygon fill="orange" stroke="orange" stroke-width="2" points="174.51,-59.07 179.86,-55.63 173.54,-54.98 174.51,-59.07"/>
<polyline fill="none" stroke="orange" stroke-width="2" points="173.05,-57.25 170.14,-57.95"/>
<ellipse fill="none" stroke="orange" stroke-width="2" cx="166.83" cy="-58.73" rx="2.4" ry="2.4"/>
</a>
</g>
<text text-anchor="middle" x="132.4" y="-63.2" font-family="Helvetica,sans-Serif" font-size="9.00" fill="orange">no&#45;circular</text>
</g>
<!-- app/features -->
<g id="node22" class="node">
<title>app/features</title>
<g id="a_node22"><a xlink:href="app/features" xlink:title="features">
<polygon fill="#ffffcc" stroke="black" points="171,-57.42 118.97,-57.42 117,-55.45 117,-39.67 169.03,-39.67 171,-41.65 171,-57.42"/>
<polyline fill="none" stroke="black" points="169.03,-55.45 117,-55.45"/>
<polyline fill="none" stroke="black" points="169.03,-55.45 169.03,-39.67"/>
<polyline fill="none" stroke="black" points="169.03,-55.45 171,-57.42"/>
<text text-anchor="start" x="127.5" y="-44.88" font-family="Helvetica,sans-Serif" font-size="9.00">features</text>
</a>
</g>
</g>
<!-- app/models&#45;&gt;app/features -->
<g id="edge46" class="edge">
<title>app/models&#45;&gt;app/features</title>
<path fill="none" stroke="#000000" stroke-width="2" stroke-opacity="0.200000" d="M124.09,-72.96C126.34,-70.31 128.9,-67.3 131.42,-64.34"/>
<polygon fill="#000000" fill-opacity="0.200000" stroke="#000000" stroke-width="2" stroke-opacity="0.200000" points="132.8,-65.96 135.09,-60.03 129.6,-63.24 132.8,-65.96"/>
</g>
<!-- app/controllers -->
<!-- app/controllers&#45;&gt;. -->
<g id="edge10" class="edge">
<title>app/controllers&#45;&gt;.</title>
<path fill="none" stroke="#000000" stroke-dasharray="5,2" stroke-opacity="0.200000" d="M268.63,-81.02C278.93,-79.29 336.05,-69.83 383,-65.42 452.12,-58.93 469.87,-63.8 539,-57.42 598.38,-51.95 612.69,-45.9 672,-39.67 757.61,-30.7 858.71,-23.97 910.55,-20.81"/>
<polygon fill="#000000" fill-opacity="0.200000" stroke="#000000" stroke-opacity="0.200000" points="910.46,-22.92 916.32,-20.46 910.2,-18.73 910.46,-22.92"/>
</g>
<!-- app/controllers&#45;&gt;app -->
<g id="edge9" class="edge">
<title>app/controllers&#45;&gt;app</title>
<path fill="none" stroke="#000000" stroke-width="2" stroke-opacity="0.200000" d="M267.1,-80.05C267.46,-74.43 268.13,-51.21 256,-39.67 243.32,-27.62 190.4,-21.68 167.56,-19.64"/>
<polygon fill="#000000" fill-opacity="0.200000" stroke="#000000" stroke-width="2" stroke-opacity="0.200000" points="167.91,-17.57 161.75,-19.17 167.56,-21.75 167.91,-17.57"/>
</g>
<!-- app/controllers&#45;&gt;app/models -->
<g id="edge7" class="edge">
<title>app/controllers&#45;&gt;app/models</title>
<path fill="none" stroke="#000000" stroke-width="2" stroke-opacity="0.200000" d="M265.08,-82.3C227.79,-82.3 190.5,-82.3 153.21,-82.3"/>
<polygon fill="#000000" fill-opacity="0.200000" stroke="#000000" stroke-width="2" stroke-opacity="0.200000" points="153.27,-80.2 147.27,-82.3 153.27,-84.4 153.27,-80.2"/>
</g>
<!-- app/controllers&#45;&gt;app/templates -->
<g id="edge8" class="edge">
<title>app/controllers&#45;&gt;app/templates</title>
<path fill="none" stroke="#000000" stroke-width="2" stroke-opacity="0.200000" d="M266.92,-80.28C266.63,-77.49 265.45,-69.64 261,-65.42 257.19,-61.81 252.56,-59.02 247.67,-56.87"/>
<polygon fill="#000000" fill-opacity="0.200000" stroke="#000000" stroke-width="2" stroke-opacity="0.200000" points="248.5,-54.94 242.14,-54.85 247.06,-58.88 248.5,-54.94"/>
</g>
<!-- app/templates&#45;&gt;. -->
<g id="edge49" class="edge">
<title>app/templates&#45;&gt;.</title>
<path fill="none" stroke="#000000" stroke-dasharray="5,2" stroke-opacity="0.200000" d="M239.15,-44.7C257.35,-42.97 281.55,-40.87 303,-39.67 524.06,-27.34 579.77,-35.61 801,-26.68 838.32,-25.17 881.04,-22.74 910.2,-20.98"/>
<polygon fill="#000000" fill-opacity="0.200000" stroke="#000000" stroke-opacity="0.200000" points="910.3,-23.08 916.16,-20.62 910.05,-18.89 910.3,-23.08"/>
</g>
<!-- app/templates&#45;&gt;app -->
<g id="edge50" class="edge">
<title>app/templates&#45;&gt;app</title>
<path fill="none" stroke="#000000" stroke-width="2" stroke-opacity="0.200000" d="M195.38,-39.23C185.85,-34.16 174.01,-27.85 166.02,-23.6"/>
<polygon fill="#000000" fill-opacity="0.200000" stroke="#000000" stroke-width="2" stroke-opacity="0.200000" points="167.21,-21.85 160.92,-20.89 165.23,-25.56 167.21,-21.85"/>
</g>
<!-- app/templates&#45;&gt;app/models -->
<g id="edge48" class="edge">
<title>app/templates&#45;&gt;app/models</title>
<path fill="none" stroke="#000000" stroke-width="2" stroke-opacity="0.200000" d="M182.71,-57.57C171.66,-60.42 160.42,-63.41 155,-65.42 151.97,-66.55 148.85,-67.87 145.75,-69.27"/>
<polygon fill="#000000" fill-opacity="0.200000" stroke="#000000" stroke-width="2" stroke-opacity="0.200000" points="144.97,-67.32 140.42,-71.76 146.74,-71.12 144.97,-67.32"/>
</g>
<!-- app/controllers/admin -->
<!-- app/controllers/admin&#45;&gt;. -->
<g id="edge14" class="edge">
<title>app/controllers/admin&#45;&gt;.</title>
<path fill="none" stroke="#000000" stroke-dasharray="5,2" stroke-opacity="0.200000" d="M298.02,-232.96C298.16,-229.97 298.98,-221.69 304,-218.18 320,-206.98 993.27,-224.06 1007,-210.18 1033.64,-183.23 1029.11,-70.45 1007,-39.67 1000.59,-30.76 990.18,-25.6 979.7,-22.63"/>
<polygon fill="#000000" fill-opacity="0.200000" stroke="#000000" stroke-opacity="0.200000" points="980.28,-20.61 973.96,-21.26 979.31,-24.69 980.28,-20.61"/>
</g>
<!-- app/controllers/admin&#45;&gt;app -->
<g id="edge13" class="edge">
<title>app/controllers/admin&#45;&gt;app</title>
<path fill="none" stroke="#000000" stroke-width="2" stroke-opacity="0.200000" d="M297.83,-232.95C297.31,-229.95 295.4,-221.64 290,-218.18 269.5,-205.03 87.99,-227.61 71,-210.18 44.55,-183.04 47.97,-68.12 73,-39.67 82.63,-28.74 125.88,-22.39 146.28,-19.96"/>
<polygon fill="#000000" fill-opacity="0.200000" stroke="#000000" stroke-width="2" stroke-opacity="0.200000" points="146.48,-22.05 152.22,-19.3 146.02,-17.87 146.48,-22.05"/>
</g>
<!-- app/controllers/admin&#45;&gt;app/models -->
<g id="edge11" class="edge">
<title>app/controllers/admin&#45;&gt;app/models</title>
<path fill="none" stroke="#000000" stroke-width="2" stroke-opacity="0.200000" d="M297.83,-232.95C297.3,-229.97 295.38,-221.67 290,-218.18 274.61,-208.17 138.07,-223.06 125,-210.18 95.75,-181.35 104.79,-127.4 111.92,-100.08"/>
<polygon fill="#000000" fill-opacity="0.200000" stroke="#000000" stroke-width="2" stroke-opacity="0.200000" points="113.88,-100.87 113.47,-94.52 109.83,-99.74 113.88,-100.87"/>
</g>
<!-- app/controllers/admin&#45;&gt;app/templates -->
<g id="edge12" class="edge">
<title>app/controllers/admin&#45;&gt;app/templates</title>
<path fill="none" stroke="#000000" stroke-width="2" stroke-opacity="0.200000" d="M297.83,-232.95C297.3,-229.96 295.39,-221.66 290,-218.18 272.43,-206.84 117.84,-223.82 102,-210.18 77.45,-189.01 62.08,-89.31 84,-65.42 90.11,-58.77 148.37,-58.87 173.93,-57.25"/>
<polygon fill="#000000" fill-opacity="0.200000" stroke="#000000" stroke-width="2" stroke-opacity="0.200000" points="174.08,-59.35 179.85,-56.68 173.67,-55.17 174.08,-59.35"/>
</g>
<!-- app/controllers/admin/tests -->
<g id="node13" class="node">
<title>app/controllers/admin/tests</title>
<g id="a_node13"><a xlink:href="app/controllers/admin/tests" xlink:title="tests">
<polygon fill="#ffffcc" stroke="black" points="284,-243.93 231.97,-243.93 230,-241.95 230,-226.18 282.03,-226.18 284,-228.15 284,-243.93"/>
<polyline fill="none" stroke="black" points="282.03,-241.95 230,-241.95"/>
<polyline fill="none" stroke="black" points="282.03,-241.95 282.03,-226.18"/>
<polyline fill="none" stroke="black" points="282.03,-241.95 284,-243.93"/>
<text text-anchor="start" x="247.62" y="-231.38" font-family="Helvetica,sans-Serif" font-size="9.00">tests</text>
</a>
</g>
</g>
<!-- app/controllers/admin/tests&#45;&gt;. -->
<g id="edge17" class="edge">
<title>app/controllers/admin/tests&#45;&gt;.</title>
<path fill="none" stroke="#000000" stroke-dasharray="5,2" stroke-opacity="0.200000" d="M270.96,-225.68C276.66,-222.71 283.44,-219.73 290,-218.18 344.4,-205.32 738.83,-223.96 793,-210.18 879.55,-188.15 924.77,-193.34 971,-116.92 988.78,-87.54 984.44,-70.35 969,-39.67 967.6,-36.9 965.66,-34.34 963.48,-32.03"/>
<polygon fill="#000000" fill-opacity="0.200000" stroke="#000000" stroke-opacity="0.200000" points="965.07,-30.63 959.23,-28.13 962.24,-33.73 965.07,-30.63"/>
</g>
<!-- app/controllers/admin/tests&#45;&gt;app -->
<g id="edge16" class="edge">
<title>app/controllers/admin/tests&#45;&gt;app</title>
<path fill="none" stroke="#000000" stroke-width="2" stroke-opacity="0.200000" d="M243.92,-225.78C238.57,-222.83 232.19,-219.82 226,-218.18 207.62,-213.28 68.85,-223.21 55,-210.18 -0.26,-158.14 -3.51,-98.06 45,-39.67 57.82,-24.24 120.69,-20.16 146.21,-19.13"/>
<polygon fill="#000000" fill-opacity="0.200000" stroke="#000000" stroke-width="2" stroke-opacity="0.200000" points="146.03,-21.24 151.96,-18.94 145.9,-17.04 146.03,-21.24"/>
</g>
<!-- app/controllers/admin/tests&#45;&gt;app/models -->
<g id="edge15" class="edge">
<title>app/controllers/admin/tests&#45;&gt;app/models</title>
<path fill="none" stroke="#000000" stroke-width="2" stroke-opacity="0.200000" d="M243.6,-225.69C238.31,-222.8 232.06,-219.86 226,-218.18 213.66,-214.74 119.74,-219.54 111,-210.18 82.89,-180.04 99.02,-126.29 109.78,-99.46"/>
<polygon fill="#000000" fill-opacity="0.200000" stroke="#000000" stroke-width="2" stroke-opacity="0.200000" points="111.57,-100.61 111.97,-94.26 107.7,-98.97 111.57,-100.61"/>
</g>
<!-- app/controllers/api -->
<g id="node14" class="node">
<title>app/controllers/api</title>
<g id="a_node14"><a xlink:href="app/controllers/api" xlink:title="api">
<polygon fill="#ffffcc" stroke="black" points="294,-158.68 241.97,-158.68 240,-156.7 240,-140.93 292.03,-140.93 294,-142.9 294,-158.68"/>
<polyline fill="none" stroke="black" points="292.03,-156.7 240,-156.7"/>
<polyline fill="none" stroke="black" points="292.03,-156.7 292.03,-140.93"/>
<polyline fill="none" stroke="black" points="292.03,-156.7 294,-158.68"/>
<text text-anchor="start" x="260.62" y="-146.12" font-family="Helvetica,sans-Serif" font-size="9.00">api</text>
</a>
</g>
</g>
<!-- app/controllers/api&#45;&gt;. -->
<g id="edge22" class="edge">
<title>app/controllers/api&#45;&gt;.</title>
<path fill="none" stroke="#000000" stroke-dasharray="5,2" stroke-opacity="0.200000" d="M294.5,-142.2C317.9,-136.81 352.48,-129.38 383,-124.93 423.61,-119 434.48,-123.44 475,-116.92 573.29,-101.13 595.77,-86.84 693,-65.42 748.82,-53.13 762.8,-50.07 819,-39.67 849.96,-33.95 885.33,-28.15 910.71,-24.13"/>
<polygon fill="#000000" fill-opacity="0.200000" stroke="#000000" stroke-opacity="0.200000" points="910.82,-26.23 916.42,-23.22 910.16,-22.09 910.82,-26.23"/>
</g>
<!-- app/controllers/api&#45;&gt;app -->
<g id="edge19" class="edge">
<title>app/controllers/api&#45;&gt;app</title>
<path fill="none" stroke="#000000" stroke-width="2" stroke-opacity="0.200000" d="M264.74,-140.45C263.05,-134.04 260.73,-124.96 259,-116.92 251.64,-82.82 269,-65 245,-39.67 234.43,-28.52 188.57,-22.22 167.57,-19.87"/>
<polygon fill="#000000" fill-opacity="0.200000" stroke="#000000" stroke-width="2" stroke-opacity="0.200000" points="168.04,-17.81 161.86,-19.28 167.61,-21.99 168.04,-17.81"/>
</g>
<!-- app/controllers/api&#45;&gt;app/models -->
<g id="edge18" class="edge">
<title>app/controllers/api&#45;&gt;app/models</title>
<path fill="none" stroke="#000000" stroke-width="2" stroke-opacity="0.200000" d="M258.87,-140.44C253.05,-135.02 244.73,-128.35 236,-124.93 199.85,-110.74 183.95,-133.85 149,-116.92 140.48,-112.8 133.04,-105.38 127.48,-98.55"/>
<polygon fill="#000000" fill-opacity="0.200000" stroke="#000000" stroke-width="2" stroke-opacity="0.200000" points="129.33,-97.52 124.05,-93.99 125.98,-100.05 129.33,-97.52"/>
</g>
<!-- app/controllers/api&#45;&gt;app/controllers -->
<g id="edge21" class="edge">
<title>app/controllers/api&#45;&gt;app/controllers</title>
<path fill="none" stroke="#000000" stroke-width="2" stroke-opacity="0.200000" d="M267,-140.5C267,-128.4 267,-105.94 267,-93.06"/>
<polygon fill="#000000" fill-opacity="0.200000" stroke="#000000" stroke-width="2" stroke-opacity="0.200000" points="269.1,-93.32 267,-87.32 264.9,-93.32 269.1,-93.32"/>
</g>
<!-- app/controllers/api&#45;&gt;app/templates -->
<g id="edge20" class="edge">
<title>app/controllers/api&#45;&gt;app/templates</title>
<path fill="none" stroke="#000000" stroke-width="2" stroke-opacity="0.200000" d="M261.92,-140.46C258.04,-134.06 252.61,-124.98 248,-116.92 238.01,-99.47 226.96,-79.21 219.56,-65.51"/>
<polygon fill="#000000" fill-opacity="0.200000" stroke="#000000" stroke-width="2" stroke-opacity="0.200000" points="221.59,-64.85 216.9,-60.57 217.89,-66.84 221.59,-64.85"/>
</g>
<!-- app/lib/hypem -->
<g id="node15" class="node">
<title>app/lib/hypem</title>
<g id="a_node15"><a xlink:href="app/lib/hypem" xlink:title="hypem">
<polygon fill="#ffffcc" stroke="black" points="609,-158.68 556.97,-158.68 555,-156.7 555,-140.93 607.03,-140.93 609,-142.9 609,-158.68"/>
<polyline fill="none" stroke="black" points="607.03,-156.7 555,-156.7"/>
<polyline fill="none" stroke="black" points="607.03,-156.7 607.03,-140.93"/>
<polyline fill="none" stroke="black" points="607.03,-156.7 609,-158.68"/>
<text text-anchor="start" x="568.12" y="-146.12" font-family="Helvetica,sans-Serif" font-size="9.00">hypem</text>
</a>
</g>
</g>
<!-- app/controllers/api&#45;&gt;app/lib/hypem -->
<g id="edge23" class="edge">
<title>app/controllers/api&#45;&gt;app/lib/hypem</title>
<path fill="none" stroke="#000000" stroke-width="2" stroke-opacity="0.200000" d="M279.34,-158.96C300.47,-174.02 345.53,-203.41 389,-214.18 405.61,-218.29 526.62,-219.13 543,-214.18 563.05,-208.1 573.28,-184.39 578.13,-167.51"/>
<polygon fill="#000000" fill-opacity="0.200000" stroke="#000000" stroke-width="2" stroke-opacity="0.200000" points="580.11,-168.26 579.55,-161.93 576.04,-167.23 580.11,-168.26"/>
</g>
<!-- app/lib/hypem&#45;&gt;.. -->
<g id="edge37" class="edge">
<title>app/lib/hypem&#45;&gt;..</title>
<g id="a_edge37"><a xlink:title="not&#45;to&#45;unresolvable">
<path fill="none" stroke="red" stroke-width="2" d="M590.42,-140.51C596.64,-134.96 605.63,-128.12 615,-124.93 641.41,-115.91 840.45,-128.13 866,-116.92 874.91,-113.02 882.67,-105.48 888.42,-98.53"/>
<polygon fill="red" stroke="red" stroke-width="2" points="890.03,-99.87 891.99,-93.83 886.69,-97.33 890.03,-99.87"/>
</a>
</g>
<text text-anchor="middle" x="702.39" y="-122.96" font-family="Helvetica,sans-Serif" font-size="9.00" fill="red">not&#45;to&#45;unresolvable</text>
</g>
<!-- app/controllers/private -->
<g id="node16" class="node">
<title>app/controllers/private</title>
<g id="a_node16"><a xlink:href="app/controllers/private" xlink:title="private">
<polygon fill="#ffffcc" stroke="black" points="370,-243.93 317.97,-243.93 316,-241.95 316,-226.18 368.03,-226.18 370,-228.15 370,-243.93"/>
<polyline fill="none" stroke="black" points="368.03,-241.95 316,-241.95"/>
<polyline fill="none" stroke="black" points="368.03,-241.95 368.03,-226.18"/>
<polyline fill="none" stroke="black" points="368.03,-241.95 370,-243.93"/>
<text text-anchor="start" x="329.12" y="-231.38" font-family="Helvetica,sans-Serif" font-size="9.00">private</text>
</a>
</g>
</g>
<!-- app/controllers/private&#45;&gt;. -->
<g id="edge30" class="edge">
<title>app/controllers/private&#45;&gt;.</title>
<path fill="none" stroke="#000000" stroke-dasharray="5,2" stroke-opacity="0.200000" d="M370.48,-232.06C419.13,-228.63 523.65,-221.62 612,-218.18 623.69,-217.72 1024.81,-218.52 1033,-210.18 1059.54,-183.13 1056.5,-69.4 1033,-39.67 1026.26,-31.15 1001.1,-25.75 979.4,-22.57"/>
<polygon fill="#000000" fill-opacity="0.200000" stroke="#000000" stroke-opacity="0.200000" points="979.94,-20.53 973.71,-21.79 979.36,-24.69 979.94,-20.53"/>
</g>
<!-- app/controllers/private&#45;&gt;app -->
<g id="edge27" class="edge">
<title>app/controllers/private&#45;&gt;app</title>
<path fill="none" stroke="#000000" stroke-width="2" stroke-opacity="0.200000" d="M329.47,-225.77C323.95,-222.81 317.37,-219.81 311,-218.18 290.32,-212.87 136.29,-222.7 119,-210.18 65.39,-171.36 61.8,-127.78 84,-65.42 93.52,-38.7 128.66,-26.04 146.48,-21.23"/>
<polygon fill="#000000" fill-opacity="0.200000" stroke="#000000" stroke-width="2" stroke-opacity="0.200000" points="146.96,-23.28 152.31,-19.84 145.99,-19.19 146.96,-23.28"/>
</g>
<!-- app/controllers/private&#45;&gt;app/models -->
<g id="edge24" class="edge">
<title>app/controllers/private&#45;&gt;app/models</title>
<path fill="none" stroke="#000000" stroke-width="2" stroke-opacity="0.200000" d="M329.47,-225.78C323.94,-222.83 317.36,-219.82 311,-218.18 292.48,-213.38 153.35,-222.83 139,-210.18 130.83,-202.97 122.35,-133.24 118.77,-100.33"/>
<polygon fill="#000000" fill-opacity="0.200000" stroke="#000000" stroke-width="2" stroke-opacity="0.200000" points="120.86,-100.16 118.14,-94.42 116.69,-100.61 120.86,-100.16"/>
</g>
<!-- app/controllers/private&#45;&gt;app/controllers -->
<g id="edge28" class="edge">
<title>app/controllers/private&#45;&gt;app/controllers</title>
<path fill="none" stroke="#000000" stroke-width="2" stroke-opacity="0.200000" d="M340.65,-225.73C335.14,-206.97 320.34,-160.21 300,-124.93 292.51,-111.92 281.2,-98.63 273.96,-90.67"/>
<polygon fill="#000000" fill-opacity="0.200000" stroke="#000000" stroke-width="2" stroke-opacity="0.200000" points="275.64,-89.39 270.01,-86.46 272.58,-92.27 275.64,-89.39"/>
</g>
<!-- app/controllers/private&#45;&gt;app/templates -->
<g id="edge25" class="edge">
<title>app/controllers/private&#45;&gt;app/templates</title>
<path fill="none" stroke="#000000" stroke-width="2" stroke-opacity="0.200000" d="M329.1,-225.8C323.64,-222.93 317.19,-219.97 311,-218.18 294.48,-213.39 246.44,-222.06 234,-210.18 194.33,-172.27 201.71,-99.06 207.51,-66.21"/>
<polygon fill="#000000" fill-opacity="0.200000" stroke="#000000" stroke-width="2" stroke-opacity="0.200000" points="209.5,-67 208.56,-60.71 205.37,-66.21 209.5,-67"/>
</g>
<!-- app/controllers/private&#45;&gt;app/controllers/api -->
<g id="edge26" class="edge">
<title>app/controllers/private&#45;&gt;app/controllers/api</title>
<path fill="none" stroke="#000000" stroke-width="2" stroke-opacity="0.200000" d="M335.65,-226.1C331.37,-221.47 325.87,-215.5 321,-210.18 307,-194.88 291.03,-177.31 280.11,-165.27"/>
<polygon fill="#000000" fill-opacity="0.200000" stroke="#000000" stroke-width="2" stroke-opacity="0.200000" points="281.94,-164.16 276.35,-161.12 278.83,-166.98 281.94,-164.16"/>
</g>
<!-- app/lib/my&#45;img -->
<g id="node17" class="node">
<title>app/lib/my&#45;img</title>
<g id="a_node17"><a xlink:href="app/lib/my-img" xlink:title="my&#45;img">
<polygon fill="#ffffcc" stroke="black" points="675,-158.68 622.97,-158.68 621,-156.7 621,-140.93 673.03,-140.93 675,-142.9 675,-158.68"/>
<polyline fill="none" stroke="black" points="673.03,-156.7 621,-156.7"/>
<polyline fill="none" stroke="black" points="673.03,-156.7 673.03,-140.93"/>
<polyline fill="none" stroke="black" points="673.03,-156.7 675,-158.68"/>
<text text-anchor="start" x="633" y="-146.12" font-family="Helvetica,sans-Serif" font-size="9.00">my&#45;img</text>
</a>
</g>
</g>
<!-- app/controllers/private&#45;&gt;app/lib/my&#45;img -->
<g id="edge29" class="edge">
<title>app/controllers/private&#45;&gt;app/lib/my&#45;img</title>
<path fill="none" stroke="#000000" stroke-width="2" stroke-opacity="0.200000" d="M370.07,-233.11C434.82,-230.65 594.77,-223.3 615,-210.18 629.95,-200.47 638.75,-181.54 643.45,-167.65"/>
<polygon fill="#000000" fill-opacity="0.200000" stroke="#000000" stroke-width="2" stroke-opacity="0.200000" points="645.46,-168.26 645.19,-161.91 641.44,-167.04 645.46,-168.26"/>
</g>
<!-- app/lib/my&#45;img&#45;&gt;. -->
<g id="edge42" class="edge">
<title>app/lib/my&#45;img&#45;&gt;.</title>
<path fill="none" stroke="#000000" stroke-dasharray="5,2" stroke-opacity="0.200000" d="M656.11,-140.51C662.13,-134.97 670.84,-128.13 680,-124.93 693.22,-120.3 921.61,-126.32 932,-116.92 954.93,-96.18 952.05,-56.13 948.31,-34.16"/>
<polygon fill="#000000" fill-opacity="0.200000" stroke="#000000" stroke-opacity="0.200000" points="950.41,-33.94 947.23,-28.43 946.28,-34.72 950.41,-33.94"/>
</g>
<!-- app/controllers/testing -->
<g id="node18" class="node">
<title>app/controllers/testing</title>
<g id="a_node18"><a xlink:href="app/controllers/testing" xlink:title="testing">
<polygon fill="#ffffcc" stroke="black" points="214,-243.93 161.97,-243.93 160,-241.95 160,-226.18 212.03,-226.18 214,-228.15 214,-243.93"/>
<polyline fill="none" stroke="black" points="212.03,-241.95 160,-241.95"/>
<polyline fill="none" stroke="black" points="212.03,-241.95 212.03,-226.18"/>
<polyline fill="none" stroke="black" points="212.03,-241.95 214,-243.93"/>
<text text-anchor="start" x="173.5" y="-231.38" font-family="Helvetica,sans-Serif" font-size="9.00">testing</text>
</a>
</g>
</g>
<!-- app/controllers/testing&#45;&gt;app/models -->
<g id="edge31" class="edge">
<title>app/controllers/testing&#45;&gt;app/models</title>
<path fill="none" stroke="#000000" stroke-width="2" stroke-opacity="0.200000" d="M173.58,-225.76C168.29,-222.88 162.04,-219.93 156,-218.18 137.35,-212.76 82.08,-224.52 69,-210.18 43.46,-182.18 53.27,-159.39 69,-124.93 74.33,-113.25 84.73,-103.59 94.49,-96.52"/>
<polygon fill="#000000" fill-opacity="0.200000" stroke="#000000" stroke-width="2" stroke-opacity="0.200000" points="95.42,-98.43 99.22,-93.33 93.08,-94.94 95.42,-98.43"/>
</g>
<!-- app/infrastructure -->
<!-- app/controllers/testing&#45;&gt;app/infrastructure -->
<g id="edge32" class="edge">
<title>app/controllers/testing&#45;&gt;app/infrastructure</title>
<path fill="none" stroke="#000000" stroke-width="2" stroke-opacity="0.200000" d="M200.52,-225.74C206.04,-222.78 212.63,-219.78 219,-218.18 231.77,-214.95 446.3,-219.09 456,-210.18 469.57,-197.69 467.68,-173.95 465.25,-160.58"/>
<polygon fill="#000000" fill-opacity="0.200000" stroke="#000000" stroke-width="2" stroke-opacity="0.200000" points="467.31,-160.19 463.96,-154.79 463.22,-161.11 467.31,-160.19"/>
</g>
<!-- app/infrastructure&#45;&gt;. -->
<g id="edge34" class="edge">
<title>app/infrastructure&#45;&gt;.</title>
<path fill="none" stroke="#000000" stroke-dasharray="5,2" stroke-opacity="0.200000" d="M463.31,-147.62C464.46,-143.57 468.84,-130.21 478,-124.93 498.61,-113.03 668.89,-122.61 692,-116.92 743.64,-104.22 750.58,-85.05 800,-65.42 837.2,-50.65 881.1,-37.05 910.77,-28.4"/>
<polygon fill="#000000" fill-opacity="0.200000" stroke="#000000" stroke-opacity="0.200000" points="910.99,-30.52 916.17,-26.83 909.82,-26.48 910.99,-30.52"/>
</g>
<!-- fs -->
<g id="node23" class="node">
<title>fs</title>
<g id="a_node23"><a xlink:href="https://nodejs.org/api/fs.html" xlink:title="fs">
<polygon fill="#ffffcc" stroke="grey" points="860,-91.17 807.97,-91.17 806,-89.2 806,-73.42 858.03,-73.42 860,-75.4 860,-91.17"/>
<polyline fill="none" stroke="grey" points="858.03,-89.2 806,-89.2"/>
<polyline fill="none" stroke="grey" points="858.03,-89.2 858.03,-73.42"/>
<polyline fill="none" stroke="grey" points="858.03,-89.2 860,-91.17"/>
<text text-anchor="middle" x="833" y="-78.62" font-family="Helvetica,sans-Serif" font-size="9.00" fill="grey">fs</text>
</a>
</g>
</g>
<!-- app/infrastructure&#45;&gt;fs -->
<g id="edge33" class="edge">
<title>app/infrastructure&#45;&gt;fs</title>
<path fill="none" stroke="#000000" stroke-dasharray="5,2" stroke-opacity="0.200000" d="M463.31,-147.62C464.45,-143.56 468.82,-130.17 478,-124.93 506.29,-108.78 739.54,-125.36 771,-116.92 787.17,-112.59 803.74,-103.3 815.69,-95.58"/>
<polygon fill="#000000" fill-opacity="0.200000" stroke="#000000" stroke-opacity="0.200000" points="816.72,-97.41 820.55,-92.33 814.39,-93.91 816.72,-97.41"/>
</g>
<!-- app/domain -->
<!-- app/lib/my&#45;http&#45;wrapper -->
<!-- app/lib/my&#45;http&#45;wrapper/http -->
<g id="node25" class="node">
<title>app/lib/my&#45;http&#45;wrapper/http</title>
<g id="a_node25"><a xlink:href="app/lib/my-http-wrapper/http" xlink:title="http">
<polygon fill="#ffffcc" stroke="black" points="761,-158.68 708.97,-158.68 707,-156.7 707,-140.93 759.03,-140.93 761,-142.9 761,-158.68"/>
<polyline fill="none" stroke="black" points="759.03,-156.7 707,-156.7"/>
<polyline fill="none" stroke="black" points="759.03,-156.7 759.03,-140.93"/>
<polyline fill="none" stroke="black" points="759.03,-156.7 761,-158.68"/>
<text text-anchor="start" x="726.5" y="-146.12" font-family="Helvetica,sans-Serif" font-size="9.00">http</text>
</a>
</g>
</g>
<!-- app/lib/my&#45;http&#45;wrapper/http&#45;&gt;. -->
<g id="edge41" class="edge">
<title>app/lib/my&#45;http&#45;wrapper/http&#45;&gt;.</title>
<path fill="none" stroke="#000000" stroke-dasharray="5,2" stroke-opacity="0.200000" d="M741.82,-140.54C747.63,-135.01 756.06,-128.18 765,-124.93 784.85,-117.7 940.38,-132.18 955,-116.92 976.4,-94.6 962.63,-54.95 952.66,-33.52"/>
<polygon fill="#000000" fill-opacity="0.200000" stroke="#000000" stroke-opacity="0.200000" points="954.67,-32.83 950.15,-28.36 950.89,-34.67 954.67,-32.83"/>
</g>
<!-- app/lib/my&#45;http&#45;wrapper/http&#45;&gt;app/api&#45;v2 -->
<g id="edge38" class="edge">
<title>app/lib/my&#45;http&#45;wrapper/http&#45;&gt;app/api&#45;v2</title>
<path fill="none" stroke="#000000" stroke-width="2" stroke-opacity="0.200000" d="M734,-159.15C734,-174.64 734,-207.77 734,-224.28"/>
<polygon fill="#000000" fill-opacity="0.200000" stroke="#000000" stroke-width="2" stroke-opacity="0.200000" points="731.9,-223.85 734,-229.85 736.1,-223.85 731.9,-223.85"/>
</g>
<!-- app/lib/my&#45;http&#45;wrapper/http&#45;&gt;app/api&#45;v2/provisional&#45;features -->
<g id="edge39" class="edge">
<title>app/lib/my&#45;http&#45;wrapper/http&#45;&gt;app/api&#45;v2/provisional&#45;features</title>
<path fill="none" stroke="#000000" stroke-width="2" stroke-opacity="0.200000" d="M730.59,-159.08C725.38,-171.14 714.59,-193.87 701,-210.18 698,-213.78 694.39,-217.24 690.76,-220.36"/>
<polygon fill="#000000" fill-opacity="0.200000" stroke="#000000" stroke-width="2" stroke-opacity="0.200000" points="689.62,-218.58 686.26,-223.97 692.25,-221.85 689.62,-218.58"/>
</g>
<!-- app/lib/my&#45;http&#45;wrapper/http&#45;&gt;app/controllers/admin -->
<g id="edge40" class="edge">
<title>app/lib/my&#45;http&#45;wrapper/http&#45;&gt;app/controllers/admin</title>
<path fill="none" stroke="#000000" stroke-width="2" stroke-opacity="0.200000" d="M732.16,-159.15C728.7,-172.64 719.79,-198.86 701,-210.18 682.1,-221.55 322.02,-205.45 304,-218.18 301.97,-219.61 300.62,-221.83 299.73,-224.16"/>
<polygon fill="#000000" fill-opacity="0.200000" stroke="#000000" stroke-width="2" stroke-opacity="0.200000" points="297.68,-223.7 298.6,-229.99 301.81,-224.5 297.68,-223.7"/>
</g>
<!-- app/workers -->
<g id="node26" class="node">
<title>app/workers</title>
<g id="a_node26"><a xlink:href="app/workers" xlink:title="workers">
<polygon fill="#ffffcc" stroke="black" points="370,-321.18 317.97,-321.18 316,-319.2 316,-303.43 368.03,-303.43 370,-305.4 370,-321.18"/>
<polyline fill="none" stroke="black" points="368.03,-319.2 316,-319.2"/>
<polyline fill="none" stroke="black" points="368.03,-319.2 368.03,-303.43"/>
<polyline fill="none" stroke="black" points="368.03,-319.2 370,-321.18"/>
<text text-anchor="start" x="326.88" y="-308.62" font-family="Helvetica,sans-Serif" font-size="9.00">workers</text>
</a>
</g>
</g>
<!-- app/workers&#45;&gt;. -->
<g id="edge51" class="edge">
<title>app/workers&#45;&gt;.</title>
<path fill="none" stroke="#000000" stroke-dasharray="5,2" stroke-opacity="0.200000" d="M370.38,-310.98C448.94,-309.95 674.08,-306.12 747,-295.43 915.16,-270.75 1101,-320.76 1101,-150.8 1101,-150.8 1101,-150.8 1101,-81.3 1101,-29.34 1025.51,-19.43 979.55,-18.21"/>
<polygon fill="#000000" fill-opacity="0.200000" stroke="#000000" stroke-opacity="0.200000" points="979.72,-16.11 973.69,-18.1 979.65,-20.31 979.72,-16.11"/>
</g>
<!-- app/workers&#45;&gt;app/models -->
<g id="edge53" class="edge">
<title>app/workers&#45;&gt;app/models</title>
<path fill="none" stroke="#000000" stroke-width="2" stroke-opacity="0.200000" d="M315.78,-311.14C269.68,-310.52 178.38,-307.72 149,-295.43 95.43,-273.01 74.2,-262.96 50,-210.18 34.21,-175.73 31.59,-158.04 50,-124.93 57.44,-111.54 71.16,-101.91 84.25,-95.31"/>
<polygon fill="#000000" fill-opacity="0.200000" stroke="#000000" stroke-width="2" stroke-opacity="0.200000" points="84.97,-97.29 89.52,-92.86 83.2,-93.48 84.97,-97.29"/>
</g>
<!-- app/workers&#45;&gt;app/controllers/private -->
<g id="edge52" class="edge">
<title>app/workers&#45;&gt;app/controllers/private</title>
<path fill="none" stroke="#000000" stroke-width="2" stroke-opacity="0.200000" d="M343,-302.96C343,-290.92 343,-268.4 343,-252.84"/>
<polygon fill="#000000" fill-opacity="0.200000" stroke="#000000" stroke-width="2" stroke-opacity="0.200000" points="345.1,-253.23 343,-247.23 340.9,-253.23 345.1,-253.23"/>
</g>
</g>
</svg>
