<?xml version="1.0" encoding="UTF-8" standalone="no"?>
<!DOCTYPE svg PUBLIC "-//W3C//DTD SVG 1.1//EN"
 "http://www.w3.org/Graphics/SVG/1.1/DTD/svg11.dtd">
<!-- Generated by graphviz version 8.1.0 (20230707.0739)
 -->
<!-- Title: dependency&#45;cruiser output Pages: 1 -->
<svg width="781pt" height="422pt"
 viewBox="0.00 0.00 781.48 422.43" xmlns="http://www.w3.org/2000/svg" xmlns:xlink="http://www.w3.org/1999/xlink">
<g id="graph0" class="graph" transform="scale(1 1) rotate(0) translate(4 418.43)">
<title>dependency&#45;cruiser output</title>
<polygon fill="white" stroke="none" points="-4,4 -4,-418.43 777.48,-418.43 777.48,4 -4,4"/>
<g id="clust1" class="cluster">
<title>cluster_app</title>
<path fill="#ffffff" stroke="black" stroke-width="2" d="M31.44,-8C31.44,-8 524.44,-8 524.44,-8 530.44,-8 536.44,-14 536.44,-20 536.44,-20 536.44,-394.43 536.44,-394.43 536.44,-400.43 530.44,-406.43 524.44,-406.43 524.44,-406.43 31.44,-406.43 31.44,-406.43 25.44,-406.43 19.44,-400.43 19.44,-394.43 19.44,-394.43 19.44,-20 19.44,-20 19.44,-14 25.44,-8 31.44,-8"/>
<text text-anchor="middle" x="277.94" y="-393.88" font-family="Helvetica,sans-Serif" font-weight="bold" font-size="9.00">app</text>
</g>
<g id="clust2" class="cluster">
<title>cluster_app/controllers</title>
<path fill="#ffffff" stroke="black" stroke-width="2" d="M63.44,-132C63.44,-132 265.44,-132 265.44,-132 271.44,-132 277.44,-138 277.44,-144 277.44,-144 277.44,-342.93 277.44,-342.93 277.44,-348.93 271.44,-354.93 265.44,-354.93 265.44,-354.93 63.44,-354.93 63.44,-354.93 57.44,-354.93 51.44,-348.93 51.44,-342.93 51.44,-342.93 51.44,-144 51.44,-144 51.44,-138 57.44,-132 63.44,-132"/>
<text text-anchor="start" x="141.19" y="-342.38" font-family="Helvetica,sans-Serif" font-weight="bold" font-size="9.00">controllers</text>
</g>
<g id="clust3" class="cluster">
<title>cluster_app/controllers/admin</title>
<path fill="#ffffff" stroke="black" stroke-width="2" d="M133.44,-277.68C133.44,-277.68 195.44,-277.68 195.44,-277.68 201.44,-277.68 207.44,-283.68 207.44,-289.68 207.44,-289.68 207.44,-317.18 207.44,-317.18 207.44,-323.18 201.44,-329.18 195.44,-329.18 195.44,-329.18 133.44,-329.18 133.44,-329.18 127.44,-329.18 121.44,-323.18 121.44,-317.18 121.44,-317.18 121.44,-289.68 121.44,-289.68 121.44,-283.68 127.44,-277.68 133.44,-277.68"/>
<text text-anchor="start" x="151.31" y="-316.62" font-family="Helvetica,sans-Serif" font-weight="bold" font-size="9.00">admin</text>
</g>
<g id="clust4" class="cluster">
<title>cluster_app/domain</title>
<path fill="#ffffff" stroke="black" stroke-width="2" d="M345.44,-65.42C345.44,-65.42 407.44,-65.42 407.44,-65.42 413.44,-65.42 419.44,-71.42 419.44,-77.42 419.44,-77.42 419.44,-104.92 419.44,-104.92 419.44,-110.92 413.44,-116.92 407.44,-116.92 407.44,-116.92 345.44,-116.92 345.44,-116.92 339.44,-116.92 333.44,-110.92 333.44,-104.92 333.44,-104.92 333.44,-77.42 333.44,-77.42 333.44,-71.42 339.44,-65.42 345.44,-65.42"/>
<text text-anchor="start" x="360.69" y="-104.38" font-family="Helvetica,sans-Serif" font-weight="bold" font-size="9.00">domain</text>
</g>
<g id="clust5" class="cluster">
<title>cluster_app/infrastructure</title>
<path fill="#ffffff" stroke="black" stroke-width="2" d="M335.44,-124.93C335.44,-124.93 398.44,-124.93 398.44,-124.93 404.44,-124.93 410.44,-130.93 410.44,-136.93 410.44,-136.93 410.44,-164.43 410.44,-164.43 410.44,-170.43 404.44,-176.43 398.44,-176.43 398.44,-176.43 335.44,-176.43 335.44,-176.43 329.44,-176.43 323.44,-170.43 323.44,-164.43 323.44,-164.43 323.44,-136.93 323.44,-136.93 323.44,-130.93 329.44,-124.93 335.44,-124.93"/>
<text text-anchor="start" x="337.31" y="-163.88" font-family="Helvetica,sans-Serif" font-weight="bold" font-size="9.00">infrastructure</text>
</g>
<g id="clust6" class="cluster">
<title>cluster_app/lib</title>
<path fill="#ffffff" stroke="black" stroke-width="2" d="M297.44,-184.43C297.44,-184.43 516.44,-184.43 516.44,-184.43 522.44,-184.43 528.44,-190.43 528.44,-196.43 528.44,-196.43 528.44,-257.68 528.44,-257.68 528.44,-263.68 522.44,-269.68 516.44,-269.68 516.44,-269.68 297.44,-269.68 297.44,-269.68 291.44,-269.68 285.44,-263.68 285.44,-257.68 285.44,-257.68 285.44,-196.43 285.44,-196.43 285.44,-190.43 291.44,-184.43 297.44,-184.43"/>
<text text-anchor="middle" x="406.94" y="-257.12" font-family="Helvetica,sans-Serif" font-weight="bold" font-size="9.00">lib</text>
</g>
<g id="clust7" class="cluster">
<title>cluster_app/lib/my&#45;http&#45;wrapper</title>
<path fill="#ffffff" stroke="black" stroke-width="2" d="M317.44,-192.43C317.44,-192.43 380.44,-192.43 380.44,-192.43 386.44,-192.43 392.44,-198.43 392.44,-204.43 392.44,-204.43 392.44,-231.93 392.44,-231.93 392.44,-237.93 386.44,-243.93 380.44,-243.93 380.44,-243.93 317.44,-243.93 317.44,-243.93 311.44,-243.93 305.44,-237.93 305.44,-231.93 305.44,-231.93 305.44,-204.43 305.44,-204.43 305.44,-198.43 311.44,-192.43 317.44,-192.43"/>
<text text-anchor="middle" x="348.94" y="-231.38" font-family="Helvetica,sans-Serif" font-weight="bold" font-size="9.00">my&#45;http&#45;wrapper</text>
</g>
<!-- . -->
<g id="node1" class="node">
<title>.</title>
<g id="a_node1"><a xlink:title=".">
<polygon fill="#ffffcc" stroke="grey" points="657.44,-26.68 605.41,-26.68 603.44,-24.7 603.44,-8.93 655.47,-8.93 657.44,-10.9 657.44,-26.68"/>
<polyline fill="none" stroke="grey" points="655.47,-24.7 603.44,-24.7"/>
<polyline fill="none" stroke="grey" points="655.47,-24.7 655.47,-8.93"/>
<polyline fill="none" stroke="grey" points="655.47,-24.7 657.44,-26.68"/>
<text text-anchor="middle" x="630.44" y="-14.12" font-family="Helvetica,sans-Serif" font-size="9.00" fill="grey">.</text>
</a>
</g>
</g>
<!-- .. -->
<g id="node2" class="node">
<title>..</title>
<g id="a_node2"><a xlink:title="..">
<polygon fill="#ffffcc" stroke="red" points="650.44,-150.68 598.41,-150.68 596.44,-148.7 596.44,-132.93 648.47,-132.93 650.44,-134.9 650.44,-150.68"/>
<polyline fill="none" stroke="red" points="648.47,-148.7 596.44,-148.7"/>
<polyline fill="none" stroke="red" points="648.47,-148.7 648.47,-132.93"/>
<polyline fill="none" stroke="red" points="648.47,-148.7 650.44,-150.68"/>
<text text-anchor="middle" x="623.44" y="-138.12" font-family="Helvetica,sans-Serif" font-size="9.00" fill="red">..</text>
</a>
</g>
</g>
<!-- app -->
<!-- app&#45;&gt;. -->
<g id="edge1" class="edge">
<title>app&#45;&gt;.</title>
<path fill="none" stroke="#000000" stroke-dasharray="5,2" stroke-opacity="0.200000" d="M168.7,-17.8C311.33,-17.8 453.96,-17.8 596.59,-17.8"/>
<polygon fill="#000000" fill-opacity="0.200000" stroke="#000000" stroke-opacity="0.200000" points="596.38,-19.9 602.38,-17.8 596.38,-15.7 596.38,-19.9"/>
</g>
<!-- app/controllers -->
<!-- app/controllers&#45;&gt;. -->
<g id="edge5" class="edge">
<title>app/controllers&#45;&gt;.</title>
<path fill="none" stroke="#000000" stroke-dasharray="5,2" stroke-opacity="0.200000" d="M222.83,-140.53C231.61,-138.86 280.34,-129.7 320.44,-124.93 343.02,-122.23 402.93,-128.61 422.44,-116.92 445.76,-102.96 433.52,-81.5 455.44,-65.42 490.71,-39.55 508.16,-50.92 550.44,-39.67 565.46,-35.68 582.09,-31.33 596.27,-27.64"/>
<polygon fill="#000000" fill-opacity="0.200000" stroke="#000000" stroke-opacity="0.200000" points="596.74,-29.43 602.02,-25.89 595.69,-25.36 596.74,-29.43"/>
</g>
<!-- app/controllers&#45;&gt;app -->
<g id="edge4" class="edge">
<title>app/controllers&#45;&gt;app</title>
<path fill="none" stroke="#000000" stroke-width="2" stroke-opacity="0.200000" d="M221.69,-139.67C223.56,-130.92 234.59,-73.64 210.44,-39.67 202.52,-28.54 187.07,-23.15 176.75,-20.68"/>
<polygon fill="#000000" fill-opacity="0.200000" stroke="#000000" stroke-width="2" stroke-opacity="0.200000" points="176.45,-18.1 170.17,-19.02 175.66,-22.22 176.45,-18.1"/>
</g>
<!-- app/models -->
<g id="node5" class="node">
<title>app/models</title>
<g id="a_node5"><a xlink:href="app/models" xlink:title="models">
<polygon fill="#ffffcc" stroke="orange" points="193.44,-91.17 141.41,-91.17 139.44,-89.2 139.44,-73.42 191.47,-73.42 193.44,-75.4 193.44,-91.17"/>
<polyline fill="none" stroke="orange" points="191.47,-89.2 139.44,-89.2"/>
<polyline fill="none" stroke="orange" points="191.47,-89.2 191.47,-73.42"/>
<polyline fill="none" stroke="orange" points="191.47,-89.2 193.44,-91.17"/>
<text text-anchor="start" x="151.44" y="-78.62" font-family="Helvetica,sans-Serif" font-size="9.00" fill="orange">models</text>
</a>
</g>
</g>
<!-- app/controllers&#45;&gt;app/models -->
<g id="edge2" class="edge">
<title>app/controllers&#45;&gt;app/models</title>
<path fill="none" stroke="#000000" stroke-width="2" stroke-opacity="0.200000" d="M221.19,-139.54C220.59,-136.72 218.83,-129.74 215.44,-124.93 207.65,-113.87 196.26,-103.96 186.42,-96.59"/>
<polygon fill="#000000" fill-opacity="0.200000" stroke="#000000" stroke-width="2" stroke-opacity="0.200000" points="187.39,-94.26 181.29,-92.46 184.94,-97.67 187.39,-94.26"/>
</g>
<!-- app/templates -->
<g id="node6" class="node">
<title>app/templates</title>
<g id="a_node6"><a xlink:href="app/templates" xlink:title="templates">
<polygon fill="#ffffcc" stroke="black" points="289.31,-57.42 235.54,-57.42 233.56,-55.45 233.56,-39.67 287.34,-39.67 289.31,-41.65 289.31,-57.42"/>
<polyline fill="none" stroke="black" points="287.34,-55.45 233.56,-55.45"/>
<polyline fill="none" stroke="black" points="287.34,-55.45 287.34,-39.67"/>
<polyline fill="none" stroke="black" points="287.34,-55.45 289.31,-57.42"/>
<text text-anchor="start" x="241.56" y="-44.88" font-family="Helvetica,sans-Serif" font-size="9.00">templates</text>
</a>
</g>
</g>
<!-- app/controllers&#45;&gt;app/templates -->
<g id="edge3" class="edge">
<title>app/controllers&#45;&gt;app/templates</title>
<path fill="none" stroke="#000000" stroke-width="2" stroke-opacity="0.200000" d="M221.75,-139.93C222.6,-137.53 225.09,-130.59 227.44,-124.93 235.98,-104.3 246.69,-80.93 253.78,-65.75"/>
<polygon fill="#000000" fill-opacity="0.200000" stroke="#000000" stroke-width="2" stroke-opacity="0.200000" points="255.84,-66.16 256.49,-59.84 252.04,-64.38 255.84,-66.16"/>
</g>
<!-- app/models&#45;&gt;. -->
<g id="edge41" class="edge">
<title>app/models&#45;&gt;.</title>
<path fill="none" stroke="#000000" stroke-dasharray="5,2" stroke-opacity="0.200000" d="M193.77,-76.61C242.18,-68.41 346.2,-51.22 434.44,-39.67 491.21,-32.25 557.5,-25.61 596.61,-21.91"/>
<polygon fill="#000000" fill-opacity="0.200000" stroke="#000000" stroke-opacity="0.200000" points="596.35,-23.95 602.12,-21.29 595.95,-19.76 596.35,-23.95"/>
</g>
<!-- app/models&#45;&gt;app -->
<g id="edge42" class="edge">
<title>app/models&#45;&gt;app</title>
<path fill="none" stroke="#000000" stroke-width="2" stroke-opacity="0.200000" d="M148.89,-72.97C142.86,-69.14 136.78,-63.97 133.44,-57.42 129.85,-50.4 129.63,-46.59 133.44,-39.67 138.3,-30.86 148.62,-25.24 156.44,-22.09"/>
<polygon fill="#000000" fill-opacity="0.200000" stroke="#000000" stroke-width="2" stroke-opacity="0.200000" points="157.79,-23.16 162.79,-19.23 156.43,-19.18 157.79,-23.16"/>
</g>
<!-- app/models&#45;&gt;app/templates -->
<g id="edge43" class="edge">
<title>app/models&#45;&gt;app/templates</title>
<g id="a_edge43"><a xlink:title="no&#45;circular">
<path fill="none" stroke="orange" stroke-width="2" d="M187.38,-72.96C198.37,-69.11 212.11,-64.49 224.77,-60.37"/>
<polygon fill="none" stroke="orange" stroke-width="2" points="226.26,-61.45 231.33,-57.62 224.97,-57.46 226.26,-61.45"/>
</a>
</g>
<text text-anchor="middle" x="232.03" y="-66.35" font-family="Helvetica,sans-Serif" font-size="9.00" fill="orange">no&#45;circular</text>
</g>
<!-- app/features -->
<g id="node17" class="node">
<title>app/features</title>
<g id="a_node17"><a xlink:href="app/features" xlink:title="features">
<polygon fill="#ffffcc" stroke="black" points="193.44,-57.42 141.41,-57.42 139.44,-55.45 139.44,-39.67 191.47,-39.67 193.44,-41.65 193.44,-57.42"/>
<polyline fill="none" stroke="black" points="191.47,-55.45 139.44,-55.45"/>
<polyline fill="none" stroke="black" points="191.47,-55.45 191.47,-39.67"/>
<polyline fill="none" stroke="black" points="191.47,-55.45 193.44,-57.42"/>
<text text-anchor="start" x="149.94" y="-44.88" font-family="Helvetica,sans-Serif" font-size="9.00">features</text>
</a>
</g>
</g>
<!-- app/models&#45;&gt;app/features -->
<g id="edge44" class="edge">
<title>app/models&#45;&gt;app/features</title>
<path fill="none" stroke="#000000" stroke-width="2" stroke-opacity="0.200000" d="M166.44,-72.96C166.44,-70.9 166.44,-68.62 166.44,-66.32"/>
<polygon fill="#000000" fill-opacity="0.200000" stroke="#000000" stroke-width="2" stroke-opacity="0.200000" points="168.54,-66.73 166.44,-60.73 164.34,-66.73 168.54,-66.73"/>
</g>
<!-- app/templates&#45;&gt;. -->
<g id="edge46" class="edge">
<title>app/templates&#45;&gt;.</title>
<path fill="none" stroke="#000000" stroke-dasharray="5,2" stroke-opacity="0.200000" d="M289.56,-43.77C300.98,-42.33 314.33,-40.78 326.44,-39.67 420.89,-31.08 444.85,-33.65 539.44,-26.68 558.29,-25.28 579.31,-23.48 596.39,-21.95"/>
<polygon fill="#000000" fill-opacity="0.200000" stroke="#000000" stroke-opacity="0.200000" points="596.19,-23.99 601.98,-21.36 595.81,-19.81 596.19,-23.99"/>
</g>
<!-- app/templates&#45;&gt;app -->
<g id="edge47" class="edge">
<title>app/templates&#45;&gt;app</title>
<path fill="none" stroke="#000000" stroke-width="2" stroke-opacity="0.200000" d="M233.96,-39.23C214.63,-33.39 189.89,-25.9 176.37,-21.81"/>
<polygon fill="#000000" fill-opacity="0.200000" stroke="#000000" stroke-width="2" stroke-opacity="0.200000" points="176.14,-18.94 169.79,-19.21 174.92,-22.96 176.14,-18.94"/>
</g>
<!-- app/templates&#45;&gt;app/models -->
<g id="edge45" class="edge">
<title>app/templates&#45;&gt;app/models</title>
<path fill="none" stroke="#000000" stroke-width="2" stroke-opacity="0.200000" d="M240.58,-57.86C229.3,-61.82 215.12,-66.59 202.16,-70.79"/>
<polygon fill="#000000" fill-opacity="0.200000" stroke="#000000" stroke-width="2" stroke-opacity="0.200000" points="200.94,-69.62 195.87,-73.45 202.22,-73.62 200.94,-69.62"/>
</g>
<!-- app/controllers/admin -->
<!-- app/controllers/admin&#45;&gt;. -->
<g id="edge9" class="edge">
<title>app/controllers/admin&#45;&gt;.</title>
<path fill="none" stroke="#000000" stroke-dasharray="5,2" stroke-opacity="0.200000" d="M197.46,-292.46C197.6,-289.48 198.43,-281.2 203.44,-277.68 226.26,-261.63 684.67,-288.29 705.44,-269.68 747.77,-231.75 721.44,-199.64 721.44,-142.8 721.44,-142.8 721.44,-142.8 721.44,-81.3 721.44,-61.48 720.11,-53 705.44,-39.67 694.26,-29.52 678.56,-24.25 664.41,-21.54"/>
<polygon fill="#000000" fill-opacity="0.200000" stroke="#000000" stroke-opacity="0.200000" points="664.87,-19.32 658.61,-20.4 664.18,-23.47 664.87,-19.32"/>
</g>
<!-- app/controllers/admin&#45;&gt;app -->
<g id="edge8" class="edge">
<title>app/controllers/admin&#45;&gt;app</title>
<path fill="none" stroke="#000000" stroke-width="2" stroke-opacity="0.200000" d="M197.26,-292.47C196.71,-289.51 194.74,-281.29 189.44,-277.68 173.58,-266.86 117.39,-282.86 103.44,-269.68 72.98,-240.89 92.56,-218.22 89.44,-176.43 84.87,-115.23 67.87,-85.71 108.44,-39.67 120.7,-25.76 142.93,-21.12 156.02,-19.57"/>
<polygon fill="#000000" fill-opacity="0.200000" stroke="#000000" stroke-width="2" stroke-opacity="0.200000" points="155.88,-21.44 161.69,-18.85 155.54,-17.26 155.88,-21.44"/>
</g>
<!-- app/controllers/admin&#45;&gt;app/models -->
<g id="edge6" class="edge">
<title>app/controllers/admin&#45;&gt;app/models</title>
<path fill="none" stroke="#000000" stroke-width="2" stroke-opacity="0.200000" d="M197.24,-292.49C196.65,-289.6 194.58,-281.52 189.44,-277.68 173.52,-265.77 158.17,-284.93 145.44,-269.68 124.83,-244.98 137.99,-156.22 145.44,-124.93 147.61,-115.79 152.13,-106.38 156.42,-98.83"/>
<polygon fill="#000000" fill-opacity="0.200000" stroke="#000000" stroke-width="2" stroke-opacity="0.200000" points="158.56,-99.68 159.86,-93.46 154.97,-97.51 158.56,-99.68"/>
</g>
<!-- app/controllers/admin&#45;&gt;app/templates -->
<g id="edge7" class="edge">
<title>app/controllers/admin&#45;&gt;app/templates</title>
<path fill="none" stroke="#000000" stroke-width="2" stroke-opacity="0.200000" d="M197.5,-292.5C197.73,-289.64 198.77,-281.64 203.44,-277.68 217.27,-265.95 231.15,-283 243.44,-269.68 269.31,-241.63 228.87,-213.61 253.44,-184.43 261.5,-174.85 272.95,-186.45 280.44,-176.43 305.22,-143.23 283.97,-91.31 270.49,-65.38"/>
<polygon fill="#000000" fill-opacity="0.200000" stroke="#000000" stroke-width="2" stroke-opacity="0.200000" points="272,-63.93 267.29,-59.66 268.31,-65.93 272,-63.93"/>
</g>
<!-- app/controllers/admin/tests -->
<g id="node8" class="node">
<title>app/controllers/admin/tests</title>
<g id="a_node8"><a xlink:href="app/controllers/admin/tests" xlink:title="tests">
<polygon fill="#ffffcc" stroke="black" points="183.44,-303.43 131.41,-303.43 129.44,-301.45 129.44,-285.68 181.47,-285.68 183.44,-287.65 183.44,-303.43"/>
<polyline fill="none" stroke="black" points="181.47,-301.45 129.44,-301.45"/>
<polyline fill="none" stroke="black" points="181.47,-301.45 181.47,-285.68"/>
<polyline fill="none" stroke="black" points="181.47,-301.45 183.44,-303.43"/>
<text text-anchor="start" x="147.06" y="-290.88" font-family="Helvetica,sans-Serif" font-size="9.00">tests</text>
</a>
</g>
</g>
<!-- app/controllers/admin/tests&#45;&gt;. -->
<g id="edge12" class="edge">
<title>app/controllers/admin/tests&#45;&gt;.</title>
<path fill="none" stroke="#000000" stroke-dasharray="5,2" stroke-opacity="0.200000" d="M170.4,-285.21C176.1,-282.24 182.89,-279.25 189.44,-277.68 226.4,-268.79 495.25,-281.29 531.44,-269.68 619.19,-241.52 695.44,-234.95 695.44,-142.8 695.44,-142.8 695.44,-142.8 695.44,-81.3 695.44,-58.09 673.64,-40.8 655.29,-30.36"/>
<polygon fill="#000000" fill-opacity="0.200000" stroke="#000000" stroke-opacity="0.200000" points="656.52,-28.1 650.24,-27.09 654.52,-31.79 656.52,-28.1"/>
</g>
<!-- app/controllers/admin/tests&#45;&gt;app -->
<g id="edge11" class="edge">
<title>app/controllers/admin/tests&#45;&gt;app</title>
<path fill="none" stroke="#000000" stroke-width="2" stroke-opacity="0.200000" d="M141.92,-285.28C136.82,-282.6 130.98,-279.78 125.44,-277.68 112.14,-272.62 103.97,-280.24 94.44,-269.68 25.87,-193.61 17.14,-120.18 80.44,-39.67 89.69,-27.91 134.68,-21.96 155.64,-19.79"/>
<polygon fill="#000000" fill-opacity="0.200000" stroke="#000000" stroke-width="2" stroke-opacity="0.200000" points="155.83,-21.6 161.6,-18.95 155.43,-17.42 155.83,-21.6"/>
</g>
<!-- app/controllers/admin/tests&#45;&gt;app/models -->
<g id="edge10" class="edge">
<title>app/controllers/admin/tests&#45;&gt;app/models</title>
<path fill="none" stroke="#000000" stroke-width="2" stroke-opacity="0.200000" d="M146.96,-285.23C142.89,-281.02 138.58,-275.57 136.44,-269.68 114.46,-209.21 116.68,-186.15 136.44,-124.93 139.6,-115.13 146.02,-105.7 152.11,-98.3"/>
<polygon fill="#000000" fill-opacity="0.200000" stroke="#000000" stroke-width="2" stroke-opacity="0.200000" points="154.57,-99.54 156.95,-93.64 151.42,-96.76 154.57,-99.54"/>
</g>
<!-- app/controllers/api -->
<g id="node9" class="node">
<title>app/controllers/api</title>
<g id="a_node9"><a xlink:href="app/controllers/api" xlink:title="api">
<polygon fill="#ffffcc" stroke="black" points="235.44,-218.18 183.41,-218.18 181.44,-216.2 181.44,-200.43 233.47,-200.43 235.44,-202.4 235.44,-218.18"/>
<polyline fill="none" stroke="black" points="233.47,-216.2 181.44,-216.2"/>
<polyline fill="none" stroke="black" points="233.47,-216.2 233.47,-200.43"/>
<polyline fill="none" stroke="black" points="233.47,-216.2 235.44,-218.18"/>
<text text-anchor="start" x="202.06" y="-205.62" font-family="Helvetica,sans-Serif" font-size="9.00">api</text>
</a>
</g>
</g>
<!-- app/controllers/api&#45;&gt;. -->
<g id="edge17" class="edge">
<title>app/controllers/api&#45;&gt;.</title>
<path fill="none" stroke="#000000" stroke-dasharray="5,2" stroke-opacity="0.200000" d="M229.44,-199.96C244.06,-194.55 264.13,-187.88 282.44,-184.43 339.76,-173.61 356.24,-187.84 413.44,-176.43 482.15,-162.72 494.74,-142.97 562.44,-124.93 580.8,-120.03 590.54,-129.88 604.44,-116.92 616.48,-105.71 624.78,-58.67 628.4,-34.02"/>
<polygon fill="#000000" fill-opacity="0.200000" stroke="#000000" stroke-opacity="0.200000" points="630.61,-34.39 629.37,-28.15 626.45,-33.8 630.61,-34.39"/>
</g>
<!-- app/controllers/api&#45;&gt;app -->
<g id="edge14" class="edge">
<title>app/controllers/api&#45;&gt;app</title>
<path fill="none" stroke="#000000" stroke-width="2" stroke-opacity="0.200000" d="M208.97,-200.08C210.76,-170.14 215.6,-67.25 199.44,-39.68 194.35,-30.99 184.06,-25.36 176.32,-22.16"/>
<polygon fill="#000000" fill-opacity="0.200000" stroke="#000000" stroke-width="2" stroke-opacity="0.200000" points="176.42,-20.26 170.06,-20.24 175.02,-24.22 176.42,-20.26"/>
</g>
<!-- app/controllers/api&#45;&gt;app/controllers -->
<g id="edge16" class="edge">
<title>app/controllers/api&#45;&gt;app/controllers</title>
<path fill="none" stroke="#000000" stroke-width="2" stroke-opacity="0.200000" d="M210.37,-199.93C211.83,-193.51 213.85,-184.43 215.44,-176.43 217.04,-168.38 218.66,-159.21 219.82,-152.48"/>
<polygon fill="#000000" fill-opacity="0.200000" stroke="#000000" stroke-width="2" stroke-opacity="0.200000" points="222.3,-152.35 221.23,-146.09 218.16,-151.65 222.3,-152.35"/>
</g>
<!-- app/controllers/api&#45;&gt;app/models -->
<g id="edge13" class="edge">
<title>app/controllers/api&#45;&gt;app/models</title>
<path fill="none" stroke="#000000" stroke-width="2" stroke-opacity="0.200000" d="M205.68,-200.1C198.86,-179.79 181.07,-126.85 171.97,-99.77"/>
<polygon fill="#000000" fill-opacity="0.200000" stroke="#000000" stroke-width="2" stroke-opacity="0.200000" points="173.05,-98.39 169.15,-93.37 169.07,-99.73 173.05,-98.39"/>
</g>
<!-- app/controllers/api&#45;&gt;app/templates -->
<g id="edge15" class="edge">
<title>app/controllers/api&#45;&gt;app/templates</title>
<path fill="none" stroke="#000000" stroke-width="2" stroke-opacity="0.200000" d="M214.89,-200.05C219.48,-193.85 225.51,-184.98 229.44,-176.43 246.51,-139.25 255.4,-91.59 259.17,-66.59"/>
<polygon fill="#000000" fill-opacity="0.200000" stroke="#000000" stroke-width="2" stroke-opacity="0.200000" points="261.64,-66.15 260.41,-59.91 257.48,-65.56 261.64,-66.15"/>
</g>
<!-- app/lib/hypem -->
<g id="node10" class="node">
<title>app/lib/hypem</title>
<g id="a_node10"><a xlink:href="app/lib/hypem" xlink:title="hypem">
<polygon fill="#ffffcc" stroke="black" points="454.44,-218.18 402.41,-218.18 400.44,-216.2 400.44,-200.43 452.47,-200.43 454.44,-202.4 454.44,-218.18"/>
<polyline fill="none" stroke="black" points="452.47,-216.2 400.44,-216.2"/>
<polyline fill="none" stroke="black" points="452.47,-216.2 452.47,-200.43"/>
<polyline fill="none" stroke="black" points="452.47,-216.2 454.44,-218.18"/>
<text text-anchor="start" x="413.56" y="-205.62" font-family="Helvetica,sans-Serif" font-size="9.00">hypem</text>
</a>
</g>
</g>
<!-- app/controllers/api&#45;&gt;app/lib/hypem -->
<g id="edge18" class="edge">
<title>app/controllers/api&#45;&gt;app/lib/hypem</title>
<path fill="none" stroke="#000000" stroke-width="2" stroke-opacity="0.200000" d="M215.58,-218.46C228.25,-233.8 256.36,-263.96 288.44,-273.68 299.18,-276.93 378.7,-276.93 389.44,-273.68 409.35,-267.65 419.23,-243.92 423.83,-227.03"/>
<polygon fill="#000000" fill-opacity="0.200000" stroke="#000000" stroke-width="2" stroke-opacity="0.200000" points="426.51,-226.83 425.87,-220.51 422.43,-225.85 426.51,-226.83"/>
</g>
<!-- app/lib/hypem&#45;&gt;.. -->
<g id="edge33" class="edge">
<title>app/lib/hypem&#45;&gt;..</title>
<g id="a_edge33"><a xlink:title="not&#45;to&#45;unresolvable">
<path fill="none" stroke="red" stroke-width="2" d="M435.89,-200.1C442.13,-194.6 451.12,-187.77 460.44,-184.43 487.05,-174.87 561.47,-187.62 587.44,-176.43 596.86,-172.36 605.36,-164.72 611.73,-157.75"/>
<polygon fill="red" stroke="red" stroke-width="2" points="614.06,-159.08 616.35,-153.15 610.86,-156.36 614.06,-159.08"/>
</a>
</g>
<text text-anchor="middle" x="486.79" y="-182.3" font-family="Helvetica,sans-Serif" font-size="9.00" fill="red">not&#45;to&#45;unresolvable</text>
</g>
<!-- app/controllers/private -->
<g id="node11" class="node">
<title>app/controllers/private</title>
<g id="a_node11"><a xlink:href="app/controllers/private" xlink:title="private">
<polygon fill="#ffffcc" stroke="black" points="269.44,-303.43 217.41,-303.43 215.44,-301.45 215.44,-285.68 267.47,-285.68 269.44,-287.65 269.44,-303.43"/>
<polyline fill="none" stroke="black" points="267.47,-301.45 215.44,-301.45"/>
<polyline fill="none" stroke="black" points="267.47,-301.45 267.47,-285.68"/>
<polyline fill="none" stroke="black" points="267.47,-301.45 269.44,-303.43"/>
<text text-anchor="start" x="228.56" y="-290.88" font-family="Helvetica,sans-Serif" font-size="9.00">private</text>
</a>
</g>
</g>
<!-- app/controllers/private&#45;&gt;. -->
<g id="edge25" class="edge">
<title>app/controllers/private&#45;&gt;.</title>
<path fill="none" stroke="#000000" stroke-dasharray="5,2" stroke-opacity="0.200000" d="M269.75,-293.18C370.22,-291.69 714.41,-285.45 731.44,-269.68 773.14,-231.06 747.44,-199.64 747.44,-142.8 747.44,-142.8 747.44,-142.8 747.44,-81.3 747.44,-61.48 746.55,-52.5 731.44,-39.67 721.46,-31.2 689.92,-25.6 664.71,-22.35"/>
<polygon fill="#000000" fill-opacity="0.200000" stroke="#000000" stroke-opacity="0.200000" points="665,-20.15 658.79,-21.49 664.49,-24.31 665,-20.15"/>
</g>
<!-- app/controllers/private&#45;&gt;app -->
<g id="edge22" class="edge">
<title>app/controllers/private&#45;&gt;app</title>
<path fill="none" stroke="#000000" stroke-width="2" stroke-opacity="0.200000" d="M228.2,-285.23C222.8,-282.42 216.49,-279.52 210.44,-277.68 197.58,-273.74 159.85,-279.29 150.44,-269.68 114.53,-232.98 102.3,-83.87 128.44,-39.67 134.43,-29.54 147.29,-24 156.38,-21.22"/>
<polygon fill="#000000" fill-opacity="0.200000" stroke="#000000" stroke-width="2" stroke-opacity="0.200000" points="157.59,-22.58 162.9,-19.08 156.57,-18.5 157.59,-22.58"/>
</g>
<!-- app/controllers/private&#45;&gt;app/controllers -->
<g id="edge23" class="edge">
<title>app/controllers/private&#45;&gt;app/controllers</title>
<path fill="none" stroke="#000000" stroke-width="2" stroke-opacity="0.200000" d="M227.46,-285.21C222.19,-282.52 216.16,-279.72 210.44,-277.68 195.41,-272.31 185.39,-282.15 175.44,-269.68 163.63,-254.86 163.43,-199.08 175.44,-184.43 186.93,-170.4 202.75,-189.38 215.44,-176.43 221.43,-170.31 222.57,-160.4 222.43,-152.92"/>
<polygon fill="#000000" fill-opacity="0.200000" stroke="#000000" stroke-width="2" stroke-opacity="0.200000" points="224.27,-152.85 221.66,-147.05 220.09,-153.21 224.27,-152.85"/>
</g>
<!-- app/controllers/private&#45;&gt;app/models -->
<g id="edge19" class="edge">
<title>app/controllers/private&#45;&gt;app/models</title>
<path fill="none" stroke="#000000" stroke-width="2" stroke-opacity="0.200000" d="M227.84,-285.2C222.51,-282.45 216.33,-279.6 210.44,-277.68 190.72,-271.22 177.8,-285.56 164.44,-269.68 143.18,-244.4 157.1,-140.9 163.61,-100.02"/>
<polygon fill="#000000" fill-opacity="0.200000" stroke="#000000" stroke-width="2" stroke-opacity="0.200000" points="166.15,-99.52 165.05,-93.26 162,-98.85 166.15,-99.52"/>
</g>
<!-- app/controllers/private&#45;&gt;app/templates -->
<g id="edge20" class="edge">
<title>app/controllers/private&#45;&gt;app/templates</title>
<path fill="none" stroke="#000000" stroke-width="2" stroke-opacity="0.200000" d="M246.08,-285.2C248.03,-280.64 250.44,-274.88 252.44,-269.68 266.87,-232.19 254.19,-212.97 282.44,-184.43 289.76,-177.03 298.47,-184.95 304.44,-176.43 318.59,-156.22 318.54,-85.66 304.44,-65.42 302.55,-62.72 300.15,-60.47 297.45,-58.61"/>
<polygon fill="#000000" fill-opacity="0.200000" stroke="#000000" stroke-width="2" stroke-opacity="0.200000" points="298.03,-56.48 291.75,-55.52 296.06,-60.19 298.03,-56.48"/>
</g>
<!-- app/controllers/private&#45;&gt;app/controllers/api -->
<g id="edge21" class="edge">
<title>app/controllers/private&#45;&gt;app/controllers/api</title>
<path fill="none" stroke="#000000" stroke-width="2" stroke-opacity="0.200000" d="M239.05,-285.26C233.51,-271.67 222.37,-244.41 215.17,-226.77"/>
<polygon fill="#000000" fill-opacity="0.200000" stroke="#000000" stroke-width="2" stroke-opacity="0.200000" points="217.02,-225.31 212.81,-220.55 213.13,-226.9 217.02,-225.31"/>
</g>
<!-- app/lib/my&#45;img -->
<g id="node12" class="node">
<title>app/lib/my&#45;img</title>
<g id="a_node12"><a xlink:href="app/lib/my-img" xlink:title="my&#45;img">
<polygon fill="#ffffcc" stroke="black" points="520.44,-218.18 468.41,-218.18 466.44,-216.2 466.44,-200.43 518.47,-200.43 520.44,-202.4 520.44,-218.18"/>
<polyline fill="none" stroke="black" points="518.47,-216.2 466.44,-216.2"/>
<polyline fill="none" stroke="black" points="518.47,-216.2 518.47,-200.43"/>
<polyline fill="none" stroke="black" points="518.47,-216.2 520.44,-218.18"/>
<text text-anchor="start" x="478.44" y="-205.62" font-family="Helvetica,sans-Serif" font-size="9.00">my&#45;img</text>
</a>
</g>
</g>
<!-- app/controllers/private&#45;&gt;app/lib/my&#45;img -->
<g id="edge24" class="edge">
<title>app/controllers/private&#45;&gt;app/lib/my&#45;img</title>
<path fill="none" stroke="#000000" stroke-width="2" stroke-opacity="0.200000" d="M269.59,-293.62C320.91,-293.27 429.76,-290.06 460.44,-269.68 475.29,-259.81 484.1,-240.9 488.84,-227.07"/>
<polygon fill="#000000" fill-opacity="0.200000" stroke="#000000" stroke-width="2" stroke-opacity="0.200000" points="491.73,-226.82 491.49,-220.47 487.71,-225.58 491.73,-226.82"/>
</g>
<!-- app/lib/my&#45;img&#45;&gt;. -->
<g id="edge40" class="edge">
<title>app/lib/my&#45;img&#45;&gt;.</title>
<path fill="none" stroke="#000000" stroke-dasharray="5,2" stroke-opacity="0.200000" d="M520.87,-207.01C562.75,-204.41 639.58,-196.9 656.44,-176.43 665.46,-165.47 663.58,-61.52 653.44,-39.67 652.09,-36.77 650.13,-34.09 647.92,-31.69"/>
<polygon fill="#000000" fill-opacity="0.200000" stroke="#000000" stroke-opacity="0.200000" points="649.93,-30.75 644.12,-28.16 647.04,-33.81 649.93,-30.75"/>
</g>
<!-- app/controllers/testing -->
<g id="node13" class="node">
<title>app/controllers/testing</title>
<g id="a_node13"><a xlink:href="app/controllers/testing" xlink:title="testing">
<polygon fill="#ffffcc" stroke="black" points="113.44,-303.43 61.41,-303.43 59.44,-301.45 59.44,-285.68 111.47,-285.68 113.44,-287.65 113.44,-303.43"/>
<polyline fill="none" stroke="black" points="111.47,-301.45 59.44,-301.45"/>
<polyline fill="none" stroke="black" points="111.47,-301.45 111.47,-285.68"/>
<polyline fill="none" stroke="black" points="111.47,-301.45 113.44,-303.43"/>
<text text-anchor="start" x="72.94" y="-290.88" font-family="Helvetica,sans-Serif" font-size="9.00">testing</text>
</a>
</g>
</g>
<!-- app/controllers/testing&#45;&gt;app/models -->
<g id="edge26" class="edge">
<title>app/controllers/testing&#45;&gt;app/models</title>
<path fill="none" stroke="#000000" stroke-width="2" stroke-opacity="0.200000" d="M86.33,-285.2C86.36,-259.48 89.14,-179.96 120.44,-124.93 126.74,-113.84 137.05,-104.11 146.31,-96.85"/>
<polygon fill="#000000" fill-opacity="0.200000" stroke="#000000" stroke-width="2" stroke-opacity="0.200000" points="147.85,-97.84 151.42,-92.58 145.35,-94.47 147.85,-97.84"/>
</g>
<!-- app/infrastructure -->
<!-- app/controllers/testing&#45;&gt;app/infrastructure -->
<g id="edge27" class="edge">
<title>app/controllers/testing&#45;&gt;app/infrastructure</title>
<path fill="none" stroke="#000000" stroke-width="2" stroke-opacity="0.200000" d="M100.3,-285.18C105.76,-282.28 112.21,-279.35 118.44,-277.68 144.89,-270.56 218.74,-285 241.44,-269.68 276.29,-246.15 247.68,-208.08 282.44,-184.43 302.7,-170.64 373.77,-192.31 392.44,-176.43 399.16,-170.71 400.8,-160.47 400.98,-152.79"/>
<polygon fill="#000000" fill-opacity="0.200000" stroke="#000000" stroke-width="2" stroke-opacity="0.200000" points="402.94,-152.74 400.58,-146.84 398.75,-152.92 402.94,-152.74"/>
</g>
<!-- app/infrastructure&#45;&gt;. -->
<g id="edge30" class="edge">
<title>app/infrastructure&#45;&gt;.</title>
<path fill="none" stroke="#000000" stroke-dasharray="5,2" stroke-opacity="0.200000" d="M401.81,-140.27C408.01,-137.87 434.11,-127.59 454.44,-116.92 493.22,-96.58 500.21,-86.78 538.44,-65.42 561.33,-52.63 588.14,-39.22 606.89,-30.08"/>
<polygon fill="#000000" fill-opacity="0.200000" stroke="#000000" stroke-opacity="0.200000" points="607.44,-31.66 611.92,-27.15 605.61,-27.88 607.44,-31.66"/>
</g>
<!-- fs -->
<g id="node18" class="node">
<title>fs</title>
<g id="a_node18"><a xlink:title="fs">
<polygon fill="#ffffcc" stroke="grey" points="598.44,-91.17 546.41,-91.17 544.44,-89.2 544.44,-73.42 596.47,-73.42 598.44,-75.4 598.44,-91.17"/>
<polyline fill="none" stroke="grey" points="596.47,-89.2 544.44,-89.2"/>
<polyline fill="none" stroke="grey" points="596.47,-89.2 596.47,-73.42"/>
<polyline fill="none" stroke="grey" points="596.47,-89.2 598.44,-91.17"/>
<text text-anchor="middle" x="571.44" y="-78.62" font-family="Helvetica,sans-Serif" font-size="9.00" fill="grey">fs</text>
</a>
</g>
</g>
<!-- app/infrastructure&#45;&gt;fs -->
<g id="edge29" class="edge">
<title>app/infrastructure&#45;&gt;fs</title>
<path fill="none" stroke="#000000" stroke-dasharray="5,2" stroke-opacity="0.200000" d="M402.15,-140.68C412.97,-139.87 472.76,-134.73 517.44,-116.92 530.99,-111.53 544.93,-102.75 555.26,-95.51"/>
<polygon fill="#000000" fill-opacity="0.200000" stroke="#000000" stroke-opacity="0.200000" points="556.24,-96.68 559.88,-91.47 553.79,-93.27 556.24,-96.68"/>
</g>
<!-- app/domain -->
<!-- app/domain/user -->
<g id="node16" class="node">
<title>app/domain/user</title>
<g id="a_node16"><a xlink:href="app/domain/user" xlink:title="user">
<polygon fill="#ffffcc" stroke="black" points="395.44,-91.17 343.41,-91.17 341.44,-89.2 341.44,-73.42 393.47,-73.42 395.44,-75.4 395.44,-91.17"/>
<polyline fill="none" stroke="black" points="393.47,-89.2 341.44,-89.2"/>
<polyline fill="none" stroke="black" points="393.47,-89.2 393.47,-73.42"/>
<polyline fill="none" stroke="black" points="393.47,-89.2 395.44,-91.17"/>
<text text-anchor="start" x="359.44" y="-78.62" font-family="Helvetica,sans-Serif" font-size="9.00">user</text>
</a>
</g>
</g>
<!-- app/features&#45;&gt;app -->
<g id="edge28" class="edge">
<title>app/features&#45;&gt;app</title>
<path fill="none" stroke="#000000" stroke-width="2" stroke-opacity="0.200000" d="M166.44,-39.39C166.44,-36.04 166.44,-32.14 166.44,-28.64"/>
<polygon fill="#000000" fill-opacity="0.200000" stroke="#000000" stroke-width="2" stroke-opacity="0.200000" points="168.54,-28.97 166.44,-22.97 164.34,-28.97 168.54,-28.97"/>
</g>
<!-- app/infrastructure/mongodb -->
<g id="node19" class="node">
<title>app/infrastructure/mongodb</title>
<g id="a_node19"><a xlink:href="app/infrastructure/mongodb" xlink:title="mongodb">
<polygon fill="#ffffcc" stroke="black" points="386.94,-150.68 333.91,-150.68 331.94,-148.7 331.94,-132.93 384.97,-132.93 386.94,-134.9 386.94,-150.68"/>
<polyline fill="none" stroke="black" points="384.97,-148.7 331.94,-148.7"/>
<polyline fill="none" stroke="black" points="384.97,-148.7 384.97,-132.93"/>
<polyline fill="none" stroke="black" points="384.97,-148.7 386.94,-150.68"/>
<text text-anchor="start" x="339.94" y="-138.12" font-family="Helvetica,sans-Serif" font-size="9.00">mongodb</text>
</a>
</g>
</g>
<!-- app/infrastructure/mongodb&#45;&gt;app/models -->
<g id="edge32" class="edge">
<title>app/infrastructure/mongodb&#45;&gt;app/models</title>
<path fill="none" stroke="#000000" stroke-width="2" stroke-opacity="0.200000" d="M344.43,-132.55C339.16,-129.87 333.13,-127.05 327.44,-124.93 285.47,-109.28 235.24,-97.31 202.18,-90.31"/>
<polygon fill="#000000" fill-opacity="0.200000" stroke="#000000" stroke-width="2" stroke-opacity="0.200000" points="202.05,-87.72 195.74,-88.55 201.19,-91.83 202.05,-87.72"/>
</g>
<!-- app/infrastructure/mongodb&#45;&gt;app/domain/user -->
<g id="edge31" class="edge">
<title>app/infrastructure/mongodb&#45;&gt;app/domain/user</title>
<path fill="none" stroke="#000000" stroke-width="2" stroke-opacity="0.200000" d="M360.69,-132.8C362.01,-124.4 364.11,-110.94 365.8,-100.17"/>
<polygon fill="#000000" fill-opacity="0.200000" stroke="#000000" stroke-width="2" stroke-opacity="0.200000" points="368.29,-99.85 367.14,-93.6 364.14,-99.2 368.29,-99.85"/>
</g>
<!-- app/lib -->
<!-- app/lib/my&#45;http&#45;wrapper -->
<!-- app/lib/my&#45;http&#45;wrapper/http -->
<g id="node22" class="node">
<title>app/lib/my&#45;http&#45;wrapper/http</title>
<g id="a_node22"><a xlink:href="app/lib/my-http-wrapper/http" xlink:title="http">
<polygon fill="#ffffcc" stroke="black" points="368.44,-218.18 316.41,-218.18 314.44,-216.2 314.44,-200.43 366.47,-200.43 368.44,-202.4 368.44,-218.18"/>
<polyline fill="none" stroke="black" points="366.47,-216.2 314.44,-216.2"/>
<polyline fill="none" stroke="black" points="366.47,-216.2 366.47,-200.43"/>
<polyline fill="none" stroke="black" points="366.47,-216.2 368.44,-218.18"/>
<text text-anchor="start" x="333.94" y="-205.62" font-family="Helvetica,sans-Serif" font-size="9.00">http</text>
</a>
</g>
</g>
<!-- app/lib/my&#45;http&#45;wrapper/http&#45;&gt;. -->
<g id="edge39" class="edge">
<title>app/lib/my&#45;http&#45;wrapper/http&#45;&gt;.</title>
<path fill="none" stroke="#000000" stroke-dasharray="5,2" stroke-opacity="0.200000" d="M349.87,-200.04C356.1,-194.51 365.09,-187.68 374.44,-184.43 394.08,-177.6 543.71,-187.3 561.44,-176.43 583.83,-162.69 569.3,-140.52 590.44,-124.93 603.98,-114.94 616.68,-129.86 627.44,-116.92 646.95,-93.49 640.65,-54.89 635.09,-33.76"/>
<polygon fill="#000000" fill-opacity="0.200000" stroke="#000000" stroke-opacity="0.200000" points="636.86,-33.27 633.2,-28.07 632.81,-34.42 636.86,-33.27"/>
</g>
<!-- app/lib/my&#45;http&#45;wrapper/http&#45;&gt;app/models -->
<g id="edge38" class="edge">
<title>app/lib/my&#45;http&#45;wrapper/http&#45;&gt;app/models</title>
<path fill="none" stroke="#000000" stroke-width="2" stroke-opacity="0.200000" d="M335.82,-200.06C322.15,-180.1 287.75,-130.42 280.44,-124.93 257.19,-107.45 225.87,-96.72 201.93,-90.54"/>
<polygon fill="#000000" fill-opacity="0.200000" stroke="#000000" stroke-width="2" stroke-opacity="0.200000" points="201.81,-87.85 195.48,-88.46 200.81,-91.93 201.81,-87.85"/>
</g>
<!-- app/lib/my&#45;http&#45;wrapper/http&#45;&gt;app/controllers/admin -->
<g id="edge34" class="edge">
<title>app/lib/my&#45;http&#45;wrapper/http&#45;&gt;app/controllers/admin</title>
<path fill="none" stroke="#000000" stroke-width="2" stroke-opacity="0.200000" d="M339.81,-218.52C336.68,-231.83 328.51,-257.78 310.44,-269.68 290.52,-282.78 222.54,-263.4 203.44,-277.68 201.45,-279.17 200.11,-281.4 199.23,-283.73"/>
<polygon fill="#000000" fill-opacity="0.200000" stroke="#000000" stroke-width="2" stroke-opacity="0.200000" points="196.59,-284.18 197.48,-290.47 200.71,-285 196.59,-284.18"/>
</g>
<!-- app/lib/my&#45;http&#45;wrapper/http&#45;&gt;app/infrastructure -->
<g id="edge36" class="edge">
<title>app/lib/my&#45;http&#45;wrapper/http&#45;&gt;app/infrastructure</title>
<path fill="none" stroke="#000000" stroke-width="2" stroke-opacity="0.200000" d="M351.76,-199.97C358.09,-195.1 366.47,-189.01 374.44,-184.43 382.03,-180.06 386.85,-183.16 392.44,-176.43 397.91,-169.84 399.77,-160.15 400.34,-152.86"/>
<polygon fill="#000000" fill-opacity="0.200000" stroke="#000000" stroke-width="2" stroke-opacity="0.200000" points="402.49,-153.04 400.51,-147.01 398.29,-152.96 402.49,-153.04"/>
</g>
<!-- app/lib/my&#45;http&#45;wrapper/http&#45;&gt;app/domain -->
<g id="edge35" class="edge">
<title>app/lib/my&#45;http&#45;wrapper/http&#45;&gt;app/domain</title>
<path fill="none" stroke="#000000" stroke-width="2" stroke-opacity="0.200000" d="M350.59,-200.03C356.87,-194.79 365.64,-188.3 374.44,-184.43 390.64,-177.3 402.26,-190.14 413.44,-176.43 433.34,-152.03 420.69,-110.94 413.46,-92.61"/>
<polygon fill="#000000" fill-opacity="0.200000" stroke="#000000" stroke-width="2" stroke-opacity="0.200000" points="415.24,-91.07 410.95,-86.37 411.37,-92.72 415.24,-91.07"/>
</g>
<!-- app/lib/my&#45;http&#45;wrapper/http&#45;&gt;app/infrastructure/mongodb -->
<g id="edge37" class="edge">
<title>app/lib/my&#45;http&#45;wrapper/http&#45;&gt;app/infrastructure/mongodb</title>
<path fill="none" stroke="#000000" stroke-width="2" stroke-opacity="0.200000" d="M343.72,-200C346.52,-189.81 351.34,-172.27 354.91,-159.3"/>
<polygon fill="#000000" fill-opacity="0.200000" stroke="#000000" stroke-width="2" stroke-opacity="0.200000" points="357.67,-159.17 357.23,-152.82 353.62,-158.05 357.67,-159.17"/>
</g>
<!-- app/workers -->
<g id="node23" class="node">
<title>app/workers</title>
<g id="a_node23"><a xlink:href="app/workers" xlink:title="workers">
<polygon fill="#ffffcc" stroke="black" points="269.44,-380.68 217.41,-380.68 215.44,-378.7 215.44,-362.93 267.47,-362.93 269.44,-364.9 269.44,-380.68"/>
<polyline fill="none" stroke="black" points="267.47,-378.7 215.44,-378.7"/>
<polyline fill="none" stroke="black" points="267.47,-378.7 267.47,-362.93"/>
<polyline fill="none" stroke="black" points="267.47,-378.7 269.44,-380.68"/>
<text text-anchor="start" x="226.31" y="-368.12" font-family="Helvetica,sans-Serif" font-size="9.00">workers</text>
</a>
</g>
</g>
<!-- app/workers&#45;&gt;. -->
<g id="edge48" class="edge">
<title>app/workers&#45;&gt;.</title>
<path fill="none" stroke="#000000" stroke-dasharray="5,2" stroke-opacity="0.200000" d="M269.84,-368.89C364.88,-361.73 678.55,-333.61 752.44,-269.68 773.61,-251.36 773.44,-238.29 773.44,-210.3 773.44,-210.3 773.44,-210.3 773.44,-81.3 773.44,-59.49 765.51,-51.89 747.44,-39.67 734.23,-30.74 694.3,-24.98 664.74,-21.83"/>
<polygon fill="#000000" fill-opacity="0.200000" stroke="#000000" stroke-opacity="0.200000" points="665.04,-19.64 658.86,-21.12 664.61,-23.82 665.04,-19.64"/>
</g>
<!-- app/workers&#45;&gt;app/models -->
<g id="edge49" class="edge">
<title>app/workers&#45;&gt;app/models</title>
<path fill="none" stroke="#000000" stroke-width="2" stroke-opacity="0.200000" d="M214.98,-370.57C164.14,-369.85 59.49,-366.92 48.44,-354.93 -20.83,-279.75 -10.61,-208.37 48.44,-124.93 66.82,-98.96 102.78,-89.08 130.2,-85.38"/>
<polygon fill="#000000" fill-opacity="0.200000" stroke="#000000" stroke-width="2" stroke-opacity="0.200000" points="130.41,-87.12 136.13,-84.35 129.93,-82.95 130.41,-87.12"/>
</g>
<!-- app/workers&#45;&gt;app/controllers/private -->
<g id="edge50" class="edge">
<title>app/workers&#45;&gt;app/controllers/private</title>
<path fill="none" stroke="#000000" stroke-width="2" stroke-opacity="0.200000" d="M242.44,-362.46C242.44,-350.42 242.44,-327.9 242.44,-312.34"/>
<polygon fill="#000000" fill-opacity="0.200000" stroke="#000000" stroke-width="2" stroke-opacity="0.200000" points="244.54,-312.7 242.44,-306.7 240.34,-312.7 244.54,-312.7"/>
</g>
</g>
</svg>
