<?xml version="1.0" encoding="UTF-8" standalone="no"?>
<!DOCTYPE svg PUBLIC "-//W3C//DTD SVG 1.1//EN"
 "http://www.w3.org/Graphics/SVG/1.1/DTD/svg11.dtd">
<!-- Generated by graphviz version 12.2.1 (20241206.2353)
 -->
<!-- Title: dependency&#45;cruiser output Pages: 1 -->
<svg width="1145pt" height="363pt"
 viewBox="0.00 0.00 1145.20 362.93" xmlns="http://www.w3.org/2000/svg" xmlns:xlink="http://www.w3.org/1999/xlink">
<g id="graph0" class="graph" transform="scale(1 1) rotate(0) translate(4 358.93)">
<title>dependency&#45;cruiser output</title>
<polygon fill="white" stroke="none" points="-4,4 -4,-358.93 1141.2,-358.93 1141.2,4 -4,4"/>
<g id="clust1" class="cluster">
<title>cluster_app</title>
<path fill="#ffffff" stroke="black" stroke-width="2" d="M20,-8C20,-8 800,-8 800,-8 806,-8 812,-14 812,-20 812,-20 812,-334.93 812,-334.93 812,-340.93 806,-346.93 800,-346.93 800,-346.93 20,-346.93 20,-346.93 14,-346.93 8,-340.93 8,-334.93 8,-334.93 8,-20 8,-20 8,-14 14,-8 20,-8"/>
<text text-anchor="middle" x="410" y="-334.38" font-family="Helvetica,sans-Serif" font-weight="bold" font-size="9.00">app</text>
</g>
<g id="clust2" class="cluster">
<title>cluster_app/api&#45;v2</title>
<path fill="#ffffff" stroke="black" stroke-width="2" d="M641,-218.18C641,-218.18 746,-218.18 746,-218.18 752,-218.18 758,-224.18 758,-230.18 758,-230.18 758,-257.68 758,-257.68 758,-263.68 752,-269.68 746,-269.68 746,-269.68 641,-269.68 641,-269.68 635,-269.68 629,-263.68 629,-257.68 629,-257.68 629,-230.18 629,-230.18 629,-224.18 635,-218.18 641,-218.18"/>
<text text-anchor="start" x="680.38" y="-257.12" font-family="Helvetica,sans-Serif" font-weight="bold" font-size="9.00">api&#45;v2</text>
</g>
<g id="clust3" class="cluster">
<title>cluster_app/controllers</title>
<path fill="#ffffff" stroke="black" stroke-width="2" d="M178,-72.5C178,-72.5 380,-72.5 380,-72.5 386,-72.5 392,-78.5 392,-84.5 392,-84.5 392,-283.43 392,-283.43 392,-289.43 386,-295.43 380,-295.43 380,-295.43 178,-295.43 178,-295.43 172,-295.43 166,-289.43 166,-283.43 166,-283.43 166,-84.5 166,-84.5 166,-78.5 172,-72.5 178,-72.5"/>
<text text-anchor="start" x="255.75" y="-282.88" font-family="Helvetica,sans-Serif" font-weight="bold" font-size="9.00">controllers</text>
</g>
<g id="clust4" class="cluster">
<title>cluster_app/controllers/admin</title>
<path fill="#ffffff" stroke="black" stroke-width="2" d="M248,-218.18C248,-218.18 310,-218.18 310,-218.18 316,-218.18 322,-224.18 322,-230.18 322,-230.18 322,-257.68 322,-257.68 322,-263.68 316,-269.68 310,-269.68 310,-269.68 248,-269.68 248,-269.68 242,-269.68 236,-263.68 236,-257.68 236,-257.68 236,-230.18 236,-230.18 236,-224.18 242,-218.18 248,-218.18"/>
<text text-anchor="start" x="265.88" y="-257.12" font-family="Helvetica,sans-Serif" font-weight="bold" font-size="9.00">admin</text>
</g>
<g id="clust5" class="cluster">
<title>cluster_app/domain</title>
<path fill="#ffffff" stroke="black" stroke-width="2" d="M412,-65.42C412,-65.42 474,-65.42 474,-65.42 480,-65.42 486,-71.42 486,-77.42 486,-77.42 486,-104.92 486,-104.92 486,-110.92 480,-116.92 474,-116.92 474,-116.92 412,-116.92 412,-116.92 406,-116.92 400,-110.92 400,-104.92 400,-104.92 400,-77.42 400,-77.42 400,-71.42 406,-65.42 412,-65.42"/>
<text text-anchor="start" x="427.25" y="-104.38" font-family="Helvetica,sans-Serif" font-weight="bold" font-size="9.00">domain</text>
</g>
<g id="clust6" class="cluster">
<title>cluster_app/infrastructure</title>
<path fill="#ffffff" stroke="black" stroke-width="2" d="M412,-132.93C412,-132.93 475,-132.93 475,-132.93 481,-132.93 487,-138.93 487,-144.93 487,-144.93 487,-172.43 487,-172.43 487,-178.43 481,-184.43 475,-184.43 475,-184.43 412,-184.43 412,-184.43 406,-184.43 400,-178.43 400,-172.43 400,-172.43 400,-144.93 400,-144.93 400,-138.93 406,-132.93 412,-132.93"/>
<text text-anchor="start" x="413.88" y="-171.88" font-family="Helvetica,sans-Serif" font-weight="bold" font-size="9.00">infrastructure</text>
</g>
<g id="clust7" class="cluster">
<title>cluster_app/lib</title>
<path fill="#ffffff" stroke="black" stroke-width="2" d="M507,-124.93C507,-124.93 792,-124.93 792,-124.93 798,-124.93 804,-130.93 804,-136.93 804,-136.93 804,-198.18 804,-198.18 804,-204.18 798,-210.18 792,-210.18 792,-210.18 507,-210.18 507,-210.18 501,-210.18 495,-204.18 495,-198.18 495,-198.18 495,-136.93 495,-136.93 495,-130.93 501,-124.93 507,-124.93"/>
<text text-anchor="start" x="644.62" y="-197.62" font-family="Helvetica,sans-Serif" font-weight="bold" font-size="9.00">lib</text>
</g>
<g id="clust8" class="cluster">
<title>cluster_app/lib/my&#45;http&#45;wrapper</title>
<path fill="#ffffff" stroke="black" stroke-width="2" d="M709,-132.93C709,-132.93 772,-132.93 772,-132.93 778,-132.93 784,-138.93 784,-144.93 784,-144.93 784,-172.43 784,-172.43 784,-178.43 778,-184.43 772,-184.43 772,-184.43 709,-184.43 709,-184.43 703,-184.43 697,-178.43 697,-172.43 697,-172.43 697,-144.93 697,-144.93 697,-138.93 703,-132.93 709,-132.93"/>
<text text-anchor="middle" x="740.5" y="-171.88" font-family="Helvetica,sans-Serif" font-weight="bold" font-size="9.00">my&#45;http&#45;wrapper</text>
</g>
<!-- . -->
<g id="node1" class="node">
<title>.</title>
<g id="a_node1"><a xlink:href="https://nodejs.org/api/..html" xlink:title=".">
<polygon fill="#ffffcc" stroke="grey" points="966,-26.68 913.97,-26.68 912,-24.7 912,-8.93 964.03,-8.93 966,-10.9 966,-26.68"/>
<polyline fill="none" stroke="grey" points="964.03,-24.7 912,-24.7"/>
<polyline fill="none" stroke="grey" points="964.03,-24.7 964.03,-8.93"/>
<polyline fill="none" stroke="grey" points="964.03,-24.7 966,-26.68"/>
<text text-anchor="middle" x="939" y="-14.12" font-family="Helvetica,sans-Serif" font-size="9.00" fill="grey">.</text>
</a>
</g>
</g>
<!-- .. -->
<g id="node2" class="node">
<title>..</title>
<g id="a_node2"><a xlink:title="..">
<polygon fill="#ffffcc" stroke="black" points="966,-91.17 913.97,-91.17 912,-89.2 912,-73.42 964.03,-73.42 966,-75.4 966,-91.17"/>
<polyline fill="none" stroke="black" points="964.03,-89.2 912,-89.2"/>
<polyline fill="none" stroke="black" points="964.03,-89.2 964.03,-73.42"/>
<polyline fill="none" stroke="black" points="964.03,-89.2 966,-91.17"/>
<text text-anchor="middle" x="939" y="-78.62" font-family="Helvetica,sans-Serif" font-size="9.00">..</text>
</a>
</g>
</g>
<!-- app -->
<!-- app&#45;&gt;. -->
<g id="edge1" class="edge">
<title>app&#45;&gt;.</title>
<path fill="none" stroke="#000000" stroke-dasharray="5,2" stroke-opacity="0.200000" d="M156.3,-17.8C405.7,-17.8 655.09,-17.8 904.49,-17.8"/>
<polygon fill="#000000" fill-opacity="0.200000" stroke="#000000" stroke-opacity="0.200000" points="904.35,-19.9 910.35,-17.8 904.35,-15.7 904.35,-19.9"/>
</g>
<!-- app/api&#45;v2 -->
<!-- app/api&#45;v2&#45;&gt;. -->
<g id="edge5" class="edge">
<title>app/api&#45;v2&#45;&gt;.</title>
<path fill="none" stroke="#000000" stroke-dasharray="5,2" stroke-opacity="0.200000" d="M750.07,-234.08C777.75,-234.42 1073.56,-237.4 1099,-210.18 1150.73,-154.8 1149,-96.62 1099,-39.67 1083.05,-21.5 1015.85,-18.35 973.78,-18.22"/>
<polygon fill="#000000" fill-opacity="0.200000" stroke="#000000" stroke-opacity="0.200000" points="974,-16.12 968,-18.22 974,-20.32 974,-16.12"/>
</g>
<!-- app/infrastructure/mongodb -->
<g id="node5" class="node">
<title>app/infrastructure/mongodb</title>
<g id="a_node5"><a xlink:href="app/infrastructure/mongodb" xlink:title="mongodb">
<polygon fill="#ffffcc" stroke="black" points="463.5,-158.68 410.47,-158.68 408.5,-156.7 408.5,-140.93 461.53,-140.93 463.5,-142.9 463.5,-158.68"/>
<polyline fill="none" stroke="black" points="461.53,-156.7 408.5,-156.7"/>
<polyline fill="none" stroke="black" points="461.53,-156.7 461.53,-140.93"/>
<polyline fill="none" stroke="black" points="461.53,-156.7 463.5,-158.68"/>
<text text-anchor="start" x="416.5" y="-146.12" font-family="Helvetica,sans-Serif" font-size="9.00">mongodb</text>
</a>
</g>
</g>
<!-- app/api&#45;v2&#45;&gt;app/infrastructure/mongodb -->
<g id="edge2" class="edge">
<title>app/api&#45;v2&#45;&gt;app/infrastructure/mongodb</title>
<path fill="none" stroke="#000000" stroke-width="2" stroke-opacity="0.200000" d="M747.9,-232.95C747.57,-229.97 746.2,-221.67 741,-218.18 715.92,-201.29 494.83,-225.89 469,-210.18 453.63,-200.82 444.86,-181.53 440.28,-167.46"/>
<polygon fill="#000000" fill-opacity="0.200000" stroke="#000000" stroke-width="2" stroke-opacity="0.200000" points="442.39,-167.21 438.7,-162.04 438.36,-168.39 442.39,-167.21"/>
</g>
<!-- app/lib/auth0 -->
<g id="node6" class="node">
<title>app/lib/auth0</title>
<g id="a_node6"><a xlink:href="app/lib/auth0" xlink:title="auth0">
<polygon fill="#ffffcc" stroke="black" points="557,-158.68 504.97,-158.68 503,-156.7 503,-140.93 555.03,-140.93 557,-142.9 557,-158.68"/>
<polyline fill="none" stroke="black" points="555.03,-156.7 503,-156.7"/>
<polyline fill="none" stroke="black" points="555.03,-156.7 555.03,-140.93"/>
<polyline fill="none" stroke="black" points="555.03,-156.7 557,-158.68"/>
<text text-anchor="start" x="518.38" y="-146.12" font-family="Helvetica,sans-Serif" font-size="9.00">auth0</text>
</a>
</g>
</g>
<!-- app/api&#45;v2&#45;&gt;app/lib/auth0 -->
<g id="edge3" class="edge">
<title>app/api&#45;v2&#45;&gt;app/lib/auth0</title>
<path fill="none" stroke="#000000" stroke-width="2" stroke-opacity="0.200000" d="M747.9,-232.96C747.56,-229.98 746.17,-221.71 741,-218.18 708.33,-195.81 596.67,-231.01 563,-210.18 547.7,-200.71 538.91,-181.43 534.31,-167.41"/>
<polygon fill="#000000" fill-opacity="0.200000" stroke="#000000" stroke-width="2" stroke-opacity="0.200000" points="536.43,-167.17 532.72,-162 532.4,-168.35 536.43,-167.17"/>
</g>
<!-- app/lib -->
<!-- app/api&#45;v2&#45;&gt;app/lib -->
<g id="edge4" class="edge">
<title>app/api&#45;v2&#45;&gt;app/lib</title>
<path fill="none" stroke="#000000" stroke-width="2" stroke-opacity="0.200000" d="M749.54,-233.64C755.55,-231.94 777.58,-224.88 787,-210.18 796.67,-195.07 796.47,-173.31 795.33,-160.76"/>
<polygon fill="#000000" fill-opacity="0.200000" stroke="#000000" stroke-width="2" stroke-opacity="0.200000" points="797.44,-160.75 794.61,-155.06 793.28,-161.28 797.44,-160.75"/>
</g>
<!-- app/models -->
<g id="node9" class="node">
<title>app/models</title>
<g id="a_node9"><a xlink:href="app/models" xlink:title="models">
<polygon fill="#ffffcc" stroke="orange" points="157,-91.17 104.97,-91.17 103,-89.2 103,-73.42 155.03,-73.42 157,-75.4 157,-91.17"/>
<polyline fill="none" stroke="orange" points="155.03,-89.2 103,-89.2"/>
<polyline fill="none" stroke="orange" points="155.03,-89.2 155.03,-73.42"/>
<polyline fill="none" stroke="orange" points="155.03,-89.2 157,-91.17"/>
<text text-anchor="start" x="115" y="-78.62" font-family="Helvetica,sans-Serif" font-size="9.00" fill="orange">models</text>
</a>
</g>
</g>
<!-- app/infrastructure/mongodb&#45;&gt;app/models -->
<g id="edge36" class="edge">
<title>app/infrastructure/mongodb&#45;&gt;app/models</title>
<path fill="none" stroke="#000000" stroke-width="2" stroke-opacity="0.200000" d="M425.2,-140.51C417.3,-134.96 406.08,-128.12 395,-124.93 370.22,-117.77 186.61,-127.32 163,-116.92 154.09,-113 146.34,-105.47 140.59,-98.52"/>
<polygon fill="#000000" fill-opacity="0.200000" stroke="#000000" stroke-width="2" stroke-opacity="0.200000" points="142.32,-97.32 137.01,-93.82 138.97,-99.87 142.32,-97.32"/>
</g>
<!-- app/domain/user -->
<g id="node21" class="node">
<title>app/domain/user</title>
<g id="a_node21"><a xlink:href="app/domain/user" xlink:title="user">
<polygon fill="#ffffcc" stroke="black" points="478,-91.17 425.97,-91.17 424,-89.2 424,-73.42 476.03,-73.42 478,-75.4 478,-91.17"/>
<polyline fill="none" stroke="black" points="476.03,-89.2 424,-89.2"/>
<polyline fill="none" stroke="black" points="476.03,-89.2 476.03,-73.42"/>
<polyline fill="none" stroke="black" points="476.03,-89.2 478,-91.17"/>
<text text-anchor="start" x="442" y="-78.62" font-family="Helvetica,sans-Serif" font-size="9.00">user</text>
</a>
</g>
</g>
<!-- app/infrastructure/mongodb&#45;&gt;app/domain/user -->
<g id="edge35" class="edge">
<title>app/infrastructure/mongodb&#45;&gt;app/domain/user</title>
<path fill="none" stroke="#000000" stroke-width="2" stroke-opacity="0.200000" d="M437.9,-140.5C440.23,-130.31 444.25,-112.77 447.22,-99.8"/>
<polygon fill="#000000" fill-opacity="0.200000" stroke="#000000" stroke-width="2" stroke-opacity="0.200000" points="449.19,-100.59 448.49,-94.27 445.1,-99.65 449.19,-100.59"/>
</g>
<!-- app/api&#45;v2/provisional&#45;features -->
<g id="node8" class="node">
<title>app/api&#45;v2/provisional&#45;features</title>
<g id="a_node8"><a xlink:href="app/api-v2/provisional-features" xlink:title="provisional&#45;features">
<polygon fill="#ffffcc" stroke="black" points="734.5,-243.93 639.47,-243.93 637.5,-241.95 637.5,-226.18 732.53,-226.18 734.5,-228.15 734.5,-243.93"/>
<polyline fill="none" stroke="black" points="732.53,-241.95 637.5,-241.95"/>
<polyline fill="none" stroke="black" points="732.53,-241.95 732.53,-226.18"/>
<polyline fill="none" stroke="black" points="732.53,-241.95 734.5,-243.93"/>
<text text-anchor="start" x="645.5" y="-231.38" font-family="Helvetica,sans-Serif" font-size="9.00">provisional&#45;features</text>
</a>
</g>
</g>
<!-- app/api&#45;v2/provisional&#45;features&#45;&gt;app/models -->
<g id="edge6" class="edge">
<title>app/api&#45;v2/provisional&#45;features&#45;&gt;app/models</title>
<path fill="none" stroke="#000000" stroke-width="2" stroke-opacity="0.200000" d="M637.1,-231.08C579.29,-227.64 480.17,-221.97 395,-218.18 382.12,-217.6 173.07,-218.24 163,-210.18 154.31,-203.21 139.62,-132.76 133.19,-99.95"/>
<polygon fill="#000000" fill-opacity="0.200000" stroke="#000000" stroke-width="2" stroke-opacity="0.200000" points="135.31,-99.89 132.11,-94.4 131.19,-100.69 135.31,-99.89"/>
</g>
<!-- app/models&#45;&gt;. -->
<g id="edge43" class="edge">
<title>app/models&#45;&gt;.</title>
<path fill="none" stroke="#000000" stroke-dasharray="5,2" stroke-opacity="0.200000" d="M143.99,-73.08C149.7,-70.14 156.48,-67.12 163,-65.42 198.12,-56.29 778.78,-28.86 815,-26.68 845.25,-24.85 879.63,-22.66 904.51,-21.05"/>
<polygon fill="#000000" fill-opacity="0.200000" stroke="#000000" stroke-opacity="0.200000" points="904.55,-23.15 910.4,-20.67 904.28,-18.96 904.55,-23.15"/>
</g>
<!-- app/models&#45;&gt;app -->
<g id="edge44" class="edge">
<title>app/models&#45;&gt;app</title>
<path fill="none" stroke="#000000" stroke-width="2" stroke-opacity="0.200000" d="M119.59,-73.15C115.12,-68.99 110.38,-63.52 108,-57.42 105.13,-50.08 103.73,-46.31 108,-39.67 115.76,-27.64 132.33,-22.46 143.32,-20.29"/>
<polygon fill="#000000" fill-opacity="0.200000" stroke="#000000" stroke-width="2" stroke-opacity="0.200000" points="143.54,-22.39 149.15,-19.41 142.91,-18.23 143.54,-22.39"/>
</g>
<!-- app/models&#45;&gt;app/lib/auth0 -->
<g id="edge47" class="edge">
<title>app/models&#45;&gt;app/lib/auth0</title>
<path fill="none" stroke="#000000" stroke-width="2" stroke-opacity="0.200000" d="M135.16,-91.44C140.86,-99.58 150.85,-111.65 163,-116.92 196.34,-131.4 455.08,-114.84 490,-124.93 497.82,-127.18 505.67,-131.36 512.32,-135.59"/>
<polygon fill="#000000" fill-opacity="0.200000" stroke="#000000" stroke-width="2" stroke-opacity="0.200000" points="510.86,-137.13 517,-138.77 513.22,-133.66 510.86,-137.13"/>
</g>
<!-- app/templates -->
<g id="node11" class="node">
<title>app/templates</title>
<g id="a_node11"><a xlink:href="app/templates" xlink:title="templates">
<polygon fill="#ffffcc" stroke="black" points="235.88,-57.42 182.1,-57.42 180.12,-55.45 180.12,-39.67 233.9,-39.67 235.88,-41.65 235.88,-57.42"/>
<polyline fill="none" stroke="black" points="233.9,-55.45 180.12,-55.45"/>
<polyline fill="none" stroke="black" points="233.9,-55.45 233.9,-39.67"/>
<polyline fill="none" stroke="black" points="233.9,-55.45 235.88,-57.42"/>
<text text-anchor="start" x="188.12" y="-44.88" font-family="Helvetica,sans-Serif" font-size="9.00">templates</text>
</a>
</g>
</g>
<!-- app/models&#45;&gt;app/templates -->
<g id="edge45" class="edge">
<title>app/models&#45;&gt;app/templates</title>
<g id="a_edge45"><a xlink:title="no&#45;circular">
<path fill="none" stroke="orange" stroke-width="2" d="M140.59,-73.03C145.57,-70.47 151.48,-67.72 157,-65.42 158.69,-64.72 160.41,-64.03 162.17,-63.34"/>
<polygon fill="orange" stroke="orange" stroke-width="2" points="171.91,-62.04 176.84,-58.02 170.48,-58.09 171.91,-62.04"/>
<polyline fill="none" stroke="orange" stroke-width="2" points="170.26,-60.41 167.44,-61.43"/>
<ellipse fill="none" stroke="orange" stroke-width="2" cx="164.24" cy="-62.59" rx="2.4" ry="2.4"/>
</a>
</g>
<text text-anchor="middle" x="138.13" y="-65.45" font-family="Helvetica,sans-Serif" font-size="9.00" fill="orange">no&#45;circular</text>
</g>
<!-- app/features -->
<g id="node22" class="node">
<title>app/features</title>
<g id="a_node22"><a xlink:href="app/features" xlink:title="features">
<polygon fill="#ffffcc" stroke="black" points="168,-57.42 115.97,-57.42 114,-55.45 114,-39.67 166.03,-39.67 168,-41.65 168,-57.42"/>
<polyline fill="none" stroke="black" points="166.03,-55.45 114,-55.45"/>
<polyline fill="none" stroke="black" points="166.03,-55.45 166.03,-39.67"/>
<polyline fill="none" stroke="black" points="166.03,-55.45 168,-57.42"/>
<text text-anchor="start" x="124.5" y="-44.88" font-family="Helvetica,sans-Serif" font-size="9.00">features</text>
</a>
</g>
</g>
<!-- app/models&#45;&gt;app/features -->
<g id="edge46" class="edge">
<title>app/models&#45;&gt;app/features</title>
<path fill="none" stroke="#000000" stroke-width="2" stroke-opacity="0.200000" d="M132.89,-72.96C133.65,-70.75 134.51,-68.3 135.36,-65.83"/>
<polygon fill="#000000" fill-opacity="0.200000" stroke="#000000" stroke-width="2" stroke-opacity="0.200000" points="137.2,-66.94 137.18,-60.59 133.23,-65.57 137.2,-66.94"/>
</g>
<!-- app/controllers -->
<!-- app/controllers&#45;&gt;. -->
<g id="edge10" class="edge">
<title>app/controllers&#45;&gt;.</title>
<path fill="none" stroke="#000000" stroke-dasharray="5,2" stroke-opacity="0.200000" d="M265.87,-81.02C277.69,-79.27 343.22,-69.74 397,-65.42 482.58,-58.55 504.44,-64.5 590,-57.42 653.83,-52.15 669.36,-46.85 733,-39.67 793.19,-32.89 863.4,-25.99 904.36,-22.07"/>
<polygon fill="#000000" fill-opacity="0.200000" stroke="#000000" stroke-opacity="0.200000" points="904.38,-24.18 910.15,-21.52 903.98,-20 904.38,-24.18"/>
</g>
<!-- app/controllers&#45;&gt;app -->
<g id="edge9" class="edge">
<title>app/controllers&#45;&gt;app</title>
<path fill="none" stroke="#000000" stroke-width="2" stroke-opacity="0.200000" d="M264.1,-80.05C264.46,-74.43 265.13,-51.21 253,-39.67 240.32,-27.62 187.4,-21.68 164.56,-19.64"/>
<polygon fill="#000000" fill-opacity="0.200000" stroke="#000000" stroke-width="2" stroke-opacity="0.200000" points="164.91,-17.57 158.75,-19.17 164.56,-21.75 164.91,-17.57"/>
</g>
<!-- app/controllers&#45;&gt;app/models -->
<g id="edge7" class="edge">
<title>app/controllers&#45;&gt;app/models</title>
<path fill="none" stroke="#000000" stroke-width="2" stroke-opacity="0.200000" d="M261.92,-82.3C230.1,-82.3 198.28,-82.3 166.46,-82.3"/>
<polygon fill="#000000" fill-opacity="0.200000" stroke="#000000" stroke-width="2" stroke-opacity="0.200000" points="166.51,-80.2 160.51,-82.3 166.51,-84.4 166.51,-80.2"/>
</g>
<!-- app/controllers&#45;&gt;app/templates -->
<g id="edge8" class="edge">
<title>app/controllers&#45;&gt;app/templates</title>
<path fill="none" stroke="#000000" stroke-width="2" stroke-opacity="0.200000" d="M263.92,-80.28C263.63,-77.49 262.45,-69.64 258,-65.42 254.19,-61.81 249.56,-59.02 244.67,-56.87"/>
<polygon fill="#000000" fill-opacity="0.200000" stroke="#000000" stroke-width="2" stroke-opacity="0.200000" points="245.5,-54.94 239.14,-54.85 244.06,-58.88 245.5,-54.94"/>
</g>
<!-- app/templates&#45;&gt;. -->
<g id="edge49" class="edge">
<title>app/templates&#45;&gt;.</title>
<path fill="none" stroke="#000000" stroke-dasharray="5,2" stroke-opacity="0.200000" d="M236.06,-45.48C261.18,-43.69 299.03,-41.17 332,-39.67 546.53,-29.98 600.47,-36.37 815,-26.68 845.27,-25.31 879.65,-23.07 904.53,-21.33"/>
<polygon fill="#000000" fill-opacity="0.200000" stroke="#000000" stroke-opacity="0.200000" points="904.58,-23.43 910.41,-20.91 904.28,-19.24 904.58,-23.43"/>
</g>
<!-- app/templates&#45;&gt;app -->
<g id="edge50" class="edge">
<title>app/templates&#45;&gt;app</title>
<path fill="none" stroke="#000000" stroke-width="2" stroke-opacity="0.200000" d="M192.38,-39.23C182.85,-34.16 171.01,-27.85 163.02,-23.6"/>
<polygon fill="#000000" fill-opacity="0.200000" stroke="#000000" stroke-width="2" stroke-opacity="0.200000" points="164.21,-21.85 157.92,-20.89 162.23,-25.56 164.21,-21.85"/>
</g>
<!-- app/templates&#45;&gt;app/models -->
<g id="edge48" class="edge">
<title>app/templates&#45;&gt;app/models</title>
<path fill="none" stroke="#000000" stroke-width="2" stroke-opacity="0.200000" d="M188.85,-57.8C182.48,-60.13 175.43,-62.76 169,-65.42 166.07,-66.64 163.02,-67.99 159.98,-69.37"/>
<polygon fill="#000000" fill-opacity="0.200000" stroke="#000000" stroke-width="2" stroke-opacity="0.200000" points="159.32,-67.36 154.74,-71.77 161.07,-71.18 159.32,-67.36"/>
</g>
<!-- app/controllers/admin -->
<!-- app/controllers/admin&#45;&gt;. -->
<g id="edge14" class="edge">
<title>app/controllers/admin&#45;&gt;.</title>
<path fill="none" stroke="#000000" stroke-dasharray="5,2" stroke-opacity="0.200000" d="M312.02,-232.96C312.16,-229.97 312.98,-221.69 318,-218.18 334.6,-206.57 1032.76,-224.57 1047,-210.18 1073.64,-183.24 1071.12,-68.9 1047,-39.67 1037.79,-28.52 1001.68,-23.26 973.71,-20.82"/>
<polygon fill="#000000" fill-opacity="0.200000" stroke="#000000" stroke-opacity="0.200000" points="974.1,-18.74 967.95,-20.35 973.76,-22.93 974.1,-18.74"/>
</g>
<!-- app/controllers/admin&#45;&gt;app -->
<g id="edge13" class="edge">
<title>app/controllers/admin&#45;&gt;app</title>
<path fill="none" stroke="#000000" stroke-width="2" stroke-opacity="0.200000" d="M311.83,-232.95C311.31,-229.95 309.41,-221.63 304,-218.18 281.61,-203.87 83.47,-229.27 65,-210.18 20.28,-163.93 46.98,-126.88 66,-65.42 70.05,-52.32 71.97,-47.83 83,-39.67 101.26,-26.17 128.15,-21.37 143.05,-19.68"/>
<polygon fill="#000000" fill-opacity="0.200000" stroke="#000000" stroke-width="2" stroke-opacity="0.200000" points="143.22,-21.77 149.02,-19.16 142.86,-17.59 143.22,-21.77"/>
</g>
<!-- app/controllers/admin&#45;&gt;app/models -->
<g id="edge11" class="edge">
<title>app/controllers/admin&#45;&gt;app/models</title>
<path fill="none" stroke="#000000" stroke-width="2" stroke-opacity="0.200000" d="M311.83,-232.95C311.3,-229.96 309.39,-221.66 304,-218.18 287.29,-207.36 138.76,-224.56 125,-210.18 96.53,-180.4 112.29,-126.49 122.88,-99.54"/>
<polygon fill="#000000" fill-opacity="0.200000" stroke="#000000" stroke-width="2" stroke-opacity="0.200000" points="124.69,-100.66 125.04,-94.31 120.81,-99.05 124.69,-100.66"/>
</g>
<!-- app/controllers/admin&#45;&gt;app/templates -->
<g id="edge12" class="edge">
<title>app/controllers/admin&#45;&gt;app/templates</title>
<path fill="none" stroke="#000000" stroke-width="2" stroke-opacity="0.200000" d="M311.83,-232.95C311.31,-229.96 309.4,-221.65 304,-218.18 285.49,-206.25 122,-225.3 106,-210.18 59.17,-165.89 53.84,-113.3 97,-65.42 107.21,-54.09 146.52,-58.8 171.2,-57.28"/>
<polygon fill="#000000" fill-opacity="0.200000" stroke="#000000" stroke-width="2" stroke-opacity="0.200000" points="171.1,-59.41 176.84,-56.68 170.65,-55.23 171.1,-59.41"/>
</g>
<!-- app/controllers/admin/tests -->
<g id="node13" class="node">
<title>app/controllers/admin/tests</title>
<g id="a_node13"><a xlink:href="app/controllers/admin/tests" xlink:title="tests">
<polygon fill="#ffffcc" stroke="black" points="298,-243.93 245.97,-243.93 244,-241.95 244,-226.18 296.03,-226.18 298,-228.15 298,-243.93"/>
<polyline fill="none" stroke="black" points="296.03,-241.95 244,-241.95"/>
<polyline fill="none" stroke="black" points="296.03,-241.95 296.03,-226.18"/>
<polyline fill="none" stroke="black" points="296.03,-241.95 298,-243.93"/>
<text text-anchor="start" x="261.62" y="-231.38" font-family="Helvetica,sans-Serif" font-size="9.00">tests</text>
</a>
</g>
</g>
<!-- app/controllers/admin/tests&#45;&gt;. -->
<g id="edge17" class="edge">
<title>app/controllers/admin/tests&#45;&gt;.</title>
<path fill="none" stroke="#000000" stroke-dasharray="5,2" stroke-opacity="0.200000" d="M284.96,-225.68C290.66,-222.71 297.44,-219.73 304,-218.18 358.4,-205.32 752.46,-222.4 807,-210.18 905.07,-188.2 958.53,-201.38 1013,-116.92 1031.62,-88.05 1032.15,-65.95 1010,-39.67 1000.99,-28.98 986.8,-23.61 973.47,-20.96"/>
<polygon fill="#000000" fill-opacity="0.200000" stroke="#000000" stroke-opacity="0.200000" points="973.95,-18.91 967.69,-20.01 973.27,-23.06 973.95,-18.91"/>
</g>
<!-- app/controllers/admin/tests&#45;&gt;app -->
<g id="edge16" class="edge">
<title>app/controllers/admin/tests&#45;&gt;app</title>
<path fill="none" stroke="#000000" stroke-width="2" stroke-opacity="0.200000" d="M257.93,-225.76C252.58,-222.8 246.2,-219.8 240,-218.18 229.3,-215.37 48.67,-218.15 41,-210.18 -11.5,-155.53 -7.47,-97.92 41,-39.67 53.95,-24.12 117.37,-20.11 143.11,-19.11"/>
<polygon fill="#000000" fill-opacity="0.200000" stroke="#000000" stroke-width="2" stroke-opacity="0.200000" points="143.01,-21.22 148.95,-18.93 142.88,-17.02 143.01,-21.22"/>
</g>
<!-- app/controllers/admin/tests&#45;&gt;app/models -->
<g id="edge15" class="edge">
<title>app/controllers/admin/tests&#45;&gt;app/models</title>
<path fill="none" stroke="#000000" stroke-width="2" stroke-opacity="0.200000" d="M257.91,-225.83C252.56,-222.88 246.18,-219.87 240,-218.18 226.15,-214.38 120.84,-220.64 111,-210.18 82.37,-179.71 105.93,-125.72 120.55,-99.07"/>
<polygon fill="#000000" fill-opacity="0.200000" stroke="#000000" stroke-width="2" stroke-opacity="0.200000" points="122.25,-100.33 123.4,-94.08 118.6,-98.25 122.25,-100.33"/>
</g>
<!-- app/controllers/api -->
<g id="node14" class="node">
<title>app/controllers/api</title>
<g id="a_node14"><a xlink:href="app/controllers/api" xlink:title="api">
<polygon fill="#ffffcc" stroke="black" points="291,-158.68 238.97,-158.68 237,-156.7 237,-140.93 289.03,-140.93 291,-142.9 291,-158.68"/>
<polyline fill="none" stroke="black" points="289.03,-156.7 237,-156.7"/>
<polyline fill="none" stroke="black" points="289.03,-156.7 289.03,-140.93"/>
<polyline fill="none" stroke="black" points="289.03,-156.7 291,-158.68"/>
<text text-anchor="start" x="257.62" y="-146.12" font-family="Helvetica,sans-Serif" font-size="9.00">api</text>
</a>
</g>
</g>
<!-- app/controllers/api&#45;&gt;. -->
<g id="edge21" class="edge">
<title>app/controllers/api&#45;&gt;.</title>
<path fill="none" stroke="#000000" stroke-dasharray="5,2" stroke-opacity="0.200000" d="M291.4,-143.13C318.21,-137.76 360.26,-129.81 397,-124.93 437.69,-119.52 448.42,-123.09 489,-116.92 645.81,-93.11 829.77,-47.29 904.67,-27.86"/>
<polygon fill="#000000" fill-opacity="0.200000" stroke="#000000" stroke-opacity="0.200000" points="904.83,-29.99 910.11,-26.45 903.78,-25.93 904.83,-29.99"/>
</g>
<!-- app/controllers/api&#45;&gt;app -->
<g id="edge19" class="edge">
<title>app/controllers/api&#45;&gt;app</title>
<path fill="none" stroke="#000000" stroke-width="2" stroke-opacity="0.200000" d="M261.74,-140.45C260.05,-134.04 257.73,-124.96 256,-116.92 248.64,-82.82 266,-65 242,-39.67 231.43,-28.52 185.57,-22.22 164.57,-19.87"/>
<polygon fill="#000000" fill-opacity="0.200000" stroke="#000000" stroke-width="2" stroke-opacity="0.200000" points="165.04,-17.81 158.86,-19.28 164.61,-21.99 165.04,-17.81"/>
</g>
<!-- app/controllers/api&#45;&gt;app/models -->
<g id="edge18" class="edge">
<title>app/controllers/api&#45;&gt;app/models</title>
<path fill="none" stroke="#000000" stroke-width="2" stroke-opacity="0.200000" d="M255.85,-140.5C250.02,-135.11 241.69,-128.45 233,-124.93 203.98,-113.16 191.14,-130.67 163,-116.92 154.36,-112.71 146.7,-105.28 140.94,-98.47"/>
<polygon fill="#000000" fill-opacity="0.200000" stroke="#000000" stroke-width="2" stroke-opacity="0.200000" points="142.71,-97.32 137.35,-93.9 139.4,-99.91 142.71,-97.32"/>
</g>
<!-- app/controllers/api&#45;&gt;app/controllers -->
<g id="edge22" class="edge">
<title>app/controllers/api&#45;&gt;app/controllers</title>
<path fill="none" stroke="#000000" stroke-width="2" stroke-opacity="0.200000" d="M264,-140.5C264,-128.4 264,-105.94 264,-93.06"/>
<polygon fill="#000000" fill-opacity="0.200000" stroke="#000000" stroke-width="2" stroke-opacity="0.200000" points="266.1,-93.32 264,-87.32 261.9,-93.32 266.1,-93.32"/>
</g>
<!-- app/controllers/api&#45;&gt;app/templates -->
<g id="edge20" class="edge">
<title>app/controllers/api&#45;&gt;app/templates</title>
<path fill="none" stroke="#000000" stroke-width="2" stroke-opacity="0.200000" d="M258.92,-140.46C255.04,-134.06 249.61,-124.98 245,-116.92 235.01,-99.47 223.96,-79.21 216.56,-65.51"/>
<polygon fill="#000000" fill-opacity="0.200000" stroke="#000000" stroke-width="2" stroke-opacity="0.200000" points="218.59,-64.85 213.9,-60.57 214.89,-66.84 218.59,-64.85"/>
</g>
<!-- app/lib/hypem -->
<g id="node15" class="node">
<title>app/lib/hypem</title>
<g id="a_node15"><a xlink:href="app/lib/hypem" xlink:title="hypem">
<polygon fill="#ffffcc" stroke="black" points="623,-158.68 570.97,-158.68 569,-156.7 569,-140.93 621.03,-140.93 623,-142.9 623,-158.68"/>
<polyline fill="none" stroke="black" points="621.03,-156.7 569,-156.7"/>
<polyline fill="none" stroke="black" points="621.03,-156.7 621.03,-140.93"/>
<polyline fill="none" stroke="black" points="621.03,-156.7 623,-158.68"/>
<text text-anchor="start" x="582.12" y="-146.12" font-family="Helvetica,sans-Serif" font-size="9.00">hypem</text>
</a>
</g>
</g>
<!-- app/controllers/api&#45;&gt;app/lib/hypem -->
<g id="edge23" class="edge">
<title>app/controllers/api&#45;&gt;app/lib/hypem</title>
<path fill="none" stroke="#000000" stroke-width="2" stroke-opacity="0.200000" d="M278.27,-158.98C302.65,-174.06 354.43,-203.47 403,-214.18 419.71,-217.86 540.62,-219.13 557,-214.18 577.05,-208.1 587.28,-184.39 592.13,-167.51"/>
<polygon fill="#000000" fill-opacity="0.200000" stroke="#000000" stroke-width="2" stroke-opacity="0.200000" points="594.11,-168.26 593.55,-161.93 590.04,-167.23 594.11,-168.26"/>
</g>
<!-- app/lib/hypem&#45;&gt;.. -->
<g id="edge37" class="edge">
<title>app/lib/hypem&#45;&gt;..</title>
<g id="a_edge37"><a xlink:title="not&#45;to&#45;unresolvable">
<path fill="none" stroke="red" stroke-width="2" d="M604.41,-140.5C610.64,-134.95 619.63,-128.11 629,-124.93 657.84,-115.12 874.83,-128.51 903,-116.92 912.61,-112.97 921.21,-105.2 927.59,-98.12"/>
<polygon fill="red" stroke="red" stroke-width="2" points="929,-99.71 931.24,-93.76 925.78,-97.01 929,-99.71"/>
</a>
</g>
<text text-anchor="middle" x="728.66" y="-122.82" font-family="Helvetica,sans-Serif" font-size="9.00" fill="red">not&#45;to&#45;unresolvable</text>
</g>
<!-- app/controllers/private -->
<g id="node16" class="node">
<title>app/controllers/private</title>
<g id="a_node16"><a xlink:href="app/controllers/private" xlink:title="private">
<polygon fill="#ffffcc" stroke="black" points="384,-243.93 331.97,-243.93 330,-241.95 330,-226.18 382.03,-226.18 384,-228.15 384,-243.93"/>
<polyline fill="none" stroke="black" points="382.03,-241.95 330,-241.95"/>
<polyline fill="none" stroke="black" points="382.03,-241.95 382.03,-226.18"/>
<polyline fill="none" stroke="black" points="382.03,-241.95 384,-243.93"/>
<text text-anchor="start" x="343.12" y="-231.38" font-family="Helvetica,sans-Serif" font-size="9.00">private</text>
</a>
</g>
</g>
<!-- app/controllers/private&#45;&gt;. -->
<g id="edge30" class="edge">
<title>app/controllers/private&#45;&gt;.</title>
<path fill="none" stroke="#000000" stroke-dasharray="5,2" stroke-opacity="0.200000" d="M384.48,-232.05C433.13,-228.61 537.65,-221.57 626,-218.18 638.41,-217.7 1064.3,-219.03 1073,-210.18 1099.55,-183.14 1097.64,-68.45 1073,-39.67 1060.45,-25.02 1009.08,-20.58 973.71,-19.27"/>
<polygon fill="#000000" fill-opacity="0.200000" stroke="#000000" stroke-opacity="0.200000" points="974.01,-17.18 967.94,-19.09 973.87,-21.38 974.01,-17.18"/>
</g>
<!-- app/controllers/private&#45;&gt;app -->
<g id="edge27" class="edge">
<title>app/controllers/private&#45;&gt;app</title>
<path fill="none" stroke="#000000" stroke-width="2" stroke-opacity="0.200000" d="M343.48,-225.76C337.95,-222.8 331.37,-219.8 325,-218.18 303.34,-212.64 141.6,-223.96 124,-210.18 63.85,-163.07 53.34,-98.58 102,-39.67 112.33,-27.17 131.26,-22.1 143.21,-20.08"/>
<polygon fill="#000000" fill-opacity="0.200000" stroke="#000000" stroke-width="2" stroke-opacity="0.200000" points="143.33,-22.19 149.01,-19.33 142.79,-18.02 143.33,-22.19"/>
</g>
<!-- app/controllers/private&#45;&gt;app/models -->
<g id="edge24" class="edge">
<title>app/controllers/private&#45;&gt;app/models</title>
<path fill="none" stroke="#000000" stroke-width="2" stroke-opacity="0.200000" d="M343.47,-225.77C337.95,-222.82 331.37,-219.81 325,-218.18 304.97,-213.02 153.83,-224.6 139,-210.18 123.79,-195.38 126.34,-131.29 128.56,-100.26"/>
<polygon fill="#000000" fill-opacity="0.200000" stroke="#000000" stroke-width="2" stroke-opacity="0.200000" points="130.64,-100.61 129.01,-94.47 126.46,-100.29 130.64,-100.61"/>
</g>
<!-- app/controllers/private&#45;&gt;app/controllers -->
<g id="edge28" class="edge">
<title>app/controllers/private&#45;&gt;app/controllers</title>
<path fill="none" stroke="#000000" stroke-width="2" stroke-opacity="0.200000" d="M353.08,-225.84C344.09,-207.29 320.93,-160.94 297,-124.93 288.69,-112.42 277.61,-98.99 270.64,-90.87"/>
<polygon fill="#000000" fill-opacity="0.200000" stroke="#000000" stroke-width="2" stroke-opacity="0.200000" points="272.4,-89.7 266.87,-86.56 269.24,-92.46 272.4,-89.7"/>
</g>
<!-- app/controllers/private&#45;&gt;app/templates -->
<g id="edge25" class="edge">
<title>app/controllers/private&#45;&gt;app/templates</title>
<path fill="none" stroke="#000000" stroke-width="2" stroke-opacity="0.200000" d="M343.12,-225.74C337.66,-222.86 331.21,-219.91 325,-218.18 304.81,-212.53 246.51,-224.28 231,-210.18 190.4,-173.27 198.26,-99.54 204.35,-66.39"/>
<polygon fill="#000000" fill-opacity="0.200000" stroke="#000000" stroke-width="2" stroke-opacity="0.200000" points="206.35,-67.09 205.46,-60.8 202.23,-66.27 206.35,-67.09"/>
</g>
<!-- app/controllers/private&#45;&gt;app/controllers/api -->
<g id="edge26" class="edge">
<title>app/controllers/private&#45;&gt;app/controllers/api</title>
<path fill="none" stroke="#000000" stroke-width="2" stroke-opacity="0.200000" d="M345.58,-225.71C339.62,-221.25 332.28,-215.58 326,-210.18 309.03,-195.58 290.63,-177.68 278.32,-165.37"/>
<polygon fill="#000000" fill-opacity="0.200000" stroke="#000000" stroke-width="2" stroke-opacity="0.200000" points="280.01,-164.09 274.29,-161.31 277.03,-167.05 280.01,-164.09"/>
</g>
<!-- app/lib/my&#45;img -->
<g id="node17" class="node">
<title>app/lib/my&#45;img</title>
<g id="a_node17"><a xlink:href="app/lib/my-img" xlink:title="my&#45;img">
<polygon fill="#ffffcc" stroke="black" points="689,-158.68 636.97,-158.68 635,-156.7 635,-140.93 687.03,-140.93 689,-142.9 689,-158.68"/>
<polyline fill="none" stroke="black" points="687.03,-156.7 635,-156.7"/>
<polyline fill="none" stroke="black" points="687.03,-156.7 687.03,-140.93"/>
<polyline fill="none" stroke="black" points="687.03,-156.7 689,-158.68"/>
<text text-anchor="start" x="647" y="-146.12" font-family="Helvetica,sans-Serif" font-size="9.00">my&#45;img</text>
</a>
</g>
</g>
<!-- app/controllers/private&#45;&gt;app/lib/my&#45;img -->
<g id="edge29" class="edge">
<title>app/controllers/private&#45;&gt;app/lib/my&#45;img</title>
<path fill="none" stroke="#000000" stroke-width="2" stroke-opacity="0.200000" d="M384.07,-233.11C448.82,-230.65 608.77,-223.3 629,-210.18 643.95,-200.47 652.75,-181.54 657.45,-167.65"/>
<polygon fill="#000000" fill-opacity="0.200000" stroke="#000000" stroke-width="2" stroke-opacity="0.200000" points="659.46,-168.26 659.19,-161.91 655.44,-167.04 659.46,-168.26"/>
</g>
<!-- app/lib/my&#45;img&#45;&gt;. -->
<g id="edge42" class="edge">
<title>app/lib/my&#45;img&#45;&gt;.</title>
<path fill="none" stroke="#000000" stroke-dasharray="5,2" stroke-opacity="0.200000" d="M670.11,-140.5C676.12,-134.96 684.84,-128.11 694,-124.93 708.59,-119.85 961.23,-128.01 972,-116.92 994.8,-93.46 968.49,-53.75 951.38,-32.77"/>
<polygon fill="#000000" fill-opacity="0.200000" stroke="#000000" stroke-opacity="0.200000" points="953.09,-31.53 947.62,-28.29 949.87,-34.23 953.09,-31.53"/>
</g>
<!-- app/controllers/testing -->
<g id="node18" class="node">
<title>app/controllers/testing</title>
<g id="a_node18"><a xlink:href="app/controllers/testing" xlink:title="testing">
<polygon fill="#ffffcc" stroke="black" points="228,-243.93 175.97,-243.93 174,-241.95 174,-226.18 226.03,-226.18 228,-228.15 228,-243.93"/>
<polyline fill="none" stroke="black" points="226.03,-241.95 174,-241.95"/>
<polyline fill="none" stroke="black" points="226.03,-241.95 226.03,-226.18"/>
<polyline fill="none" stroke="black" points="226.03,-241.95 228,-243.93"/>
<text text-anchor="start" x="187.5" y="-231.38" font-family="Helvetica,sans-Serif" font-size="9.00">testing</text>
</a>
</g>
</g>
<!-- app/controllers/testing&#45;&gt;app/models -->
<g id="edge31" class="edge">
<title>app/controllers/testing&#45;&gt;app/models</title>
<path fill="none" stroke="#000000" stroke-width="2" stroke-opacity="0.200000" d="M187.56,-225.82C182.27,-222.94 176.02,-219.98 170,-218.18 154.37,-213.49 107.89,-222.33 97,-210.18 71.71,-181.96 84.54,-160.71 97,-124.93 100.58,-114.66 107.86,-105.02 114.67,-97.61"/>
<polygon fill="#000000" fill-opacity="0.200000" stroke="#000000" stroke-width="2" stroke-opacity="0.200000" points="115.87,-99.39 118.56,-93.63 112.87,-96.45 115.87,-99.39"/>
</g>
<!-- app/infrastructure -->
<!-- app/controllers/testing&#45;&gt;app/infrastructure -->
<g id="edge32" class="edge">
<title>app/controllers/testing&#45;&gt;app/infrastructure</title>
<path fill="none" stroke="#000000" stroke-width="2" stroke-opacity="0.200000" d="M214.52,-225.74C220.04,-222.78 226.63,-219.78 233,-218.18 245.77,-214.95 460.3,-219.09 470,-210.18 483.57,-197.69 481.68,-173.95 479.25,-160.58"/>
<polygon fill="#000000" fill-opacity="0.200000" stroke="#000000" stroke-width="2" stroke-opacity="0.200000" points="481.31,-160.19 477.96,-154.79 477.22,-161.11 481.31,-160.19"/>
</g>
<!-- app/infrastructure&#45;&gt;. -->
<g id="edge34" class="edge">
<title>app/infrastructure&#45;&gt;.</title>
<path fill="none" stroke="#000000" stroke-dasharray="5,2" stroke-opacity="0.200000" d="M477.31,-147.62C478.45,-143.55 482.8,-130.13 492,-124.93 529.52,-103.68 843.51,-139.9 880,-116.92 901.7,-103.26 892.78,-87.39 906,-65.42 912.75,-54.21 921.31,-42.17 928.02,-33.13"/>
<polygon fill="#000000" fill-opacity="0.200000" stroke="#000000" stroke-opacity="0.200000" points="929.69,-34.41 931.62,-28.35 926.33,-31.88 929.69,-34.41"/>
</g>
<!-- fs -->
<g id="node23" class="node">
<title>fs</title>
<g id="a_node23"><a xlink:href="https://nodejs.org/api/fs.html" xlink:title="fs">
<polygon fill="#ffffcc" stroke="grey" points="874,-91.17 821.97,-91.17 820,-89.2 820,-73.42 872.03,-73.42 874,-75.4 874,-91.17"/>
<polyline fill="none" stroke="grey" points="872.03,-89.2 820,-89.2"/>
<polyline fill="none" stroke="grey" points="872.03,-89.2 872.03,-73.42"/>
<polyline fill="none" stroke="grey" points="872.03,-89.2 874,-91.17"/>
<text text-anchor="middle" x="847" y="-78.62" font-family="Helvetica,sans-Serif" font-size="9.00" fill="grey">fs</text>
</a>
</g>
</g>
<!-- app/infrastructure&#45;&gt;fs -->
<g id="edge33" class="edge">
<title>app/infrastructure&#45;&gt;fs</title>
<path fill="none" stroke="#000000" stroke-dasharray="5,2" stroke-opacity="0.200000" d="M477.31,-147.62C478.45,-143.56 482.83,-130.18 492,-124.93 517.18,-110.5 724.49,-122.32 753,-116.92 777.42,-112.3 803.97,-102.31 822.61,-94.41"/>
<polygon fill="#000000" fill-opacity="0.200000" stroke="#000000" stroke-opacity="0.200000" points="823.03,-96.52 827.71,-92.21 821.37,-92.66 823.03,-96.52"/>
</g>
<!-- app/domain -->
<!-- app/lib/my&#45;http&#45;wrapper -->
<!-- app/lib/my&#45;http&#45;wrapper/http -->
<g id="node25" class="node">
<title>app/lib/my&#45;http&#45;wrapper/http</title>
<g id="a_node25"><a xlink:href="app/lib/my-http-wrapper/http" xlink:title="http">
<polygon fill="#ffffcc" stroke="black" points="775,-158.68 722.97,-158.68 721,-156.7 721,-140.93 773.03,-140.93 775,-142.9 775,-158.68"/>
<polyline fill="none" stroke="black" points="773.03,-156.7 721,-156.7"/>
<polyline fill="none" stroke="black" points="773.03,-156.7 773.03,-140.93"/>
<polyline fill="none" stroke="black" points="773.03,-156.7 775,-158.68"/>
<text text-anchor="start" x="740.5" y="-146.12" font-family="Helvetica,sans-Serif" font-size="9.00">http</text>
</a>
</g>
</g>
<!-- app/lib/my&#45;http&#45;wrapper/http&#45;&gt;. -->
<g id="edge41" class="edge">
<title>app/lib/my&#45;http&#45;wrapper/http&#45;&gt;.</title>
<path fill="none" stroke="#000000" stroke-dasharray="5,2" stroke-opacity="0.200000" d="M755.82,-140.53C761.62,-134.99 770.06,-128.16 779,-124.93 801.59,-116.77 978.34,-134.22 995,-116.92 1018.82,-92.2 1014.58,-67.88 995,-39.67 989.87,-32.28 981.79,-27.51 973.34,-24.42"/>
<polygon fill="#000000" fill-opacity="0.200000" stroke="#000000" stroke-opacity="0.200000" points="974.02,-22.43 967.67,-22.65 972.77,-26.44 974.02,-22.43"/>
</g>
<!-- app/lib/my&#45;http&#45;wrapper/http&#45;&gt;app/api&#45;v2 -->
<g id="edge38" class="edge">
<title>app/lib/my&#45;http&#45;wrapper/http&#45;&gt;app/api&#45;v2</title>
<path fill="none" stroke="#000000" stroke-width="2" stroke-opacity="0.200000" d="M748,-159.15C748,-174.64 748,-207.77 748,-224.28"/>
<polygon fill="#000000" fill-opacity="0.200000" stroke="#000000" stroke-width="2" stroke-opacity="0.200000" points="745.9,-223.85 748,-229.85 750.1,-223.85 745.9,-223.85"/>
</g>
<!-- app/lib/my&#45;http&#45;wrapper/http&#45;&gt;app/api&#45;v2/provisional&#45;features -->
<g id="edge39" class="edge">
<title>app/lib/my&#45;http&#45;wrapper/http&#45;&gt;app/api&#45;v2/provisional&#45;features</title>
<path fill="none" stroke="#000000" stroke-width="2" stroke-opacity="0.200000" d="M744.59,-159.08C739.38,-171.14 728.59,-193.87 715,-210.18 712,-213.78 708.39,-217.24 704.76,-220.36"/>
<polygon fill="#000000" fill-opacity="0.200000" stroke="#000000" stroke-width="2" stroke-opacity="0.200000" points="703.62,-218.58 700.26,-223.97 706.25,-221.85 703.62,-218.58"/>
</g>
<!-- app/lib/my&#45;http&#45;wrapper/http&#45;&gt;app/controllers/admin -->
<g id="edge40" class="edge">
<title>app/lib/my&#45;http&#45;wrapper/http&#45;&gt;app/controllers/admin</title>
<path fill="none" stroke="#000000" stroke-width="2" stroke-opacity="0.200000" d="M746.16,-159.15C742.7,-172.64 733.79,-198.86 715,-210.18 696.1,-221.55 336.02,-205.45 318,-218.18 315.97,-219.61 314.62,-221.83 313.73,-224.16"/>
<polygon fill="#000000" fill-opacity="0.200000" stroke="#000000" stroke-width="2" stroke-opacity="0.200000" points="311.68,-223.7 312.6,-229.99 315.81,-224.5 311.68,-223.7"/>
</g>
<!-- app/workers -->
<g id="node26" class="node">
<title>app/workers</title>
<g id="a_node26"><a xlink:href="app/workers" xlink:title="workers">
<polygon fill="#ffffcc" stroke="black" points="227,-321.18 174.97,-321.18 173,-319.2 173,-303.43 225.03,-303.43 227,-305.4 227,-321.18"/>
<polyline fill="none" stroke="black" points="225.03,-319.2 173,-319.2"/>
<polyline fill="none" stroke="black" points="225.03,-319.2 225.03,-303.43"/>
<polyline fill="none" stroke="black" points="225.03,-319.2 227,-321.18"/>
<text text-anchor="start" x="183.88" y="-308.62" font-family="Helvetica,sans-Serif" font-size="9.00">workers</text>
</a>
</g>
</g>
<!-- app/workers&#45;&gt;app/models -->
<g id="edge52" class="edge">
<title>app/workers&#45;&gt;app/models</title>
<path fill="none" stroke="#000000" stroke-width="2" stroke-opacity="0.200000" d="M176.96,-303.06C172.17,-300.9 167.27,-298.34 163,-295.43 119.07,-265.43 99.17,-259.39 79,-210.18 64.63,-175.12 62.75,-159.15 79,-124.93 84.76,-112.79 95.97,-103.03 106.42,-96.02"/>
<polygon fill="#000000" fill-opacity="0.200000" stroke="#000000" stroke-width="2" stroke-opacity="0.200000" points="107.26,-97.97 111.24,-93.01 105.04,-94.41 107.26,-97.97"/>
</g>
<!-- app/workers&#45;&gt;app/controllers/private -->
<g id="edge51" class="edge">
<title>app/workers&#45;&gt;app/controllers/private</title>
<path fill="none" stroke="#000000" stroke-width="2" stroke-opacity="0.200000" d="M227.37,-310.7C259.28,-309.51 309.62,-305.98 325,-295.43 339.59,-285.41 348.11,-266.53 352.64,-252.74"/>
<polygon fill="#000000" fill-opacity="0.200000" stroke="#000000" stroke-width="2" stroke-opacity="0.200000" points="354.62,-253.43 354.3,-247.08 350.59,-252.24 354.62,-253.43"/>
</g>
</g>
</svg>
