<?xml version="1.0" encoding="UTF-8" standalone="no"?>
<!DOCTYPE svg PUBLIC "-//W3C//DTD SVG 1.1//EN"
 "http://www.w3.org/Graphics/SVG/1.1/DTD/svg11.dtd">
<!-- Generated by graphviz version 8.1.0 (20230707.0739)
 -->
<!-- Title: dependency&#45;cruiser output Pages: 1 -->
<svg width="718pt" height="330pt"
 viewBox="0.00 0.00 718.00 330.25" xmlns="http://www.w3.org/2000/svg" xmlns:xlink="http://www.w3.org/1999/xlink">
<g id="graph0" class="graph" transform="scale(1 1) rotate(0) translate(4 326.25)">
<title>dependency&#45;cruiser output</title>
<polygon fill="white" stroke="none" points="-4,4 -4,-326.25 714,-326.25 714,4 -4,4"/>
<g id="clust1" class="cluster">
<title>cluster_..</title>
<path fill="#ffffff" stroke="black" stroke-width="2" d="M171,-149.75C171,-149.75 217,-149.75 217,-149.75 223,-149.75 229,-155.75 229,-161.75 229,-161.75 229,-189.25 229,-189.25 229,-195.25 223,-201.25 217,-201.25 217,-201.25 171,-201.25 171,-201.25 165,-201.25 159,-195.25 159,-189.25 159,-189.25 159,-161.75 159,-161.75 159,-155.75 165,-149.75 171,-149.75"/>
<text text-anchor="middle" x="194" y="-188.7" font-family="Helvetica,sans-Serif" font-weight="bold" font-size="9.00">..</text>
</g>
<g id="clust2" class="cluster">
<title>cluster_app</title>
<path fill="#ffffff" stroke="black" stroke-width="2" d="M249,-25.75C249,-25.75 525,-25.75 525,-25.75 531,-25.75 537,-31.75 537,-37.75 537,-37.75 537,-302.25 537,-302.25 537,-308.25 531,-314.25 525,-314.25 525,-314.25 249,-314.25 249,-314.25 243,-314.25 237,-308.25 237,-302.25 237,-302.25 237,-37.75 237,-37.75 237,-31.75 243,-25.75 249,-25.75"/>
<text text-anchor="middle" x="387" y="-301.7" font-family="Helvetica,sans-Serif" font-weight="bold" font-size="9.00">app</text>
</g>
<g id="clust3" class="cluster">
<title>cluster_fs</title>
<path fill="#ffffff" stroke="black" stroke-width="2" d="M171,-90.25C171,-90.25 217,-90.25 217,-90.25 223,-90.25 229,-96.25 229,-102.25 229,-102.25 229,-129.75 229,-129.75 229,-135.75 223,-141.75 217,-141.75 217,-141.75 171,-141.75 171,-141.75 165,-141.75 159,-135.75 159,-129.75 159,-129.75 159,-102.25 159,-102.25 159,-96.25 165,-90.25 171,-90.25"/>
<text text-anchor="middle" x="194" y="-129.2" font-family="Helvetica,sans-Serif" font-weight="bold" font-size="9.00">fs</text>
</g>
<!-- ../get -->
<g id="node1" class="node">
<title>../get</title>
<g id="a_node1"><a xlink:title="get">
<path fill="#ffffcc" stroke="red" d="M215.08,-175.5C215.08,-175.5 172.92,-175.5 172.92,-175.5 169.96,-175.5 167,-172.54 167,-169.58 167,-169.58 167,-163.67 167,-163.67 167,-160.71 169.96,-157.75 172.92,-157.75 172.92,-157.75 215.08,-157.75 215.08,-157.75 218.04,-157.75 221,-160.71 221,-163.67 221,-163.67 221,-169.58 221,-169.58 221,-172.54 218.04,-175.5 215.08,-175.5"/>
<text text-anchor="start" x="187.62" y="-162.95" font-family="Helvetica,sans-Serif" font-size="9.00" fill="red">get</text>
</a>
</g>
</g>
<!-- app/MyController.js -->
<g id="node2" class="node">
<title>app/MyController.js</title>
<g id="a_node2"><a xlink:href="app/MyController.js" xlink:title="MyController.js">
<path fill="#ffffcc" stroke="black" d="M424.83,-227C424.83,-227 359.17,-227 359.17,-227 356.21,-227 353.25,-224.04 353.25,-221.08 353.25,-221.08 353.25,-215.17 353.25,-215.17 353.25,-212.21 356.21,-209.25 359.17,-209.25 359.17,-209.25 424.83,-209.25 424.83,-209.25 427.79,-209.25 430.75,-212.21 430.75,-215.17 430.75,-215.17 430.75,-221.08 430.75,-221.08 430.75,-224.04 427.79,-227 424.83,-227"/>
<text text-anchor="start" x="361.25" y="-214.45" font-family="Helvetica,sans-Serif" font-size="9.00">MyController.js</text>
</a>
</g>
</g>
<!-- app/controllers -->
<g id="node3" class="node">
<title>app/controllers</title>
<g id="a_node3"><a xlink:href="app/controllers" xlink:title="no&#45;orphans">
<polygon fill="#ffffcc" stroke="orange" points="329.38,-257.75 272.6,-257.75 270.62,-255.78 270.62,-240 327.4,-240 329.38,-241.97 329.38,-257.75"/>
<polyline fill="none" stroke="orange" points="327.4,-255.78 270.62,-255.78"/>
<polyline fill="none" stroke="orange" points="327.4,-255.78 327.4,-240"/>
<polyline fill="none" stroke="orange" points="327.4,-255.78 329.38,-257.75"/>
<text text-anchor="start" x="278.62" y="-245.2" font-family="Helvetica,sans-Serif" font-size="9.00" fill="orange">controllers</text>
</a>
</g>
</g>
<!-- app/controllers&#45;&gt;app/MyController.js -->
<g id="edge4" class="edge">
<title>app/controllers&#45;&gt;app/MyController.js</title>
<path fill="none" stroke="#000000" stroke-width="2" stroke-opacity="0.200000" d="M326.61,-239.56C336.05,-236.61 346.82,-233.24 356.87,-230.1"/>
<polygon fill="#000000" fill-opacity="0.200000" stroke="#000000" stroke-width="2" stroke-opacity="0.200000" points="358.35,-231.22 363.45,-227.42 357.1,-227.21 358.35,-231.22"/>
</g>
<!-- app/models -->
<g id="node4" class="node">
<title>app/models</title>
<g id="a_node4"><a xlink:href="app/models" xlink:title="no&#45;orphans">
<polygon fill="#ffffcc" stroke="orange" points="397,-116 344.97,-116 343,-114.03 343,-98.25 395.03,-98.25 397,-100.22 397,-116"/>
<polyline fill="none" stroke="orange" points="395.03,-114.03 343,-114.03"/>
<polyline fill="none" stroke="orange" points="395.03,-114.03 395.03,-98.25"/>
<polyline fill="none" stroke="orange" points="395.03,-114.03 397,-116"/>
<text text-anchor="start" x="355" y="-103.45" font-family="Helvetica,sans-Serif" font-size="9.00" fill="orange">models</text>
</a>
</g>
</g>
<!-- app/controllers&#45;&gt;app/models -->
<g id="edge1" class="edge">
<title>app/controllers&#45;&gt;app/models</title>
<path fill="none" stroke="#000000" stroke-width="2" stroke-opacity="0.200000" d="M315.55,-239.53C321.33,-236.05 327.76,-231.72 333,-227 340.46,-220.27 339.92,-216.38 347,-209.25 351.01,-205.21 354.18,-206.2 357,-201.25 370.54,-177.46 371.92,-144.89 371.26,-125.24"/>
<polygon fill="#000000" fill-opacity="0.200000" stroke="#000000" stroke-width="2" stroke-opacity="0.200000" points="373.21,-125.37 370.8,-119.49 369.02,-125.59 373.21,-125.37"/>
</g>
<!-- app/templates -->
<g id="node5" class="node">
<title>app/templates</title>
<g id="a_node5"><a xlink:href="app/templates" xlink:title="templates">
<polygon fill="#ffffcc" stroke="black" points="330.88,-82.25 277.1,-82.25 275.12,-80.28 275.12,-64.5 328.9,-64.5 330.88,-66.47 330.88,-82.25"/>
<polyline fill="none" stroke="black" points="328.9,-80.28 275.12,-80.28"/>
<polyline fill="none" stroke="black" points="328.9,-80.28 328.9,-64.5"/>
<polyline fill="none" stroke="black" points="328.9,-80.28 330.88,-82.25"/>
<text text-anchor="start" x="283.12" y="-69.7" font-family="Helvetica,sans-Serif" font-size="9.00">templates</text>
</a>
</g>
</g>
<!-- app/controllers&#45;&gt;app/templates -->
<g id="edge2" class="edge">
<title>app/controllers&#45;&gt;app/templates</title>
<path fill="none" stroke="#000000" stroke-width="2" stroke-opacity="0.200000" d="M277.62,-239.65C271.53,-236.49 265.4,-232.33 261,-227 239.02,-200.39 249.29,-184.07 253,-149.75 255.91,-122.84 248.76,-111.12 266,-90.25 266.73,-89.37 267.51,-88.54 268.34,-87.75"/>
<polygon fill="#000000" fill-opacity="0.200000" stroke="#000000" stroke-width="2" stroke-opacity="0.200000" points="269.85,-88.79 273.47,-83.56 267.38,-85.4 269.85,-88.79"/>
</g>
<!-- app/snip.js -->
<g id="node6" class="node">
<title>app/snip.js</title>
<g id="a_node6"><a xlink:href="app/snip.js" xlink:title="snip.js">
<path fill="#ffffcc" stroke="black" d="M391.08,-51.5C391.08,-51.5 348.92,-51.5 348.92,-51.5 345.96,-51.5 343,-48.54 343,-45.58 343,-45.58 343,-39.67 343,-39.67 343,-36.71 345.96,-33.75 348.92,-33.75 348.92,-33.75 391.08,-33.75 391.08,-33.75 394.04,-33.75 397,-36.71 397,-39.67 397,-39.67 397,-45.58 397,-45.58 397,-48.54 394.04,-51.5 391.08,-51.5"/>
<text text-anchor="start" x="356.88" y="-38.95" font-family="Helvetica,sans-Serif" font-size="9.00">snip.js</text>
</a>
</g>
</g>
<!-- app/controllers&#45;&gt;app/snip.js -->
<g id="edge3" class="edge">
<title>app/controllers&#45;&gt;app/snip.js</title>
<path fill="none" stroke="#000000" stroke-width="2" stroke-opacity="0.200000" d="M329.59,-247.69C365.64,-246.77 423.44,-242.79 437,-227 451.2,-210.48 505.96,-197.98 408,-64.5 405.8,-61.5 403.02,-58.87 399.98,-56.6"/>
<polygon fill="#000000" fill-opacity="0.200000" stroke="#000000" stroke-width="2" stroke-opacity="0.200000" points="400.75,-54.33 394.55,-52.9 398.5,-57.88 400.75,-54.33"/>
</g>
<!-- fs -->
<g id="node7" class="node">
<title>fs</title>
<g id="a_node7"><a xlink:title="fs">
<path fill="#ffffcc" stroke="grey" d="M524.08,-17.75C524.08,-17.75 481.92,-17.75 481.92,-17.75 478.96,-17.75 476,-14.79 476,-11.83 476,-11.83 476,-5.92 476,-5.92 476,-2.96 478.96,0 481.92,0 481.92,0 524.08,0 524.08,0 527.04,0 530,-2.96 530,-5.92 530,-5.92 530,-11.83 530,-11.83 530,-14.79 527.04,-17.75 524.08,-17.75"/>
<text text-anchor="middle" x="503" y="-5.2" font-family="Helvetica,sans-Serif" font-size="9.00" fill="grey">fs</text>
</a>
</g>
</g>
<!-- app/controllers&#45;&gt;fs -->
<g id="edge5" class="edge">
<title>app/controllers&#45;&gt;fs</title>
<path fill="none" stroke="#000000" stroke-dasharray="5,2" stroke-opacity="0.200000" d="M329.73,-247.92C400.48,-247.72 577.14,-245.34 633,-227 674.06,-213.52 710,-210.84 710,-167.62 710,-167.62 710,-167.62 710,-72.38 710,-36.75 596.23,-19.6 537.38,-13.11"/>
<polygon fill="#000000" fill-opacity="0.200000" stroke="#000000" stroke-opacity="0.200000" points="537.68,-10.92 531.49,-12.37 537.23,-15.09 537.68,-10.92"/>
</g>
<!-- path -->
<g id="node8" class="node">
<title>path</title>
<g id="a_node8"><a xlink:title="path">
<path fill="#ffffcc" stroke="grey" d="M119.08,-116C119.08,-116 76.92,-116 76.92,-116 73.96,-116 71,-113.04 71,-110.08 71,-110.08 71,-104.17 71,-104.17 71,-101.21 73.96,-98.25 76.92,-98.25 76.92,-98.25 119.08,-98.25 119.08,-98.25 122.04,-98.25 125,-101.21 125,-104.17 125,-104.17 125,-110.08 125,-110.08 125,-113.04 122.04,-116 119.08,-116"/>
<text text-anchor="middle" x="98" y="-103.45" font-family="Helvetica,sans-Serif" font-size="9.00" fill="grey">path</text>
</a>
</g>
</g>
<!-- app/controllers&#45;&gt;path -->
<g id="edge6" class="edge">
<title>app/controllers&#45;&gt;path</title>
<path fill="none" stroke="#000000" stroke-dasharray="5,2" stroke-opacity="0.200000" d="M270.42,-247.3C233.94,-245.03 172.1,-235.89 134,-201.25 111.27,-180.58 102.76,-143.9 99.67,-123.28"/>
<polygon fill="#000000" fill-opacity="0.200000" stroke="#000000" stroke-opacity="0.200000" points="101.64,-123.14 98.76,-117.47 97.47,-123.69 101.64,-123.14"/>
</g>
<!-- querystring -->
<g id="node9" class="node">
<title>querystring</title>
<g id="a_node9"><a xlink:title="querystring">
<path fill="#ffffcc" stroke="grey" d="M180.96,-17.75C180.96,-17.75 131.04,-17.75 131.04,-17.75 128.08,-17.75 125.12,-14.79 125.12,-11.83 125.12,-11.83 125.12,-5.92 125.12,-5.92 125.12,-2.96 128.08,0 131.04,0 131.04,0 180.96,0 180.96,0 183.92,0 186.88,-2.96 186.88,-5.92 186.88,-5.92 186.88,-11.83 186.88,-11.83 186.88,-14.79 183.92,-17.75 180.96,-17.75"/>
<text text-anchor="middle" x="156" y="-5.2" font-family="Helvetica,sans-Serif" font-size="9.00" fill="grey">querystring</text>
</a>
</g>
</g>
<!-- app/controllers&#45;&gt;querystring -->
<g id="edge7" class="edge">
<title>app/controllers&#45;&gt;querystring</title>
<path fill="none" stroke="#000000" stroke-dasharray="5,2" stroke-opacity="0.200000" d="M270.37,-247.41C230.12,-246.2 156.17,-241.93 95,-227 64.81,-219.63 55.47,-219.04 30,-201.25 13.58,-189.78 0,-187.65 0,-167.62 0,-167.62 0,-167.62 0,-72.38 0,-48.2 7.74,-38.93 28,-25.75 42.46,-16.35 85.86,-12.51 118.14,-10.95"/>
<polygon fill="#000000" fill-opacity="0.200000" stroke="#000000" stroke-opacity="0.200000" points="117.95,-13.01 123.85,-10.65 117.76,-8.82 117.95,-13.01"/>
</g>
<!-- crypto -->
<g id="node10" class="node">
<title>crypto</title>
<g id="a_node10"><a xlink:title="crypto">
<path fill="#ffffcc" stroke="grey" d="M685.08,-82.25C685.08,-82.25 642.92,-82.25 642.92,-82.25 639.96,-82.25 637,-79.29 637,-76.33 637,-76.33 637,-70.42 637,-70.42 637,-67.46 639.96,-64.5 642.92,-64.5 642.92,-64.5 685.08,-64.5 685.08,-64.5 688.04,-64.5 691,-67.46 691,-70.42 691,-70.42 691,-76.33 691,-76.33 691,-79.29 688.04,-82.25 685.08,-82.25"/>
<text text-anchor="middle" x="664" y="-69.7" font-family="Helvetica,sans-Serif" font-size="9.00" fill="grey">crypto</text>
</a>
</g>
</g>
<!-- app/controllers&#45;&gt;crypto -->
<g id="edge8" class="edge">
<title>app/controllers&#45;&gt;crypto</title>
<path fill="none" stroke="#000000" stroke-dasharray="5,2" stroke-opacity="0.200000" d="M329.67,-248.55C406.72,-249.63 610.19,-247.91 654,-201.25 682.75,-170.62 674.31,-115.51 668.07,-89.17"/>
<polygon fill="#000000" fill-opacity="0.200000" stroke="#000000" stroke-opacity="0.200000" points="669.9,-88.85 666.39,-83.55 665.83,-89.88 669.9,-88.85"/>
</g>
<!-- app/lib -->
<g id="node11" class="node">
<title>app/lib</title>
<g id="a_node11"><a xlink:href="app/lib" xlink:title="lib">
<polygon fill="#ffffcc" stroke="black" points="327,-227 274.97,-227 273,-225.03 273,-209.25 325.03,-209.25 327,-211.22 327,-227"/>
<polyline fill="none" stroke="black" points="325.03,-225.03 273,-225.03"/>
<polyline fill="none" stroke="black" points="325.03,-225.03 325.03,-209.25"/>
<polyline fill="none" stroke="black" points="325.03,-225.03 327,-227"/>
<text text-anchor="start" x="295.12" y="-214.45" font-family="Helvetica,sans-Serif" font-size="9.00">lib</text>
</a>
</g>
</g>
<!-- app/controllers&#45;&gt;app/lib -->
<g id="edge9" class="edge">
<title>app/controllers&#45;&gt;app/lib</title>
<path fill="none" stroke="#000000" stroke-width="2" stroke-opacity="0.200000" d="M295.9,-239.71C295.75,-238.63 295.64,-237.49 295.58,-236.32"/>
<polygon fill="#000000" fill-opacity="0.200000" stroke="#000000" stroke-width="2" stroke-opacity="0.200000" points="297.78,-236.47 295.88,-230.41 293.58,-236.33 297.78,-236.47"/>
</g>
<!-- app/genuine.js -->
<g id="node12" class="node">
<title>app/genuine.js</title>
<g id="a_node12"><a xlink:href="app/genuine.js" xlink:title="genuine.js">
<path fill="#ffffcc" stroke="black" d="M523.46,-227C523.46,-227 476.54,-227 476.54,-227 473.58,-227 470.62,-224.04 470.62,-221.08 470.62,-221.08 470.62,-215.17 470.62,-215.17 470.62,-212.21 473.58,-209.25 476.54,-209.25 476.54,-209.25 523.46,-209.25 523.46,-209.25 526.42,-209.25 529.38,-212.21 529.38,-215.17 529.38,-215.17 529.38,-221.08 529.38,-221.08 529.38,-224.04 526.42,-227 523.46,-227"/>
<text text-anchor="start" x="478.62" y="-214.45" font-family="Helvetica,sans-Serif" font-size="9.00">genuine.js</text>
</a>
</g>
</g>
<!-- app/controllers&#45;&gt;app/genuine.js -->
<g id="edge10" class="edge">
<title>app/controllers&#45;&gt;app/genuine.js</title>
<path fill="none" stroke="#000000" stroke-width="2" stroke-opacity="0.200000" d="M329.66,-244.74C360.51,-241.33 410.38,-235.39 461.61,-226.96"/>
<polygon fill="#000000" fill-opacity="0.200000" stroke="#000000" stroke-width="2" stroke-opacity="0.200000" points="462.6,-228.59 468.17,-225.53 461.91,-224.45 462.6,-228.59"/>
</g>
<!-- http -->
<g id="node13" class="node">
<title>http</title>
<g id="a_node13"><a xlink:title="http">
<path fill="#ffffcc" stroke="grey" d="M260.08,-17.75C260.08,-17.75 217.92,-17.75 217.92,-17.75 214.96,-17.75 212,-14.79 212,-11.83 212,-11.83 212,-5.92 212,-5.92 212,-2.96 214.96,0 217.92,0 217.92,0 260.08,0 260.08,0 263.04,0 266,-2.96 266,-5.92 266,-5.92 266,-11.83 266,-11.83 266,-14.79 263.04,-17.75 260.08,-17.75"/>
<text text-anchor="middle" x="239" y="-5.2" font-family="Helvetica,sans-Serif" font-size="9.00" fill="grey">http</text>
</a>
</g>
</g>
<!-- app/controllers&#45;&gt;http -->
<g id="edge11" class="edge">
<title>app/controllers&#45;&gt;http</title>
<path fill="none" stroke="#000000" stroke-dasharray="5,2" stroke-opacity="0.200000" d="M270.29,-248.02C237.58,-247.27 183.94,-243.31 141,-227 72.28,-200.89 26,-181.63 26,-108.12 26,-108.12 26,-108.12 26,-72.38 26,-12.66 94.41,-41.53 152,-25.75 157.2,-24.33 182.89,-19.68 205.01,-15.79"/>
<polygon fill="#000000" fill-opacity="0.200000" stroke="#000000" stroke-opacity="0.200000" points="205.19,-17.71 210.74,-14.6 204.47,-13.57 205.19,-17.71"/>
</g>
<!-- app/infrastructure -->
<g id="node14" class="node">
<title>app/infrastructure</title>
<g id="a_node14"><a xlink:href="app/infrastructure" xlink:title="infrastructure">
<polygon fill="#ffffcc" stroke="black" points="328.62,-175.5 261.35,-175.5 259.38,-173.53 259.38,-157.75 326.65,-157.75 328.62,-159.72 328.62,-175.5"/>
<polyline fill="none" stroke="black" points="326.65,-173.53 259.38,-173.53"/>
<polyline fill="none" stroke="black" points="326.65,-173.53 326.65,-157.75"/>
<polyline fill="none" stroke="black" points="326.65,-173.53 328.62,-175.5"/>
<text text-anchor="start" x="267.38" y="-162.95" font-family="Helvetica,sans-Serif" font-size="9.00">infrastructure</text>
</a>
</g>
</g>
<!-- app/controllers&#45;&gt;app/infrastructure -->
<g id="edge12" class="edge">
<title>app/controllers&#45;&gt;app/infrastructure</title>
<path fill="none" stroke="#000000" stroke-width="2" stroke-opacity="0.200000" d="M280.08,-239.67C274.9,-236.51 269.94,-232.34 267,-227 258.87,-212.24 269.31,-194.58 279.49,-182.38"/>
<polygon fill="#000000" fill-opacity="0.200000" stroke="#000000" stroke-width="2" stroke-opacity="0.200000" points="280.86,-183.76 283.3,-177.88 277.73,-180.95 280.86,-183.76"/>
</g>
<!-- app/models&#45;&gt;app/templates -->
<g id="edge31" class="edge">
<title>app/models&#45;&gt;app/templates</title>
<g id="a_edge31"><a xlink:title="no&#45;circular">
<path fill="none" stroke="orange" stroke-width="2" d="M348.38,-97.78C340.61,-94.33 331.89,-90.26 324.17,-86.48"/>
<polygon fill="none" stroke="orange" stroke-width="2" points="324.57,-84.34 318.26,-83.55 322.7,-88.1 324.57,-84.34"/>
</a>
</g>
<text text-anchor="middle" x="332.41" y="-81.89" font-family="Helvetica,sans-Serif" font-size="9.00" fill="orange">no&#45;circular</text>
</g>
<!-- app/models&#45;&gt;app/snip.js -->
<g id="edge29" class="edge">
<title>app/models&#45;&gt;app/snip.js</title>
<path fill="none" stroke="#000000" stroke-width="2" stroke-opacity="0.200000" d="M387.55,-97.8C393.58,-93.97 399.65,-88.8 403,-82.25 406.59,-75.22 406.81,-71.41 403,-64.5 401.44,-61.66 399.31,-59.15 396.87,-56.95"/>
<polygon fill="#000000" fill-opacity="0.200000" stroke="#000000" stroke-width="2" stroke-opacity="0.200000" points="398,-54.7 391.92,-52.83 395.51,-58.08 398,-54.7"/>
</g>
<!-- app/models&#45;&gt;fs -->
<g id="edge27" class="edge">
<title>app/models&#45;&gt;fs</title>
<path fill="none" stroke="#000000" stroke-dasharray="5,2" stroke-opacity="0.200000" d="M392.46,-97.83C402.21,-93.78 413.54,-88.44 423,-82.25 449.75,-64.75 476.4,-38.41 491.19,-22.8"/>
<polygon fill="#000000" fill-opacity="0.200000" stroke="#000000" stroke-opacity="0.200000" points="492.16,-24.76 494.73,-18.94 489.09,-21.89 492.16,-24.76"/>
</g>
<!-- app/models&#45;&gt;querystring -->
<g id="edge34" class="edge">
<title>app/models&#45;&gt;querystring</title>
<path fill="none" stroke="#000000" stroke-dasharray="5,2" stroke-opacity="0.200000" d="M353.37,-97.79C346.86,-94.9 339.24,-91.96 332,-90.25 281.71,-78.35 264.99,-98.71 216,-82.25 192.34,-74.3 184.05,-71.42 169,-51.5 163.14,-43.74 159.89,-33.3 158.1,-24.81"/>
<polygon fill="#000000" fill-opacity="0.200000" stroke="#000000" stroke-opacity="0.200000" points="160,-24.51 156.88,-18.97 155.87,-25.25 160,-24.51"/>
</g>
<!-- app/models&#45;&gt;crypto -->
<g id="edge30" class="edge">
<title>app/models&#45;&gt;crypto</title>
<path fill="none" stroke="#000000" stroke-dasharray="5,2" stroke-opacity="0.200000" d="M397.17,-103.64C440.96,-99.58 529.86,-91.08 605,-82.25 613.1,-81.3 621.81,-80.19 629.99,-79.1"/>
<polygon fill="#000000" fill-opacity="0.200000" stroke="#000000" stroke-opacity="0.200000" points="630.04,-81.08 635.7,-78.2 629.48,-76.92 630.04,-81.08"/>
</g>
<!-- app/models&#45;&gt;http -->
<g id="edge35" class="edge">
<title>app/models&#45;&gt;http</title>
<path fill="none" stroke="#000000" stroke-dasharray="5,2" stroke-opacity="0.200000" d="M352.94,-97.85C346.51,-95.03 339.05,-92.13 332,-90.25 318.37,-86.61 280.22,-90.81 269,-82.25 250.84,-68.38 243.59,-41.55 240.76,-24.74"/>
<polygon fill="#000000" fill-opacity="0.200000" stroke="#000000" stroke-opacity="0.200000" points="242.75,-24.84 239.8,-19.21 238.59,-25.45 242.75,-24.84"/>
</g>
<!-- app/features -->
<g id="node16" class="node">
<title>app/features</title>
<g id="a_node16"><a xlink:href="app/features" xlink:title="features">
<polygon fill="#ffffcc" stroke="black" points="397,-82.25 344.97,-82.25 343,-80.28 343,-64.5 395.03,-64.5 397,-66.47 397,-82.25"/>
<polyline fill="none" stroke="black" points="395.03,-80.28 343,-80.28"/>
<polyline fill="none" stroke="black" points="395.03,-80.28 395.03,-64.5"/>
<polyline fill="none" stroke="black" points="395.03,-80.28 397,-82.25"/>
<text text-anchor="start" x="353.5" y="-69.7" font-family="Helvetica,sans-Serif" font-size="9.00">features</text>
</a>
</g>
</g>
<!-- app/models&#45;&gt;app/features -->
<g id="edge32" class="edge">
<title>app/models&#45;&gt;app/features</title>
<path fill="none" stroke="#000000" stroke-width="2" stroke-opacity="0.200000" d="M370,-97.78C370,-95.73 370,-93.45 370,-91.14"/>
<polygon fill="#000000" fill-opacity="0.200000" stroke="#000000" stroke-width="2" stroke-opacity="0.200000" points="372.1,-91.55 370,-85.55 367.9,-91.55 372.1,-91.55"/>
</g>
<!-- vm -->
<g id="node19" class="node">
<title>vm</title>
<g id="a_node19"><a xlink:title="vm">
<path fill="#ffffcc" stroke="grey" d="M593.08,-82.25C593.08,-82.25 550.92,-82.25 550.92,-82.25 547.96,-82.25 545,-79.29 545,-76.33 545,-76.33 545,-70.42 545,-70.42 545,-67.46 547.96,-64.5 550.92,-64.5 550.92,-64.5 593.08,-64.5 593.08,-64.5 596.04,-64.5 599,-67.46 599,-70.42 599,-70.42 599,-76.33 599,-76.33 599,-79.29 596.04,-82.25 593.08,-82.25"/>
<text text-anchor="middle" x="572" y="-69.7" font-family="Helvetica,sans-Serif" font-size="9.00" fill="grey">vm</text>
</a>
</g>
</g>
<!-- app/models&#45;&gt;vm -->
<g id="edge28" class="edge">
<title>app/models&#45;&gt;vm</title>
<path fill="none" stroke="#000000" stroke-dasharray="5,2" stroke-opacity="0.200000" d="M397.23,-103.17C429.54,-99.47 485.16,-92.5 538.04,-82.56"/>
<polygon fill="#000000" fill-opacity="0.200000" stroke="#000000" stroke-opacity="0.200000" points="538.31,-84.45 543.81,-81.27 537.52,-80.33 538.31,-84.45"/>
</g>
<!-- https -->
<g id="node20" class="node">
<title>https</title>
<g id="a_node20"><a xlink:title="https">
<path fill="#ffffcc" stroke="grey" d="M458.08,-17.75C458.08,-17.75 415.92,-17.75 415.92,-17.75 412.96,-17.75 410,-14.79 410,-11.83 410,-11.83 410,-5.92 410,-5.92 410,-2.96 412.96,0 415.92,0 415.92,0 458.08,0 458.08,0 461.04,0 464,-2.96 464,-5.92 464,-5.92 464,-11.83 464,-11.83 464,-14.79 461.04,-17.75 458.08,-17.75"/>
<text text-anchor="middle" x="437" y="-5.2" font-family="Helvetica,sans-Serif" font-size="9.00" fill="grey">https</text>
</a>
</g>
</g>
<!-- app/models&#45;&gt;https -->
<g id="edge33" class="edge">
<title>app/models&#45;&gt;https</title>
<path fill="none" stroke="#000000" stroke-dasharray="5,2" stroke-opacity="0.200000" d="M388.01,-97.89C395,-93.97 402.61,-88.71 408,-82.25 422.29,-65.13 430.2,-40.06 434.02,-24.38"/>
<polygon fill="#000000" fill-opacity="0.200000" stroke="#000000" stroke-opacity="0.200000" points="436.21,-25.21 435.5,-18.89 432.12,-24.27 436.21,-25.21"/>
</g>
<!-- util -->
<g id="node21" class="node">
<title>util</title>
<g id="a_node21"><a xlink:title="util">
<path fill="#ffffcc" stroke="grey" d="M223.08,-51.5C223.08,-51.5 180.92,-51.5 180.92,-51.5 177.96,-51.5 175,-48.54 175,-45.58 175,-45.58 175,-39.67 175,-39.67 175,-36.71 177.96,-33.75 180.92,-33.75 180.92,-33.75 223.08,-33.75 223.08,-33.75 226.04,-33.75 229,-36.71 229,-39.67 229,-39.67 229,-45.58 229,-45.58 229,-48.54 226.04,-51.5 223.08,-51.5"/>
<text text-anchor="middle" x="202" y="-38.95" font-family="Helvetica,sans-Serif" font-size="9.00" fill="grey">util</text>
</a>
</g>
</g>
<!-- app/models&#45;&gt;util -->
<g id="edge36" class="edge">
<title>app/models&#45;&gt;util</title>
<path fill="none" stroke="#000000" stroke-dasharray="5,2" stroke-opacity="0.200000" d="M353.35,-97.87C346.84,-94.99 339.22,-92.03 332,-90.25 293.01,-80.62 278.53,-98.93 242,-82.25 229.78,-76.67 219.03,-65.75 211.76,-56.94"/>
<polygon fill="#000000" fill-opacity="0.200000" stroke="#000000" stroke-opacity="0.200000" points="213.06,-56.2 207.7,-52.79 209.77,-58.8 213.06,-56.2"/>
</g>
<!-- app/templates&#45;&gt;app/models -->
<g id="edge42" class="edge">
<title>app/templates&#45;&gt;app/models</title>
<path fill="none" stroke="#000000" stroke-width="2" stroke-opacity="0.200000" d="M324.25,-82.55C331.98,-85.99 340.7,-90.05 348.46,-93.84"/>
<polygon fill="#000000" fill-opacity="0.200000" stroke="#000000" stroke-width="2" stroke-opacity="0.200000" points="348.1,-96 354.41,-96.78 349.97,-92.23 348.1,-96"/>
</g>
<!-- app/templates&#45;&gt;app/snip.js -->
<g id="edge44" class="edge">
<title>app/templates&#45;&gt;app/snip.js</title>
<path fill="none" stroke="#000000" stroke-width="2" stroke-opacity="0.200000" d="M322.38,-64.06C328.82,-61.29 336.12,-58.16 343.03,-55.2"/>
<polygon fill="#000000" fill-opacity="0.200000" stroke="#000000" stroke-width="2" stroke-opacity="0.200000" points="344.21,-57.12 348.9,-52.82 342.55,-53.26 344.21,-57.12"/>
</g>
<!-- app/templates&#45;&gt;fs -->
<g id="edge43" class="edge">
<title>app/templates&#45;&gt;fs</title>
<path fill="none" stroke="#000000" stroke-dasharray="5,2" stroke-opacity="0.200000" d="M331.18,-65.77C333.15,-65.33 335.1,-64.91 337,-64.5 366.23,-58.24 374.39,-60.18 403,-51.5 430.12,-43.28 459.96,-30.31 479.92,-21.04"/>
<polygon fill="#000000" fill-opacity="0.200000" stroke="#000000" stroke-opacity="0.200000" points="480.5,-22.62 485.04,-18.17 478.72,-18.81 480.5,-22.62"/>
</g>
<!-- app/templates&#45;&gt;util -->
<g id="edge45" class="edge">
<title>app/templates&#45;&gt;util</title>
<path fill="none" stroke="#000000" stroke-dasharray="5,2" stroke-opacity="0.200000" d="M274.87,-64.37C262.74,-60.91 248.45,-56.85 235.76,-53.23"/>
<polygon fill="#000000" fill-opacity="0.200000" stroke="#000000" stroke-opacity="0.200000" points="236.63,-51.02 230.29,-51.39 235.48,-55.05 236.63,-51.02"/>
</g>
<!-- app/snip.js&#45;&gt;fs -->
<g id="edge37" class="edge">
<title>app/snip.js&#45;&gt;fs</title>
<path fill="none" stroke="#000000" stroke-dasharray="5,2" stroke-opacity="0.200000" d="M396.21,-33.27C404.99,-30.64 414.86,-27.88 424,-25.75 442.31,-21.48 448.52,-21.82 468.86,-17.9"/>
<polygon fill="#000000" fill-opacity="0.200000" stroke="#000000" stroke-opacity="0.200000" points="469.19,-19.78 474.66,-16.54 468.36,-15.66 469.19,-19.78"/>
</g>
<!-- app/snip.js&#45;&gt;querystring -->
<g id="edge40" class="edge">
<title>app/snip.js&#45;&gt;querystring</title>
<path fill="none" stroke="#000000" stroke-dasharray="5,2" stroke-opacity="0.200000" d="M342.71,-37.75C310.15,-33.11 254.08,-25.04 206,-17.75 202.1,-17.16 198.04,-16.53 193.98,-15.9"/>
<polygon fill="#000000" fill-opacity="0.200000" stroke="#000000" stroke-opacity="0.200000" points="194.45,-13.7 188.2,-14.85 193.8,-17.85 194.45,-13.7"/>
</g>
<!-- app/snip.js&#45;&gt;http -->
<g id="edge38" class="edge">
<title>app/snip.js&#45;&gt;http</title>
<path fill="none" stroke="#000000" stroke-dasharray="5,2" stroke-opacity="0.200000" d="M342.54,-34.97C322.36,-30.08 294.82,-23.4 273.22,-18.17"/>
<polygon fill="#000000" fill-opacity="0.200000" stroke="#000000" stroke-opacity="0.200000" points="273.75,-15.89 267.43,-16.52 272.76,-19.98 273.75,-15.89"/>
</g>
<!-- app/snip.js&#45;&gt;https -->
<g id="edge39" class="edge">
<title>app/snip.js&#45;&gt;https</title>
<path fill="none" stroke="#000000" stroke-dasharray="5,2" stroke-opacity="0.200000" d="M387.6,-33.28C395.51,-29.53 404.96,-25.06 413.47,-21.03"/>
<polygon fill="#000000" fill-opacity="0.200000" stroke="#000000" stroke-opacity="0.200000" points="414.22,-22.52 418.75,-18.05 412.42,-18.72 414.22,-22.52"/>
</g>
<!-- url -->
<g id="node22" class="node">
<title>url</title>
<g id="a_node22"><a xlink:title="url">
<path fill="#ffffcc" stroke="grey" d="M391.08,-17.75C391.08,-17.75 348.92,-17.75 348.92,-17.75 345.96,-17.75 343,-14.79 343,-11.83 343,-11.83 343,-5.92 343,-5.92 343,-2.96 345.96,0 348.92,0 348.92,0 391.08,0 391.08,0 394.04,0 397,-2.96 397,-5.92 397,-5.92 397,-11.83 397,-11.83 397,-14.79 394.04,-17.75 391.08,-17.75"/>
<text text-anchor="middle" x="370" y="-5.2" font-family="Helvetica,sans-Serif" font-size="9.00" fill="grey">url</text>
</a>
</g>
</g>
<!-- app/snip.js&#45;&gt;url -->
<g id="edge41" class="edge">
<title>app/snip.js&#45;&gt;url</title>
<path fill="none" stroke="#000000" stroke-dasharray="5,2" stroke-opacity="0.200000" d="M370,-33.28C370,-30.64 370,-27.63 370,-24.67"/>
<polygon fill="#000000" fill-opacity="0.200000" stroke="#000000" stroke-opacity="0.200000" points="372.1,-25.05 370,-19.05 367.9,-25.05 372.1,-25.05"/>
</g>
<!-- app/lib&#45;&gt;../get -->
<g id="edge19" class="edge">
<title>app/lib&#45;&gt;../get</title>
<g id="a_edge19"><a xlink:title="not&#45;to&#45;unresolvable">
<path fill="none" stroke="red" stroke-width="2" d="M272.68,-213.48C260.39,-211.12 245.99,-207.31 234,-201.25 224.2,-196.3 214.73,-188.52 207.47,-181.69"/>
<polygon fill="red" stroke="red" stroke-width="2" points="209.22,-180.5 203.47,-177.79 206.28,-183.5 209.22,-180.5"/>
</a>
</g>
<text text-anchor="middle" x="193.79" y="-202.22" font-family="Helvetica,sans-Serif" font-size="9.00" fill="red">not&#45;to&#45;unresolvable</text>
</g>
<!-- app/lib&#45;&gt;app/controllers -->
<g id="edge23" class="edge">
<title>app/lib&#45;&gt;app/controllers</title>
<path fill="none" stroke="#000000" stroke-width="2" stroke-opacity="0.200000" d="M304.12,-227.41C304.26,-228.49 304.37,-229.64 304.43,-230.81"/>
<polygon fill="#000000" fill-opacity="0.200000" stroke="#000000" stroke-width="2" stroke-opacity="0.200000" points="302.22,-230.64 304.1,-236.71 306.42,-230.79 302.22,-230.64"/>
</g>
<!-- app/lib&#45;&gt;app/models -->
<g id="edge26" class="edge">
<title>app/lib&#45;&gt;app/models</title>
<path fill="none" stroke="#000000" stroke-width="2" stroke-opacity="0.200000" d="M327.1,-211.04C332.62,-208.74 337.96,-205.58 342,-201.25 361.7,-180.14 367.57,-145.68 369.3,-125.12"/>
<polygon fill="#000000" fill-opacity="0.200000" stroke="#000000" stroke-width="2" stroke-opacity="0.200000" points="371.58,-125.39 369.86,-119.27 367.39,-125.12 371.58,-125.39"/>
</g>
<!-- app/lib&#45;&gt;fs -->
<g id="edge21" class="edge">
<title>app/lib&#45;&gt;fs</title>
<path fill="none" stroke="#000000" stroke-dasharray="5,2" stroke-opacity="0.200000" d="M327.28,-210.57C336.8,-208.01 347.48,-204.83 357,-201.25 471.44,-158.24 539.88,-185.72 605,-82.25 624.54,-51.2 573.84,-29.6 537.12,-18.51"/>
<polygon fill="#000000" fill-opacity="0.200000" stroke="#000000" stroke-opacity="0.200000" points="537.79,-16.23 531.44,-16.56 536.61,-20.26 537.79,-16.23"/>
</g>
<!-- app/lib&#45;&gt;http -->
<g id="edge22" class="edge">
<title>app/lib&#45;&gt;http</title>
<path fill="none" stroke="#000000" stroke-dasharray="5,2" stroke-opacity="0.200000" d="M272.77,-216.05C233.2,-214.2 163.64,-209.77 156,-201.25 129.91,-172.12 141.68,-53.73 169,-25.75 171.73,-22.96 188.57,-19.09 205.05,-15.87"/>
<polygon fill="#000000" fill-opacity="0.200000" stroke="#000000" stroke-opacity="0.200000" points="205.06,-17.82 210.56,-14.63 204.27,-13.69 205.06,-17.82"/>
</g>
<!-- app/lib&#45;&gt;app/infrastructure -->
<g id="edge25" class="edge">
<title>app/lib&#45;&gt;app/infrastructure</title>
<path fill="none" stroke="#000000" stroke-width="2" stroke-opacity="0.200000" d="M299.01,-208.95C298.21,-202.4 297.07,-192.98 296.08,-184.78"/>
<polygon fill="#000000" fill-opacity="0.200000" stroke="#000000" stroke-width="2" stroke-opacity="0.200000" points="297.82,-184.68 295.01,-178.98 293.65,-185.19 297.82,-184.68"/>
</g>
<!-- app/domain -->
<g id="node15" class="node">
<title>app/domain</title>
<g id="a_node15"><a xlink:href="app/domain" xlink:title="domain">
<polygon fill="#ffffcc" stroke="black" points="326,-116 273.97,-116 272,-114.03 272,-98.25 324.03,-98.25 326,-100.22 326,-116"/>
<polyline fill="none" stroke="black" points="324.03,-114.03 272,-114.03"/>
<polyline fill="none" stroke="black" points="324.03,-114.03 324.03,-98.25"/>
<polyline fill="none" stroke="black" points="324.03,-114.03 326,-116"/>
<text text-anchor="start" x="283.62" y="-103.45" font-family="Helvetica,sans-Serif" font-size="9.00">domain</text>
</a>
</g>
</g>
<!-- app/lib&#45;&gt;app/domain -->
<g id="edge24" class="edge">
<title>app/lib&#45;&gt;app/domain</title>
<path fill="none" stroke="#000000" stroke-width="2" stroke-opacity="0.200000" d="M327,-208.95C330.16,-206.92 332.98,-204.39 335,-201.25 347.4,-182.01 342.99,-171.2 335,-149.75 331.12,-139.33 323.33,-129.78 315.98,-122.47"/>
<polygon fill="#000000" fill-opacity="0.200000" stroke="#000000" stroke-width="2" stroke-opacity="0.200000" points="317.31,-120.97 311.49,-118.41 314.45,-124.04 317.31,-120.97"/>
</g>
<!-- child_process -->
<g id="node18" class="node">
<title>child_process</title>
<g id="a_node18"><a xlink:title="child_process">
<path fill="#ffffcc" stroke="grey" d="M622.58,-175.5C622.58,-175.5 561.42,-175.5 561.42,-175.5 558.46,-175.5 555.5,-172.54 555.5,-169.58 555.5,-169.58 555.5,-163.67 555.5,-163.67 555.5,-160.71 558.46,-157.75 561.42,-157.75 561.42,-157.75 622.58,-157.75 622.58,-157.75 625.54,-157.75 628.5,-160.71 628.5,-163.67 628.5,-163.67 628.5,-169.58 628.5,-169.58 628.5,-172.54 625.54,-175.5 622.58,-175.5"/>
<text text-anchor="middle" x="592" y="-162.95" font-family="Helvetica,sans-Serif" font-size="9.00" fill="grey">child_process</text>
</a>
</g>
</g>
<!-- app/lib&#45;&gt;child_process -->
<g id="edge20" class="edge">
<title>app/lib&#45;&gt;child_process</title>
<path fill="none" stroke="#000000" stroke-dasharray="5,2" stroke-opacity="0.200000" d="M327.26,-211.97C333.71,-210.91 340.58,-209.92 347,-209.25 389.7,-204.81 499.09,-214.25 540,-201.25 553.88,-196.84 567.62,-187.69 577.49,-180.04"/>
<polygon fill="#000000" fill-opacity="0.200000" stroke="#000000" stroke-opacity="0.200000" points="578.46,-181.15 581.83,-175.76 575.83,-177.88 578.46,-181.15"/>
</g>
<!-- app/genuine.js&#45;&gt;crypto -->
<g id="edge14" class="edge">
<title>app/genuine.js&#45;&gt;crypto</title>
<path fill="none" stroke="#000000" stroke-dasharray="5,2" stroke-opacity="0.200000" d="M529.8,-217.49C564.79,-217.28 619.99,-214.73 635,-201.25 651.51,-186.43 659.75,-119.7 662.7,-89.41"/>
<polygon fill="#000000" fill-opacity="0.200000" stroke="#000000" stroke-opacity="0.200000" points="664.87,-89.72 663.34,-83.55 660.69,-89.33 664.87,-89.72"/>
</g>
<!-- app/infrastructure&#45;&gt;app/models -->
<g id="edge18" class="edge">
<title>app/infrastructure&#45;&gt;app/models</title>
<path fill="none" stroke="#000000" stroke-width="2" stroke-opacity="0.200000" d="M308.44,-157.31C315.7,-152.95 324.52,-147.35 332,-141.75 340.04,-135.73 348.45,-128.4 355.32,-122.13"/>
<polygon fill="#000000" fill-opacity="0.200000" stroke="#000000" stroke-width="2" stroke-opacity="0.200000" points="356.63,-123.92 359.59,-118.29 353.77,-120.84 356.63,-123.92"/>
</g>
<!-- app/infrastructure&#45;&gt;path -->
<g id="edge16" class="edge">
<title>app/infrastructure&#45;&gt;path</title>
<path fill="none" stroke="#000000" stroke-dasharray="5,2" stroke-opacity="0.200000" d="M265.17,-157.31C254.79,-154.57 242.94,-151.71 232,-149.75 198.57,-143.74 188.29,-152.28 156,-141.75 141.06,-136.88 125.75,-127.8 114.61,-120.3"/>
<polygon fill="#000000" fill-opacity="0.200000" stroke="#000000" stroke-opacity="0.200000" points="116.01,-118.02 109.88,-116.33 113.62,-121.47 116.01,-118.02"/>
</g>
<!-- app/infrastructure&#45;&gt;app/domain -->
<g id="edge17" class="edge">
<title>app/infrastructure&#45;&gt;app/domain</title>
<path fill="none" stroke="#000000" stroke-width="2" stroke-opacity="0.200000" d="M294.7,-157.63C295.42,-149.31 296.57,-136.04 297.5,-125.32"/>
<polygon fill="#000000" fill-opacity="0.200000" stroke="#000000" stroke-width="2" stroke-opacity="0.200000" points="299.85,-125.58 298.28,-119.42 295.67,-125.22 299.85,-125.58"/>
</g>
<!-- fs/promises -->
<g id="node17" class="node">
<title>fs/promises</title>
<g id="a_node17"><a xlink:title="promises">
<path fill="#ffffcc" stroke="grey" d="M215.08,-116C215.08,-116 172.92,-116 172.92,-116 169.96,-116 167,-113.04 167,-110.08 167,-110.08 167,-104.17 167,-104.17 167,-101.21 169.96,-98.25 172.92,-98.25 172.92,-98.25 215.08,-98.25 215.08,-98.25 218.04,-98.25 221,-101.21 221,-104.17 221,-104.17 221,-110.08 221,-110.08 221,-113.04 218.04,-116 215.08,-116"/>
<text text-anchor="start" x="175.25" y="-103.45" font-family="Helvetica,sans-Serif" font-size="9.00" fill="grey">promises</text>
</a>
</g>
</g>
<!-- app/infrastructure&#45;&gt;fs/promises -->
<g id="edge15" class="edge">
<title>app/infrastructure&#45;&gt;fs/promises</title>
<path fill="none" stroke="#000000" stroke-dasharray="5,2" stroke-opacity="0.200000" d="M267.74,-157.25C256.92,-153.28 244.49,-148.02 234,-141.75 224.26,-135.92 214.48,-127.76 207.03,-120.94"/>
<polygon fill="#000000" fill-opacity="0.200000" stroke="#000000" stroke-opacity="0.200000" points="209.09,-120.05 203.28,-117.47 206.22,-123.11 209.09,-120.05"/>
</g>
<!-- app/features&#45;&gt;app/snip.js -->
<g id="edge13" class="edge">
<title>app/features&#45;&gt;app/snip.js</title>
<path fill="none" stroke="#000000" stroke-width="2" stroke-opacity="0.200000" d="M370,-64.21C370,-63.13 370,-61.99 370,-60.82"/>
<polygon fill="#000000" fill-opacity="0.200000" stroke="#000000" stroke-width="2" stroke-opacity="0.200000" points="372.1,-60.91 370,-54.91 367.9,-60.91 372.1,-60.91"/>
</g>
<!-- app/workers -->
<g id="node23" class="node">
<title>app/workers</title>
<g id="a_node23"><a xlink:href="app/workers" xlink:title="workers">
<polygon fill="#ffffcc" stroke="black" points="327,-288.5 274.97,-288.5 273,-286.53 273,-270.75 325.03,-270.75 327,-272.72 327,-288.5"/>
<polyline fill="none" stroke="black" points="325.03,-286.53 273,-286.53"/>
<polyline fill="none" stroke="black" points="325.03,-286.53 325.03,-270.75"/>
<polyline fill="none" stroke="black" points="325.03,-286.53 327,-288.5"/>
<text text-anchor="start" x="283.88" y="-275.95" font-family="Helvetica,sans-Serif" font-size="9.00">workers</text>
</a>
</g>
</g>
<!-- app/workers&#45;&gt;app/controllers -->
<g id="edge48" class="edge">
<title>app/workers&#45;&gt;app/controllers</title>
<path fill="none" stroke="#000000" stroke-width="2" stroke-opacity="0.200000" d="M300,-270.46C300,-269.38 300,-268.24 300,-267.07"/>
<polygon fill="#000000" fill-opacity="0.200000" stroke="#000000" stroke-width="2" stroke-opacity="0.200000" points="302.1,-267.16 300,-261.16 297.9,-267.16 302.1,-267.16"/>
</g>
<!-- app/workers&#45;&gt;app/models -->
<g id="edge47" class="edge">
<title>app/workers&#45;&gt;app/models</title>
<path fill="none" stroke="#000000" stroke-width="2" stroke-opacity="0.200000" d="M327.39,-277.12C359.76,-273.71 412.34,-262.64 437,-227 462.12,-190.69 415.17,-144.26 387.76,-121.67"/>
<polygon fill="#000000" fill-opacity="0.200000" stroke="#000000" stroke-width="2" stroke-opacity="0.200000" points="388.94,-119.33 382.94,-117.22 386.31,-122.61 388.94,-119.33"/>
</g>
<!-- app/workers&#45;&gt;util -->
<g id="edge46" class="edge">
<title>app/workers&#45;&gt;util</title>
<path fill="none" stroke="#000000" stroke-dasharray="5,2" stroke-opacity="0.200000" d="M272.51,-277.81C207.94,-275.15 52,-264.07 52,-219.12 52,-219.12 52,-219.12 52,-165.62 52,-131.63 42.92,-116.1 65,-90.25 90.56,-60.32 136.14,-49.56 167.66,-45.72"/>
<polygon fill="#000000" fill-opacity="0.200000" stroke="#000000" stroke-opacity="0.200000" points="167.83,-47.7 173.56,-44.96 167.37,-43.53 167.83,-47.7"/>
</g>
</g>
</svg>
