<?xml version="1.0" encoding="UTF-8" standalone="no"?>
<!DOCTYPE svg PUBLIC "-//W3C//DTD SVG 1.1//EN"
 "http://www.w3.org/Graphics/SVG/1.1/DTD/svg11.dtd">
<!-- Generated by graphviz version 12.2.1 (20241206.2353)
 -->
<!-- Title: dependency&#45;cruiser output Pages: 1 -->
<svg width="823pt" height="292pt"
 viewBox="0.00 0.00 822.88 291.50" xmlns="http://www.w3.org/2000/svg" xmlns:xlink="http://www.w3.org/1999/xlink">
<g id="graph0" class="graph" transform="scale(1 1) rotate(0) translate(4 287.5)">
<title>dependency&#45;cruiser output</title>
<polygon fill="white" stroke="none" points="-4,4 -4,-287.5 818.88,-287.5 818.88,4 -4,4"/>
<g id="clust1" class="cluster">
<title>cluster_..</title>
<path fill="#ffffff" stroke="black" stroke-width="2" d="M131,-25.75C131,-25.75 177,-25.75 177,-25.75 183,-25.75 189,-31.75 189,-37.75 189,-37.75 189,-65.25 189,-65.25 189,-71.25 183,-77.25 177,-77.25 177,-77.25 131,-77.25 131,-77.25 125,-77.25 119,-71.25 119,-65.25 119,-65.25 119,-37.75 119,-37.75 119,-31.75 125,-25.75 131,-25.75"/>
<text text-anchor="middle" x="154" y="-64.7" font-family="Helvetica,sans-Serif" font-weight="bold" font-size="9.00">..</text>
</g>
<g id="clust2" class="cluster">
<title>cluster_app</title>
<path fill="#ffffff" stroke="black" stroke-width="2" d="M209,-25.75C209,-25.75 501,-25.75 501,-25.75 507,-25.75 513,-31.75 513,-37.75 513,-37.75 513,-263.5 513,-263.5 513,-269.5 507,-275.5 501,-275.5 501,-275.5 209,-275.5 209,-275.5 203,-275.5 197,-269.5 197,-263.5 197,-263.5 197,-37.75 197,-37.75 197,-31.75 203,-25.75 209,-25.75"/>
<text text-anchor="middle" x="355" y="-262.95" font-family="Helvetica,sans-Serif" font-weight="bold" font-size="9.00">app</text>
</g>
<g id="clust3" class="cluster">
<title>cluster_fs</title>
<path fill="#ffffff" stroke="black" stroke-width="2" d="M533,-111C533,-111 579,-111 579,-111 585,-111 591,-117 591,-123 591,-123 591,-150.5 591,-150.5 591,-156.5 585,-162.5 579,-162.5 579,-162.5 533,-162.5 533,-162.5 527,-162.5 521,-156.5 521,-150.5 521,-150.5 521,-123 521,-123 521,-117 527,-111 533,-111"/>
<text text-anchor="middle" x="556" y="-149.95" font-family="Helvetica,sans-Serif" font-weight="bold" font-size="9.00">fs</text>
</g>
<!-- ../get -->
<g id="node1" class="node">
<title>../get</title>
<g id="a_node1"><a xlink:title="get">
<path fill="#ffffcc" stroke="black" d="M175.08,-51.5C175.08,-51.5 132.92,-51.5 132.92,-51.5 129.96,-51.5 127,-48.54 127,-45.58 127,-45.58 127,-39.67 127,-39.67 127,-36.71 129.96,-33.75 132.92,-33.75 132.92,-33.75 175.08,-33.75 175.08,-33.75 178.04,-33.75 181,-36.71 181,-39.67 181,-39.67 181,-45.58 181,-45.58 181,-48.54 178.04,-51.5 175.08,-51.5"/>
<text text-anchor="start" x="147.62" y="-38.95" font-family="Helvetica,sans-Serif" font-size="9.00">get</text>
</a>
</g>
</g>
<!-- app/MyController.js -->
<g id="node2" class="node">
<title>app/MyController.js</title>
<g id="a_node2"><a xlink:href="app/MyController.js" xlink:title="MyController.js">
<path fill="#ffffcc" stroke="black" d="M290.83,-188.25C290.83,-188.25 225.17,-188.25 225.17,-188.25 222.21,-188.25 219.25,-185.29 219.25,-182.33 219.25,-182.33 219.25,-176.42 219.25,-176.42 219.25,-173.46 222.21,-170.5 225.17,-170.5 225.17,-170.5 290.83,-170.5 290.83,-170.5 293.79,-170.5 296.75,-173.46 296.75,-176.42 296.75,-176.42 296.75,-182.33 296.75,-182.33 296.75,-185.29 293.79,-188.25 290.83,-188.25"/>
<text text-anchor="start" x="227.25" y="-175.7" font-family="Helvetica,sans-Serif" font-size="9.00">MyController.js</text>
</a>
</g>
</g>
<!-- app/api&#45;v2 -->
<g id="node3" class="node">
<title>app/api&#45;v2</title>
<g id="a_node3"><a xlink:href="app/api-v2" xlink:title="api&#45;v2">
<polygon fill="#ffffcc" stroke="black" points="260,-51.5 207.97,-51.5 206,-49.53 206,-33.75 258.03,-33.75 260,-35.72 260,-51.5"/>
<polyline fill="none" stroke="black" points="258.03,-49.53 206,-49.53"/>
<polyline fill="none" stroke="black" points="258.03,-49.53 258.03,-33.75"/>
<polyline fill="none" stroke="black" points="258.03,-49.53 260,-51.5"/>
<text text-anchor="start" x="220.25" y="-38.95" font-family="Helvetica,sans-Serif" font-size="9.00">api&#45;v2</text>
</a>
</g>
</g>
<!-- app/infrastructure -->
<g id="node4" class="node">
<title>app/infrastructure</title>
<g id="a_node4"><a xlink:href="app/infrastructure" xlink:title="infrastructure">
<polygon fill="#ffffcc" stroke="black" points="406.62,-188.25 339.35,-188.25 337.38,-186.28 337.38,-170.5 404.65,-170.5 406.62,-172.47 406.62,-188.25"/>
<polyline fill="none" stroke="black" points="404.65,-186.28 337.38,-186.28"/>
<polyline fill="none" stroke="black" points="404.65,-186.28 404.65,-170.5"/>
<polyline fill="none" stroke="black" points="404.65,-186.28 406.62,-188.25"/>
<text text-anchor="start" x="345.38" y="-175.7" font-family="Helvetica,sans-Serif" font-size="9.00">infrastructure</text>
</a>
</g>
</g>
<!-- app/api&#45;v2&#45;&gt;app/infrastructure -->
<g id="edge1" class="edge">
<title>app/api&#45;v2&#45;&gt;app/infrastructure</title>
<path fill="none" stroke="#000000" stroke-width="2" stroke-opacity="0.200000" d="M239.75,-51.83C260.77,-77.3 324.3,-153.86 336,-162.5 337.73,-163.78 339.58,-164.98 341.49,-166.11"/>
<polygon fill="#000000" fill-opacity="0.200000" stroke="#000000" stroke-width="2" stroke-opacity="0.200000" points="340.1,-167.75 346.39,-168.68 342.06,-164.03 340.1,-167.75"/>
</g>
<!-- app/lib -->
<g id="node5" class="node">
<title>app/lib</title>
<g id="a_node5"><a xlink:href="app/lib" xlink:title="lib">
<polygon fill="#ffffcc" stroke="black" points="260,-103 207.97,-103 206,-101.03 206,-85.25 258.03,-85.25 260,-87.22 260,-103"/>
<polyline fill="none" stroke="black" points="258.03,-101.03 206,-101.03"/>
<polyline fill="none" stroke="black" points="258.03,-101.03 258.03,-85.25"/>
<polyline fill="none" stroke="black" points="258.03,-101.03 260,-103"/>
<text text-anchor="start" x="228.12" y="-90.45" font-family="Helvetica,sans-Serif" font-size="9.00">lib</text>
</a>
</g>
</g>
<!-- app/api&#45;v2&#45;&gt;app/lib -->
<g id="edge2" class="edge">
<title>app/api&#45;v2&#45;&gt;app/lib</title>
<path fill="none" stroke="#000000" stroke-width="2" stroke-opacity="0.200000" d="M236.47,-51.98C237.46,-58.58 237.74,-68.02 237.29,-76.19"/>
<polygon fill="#000000" fill-opacity="0.200000" stroke="#000000" stroke-width="2" stroke-opacity="0.200000" points="235.23,-75.76 236.74,-81.94 239.41,-76.17 235.23,-75.76"/>
</g>
<!-- assert -->
<g id="node6" class="node">
<title>assert</title>
<g id="a_node6"><a xlink:href="https://nodejs.org/api/assert.html" xlink:title="assert">
<path fill="#ffffcc" stroke="grey" d="M197.08,-17.75C197.08,-17.75 154.92,-17.75 154.92,-17.75 151.96,-17.75 149,-14.79 149,-11.83 149,-11.83 149,-5.92 149,-5.92 149,-2.96 151.96,0 154.92,0 154.92,0 197.08,0 197.08,0 200.04,0 203,-2.96 203,-5.92 203,-5.92 203,-11.83 203,-11.83 203,-14.79 200.04,-17.75 197.08,-17.75"/>
<text text-anchor="middle" x="176" y="-5.2" font-family="Helvetica,sans-Serif" font-size="9.00" fill="grey">assert</text>
</a>
</g>
</g>
<!-- app/api&#45;v2&#45;&gt;assert -->
<g id="edge3" class="edge">
<title>app/api&#45;v2&#45;&gt;assert</title>
<path fill="none" stroke="#000000" stroke-dasharray="5,2" stroke-opacity="0.200000" d="M218.02,-33.28C211.56,-29.68 203.89,-25.41 196.88,-21.5"/>
<polygon fill="#000000" fill-opacity="0.200000" stroke="#000000" stroke-opacity="0.200000" points="198.26,-19.87 192,-18.79 196.22,-23.54 198.26,-19.87"/>
</g>
<!-- app/models -->
<g id="node7" class="node">
<title>app/models</title>
<g id="a_node7"><a xlink:href="app/models" xlink:title="no&#45;orphans">
<polygon fill="#ffffcc" stroke="orange" points="462,-136.75 409.97,-136.75 408,-134.78 408,-119 460.03,-119 462,-120.97 462,-136.75"/>
<polyline fill="none" stroke="orange" points="460.03,-134.78 408,-134.78"/>
<polyline fill="none" stroke="orange" points="460.03,-134.78 460.03,-119"/>
<polyline fill="none" stroke="orange" points="460.03,-134.78 462,-136.75"/>
<text text-anchor="start" x="420" y="-124.2" font-family="Helvetica,sans-Serif" font-size="9.00" fill="orange">models</text>
</a>
</g>
</g>
<!-- app/api&#45;v2&#45;&gt;app/models -->
<g id="edge4" class="edge">
<title>app/api&#45;v2&#45;&gt;app/models</title>
<path fill="none" stroke="#000000" stroke-width="2" stroke-opacity="0.200000" d="M243.72,-51.79C261.71,-65.02 299.58,-90.86 336,-103 364.03,-112.34 373.64,-102.71 402,-111 405.4,-112 408.89,-113.31 412.26,-114.76"/>
<polygon fill="#000000" fill-opacity="0.200000" stroke="#000000" stroke-width="2" stroke-opacity="0.200000" points="411.23,-116.6 417.56,-117.24 413.02,-112.79 411.23,-116.6"/>
</g>
<!-- app/infrastructure&#45;&gt;app/models -->
<g id="edge19" class="edge">
<title>app/infrastructure&#45;&gt;app/models</title>
<path fill="none" stroke="#000000" stroke-width="2" stroke-opacity="0.200000" d="M390,-170.01C394.09,-167.79 398.32,-165.25 402,-162.5 409.42,-156.97 416.72,-149.76 422.56,-143.44"/>
<polygon fill="#000000" fill-opacity="0.200000" stroke="#000000" stroke-width="2" stroke-opacity="0.200000" points="423.82,-145.18 426.25,-139.31 420.69,-142.39 423.82,-145.18"/>
</g>
<!-- path -->
<g id="node12" class="node">
<title>path</title>
<g id="a_node12"><a xlink:href="https://nodejs.org/api/path.html" xlink:title="path">
<path fill="#ffffcc" stroke="grey" d="M673.08,-136.75C673.08,-136.75 630.92,-136.75 630.92,-136.75 627.96,-136.75 625,-133.79 625,-130.83 625,-130.83 625,-124.92 625,-124.92 625,-121.96 627.96,-119 630.92,-119 630.92,-119 673.08,-119 673.08,-119 676.04,-119 679,-121.96 679,-124.92 679,-124.92 679,-130.83 679,-130.83 679,-133.79 676.04,-136.75 673.08,-136.75"/>
<text text-anchor="middle" x="652" y="-124.2" font-family="Helvetica,sans-Serif" font-size="9.00" fill="grey">path</text>
</a>
</g>
</g>
<!-- app/infrastructure&#45;&gt;path -->
<g id="edge21" class="edge">
<title>app/infrastructure&#45;&gt;path</title>
<path fill="none" stroke="#000000" stroke-dasharray="5,2" stroke-opacity="0.200000" d="M407.06,-173.95C417.93,-172.69 429.95,-171.42 441,-170.5 474.93,-167.68 561.36,-172.2 594,-162.5 609.11,-158.01 624.46,-148.86 635.58,-141.24"/>
<polygon fill="#000000" fill-opacity="0.200000" stroke="#000000" stroke-opacity="0.200000" points="636.68,-143.03 640.36,-137.85 634.25,-139.6 636.68,-143.03"/>
</g>
<!-- app/domain -->
<g id="node17" class="node">
<title>app/domain</title>
<g id="a_node17"><a xlink:href="app/domain" xlink:title="no&#45;orphans">
<polygon fill="#ccffcc" stroke="orange" points="396,-136.75 343.97,-136.75 342,-134.78 342,-119 394.03,-119 396,-120.97 396,-136.75"/>
<polyline fill="none" stroke="orange" points="394.03,-134.78 342,-134.78"/>
<polyline fill="none" stroke="orange" points="394.03,-134.78 394.03,-119"/>
<polyline fill="none" stroke="orange" points="394.03,-134.78 396,-136.75"/>
<text text-anchor="start" x="353.62" y="-124.2" font-family="Helvetica,sans-Serif" font-size="9.00" fill="orange">domain</text>
</a>
</g>
</g>
<!-- app/infrastructure&#45;&gt;app/domain -->
<g id="edge18" class="edge">
<title>app/infrastructure&#45;&gt;app/domain</title>
<path fill="none" stroke="#000000" stroke-width="2" stroke-opacity="0.200000" d="M371.5,-170.2C371.11,-163.65 370.54,-154.23 370.04,-146.03"/>
<polygon fill="#000000" fill-opacity="0.200000" stroke="#000000" stroke-width="2" stroke-opacity="0.200000" points="372.15,-146.11 369.69,-140.25 367.96,-146.36 372.15,-146.11"/>
</g>
<!-- fs/promises -->
<g id="node19" class="node">
<title>fs/promises</title>
<g id="a_node19"><a xlink:href="https://nodejs.org/api/fs.html" xlink:title="promises">
<path fill="#ffffcc" stroke="grey" d="M577.08,-136.75C577.08,-136.75 534.92,-136.75 534.92,-136.75 531.96,-136.75 529,-133.79 529,-130.83 529,-130.83 529,-124.92 529,-124.92 529,-121.96 531.96,-119 534.92,-119 534.92,-119 577.08,-119 577.08,-119 580.04,-119 583,-121.96 583,-124.92 583,-124.92 583,-130.83 583,-130.83 583,-133.79 580.04,-136.75 577.08,-136.75"/>
<text text-anchor="start" x="537.25" y="-124.2" font-family="Helvetica,sans-Serif" font-size="9.00" fill="grey">promises</text>
</a>
</g>
</g>
<!-- app/infrastructure&#45;&gt;fs/promises -->
<g id="edge20" class="edge">
<title>app/infrastructure&#45;&gt;fs/promises</title>
<path fill="none" stroke="#000000" stroke-dasharray="5,2" stroke-opacity="0.200000" d="M407.1,-174.32C417.96,-173.08 429.97,-171.72 441,-170.5 474.32,-166.82 485.16,-175.64 516,-162.5 526.64,-157.97 536.61,-149.61 543.93,-142.36"/>
<polygon fill="#000000" fill-opacity="0.200000" stroke="#000000" stroke-opacity="0.200000" points="545.28,-143.98 547.93,-138.2 542.25,-141.07 545.28,-143.98"/>
</g>
<!-- app/lib&#45;&gt;../get -->
<g id="edge22" class="edge">
<title>app/lib&#45;&gt;../get</title>
<g id="a_edge22"><a xlink:title="not&#45;to&#45;unresolvable">
<path fill="none" stroke="red" stroke-width="2" d="M209.33,-84.87C204.13,-82.68 198.76,-80.12 194,-77.25 185.03,-71.84 176.01,-64.46 168.81,-58"/>
<polygon fill="red" stroke="red" stroke-width="2" points="170.34,-56.55 164.51,-54.01 167.48,-59.63 170.34,-56.55"/>
</a>
</g>
<text text-anchor="middle" x="224.15" y="-71.99" font-family="Helvetica,sans-Serif" font-size="9.00" fill="red">not&#45;to&#45;unresolvable</text>
</g>
<!-- app/lib&#45;&gt;app/api&#45;v2 -->
<g id="edge26" class="edge">
<title>app/lib&#45;&gt;app/api&#45;v2</title>
<path fill="none" stroke="#000000" stroke-width="2" stroke-opacity="0.200000" d="M229.56,-84.95C228.55,-78.4 228.26,-68.98 228.69,-60.78"/>
<polygon fill="#000000" fill-opacity="0.200000" stroke="#000000" stroke-width="2" stroke-opacity="0.200000" points="230.77,-61.16 229.24,-54.99 226.59,-60.77 230.77,-61.16"/>
</g>
<!-- app/controllers -->
<g id="node8" class="node">
<title>app/controllers</title>
<g id="a_node8"><a xlink:href="app/controllers" xlink:title="no&#45;orphans">
<polygon fill="#ffffcc" stroke="orange" points="411.38,-219 354.6,-219 352.62,-217.03 352.62,-201.25 409.4,-201.25 411.38,-203.22 411.38,-219"/>
<polyline fill="none" stroke="orange" points="409.4,-217.03 352.62,-217.03"/>
<polyline fill="none" stroke="orange" points="409.4,-217.03 409.4,-201.25"/>
<polyline fill="none" stroke="orange" points="409.4,-217.03 411.38,-219"/>
<text text-anchor="start" x="360.62" y="-206.45" font-family="Helvetica,sans-Serif" font-size="9.00" fill="orange">controllers</text>
</a>
</g>
</g>
<!-- app/lib&#45;&gt;app/controllers -->
<g id="edge27" class="edge">
<title>app/lib&#45;&gt;app/controllers</title>
<path fill="none" stroke="#000000" stroke-width="2" stroke-opacity="0.200000" d="M230.41,-103.25C221.38,-121 197.2,-163.6 219,-188.25 235.13,-206.5 300.52,-209.9 343.46,-210.01"/>
<polygon fill="#000000" fill-opacity="0.200000" stroke="#000000" stroke-width="2" stroke-opacity="0.200000" points="343.24,-212.11 349.23,-210 343.23,-207.91 343.24,-212.11"/>
</g>
<!-- fs -->
<g id="node11" class="node">
<title>fs</title>
<g id="a_node11"><a xlink:href="https://nodejs.org/api/fs.html" xlink:title="fs">
<path fill="#ffffcc" stroke="grey" d="M73.08,-17.75C73.08,-17.75 30.92,-17.75 30.92,-17.75 27.96,-17.75 25,-14.79 25,-11.83 25,-11.83 25,-5.92 25,-5.92 25,-2.96 27.96,0 30.92,0 30.92,0 73.08,0 73.08,0 76.04,0 79,-2.96 79,-5.92 79,-5.92 79,-11.83 79,-11.83 79,-14.79 76.04,-17.75 73.08,-17.75"/>
<text text-anchor="middle" x="52" y="-5.2" font-family="Helvetica,sans-Serif" font-size="9.00" fill="grey">fs</text>
</a>
</g>
</g>
<!-- app/lib&#45;&gt;fs -->
<g id="edge24" class="edge">
<title>app/lib&#45;&gt;fs</title>
<path fill="none" stroke="#000000" stroke-dasharray="5,2" stroke-opacity="0.200000" d="M205.76,-92.78C170.66,-91.87 112.02,-88.64 94,-77.25 74.97,-65.23 63.13,-41.13 57.05,-25.26"/>
<polygon fill="#000000" fill-opacity="0.200000" stroke="#000000" stroke-opacity="0.200000" points="59.04,-24.57 55.03,-19.64 55.08,-25.99 59.04,-24.57"/>
</g>
<!-- http -->
<g id="node16" class="node">
<title>http</title>
<g id="a_node16"><a xlink:href="https://nodejs.org/api/http.html" xlink:title="http">
<path fill="#ffffcc" stroke="grey" d="M685.08,-17.75C685.08,-17.75 642.92,-17.75 642.92,-17.75 639.96,-17.75 637,-14.79 637,-11.83 637,-11.83 637,-5.92 637,-5.92 637,-2.96 639.96,0 642.92,0 642.92,0 685.08,0 685.08,0 688.04,0 691,-2.96 691,-5.92 691,-5.92 691,-11.83 691,-11.83 691,-14.79 688.04,-17.75 685.08,-17.75"/>
<text text-anchor="middle" x="664" y="-5.2" font-family="Helvetica,sans-Serif" font-size="9.00" fill="grey">http</text>
</a>
</g>
</g>
<!-- app/lib&#45;&gt;http -->
<g id="edge25" class="edge">
<title>app/lib&#45;&gt;http</title>
<path fill="none" stroke="#000000" stroke-dasharray="5,2" stroke-opacity="0.200000" d="M260.09,-90.71C280.85,-88.94 310.21,-86.62 336,-85.25 350.71,-84.47 588.57,-85.16 601,-77.25 622.63,-63.48 608.31,-43.31 627,-25.75 628.53,-24.31 630.21,-23 631.98,-21.79"/>
<polygon fill="#000000" fill-opacity="0.200000" stroke="#000000" stroke-opacity="0.200000" points="632.86,-23.71 636.98,-18.86 630.74,-20.08 632.86,-23.71"/>
</g>
<!-- child_process -->
<g id="node20" class="node">
<title>child_process</title>
<g id="a_node20"><a xlink:href="https://nodejs.org/api/child_process.html" xlink:title="child_process">
<path fill="#ffffcc" stroke="grey" d="M588.58,-51.5C588.58,-51.5 527.42,-51.5 527.42,-51.5 524.46,-51.5 521.5,-48.54 521.5,-45.58 521.5,-45.58 521.5,-39.67 521.5,-39.67 521.5,-36.71 524.46,-33.75 527.42,-33.75 527.42,-33.75 588.58,-33.75 588.58,-33.75 591.54,-33.75 594.5,-36.71 594.5,-39.67 594.5,-39.67 594.5,-45.58 594.5,-45.58 594.5,-48.54 591.54,-51.5 588.58,-51.5"/>
<text text-anchor="middle" x="558" y="-38.95" font-family="Helvetica,sans-Serif" font-size="9.00" fill="grey">child_process</text>
</a>
</g>
</g>
<!-- app/lib&#45;&gt;child_process -->
<g id="edge23" class="edge">
<title>app/lib&#45;&gt;child_process</title>
<path fill="none" stroke="#000000" stroke-dasharray="5,2" stroke-opacity="0.200000" d="M260.09,-90.82C280.85,-89.1 310.22,-86.81 336,-85.25 355.98,-84.04 497.26,-84.3 516,-77.25 527.51,-72.92 538.28,-64.16 546.04,-56.66"/>
<polygon fill="#000000" fill-opacity="0.200000" stroke="#000000" stroke-opacity="0.200000" points="547.11,-58.56 549.84,-52.82 544.12,-55.61 547.11,-58.56"/>
</g>
<!-- app/models&#45;&gt;app/lib -->
<g id="edge37" class="edge">
<title>app/models&#45;&gt;app/lib</title>
<path fill="none" stroke="#000000" stroke-width="2" stroke-opacity="0.200000" d="M420.67,-118.53C415.03,-115.64 408.39,-112.7 402,-111 353.77,-98.18 339.63,-108.2 290,-103 283.22,-102.29 276.01,-101.4 269.08,-100.48"/>
<polygon fill="#000000" fill-opacity="0.200000" stroke="#000000" stroke-width="2" stroke-opacity="0.200000" points="269.73,-98.45 263.5,-99.71 269.16,-102.61 269.73,-98.45"/>
</g>
<!-- app/models&#45;&gt;assert -->
<g id="edge32" class="edge">
<title>app/models&#45;&gt;assert</title>
<path fill="none" stroke="#000000" stroke-dasharray="5,2" stroke-opacity="0.200000" d="M421.02,-118.59C415.32,-115.63 408.54,-112.63 402,-111 339.9,-95.54 154.05,-128.71 116,-77.25 102.39,-58.85 102.04,-43.89 116,-25.75 122.08,-17.86 131.59,-13.59 141.26,-11.37"/>
<polygon fill="#000000" fill-opacity="0.200000" stroke="#000000" stroke-opacity="0.200000" points="141.61,-13.44 147.15,-10.31 140.87,-9.31 141.61,-13.44"/>
</g>
<!-- app/templates -->
<g id="node9" class="node">
<title>app/templates</title>
<g id="a_node9"><a xlink:href="app/templates" xlink:title="templates">
<polygon fill="#ffffcc" stroke="black" points="397.88,-103 344.1,-103 342.12,-101.03 342.12,-85.25 395.9,-85.25 397.88,-87.22 397.88,-103"/>
<polyline fill="none" stroke="black" points="395.9,-101.03 342.12,-101.03"/>
<polyline fill="none" stroke="black" points="395.9,-101.03 395.9,-85.25"/>
<polyline fill="none" stroke="black" points="395.9,-101.03 397.88,-103"/>
<text text-anchor="start" x="350.12" y="-90.45" font-family="Helvetica,sans-Serif" font-size="9.00">templates</text>
</a>
</g>
</g>
<!-- app/models&#45;&gt;app/templates -->
<g id="edge33" class="edge">
<title>app/models&#45;&gt;app/templates</title>
<g id="a_edge33"><a xlink:title="no&#45;circular">
<path fill="none" stroke="orange" stroke-width="2" d="M413.91,-118.53C409.25,-116.4 404.24,-114.03 399.33,-111.65"/>
<polygon fill="orange" stroke="orange" stroke-width="2" points="391.75,-105.48 385.45,-104.66 389.87,-109.24 391.75,-105.48"/>
<polyline fill="none" stroke="orange" stroke-width="2" points="391.7,-107.81 394.38,-109.16"/>
<ellipse fill="none" stroke="orange" stroke-width="2" cx="397.42" cy="-110.69" rx="2.4" ry="2.4"/>
</a>
</g>
<text text-anchor="middle" x="399.45" y="-103.15" font-family="Helvetica,sans-Serif" font-size="9.00" fill="orange">no&#45;circular</text>
</g>
<!-- app/snip.js -->
<g id="node10" class="node">
<title>app/snip.js</title>
<g id="a_node10"><a xlink:href="app/snip.js" xlink:title="snip.js">
<path fill="#ffffcc" stroke="black" d="M498.08,-51.5C498.08,-51.5 455.92,-51.5 455.92,-51.5 452.96,-51.5 450,-48.54 450,-45.58 450,-45.58 450,-39.67 450,-39.67 450,-36.71 452.96,-33.75 455.92,-33.75 455.92,-33.75 498.08,-33.75 498.08,-33.75 501.04,-33.75 504,-36.71 504,-39.67 504,-39.67 504,-45.58 504,-45.58 504,-48.54 501.04,-51.5 498.08,-51.5"/>
<text text-anchor="start" x="463.88" y="-38.95" font-family="Helvetica,sans-Serif" font-size="9.00">snip.js</text>
</a>
</g>
</g>
<!-- app/models&#45;&gt;app/snip.js -->
<g id="edge30" class="edge">
<title>app/models&#45;&gt;app/snip.js</title>
<path fill="none" stroke="#000000" stroke-width="2" stroke-opacity="0.200000" d="M453.17,-118.54C459.52,-114.71 466.04,-109.54 470,-103 477.64,-90.39 478.96,-73.5 478.62,-60.95"/>
<polygon fill="#000000" fill-opacity="0.200000" stroke="#000000" stroke-width="2" stroke-opacity="0.200000" points="480.71,-60.88 478.26,-55.01 476.52,-61.13 480.71,-60.88"/>
</g>
<!-- app/models&#45;&gt;fs -->
<g id="edge28" class="edge">
<title>app/models&#45;&gt;fs</title>
<path fill="none" stroke="#000000" stroke-dasharray="5,2" stroke-opacity="0.200000" d="M421.03,-118.55C415.33,-115.59 408.55,-112.59 402,-111 341.3,-96.25 182.22,-115.42 121,-103 90.14,-96.74 73.34,-102.85 55,-77.25 44.18,-62.15 45.62,-39.9 48.28,-25.15"/>
<polygon fill="#000000" fill-opacity="0.200000" stroke="#000000" stroke-opacity="0.200000" points="50.33,-25.61 49.5,-19.3 46.22,-24.75 50.33,-25.61"/>
</g>
<!-- querystring -->
<g id="node13" class="node">
<title>querystring</title>
<g id="a_node13"><a xlink:href="https://nodejs.org/api/querystring.html" xlink:title="querystring">
<path fill="#ffffcc" stroke="grey" d="M808.96,-17.75C808.96,-17.75 759.04,-17.75 759.04,-17.75 756.08,-17.75 753.12,-14.79 753.12,-11.83 753.12,-11.83 753.12,-5.92 753.12,-5.92 753.12,-2.96 756.08,0 759.04,0 759.04,0 808.96,0 808.96,0 811.92,0 814.88,-2.96 814.88,-5.92 814.88,-5.92 814.88,-11.83 814.88,-11.83 814.88,-14.79 811.92,-17.75 808.96,-17.75"/>
<text text-anchor="middle" x="784" y="-5.2" font-family="Helvetica,sans-Serif" font-size="9.00" fill="grey">querystring</text>
</a>
</g>
</g>
<!-- app/models&#45;&gt;querystring -->
<g id="edge36" class="edge">
<title>app/models&#45;&gt;querystring</title>
<path fill="none" stroke="#000000" stroke-dasharray="5,2" stroke-opacity="0.200000" d="M462.14,-120.71C478.28,-117.29 499.21,-113.27 518,-111 552.02,-106.88 639,-112.23 672,-103 688.04,-98.51 689.98,-92.43 705,-85.25 713.27,-81.3 716.55,-82.58 724,-77.25 744.96,-62.26 763.76,-38.72 774.52,-23.8"/>
<polygon fill="#000000" fill-opacity="0.200000" stroke="#000000" stroke-opacity="0.200000" points="776,-25.33 777.75,-19.22 772.57,-22.91 776,-25.33"/>
</g>
<!-- crypto -->
<g id="node14" class="node">
<title>crypto</title>
<g id="a_node14"><a xlink:href="https://nodejs.org/api/crypto.html" xlink:title="crypto">
<path fill="#ffffcc" stroke="grey" d="M759.08,-103C759.08,-103 716.92,-103 716.92,-103 713.96,-103 711,-100.04 711,-97.08 711,-97.08 711,-91.17 711,-91.17 711,-88.21 713.96,-85.25 716.92,-85.25 716.92,-85.25 759.08,-85.25 759.08,-85.25 762.04,-85.25 765,-88.21 765,-91.17 765,-91.17 765,-97.08 765,-97.08 765,-100.04 762.04,-103 759.08,-103"/>
<text text-anchor="middle" x="738" y="-90.45" font-family="Helvetica,sans-Serif" font-size="9.00" fill="grey">crypto</text>
</a>
</g>
</g>
<!-- app/models&#45;&gt;crypto -->
<g id="edge31" class="edge">
<title>app/models&#45;&gt;crypto</title>
<path fill="none" stroke="#000000" stroke-dasharray="5,2" stroke-opacity="0.200000" d="M462.13,-120.65C478.27,-117.21 499.2,-113.19 518,-111 599.3,-101.51 620.83,-113.56 702,-103 702.44,-102.94 702.87,-102.88 703.32,-102.82"/>
<polygon fill="#000000" fill-opacity="0.200000" stroke="#000000" stroke-opacity="0.200000" points="703.49,-104.92 709.07,-101.88 702.81,-100.78 703.49,-104.92"/>
</g>
<!-- app/models&#45;&gt;http -->
<g id="edge38" class="edge">
<title>app/models&#45;&gt;http</title>
<path fill="none" stroke="#000000" stroke-dasharray="5,2" stroke-opacity="0.200000" d="M462.15,-120.8C478.3,-117.4 499.23,-113.39 518,-111 572.78,-104.02 588.37,-116.18 642,-103 660.89,-98.36 663.75,-91.97 682,-85.25 693.74,-80.92 701.51,-87.28 709,-77.25 722.69,-58.91 722.22,-44.43 709,-25.75 706.17,-21.75 702.25,-18.75 697.89,-16.51"/>
<polygon fill="#000000" fill-opacity="0.200000" stroke="#000000" stroke-opacity="0.200000" points="699,-14.7 692.66,-14.31 697.38,-18.57 699,-14.7"/>
</g>
<!-- app/features -->
<g id="node18" class="node">
<title>app/features</title>
<g id="a_node18"><a xlink:href="app/features" xlink:title="features">
<polygon fill="#ffffcc" stroke="black" points="464,-103 411.97,-103 410,-101.03 410,-85.25 462.03,-85.25 464,-87.22 464,-103"/>
<polyline fill="none" stroke="black" points="462.03,-101.03 410,-101.03"/>
<polyline fill="none" stroke="black" points="462.03,-101.03 462.03,-85.25"/>
<polyline fill="none" stroke="black" points="462.03,-101.03 464,-103"/>
<text text-anchor="start" x="420.5" y="-90.45" font-family="Helvetica,sans-Serif" font-size="9.00">features</text>
</a>
</g>
</g>
<!-- app/models&#45;&gt;app/features -->
<g id="edge34" class="edge">
<title>app/models&#45;&gt;app/features</title>
<path fill="none" stroke="#000000" stroke-width="2" stroke-opacity="0.200000" d="M435.53,-118.53C435.66,-116.48 435.8,-114.2 435.94,-111.89"/>
<polygon fill="#000000" fill-opacity="0.200000" stroke="#000000" stroke-width="2" stroke-opacity="0.200000" points="438.01,-112.44 436.29,-106.32 433.82,-112.18 438.01,-112.44"/>
</g>
<!-- vm -->
<g id="node21" class="node">
<title>vm</title>
<g id="a_node21"><a xlink:href="https://nodejs.org/api/vm.html" xlink:title="vm">
<path fill="#ffffcc" stroke="grey" d="M569.08,-103C569.08,-103 526.92,-103 526.92,-103 523.96,-103 521,-100.04 521,-97.08 521,-97.08 521,-91.17 521,-91.17 521,-88.21 523.96,-85.25 526.92,-85.25 526.92,-85.25 569.08,-85.25 569.08,-85.25 572.04,-85.25 575,-88.21 575,-91.17 575,-91.17 575,-97.08 575,-97.08 575,-100.04 572.04,-103 569.08,-103"/>
<text text-anchor="middle" x="548" y="-90.45" font-family="Helvetica,sans-Serif" font-size="9.00" fill="grey">vm</text>
</a>
</g>
</g>
<!-- app/models&#45;&gt;vm -->
<g id="edge29" class="edge">
<title>app/models&#45;&gt;vm</title>
<path fill="none" stroke="#000000" stroke-dasharray="5,2" stroke-opacity="0.200000" d="M462.35,-119.19C477.79,-114.85 497.21,-109.4 513.66,-104.77"/>
<polygon fill="#000000" fill-opacity="0.200000" stroke="#000000" stroke-opacity="0.200000" points="513.84,-106.9 519.05,-103.26 512.7,-102.86 513.84,-106.9"/>
</g>
<!-- https -->
<g id="node22" class="node">
<title>https</title>
<g id="a_node22"><a xlink:href="https://nodejs.org/api/https.html" xlink:title="https">
<path fill="#ffffcc" stroke="grey" d="M615.08,-17.75C615.08,-17.75 572.92,-17.75 572.92,-17.75 569.96,-17.75 567,-14.79 567,-11.83 567,-11.83 567,-5.92 567,-5.92 567,-2.96 569.96,0 572.92,0 572.92,0 615.08,0 615.08,0 618.04,0 621,-2.96 621,-5.92 621,-5.92 621,-11.83 621,-11.83 621,-14.79 618.04,-17.75 615.08,-17.75"/>
<text text-anchor="middle" x="594" y="-5.2" font-family="Helvetica,sans-Serif" font-size="9.00" fill="grey">https</text>
</a>
</g>
</g>
<!-- app/models&#45;&gt;https -->
<g id="edge35" class="edge">
<title>app/models&#45;&gt;https</title>
<path fill="none" stroke="#000000" stroke-dasharray="5,2" stroke-opacity="0.200000" d="M462.17,-120.96C478.33,-117.63 499.26,-113.62 518,-111 557.77,-105.44 568.82,-111.82 608,-103 630.19,-98 634.16,-91.61 656,-85.25 672.15,-80.54 682.43,-90.34 693,-77.25 707.37,-59.44 708.11,-42.94 693,-25.75 683.83,-15.32 644.69,-20.09 631,-17.75 630.22,-17.62 629.44,-17.48 628.65,-17.34"/>
<polygon fill="#000000" fill-opacity="0.200000" stroke="#000000" stroke-opacity="0.200000" points="629.2,-15.31 622.92,-16.25 628.42,-19.43 629.2,-15.31"/>
</g>
<!-- util -->
<g id="node23" class="node">
<title>util</title>
<g id="a_node23"><a xlink:href="https://nodejs.org/api/util.html" xlink:title="util">
<path fill="#ffffcc" stroke="grey" d="M681.08,-51.5C681.08,-51.5 638.92,-51.5 638.92,-51.5 635.96,-51.5 633,-48.54 633,-45.58 633,-45.58 633,-39.67 633,-39.67 633,-36.71 635.96,-33.75 638.92,-33.75 638.92,-33.75 681.08,-33.75 681.08,-33.75 684.04,-33.75 687,-36.71 687,-39.67 687,-39.67 687,-45.58 687,-45.58 687,-48.54 684.04,-51.5 681.08,-51.5"/>
<text text-anchor="middle" x="660" y="-38.95" font-family="Helvetica,sans-Serif" font-size="9.00" fill="grey">util</text>
</a>
</g>
</g>
<!-- app/models&#45;&gt;util -->
<g id="edge39" class="edge">
<title>app/models&#45;&gt;util</title>
<path fill="none" stroke="#000000" stroke-dasharray="5,2" stroke-opacity="0.200000" d="M462.21,-121.22C478.38,-117.98 499.31,-113.97 518,-111 545.87,-106.57 554.33,-112.22 581,-103 607.91,-93.69 633.13,-71.5 647.55,-57.04"/>
<polygon fill="#000000" fill-opacity="0.200000" stroke="#000000" stroke-opacity="0.200000" points="648.97,-58.59 651.64,-52.82 645.95,-55.66 648.97,-58.59"/>
</g>
<!-- app/controllers&#45;&gt;app/MyController.js -->
<g id="edge8" class="edge">
<title>app/controllers&#45;&gt;app/MyController.js</title>
<path fill="none" stroke="#000000" stroke-width="2" stroke-opacity="0.200000" d="M352.3,-202.24C337.41,-198.79 319.08,-194.54 302.55,-190.7"/>
<polygon fill="#000000" fill-opacity="0.200000" stroke="#000000" stroke-width="2" stroke-opacity="0.200000" points="303.36,-188.74 297.04,-189.43 302.41,-192.83 303.36,-188.74"/>
</g>
<!-- app/controllers&#45;&gt;app/infrastructure -->
<g id="edge16" class="edge">
<title>app/controllers&#45;&gt;app/infrastructure</title>
<path fill="none" stroke="#000000" stroke-width="2" stroke-opacity="0.200000" d="M379.16,-200.96C378.74,-199.76 378.3,-198.48 377.85,-197.18"/>
<polygon fill="#000000" fill-opacity="0.200000" stroke="#000000" stroke-width="2" stroke-opacity="0.200000" points="379.83,-196.49 375.88,-191.52 375.86,-197.87 379.83,-196.49"/>
</g>
<!-- app/controllers&#45;&gt;app/lib -->
<g id="edge13" class="edge">
<title>app/controllers&#45;&gt;app/lib</title>
<path fill="none" stroke="#000000" stroke-width="2" stroke-opacity="0.200000" d="M352.48,-209.9C307.48,-210.56 225.36,-209.01 207,-188.25 187.67,-166.39 204.49,-130.42 218.77,-110.18"/>
<polygon fill="#000000" fill-opacity="0.200000" stroke="#000000" stroke-width="2" stroke-opacity="0.200000" points="220.25,-111.71 222.21,-105.66 216.91,-109.17 220.25,-111.71"/>
</g>
<!-- app/controllers&#45;&gt;app/models -->
<g id="edge5" class="edge">
<title>app/controllers&#45;&gt;app/models</title>
<path fill="none" stroke="#000000" stroke-width="2" stroke-opacity="0.200000" d="M398.36,-200.8C403.6,-197.48 409.07,-193.25 413,-188.25 422.86,-175.72 428.61,-158.33 431.74,-145.61"/>
<polygon fill="#000000" fill-opacity="0.200000" stroke="#000000" stroke-width="2" stroke-opacity="0.200000" points="433.76,-146.22 433,-139.9 429.65,-145.31 433.76,-146.22"/>
</g>
<!-- app/controllers&#45;&gt;app/templates -->
<g id="edge6" class="edge">
<title>app/controllers&#45;&gt;app/templates</title>
<path fill="none" stroke="#000000" stroke-width="2" stroke-opacity="0.200000" d="M352.33,-203.5C344.05,-200.41 335.96,-195.64 331,-188.25 321.63,-174.29 311.8,-145.71 336,-111 336.47,-110.32 336.98,-109.67 337.52,-109.05"/>
<polygon fill="#000000" fill-opacity="0.200000" stroke="#000000" stroke-width="2" stroke-opacity="0.200000" points="338.75,-110.76 342,-105.3 336.05,-107.54 338.75,-110.76"/>
</g>
<!-- app/controllers&#45;&gt;app/snip.js -->
<g id="edge7" class="edge">
<title>app/controllers&#45;&gt;app/snip.js</title>
<path fill="none" stroke="#000000" stroke-width="2" stroke-opacity="0.200000" d="M352.32,-206.19C340.43,-203.44 327.75,-198.2 320,-188.25 313.04,-179.31 312.97,-126.99 318,-111 333.35,-62.25 398.78,-48.55 440.77,-44.84"/>
<polygon fill="#000000" fill-opacity="0.200000" stroke="#000000" stroke-width="2" stroke-opacity="0.200000" points="440.76,-46.94 446.59,-44.4 440.45,-42.75 440.76,-46.94"/>
</g>
<!-- app/controllers&#45;&gt;fs -->
<g id="edge9" class="edge">
<title>app/controllers&#45;&gt;fs</title>
<path fill="none" stroke="#000000" stroke-dasharray="5,2" stroke-opacity="0.200000" d="M352.34,-209.2C262.59,-208.62 0,-200.79 0,-128.88 0,-128.88 0,-128.88 0,-93.12 0,-64.9 21.77,-38.34 37.14,-23.11"/>
<polygon fill="#000000" fill-opacity="0.200000" stroke="#000000" stroke-opacity="0.200000" points="38.48,-24.74 41.37,-19.08 35.58,-21.7 38.48,-24.74"/>
</g>
<!-- app/controllers&#45;&gt;path -->
<g id="edge10" class="edge">
<title>app/controllers&#45;&gt;path</title>
<path fill="none" stroke="#000000" stroke-dasharray="5,2" stroke-opacity="0.200000" d="M411.77,-208.86C458.36,-207.25 550.09,-199.21 617,-162.5 626.12,-157.5 634.58,-149.5 640.9,-142.56"/>
<polygon fill="#000000" fill-opacity="0.200000" stroke="#000000" stroke-opacity="0.200000" points="642.33,-144.12 644.68,-138.21 639.16,-141.36 642.33,-144.12"/>
</g>
<!-- app/controllers&#45;&gt;querystring -->
<g id="edge11" class="edge">
<title>app/controllers&#45;&gt;querystring</title>
<path fill="none" stroke="#000000" stroke-dasharray="5,2" stroke-opacity="0.200000" d="M411.85,-209.74C466.34,-210.27 585.33,-208.7 683,-188.25 716.26,-181.29 724.34,-177.16 755,-162.5 780.85,-150.14 810,-157.53 810,-128.88 810,-128.88 810,-128.88 810,-93.12 810,-68.18 799.23,-40.86 791.55,-24.55"/>
<polygon fill="#000000" fill-opacity="0.200000" stroke="#000000" stroke-opacity="0.200000" points="793.48,-23.71 788.96,-19.25 789.71,-25.56 793.48,-23.71"/>
</g>
<!-- app/controllers&#45;&gt;crypto -->
<g id="edge12" class="edge">
<title>app/controllers&#45;&gt;crypto</title>
<path fill="none" stroke="#000000" stroke-dasharray="5,2" stroke-opacity="0.200000" d="M411.76,-207.66C479.01,-203.87 640.31,-191.9 685,-162.5 705.49,-149.02 721.56,-124.98 730.41,-109.56"/>
<polygon fill="#000000" fill-opacity="0.200000" stroke="#000000" stroke-opacity="0.200000" points="732.16,-110.74 733.23,-104.48 728.48,-108.71 732.16,-110.74"/>
</g>
<!-- app/genuine.js -->
<g id="node15" class="node">
<title>app/genuine.js</title>
<g id="a_node15"><a xlink:href="app/genuine.js" xlink:title="genuine.js">
<path fill="#ffffcc" stroke="black" d="M499.46,-188.25C499.46,-188.25 452.54,-188.25 452.54,-188.25 449.58,-188.25 446.62,-185.29 446.62,-182.33 446.62,-182.33 446.62,-176.42 446.62,-176.42 446.62,-173.46 449.58,-170.5 452.54,-170.5 452.54,-170.5 499.46,-170.5 499.46,-170.5 502.42,-170.5 505.38,-173.46 505.38,-176.42 505.38,-176.42 505.38,-182.33 505.38,-182.33 505.38,-185.29 502.42,-188.25 499.46,-188.25"/>
<text text-anchor="start" x="454.62" y="-175.7" font-family="Helvetica,sans-Serif" font-size="9.00">genuine.js</text>
</a>
</g>
</g>
<!-- app/controllers&#45;&gt;app/genuine.js -->
<g id="edge14" class="edge">
<title>app/controllers&#45;&gt;app/genuine.js</title>
<path fill="none" stroke="#000000" stroke-width="2" stroke-opacity="0.200000" d="M409.19,-200.81C418.93,-197.83 430.07,-194.42 440.41,-191.26"/>
<polygon fill="#000000" fill-opacity="0.200000" stroke="#000000" stroke-width="2" stroke-opacity="0.200000" points="440.85,-193.32 445.98,-189.56 439.63,-189.3 440.85,-193.32"/>
</g>
<!-- app/controllers&#45;&gt;http -->
<g id="edge15" class="edge">
<title>app/controllers&#45;&gt;http</title>
<path fill="none" stroke="#000000" stroke-dasharray="5,2" stroke-opacity="0.200000" d="M411.71,-209.2C460.51,-208.77 560.48,-205.61 643,-188.25 677.08,-181.08 687.95,-181.71 717,-162.5 751.94,-139.39 784.74,-124.82 771,-85.25 759.94,-53.42 752.18,-44.23 724,-25.75 716.4,-20.76 707.29,-17.34 698.49,-14.99"/>
<polygon fill="#000000" fill-opacity="0.200000" stroke="#000000" stroke-opacity="0.200000" points="699.01,-12.96 692.69,-13.61 698.04,-17.04 699.01,-12.96"/>
</g>
<!-- app/templates&#45;&gt;app/models -->
<g id="edge45" class="edge">
<title>app/templates&#45;&gt;app/models</title>
<path fill="none" stroke="#000000" stroke-width="2" stroke-opacity="0.200000" d="M390.73,-103.3C398.25,-106.74 406.72,-110.8 414.24,-114.59"/>
<polygon fill="#000000" fill-opacity="0.200000" stroke="#000000" stroke-width="2" stroke-opacity="0.200000" points="412.95,-116.28 419.24,-117.15 414.86,-112.55 412.95,-116.28"/>
</g>
<!-- app/templates&#45;&gt;app/snip.js -->
<g id="edge47" class="edge">
<title>app/templates&#45;&gt;app/snip.js</title>
<path fill="none" stroke="#000000" stroke-width="2" stroke-opacity="0.200000" d="M387.67,-84.95C404.91,-76.97 431.35,-64.75 450.99,-55.66"/>
<polygon fill="#000000" fill-opacity="0.200000" stroke="#000000" stroke-width="2" stroke-opacity="0.200000" points="451.64,-57.67 456.2,-53.25 449.87,-53.86 451.64,-57.67"/>
</g>
<!-- app/templates&#45;&gt;fs -->
<g id="edge46" class="edge">
<title>app/templates&#45;&gt;fs</title>
<path fill="none" stroke="#000000" stroke-dasharray="5,2" stroke-opacity="0.200000" d="M341.76,-90.82C320.85,-89.15 291.66,-86.91 266,-85.25 249.34,-84.18 130.24,-85.95 116,-77.25 93.39,-63.44 105.56,-43.61 86,-25.75 84.47,-24.35 82.79,-23.05 81.02,-21.85"/>
<polygon fill="#000000" fill-opacity="0.200000" stroke="#000000" stroke-opacity="0.200000" points="82.32,-20.18 76.09,-18.92 80.18,-23.79 82.32,-20.18"/>
</g>
<!-- app/templates&#45;&gt;util -->
<g id="edge48" class="edge">
<title>app/templates&#45;&gt;util</title>
<path fill="none" stroke="#000000" stroke-dasharray="5,2" stroke-opacity="0.200000" d="M398.12,-86.17C400.11,-85.82 402.08,-85.51 404,-85.25 428.25,-82.03 601.41,-86.64 624,-77.25 634.2,-73.01 643.26,-64.5 649.75,-57.1"/>
<polygon fill="#000000" fill-opacity="0.200000" stroke="#000000" stroke-opacity="0.200000" points="651,-58.87 653.21,-52.91 647.77,-56.19 651,-58.87"/>
</g>
<!-- app/snip.js&#45;&gt;fs -->
<g id="edge40" class="edge">
<title>app/snip.js&#45;&gt;fs</title>
<path fill="none" stroke="#000000" stroke-dasharray="5,2" stroke-opacity="0.200000" d="M449.69,-39.48C409.48,-36.35 331.96,-30.38 266,-25.75 211.35,-21.92 197.63,-21.89 143,-17.75 124.32,-16.33 103.51,-14.55 86.5,-13.04"/>
<polygon fill="#000000" fill-opacity="0.200000" stroke="#000000" stroke-opacity="0.200000" points="87.14,-10.98 80.97,-12.54 86.76,-15.17 87.14,-10.98"/>
</g>
<!-- app/snip.js&#45;&gt;querystring -->
<g id="edge43" class="edge">
<title>app/snip.js&#45;&gt;querystring</title>
<path fill="none" stroke="#000000" stroke-dasharray="5,2" stroke-opacity="0.200000" d="M493.68,-33.37C500.44,-30.41 508.43,-27.41 516,-25.75 555.33,-17.15 656.83,-20.45 697,-17.75 712.99,-16.67 730.61,-15.14 745.79,-13.72"/>
<polygon fill="#000000" fill-opacity="0.200000" stroke="#000000" stroke-opacity="0.200000" points="745.74,-15.83 751.52,-13.17 745.34,-11.65 745.74,-15.83"/>
</g>
<!-- app/snip.js&#45;&gt;http -->
<g id="edge41" class="edge">
<title>app/snip.js&#45;&gt;http</title>
<path fill="none" stroke="#000000" stroke-dasharray="5,2" stroke-opacity="0.200000" d="M494.09,-33.31C500.77,-30.42 508.6,-27.48 516,-25.75 564.17,-14.51 578.03,-24.69 627,-17.75 627.78,-17.64 628.57,-17.52 629.36,-17.4"/>
<polygon fill="#000000" fill-opacity="0.200000" stroke="#000000" stroke-opacity="0.200000" points="629.55,-19.5 635.1,-16.4 628.83,-15.36 629.55,-19.5"/>
</g>
<!-- app/snip.js&#45;&gt;https -->
<g id="edge42" class="edge">
<title>app/snip.js&#45;&gt;https</title>
<path fill="none" stroke="#000000" stroke-dasharray="5,2" stroke-opacity="0.200000" d="M495.39,-33.32C501.82,-30.64 509.14,-27.82 516,-25.75 529.95,-21.53 545.65,-18.09 559.28,-15.51"/>
<polygon fill="#000000" fill-opacity="0.200000" stroke="#000000" stroke-opacity="0.200000" points="559.61,-17.59 565.13,-14.44 558.85,-13.45 559.61,-17.59"/>
</g>
<!-- url -->
<g id="node24" class="node">
<title>url</title>
<g id="a_node24"><a xlink:href="https://nodejs.org/api/url.html" xlink:title="url">
<path fill="#ffffcc" stroke="grey" d="M498.08,-17.75C498.08,-17.75 455.92,-17.75 455.92,-17.75 452.96,-17.75 450,-14.79 450,-11.83 450,-11.83 450,-5.92 450,-5.92 450,-2.96 452.96,0 455.92,0 455.92,0 498.08,0 498.08,0 501.04,0 504,-2.96 504,-5.92 504,-5.92 504,-11.83 504,-11.83 504,-14.79 501.04,-17.75 498.08,-17.75"/>
<text text-anchor="middle" x="477" y="-5.2" font-family="Helvetica,sans-Serif" font-size="9.00" fill="grey">url</text>
</a>
</g>
</g>
<!-- app/snip.js&#45;&gt;url -->
<g id="edge44" class="edge">
<title>app/snip.js&#45;&gt;url</title>
<path fill="none" stroke="#000000" stroke-dasharray="5,2" stroke-opacity="0.200000" d="M477,-33.28C477,-30.78 477,-27.96 477,-25.16"/>
<polygon fill="#000000" fill-opacity="0.200000" stroke="#000000" stroke-opacity="0.200000" points="479.1,-25.56 477,-19.56 474.9,-25.56 479.1,-25.56"/>
</g>
<!-- app/genuine.js&#45;&gt;crypto -->
<g id="edge17" class="edge">
<title>app/genuine.js&#45;&gt;crypto</title>
<path fill="none" stroke="#000000" stroke-dasharray="5,2" stroke-opacity="0.200000" d="M505.72,-177.53C535.97,-176.13 580.31,-172.4 594,-162.5 614.61,-147.59 598.11,-125.52 619,-111 634.21,-100.42 683.69,-105.87 702,-103 702.43,-102.93 702.87,-102.86 703.31,-102.79"/>
<polygon fill="#000000" fill-opacity="0.200000" stroke="#000000" stroke-opacity="0.200000" points="703.53,-104.88 709.06,-101.75 702.78,-100.75 703.53,-104.88"/>
</g>
<!-- app/workers -->
<g id="node25" class="node">
<title>app/workers</title>
<g id="a_node25"><a xlink:href="app/workers" xlink:title="workers">
<polygon fill="#ffffcc" stroke="black" points="435,-249.75 382.97,-249.75 381,-247.78 381,-232 433.03,-232 435,-233.97 435,-249.75"/>
<polyline fill="none" stroke="black" points="433.03,-247.78 381,-247.78"/>
<polyline fill="none" stroke="black" points="433.03,-247.78 433.03,-232"/>
<polyline fill="none" stroke="black" points="433.03,-247.78 435,-249.75"/>
<text text-anchor="start" x="391.88" y="-237.2" font-family="Helvetica,sans-Serif" font-size="9.00">workers</text>
</a>
</g>
</g>
<!-- app/workers&#45;&gt;app/models -->
<g id="edge50" class="edge">
<title>app/workers&#45;&gt;app/models</title>
<path fill="none" stroke="#000000" stroke-width="2" stroke-opacity="0.200000" d="M411.91,-231.9C413.66,-228.07 415.64,-223.37 417,-219 424.77,-194.07 429.96,-164.17 432.7,-145.85"/>
<polygon fill="#000000" fill-opacity="0.200000" stroke="#000000" stroke-width="2" stroke-opacity="0.200000" points="434.77,-146.21 433.54,-139.97 430.61,-145.61 434.77,-146.21"/>
</g>
<!-- app/workers&#45;&gt;app/controllers -->
<g id="edge49" class="edge">
<title>app/workers&#45;&gt;app/controllers</title>
<path fill="none" stroke="#000000" stroke-width="2" stroke-opacity="0.200000" d="M400.62,-231.71C398.99,-229.91 397.21,-227.94 395.42,-225.96"/>
<polygon fill="#000000" fill-opacity="0.200000" stroke="#000000" stroke-width="2" stroke-opacity="0.200000" points="397.1,-224.69 391.52,-221.65 393.99,-227.51 397.1,-224.69"/>
</g>
</g>
</svg>
