<?xml version="1.0" encoding="UTF-8" standalone="no"?>
<!DOCTYPE svg PUBLIC "-//W3C//DTD SVG 1.1//EN"
 "http://www.w3.org/Graphics/SVG/1.1/DTD/svg11.dtd">
<!-- Generated by graphviz version 12.2.1 (20241206.2353)
 -->
<!-- Title: dependency&#45;cruiser output Pages: 1 -->
<svg width="880pt" height="292pt"
 viewBox="0.00 0.00 880.00 291.50" xmlns="http://www.w3.org/2000/svg" xmlns:xlink="http://www.w3.org/1999/xlink">
<g id="graph0" class="graph" transform="scale(1 1) rotate(0) translate(4 287.5)">
<title>dependency&#45;cruiser output</title>
<polygon fill="white" stroke="none" points="-4,4 -4,-287.5 876,-287.5 876,4 -4,4"/>
<g id="clust1" class="cluster">
<title>cluster_..</title>
<path fill="#ffffff" stroke="black" stroke-width="2" d="M669,-25.75C669,-25.75 715,-25.75 715,-25.75 721,-25.75 727,-31.75 727,-37.75 727,-37.75 727,-65.25 727,-65.25 727,-71.25 721,-77.25 715,-77.25 715,-77.25 669,-77.25 669,-77.25 663,-77.25 657,-71.25 657,-65.25 657,-65.25 657,-37.75 657,-37.75 657,-31.75 663,-25.75 669,-25.75"/>
<text text-anchor="middle" x="692" y="-64.7" font-family="Helvetica,sans-Serif" font-weight="bold" font-size="9.00">..</text>
</g>
<g id="clust2" class="cluster">
<title>cluster_app</title>
<path fill="#ffffff" stroke="black" stroke-width="2" d="M237,-25.75C237,-25.75 529,-25.75 529,-25.75 535,-25.75 541,-31.75 541,-37.75 541,-37.75 541,-263.5 541,-263.5 541,-269.5 535,-275.5 529,-275.5 529,-275.5 237,-275.5 237,-275.5 231,-275.5 225,-269.5 225,-263.5 225,-263.5 225,-37.75 225,-37.75 225,-31.75 231,-25.75 237,-25.75"/>
<text text-anchor="middle" x="383" y="-262.95" font-family="Helvetica,sans-Serif" font-weight="bold" font-size="9.00">app</text>
</g>
<g id="clust3" class="cluster">
<title>cluster_fs</title>
<path fill="#ffffff" stroke="black" stroke-width="2" d="M561,-111C561,-111 607,-111 607,-111 613,-111 619,-117 619,-123 619,-123 619,-150.5 619,-150.5 619,-156.5 613,-162.5 607,-162.5 607,-162.5 561,-162.5 561,-162.5 555,-162.5 549,-156.5 549,-150.5 549,-150.5 549,-123 549,-123 549,-117 555,-111 561,-111"/>
<text text-anchor="middle" x="584" y="-149.95" font-family="Helvetica,sans-Serif" font-weight="bold" font-size="9.00">fs</text>
</g>
<!-- ../get -->
<g id="node1" class="node">
<title>../get</title>
<g id="a_node1"><a xlink:title="get">
<path fill="#ffffcc" stroke="black" d="M713.08,-51.5C713.08,-51.5 670.92,-51.5 670.92,-51.5 667.96,-51.5 665,-48.54 665,-45.58 665,-45.58 665,-39.67 665,-39.67 665,-36.71 667.96,-33.75 670.92,-33.75 670.92,-33.75 713.08,-33.75 713.08,-33.75 716.04,-33.75 719,-36.71 719,-39.67 719,-39.67 719,-45.58 719,-45.58 719,-48.54 716.04,-51.5 713.08,-51.5"/>
<text text-anchor="start" x="685.62" y="-38.95" font-family="Helvetica,sans-Serif" font-size="9.00">get</text>
</a>
</g>
</g>
<!-- app/MyController.js -->
<g id="node2" class="node">
<title>app/MyController.js</title>
<g id="a_node2"><a xlink:href="app/MyController.js" xlink:title="MyController.js">
<path fill="#ffffcc" stroke="black" d="M318.83,-188.25C318.83,-188.25 253.17,-188.25 253.17,-188.25 250.21,-188.25 247.25,-185.29 247.25,-182.33 247.25,-182.33 247.25,-176.42 247.25,-176.42 247.25,-173.46 250.21,-170.5 253.17,-170.5 253.17,-170.5 318.83,-170.5 318.83,-170.5 321.79,-170.5 324.75,-173.46 324.75,-176.42 324.75,-176.42 324.75,-182.33 324.75,-182.33 324.75,-185.29 321.79,-188.25 318.83,-188.25"/>
<text text-anchor="start" x="255.25" y="-175.7" font-family="Helvetica,sans-Serif" font-size="9.00">MyController.js</text>
</a>
</g>
</g>
<!-- app/api&#45;v2 -->
<g id="node3" class="node">
<title>app/api&#45;v2</title>
<g id="a_node3"><a xlink:href="app/api-v2" xlink:title="api&#45;v2">
<polygon fill="#ffffcc" stroke="black" points="533,-51.5 480.97,-51.5 479,-49.53 479,-33.75 531.03,-33.75 533,-35.72 533,-51.5"/>
<polyline fill="none" stroke="black" points="531.03,-49.53 479,-49.53"/>
<polyline fill="none" stroke="black" points="531.03,-49.53 531.03,-33.75"/>
<polyline fill="none" stroke="black" points="531.03,-49.53 533,-51.5"/>
<text text-anchor="start" x="493.25" y="-38.95" font-family="Helvetica,sans-Serif" font-size="9.00">api&#45;v2</text>
</a>
</g>
</g>
<!-- app/infrastructure -->
<g id="node4" class="node">
<title>app/infrastructure</title>
<g id="a_node4"><a xlink:href="app/infrastructure" xlink:title="infrastructure">
<polygon fill="#ffffcc" stroke="black" points="490.62,-188.25 423.35,-188.25 421.38,-186.28 421.38,-170.5 488.65,-170.5 490.62,-172.47 490.62,-188.25"/>
<polyline fill="none" stroke="black" points="488.65,-186.28 421.38,-186.28"/>
<polyline fill="none" stroke="black" points="488.65,-186.28 488.65,-170.5"/>
<polyline fill="none" stroke="black" points="488.65,-186.28 490.62,-188.25"/>
<text text-anchor="start" x="429.38" y="-175.7" font-family="Helvetica,sans-Serif" font-size="9.00">infrastructure</text>
</a>
</g>
</g>
<!-- app/api&#45;v2&#45;&gt;app/infrastructure -->
<g id="edge1" class="edge">
<title>app/api&#45;v2&#45;&gt;app/infrastructure</title>
<path fill="none" stroke="#000000" stroke-width="2" stroke-opacity="0.200000" d="M497.55,-51.72C489.89,-59.56 478.94,-72.15 473,-85.25 461.74,-110.11 457.93,-141.9 456.65,-161.17"/>
<polygon fill="#000000" fill-opacity="0.200000" stroke="#000000" stroke-width="2" stroke-opacity="0.200000" points="454.56,-160.88 456.34,-166.98 458.76,-161.1 454.56,-160.88"/>
</g>
<!-- app/lib -->
<g id="node5" class="node">
<title>app/lib</title>
<g id="a_node5"><a xlink:href="app/lib" xlink:title="lib">
<polygon fill="#ffffcc" stroke="black" points="533,-103 480.97,-103 479,-101.03 479,-85.25 531.03,-85.25 533,-87.22 533,-103"/>
<polyline fill="none" stroke="black" points="531.03,-101.03 479,-101.03"/>
<polyline fill="none" stroke="black" points="531.03,-101.03 531.03,-85.25"/>
<polyline fill="none" stroke="black" points="531.03,-101.03 533,-103"/>
<text text-anchor="start" x="501.12" y="-90.45" font-family="Helvetica,sans-Serif" font-size="9.00">lib</text>
</a>
</g>
</g>
<!-- app/api&#45;v2&#45;&gt;app/lib -->
<g id="edge2" class="edge">
<title>app/api&#45;v2&#45;&gt;app/lib</title>
<path fill="none" stroke="#000000" stroke-width="2" stroke-opacity="0.200000" d="M509.47,-51.98C510.46,-58.58 510.74,-68.02 510.29,-76.19"/>
<polygon fill="#000000" fill-opacity="0.200000" stroke="#000000" stroke-width="2" stroke-opacity="0.200000" points="508.23,-75.76 509.74,-81.94 512.41,-76.17 508.23,-75.76"/>
</g>
<!-- assert -->
<g id="node6" class="node">
<title>assert</title>
<g id="a_node6"><a xlink:href="https://nodejs.org/api/assert.html" xlink:title="assert">
<path fill="#ffffcc" stroke="grey" d="M527.08,-17.75C527.08,-17.75 484.92,-17.75 484.92,-17.75 481.96,-17.75 479,-14.79 479,-11.83 479,-11.83 479,-5.92 479,-5.92 479,-2.96 481.96,0 484.92,0 484.92,0 527.08,0 527.08,0 530.04,0 533,-2.96 533,-5.92 533,-5.92 533,-11.83 533,-11.83 533,-14.79 530.04,-17.75 527.08,-17.75"/>
<text text-anchor="middle" x="506" y="-5.2" font-family="Helvetica,sans-Serif" font-size="9.00" fill="grey">assert</text>
</a>
</g>
</g>
<!-- app/api&#45;v2&#45;&gt;assert -->
<g id="edge3" class="edge">
<title>app/api&#45;v2&#45;&gt;assert</title>
<path fill="none" stroke="#000000" stroke-dasharray="5,2" stroke-opacity="0.200000" d="M506,-33.28C506,-30.78 506,-27.96 506,-25.16"/>
<polygon fill="#000000" fill-opacity="0.200000" stroke="#000000" stroke-opacity="0.200000" points="508.1,-25.56 506,-19.56 503.9,-25.56 508.1,-25.56"/>
</g>
<!-- app/models -->
<g id="node7" class="node">
<title>app/models</title>
<g id="a_node7"><a xlink:href="app/models" xlink:title="no&#45;orphans">
<polygon fill="#ffffcc" stroke="orange" points="351,-136.75 298.97,-136.75 297,-134.78 297,-119 349.03,-119 351,-120.97 351,-136.75"/>
<polyline fill="none" stroke="orange" points="349.03,-134.78 297,-134.78"/>
<polyline fill="none" stroke="orange" points="349.03,-134.78 349.03,-119"/>
<polyline fill="none" stroke="orange" points="349.03,-134.78 351,-136.75"/>
<text text-anchor="start" x="309" y="-124.2" font-family="Helvetica,sans-Serif" font-size="9.00" fill="orange">models</text>
</a>
</g>
</g>
<!-- app/api&#45;v2&#45;&gt;app/models -->
<g id="edge4" class="edge">
<title>app/api&#45;v2&#45;&gt;app/models</title>
<path fill="none" stroke="#000000" stroke-width="2" stroke-opacity="0.200000" d="M500.81,-51.7C495.09,-59.8 485.09,-71.82 473,-77.25 456.56,-84.63 323.43,-72.2 311,-85.25 304.29,-92.3 307.6,-102.78 312.56,-111.45"/>
<polygon fill="#000000" fill-opacity="0.200000" stroke="#000000" stroke-width="2" stroke-opacity="0.200000" points="310.64,-112.36 315.68,-116.23 314.16,-110.06 310.64,-112.36"/>
</g>
<!-- app/infrastructure&#45;&gt;app/models -->
<g id="edge19" class="edge">
<title>app/infrastructure&#45;&gt;app/models</title>
<path fill="none" stroke="#000000" stroke-width="2" stroke-opacity="0.200000" d="M420.97,-171.72C402.61,-168.13 383.09,-164.12 379,-162.5 365.89,-157.33 352.38,-149.11 342.02,-142.09"/>
<polygon fill="#000000" fill-opacity="0.200000" stroke="#000000" stroke-width="2" stroke-opacity="0.200000" points="343.38,-140.48 337.26,-138.76 340.97,-143.92 343.38,-140.48"/>
</g>
<!-- path -->
<g id="node12" class="node">
<title>path</title>
<g id="a_node12"><a xlink:href="https://nodejs.org/api/path.html" xlink:title="path">
<path fill="#ffffcc" stroke="grey" d="M211.08,-136.75C211.08,-136.75 168.92,-136.75 168.92,-136.75 165.96,-136.75 163,-133.79 163,-130.83 163,-130.83 163,-124.92 163,-124.92 163,-121.96 165.96,-119 168.92,-119 168.92,-119 211.08,-119 211.08,-119 214.04,-119 217,-121.96 217,-124.92 217,-124.92 217,-130.83 217,-130.83 217,-133.79 214.04,-136.75 211.08,-136.75"/>
<text text-anchor="middle" x="190" y="-124.2" font-family="Helvetica,sans-Serif" font-size="9.00" fill="grey">path</text>
</a>
</g>
</g>
<!-- app/infrastructure&#45;&gt;path -->
<g id="edge21" class="edge">
<title>app/infrastructure&#45;&gt;path</title>
<path fill="none" stroke="#000000" stroke-dasharray="5,2" stroke-opacity="0.200000" d="M421.15,-172.86C414.47,-171.95 407.53,-171.11 401,-170.5 381.18,-168.64 240.12,-170.75 222,-162.5 212.72,-158.27 204.79,-150.01 199.15,-142.73"/>
<polygon fill="#000000" fill-opacity="0.200000" stroke="#000000" stroke-opacity="0.200000" points="201.08,-141.81 195.86,-138.18 197.68,-144.27 201.08,-141.81"/>
</g>
<!-- app/domain -->
<g id="node17" class="node">
<title>app/domain</title>
<g id="a_node17"><a xlink:href="app/domain" xlink:title="no&#45;orphans">
<polygon fill="#ccffcc" stroke="orange" points="439,-136.75 386.97,-136.75 385,-134.78 385,-119 437.03,-119 439,-120.97 439,-136.75"/>
<polyline fill="none" stroke="orange" points="437.03,-134.78 385,-134.78"/>
<polyline fill="none" stroke="orange" points="437.03,-134.78 437.03,-119"/>
<polyline fill="none" stroke="orange" points="437.03,-134.78 439,-136.75"/>
<text text-anchor="start" x="396.62" y="-124.2" font-family="Helvetica,sans-Serif" font-size="9.00" fill="orange">domain</text>
</a>
</g>
</g>
<!-- app/infrastructure&#45;&gt;app/domain -->
<g id="edge18" class="edge">
<title>app/infrastructure&#45;&gt;app/domain</title>
<path fill="none" stroke="#000000" stroke-width="2" stroke-opacity="0.200000" d="M448.73,-170.2C442.4,-163.08 433.06,-152.57 425.38,-143.93"/>
<polygon fill="#000000" fill-opacity="0.200000" stroke="#000000" stroke-width="2" stroke-opacity="0.200000" points="426.99,-142.58 421.43,-139.49 423.85,-145.37 426.99,-142.58"/>
</g>
<!-- fs/promises -->
<g id="node19" class="node">
<title>fs/promises</title>
<g id="a_node19"><a xlink:href="https://nodejs.org/api/fs.html" xlink:title="promises">
<path fill="#ffffcc" stroke="grey" d="M605.08,-136.75C605.08,-136.75 562.92,-136.75 562.92,-136.75 559.96,-136.75 557,-133.79 557,-130.83 557,-130.83 557,-124.92 557,-124.92 557,-121.96 559.96,-119 562.92,-119 562.92,-119 605.08,-119 605.08,-119 608.04,-119 611,-121.96 611,-124.92 611,-124.92 611,-130.83 611,-130.83 611,-133.79 608.04,-136.75 605.08,-136.75"/>
<text text-anchor="start" x="565.25" y="-124.2" font-family="Helvetica,sans-Serif" font-size="9.00" fill="grey">promises</text>
</a>
</g>
</g>
<!-- app/infrastructure&#45;&gt;fs/promises -->
<g id="edge20" class="edge">
<title>app/infrastructure&#45;&gt;fs/promises</title>
<path fill="none" stroke="#000000" stroke-dasharray="5,2" stroke-opacity="0.200000" d="M491.11,-176.24C507.76,-174.2 527.56,-170.22 544,-162.5 554.34,-157.65 564.19,-149.43 571.52,-142.34"/>
<polygon fill="#000000" fill-opacity="0.200000" stroke="#000000" stroke-opacity="0.200000" points="572.81,-144.02 575.54,-138.28 569.83,-141.07 572.81,-144.02"/>
</g>
<!-- app/lib&#45;&gt;../get -->
<g id="edge22" class="edge">
<title>app/lib&#45;&gt;../get</title>
<g id="a_edge22"><a xlink:title="not&#45;to&#45;unresolvable">
<path fill="none" stroke="red" stroke-width="2" d="M533.2,-92.05C569.4,-90.31 631.25,-86.11 652,-77.25 662.22,-72.88 671.82,-65 679.05,-57.96"/>
<polygon fill="red" stroke="red" stroke-width="2" points="680.19,-59.8 682.87,-54.03 677.18,-56.87 680.19,-59.8"/>
</a>
</g>
<text text-anchor="middle" x="571.09" y="-77.34" font-family="Helvetica,sans-Serif" font-size="9.00" fill="red">not&#45;to&#45;unresolvable</text>
</g>
<!-- app/lib&#45;&gt;app/api&#45;v2 -->
<g id="edge26" class="edge">
<title>app/lib&#45;&gt;app/api&#45;v2</title>
<path fill="none" stroke="#000000" stroke-width="2" stroke-opacity="0.200000" d="M502.56,-84.95C501.55,-78.4 501.26,-68.98 501.69,-60.78"/>
<polygon fill="#000000" fill-opacity="0.200000" stroke="#000000" stroke-width="2" stroke-opacity="0.200000" points="503.77,-61.16 502.24,-54.99 499.59,-60.77 503.77,-61.16"/>
</g>
<!-- app/controllers -->
<g id="node8" class="node">
<title>app/controllers</title>
<g id="a_node8"><a xlink:href="app/controllers" xlink:title="no&#45;orphans">
<polygon fill="#ffffcc" stroke="orange" points="461.38,-219 404.6,-219 402.62,-217.03 402.62,-201.25 459.4,-201.25 461.38,-203.22 461.38,-219"/>
<polyline fill="none" stroke="orange" points="459.4,-217.03 402.62,-217.03"/>
<polyline fill="none" stroke="orange" points="459.4,-217.03 459.4,-201.25"/>
<polyline fill="none" stroke="orange" points="459.4,-217.03 461.38,-219"/>
<text text-anchor="start" x="410.62" y="-206.45" font-family="Helvetica,sans-Serif" font-size="9.00" fill="orange">controllers</text>
</a>
</g>
</g>
<!-- app/lib&#45;&gt;app/controllers -->
<g id="edge27" class="edge">
<title>app/lib&#45;&gt;app/controllers</title>
<path fill="none" stroke="#000000" stroke-width="2" stroke-opacity="0.200000" d="M522.4,-103.22C524.78,-105.48 526.8,-108.11 528,-111 541.2,-142.69 549.36,-161.37 528,-188.25 520.92,-197.16 494.05,-202.6 470.47,-205.69"/>
<polygon fill="#000000" fill-opacity="0.200000" stroke="#000000" stroke-width="2" stroke-opacity="0.200000" points="470.35,-203.59 464.65,-206.39 470.86,-207.76 470.35,-203.59"/>
</g>
<!-- fs -->
<g id="node11" class="node">
<title>fs</title>
<g id="a_node11"><a xlink:href="https://nodejs.org/api/fs.html" xlink:title="fs">
<path fill="#ffffcc" stroke="grey" d="M663.08,-17.75C663.08,-17.75 620.92,-17.75 620.92,-17.75 617.96,-17.75 615,-14.79 615,-11.83 615,-11.83 615,-5.92 615,-5.92 615,-2.96 617.96,0 620.92,0 620.92,0 663.08,0 663.08,0 666.04,0 669,-2.96 669,-5.92 669,-5.92 669,-11.83 669,-11.83 669,-14.79 666.04,-17.75 663.08,-17.75"/>
<text text-anchor="middle" x="642" y="-5.2" font-family="Helvetica,sans-Serif" font-size="9.00" fill="grey">fs</text>
</a>
</g>
</g>
<!-- app/lib&#45;&gt;fs -->
<g id="edge24" class="edge">
<title>app/lib&#45;&gt;fs</title>
<path fill="none" stroke="#000000" stroke-dasharray="5,2" stroke-opacity="0.200000" d="M533.24,-93.21C565.21,-92.7 615.58,-89.86 629,-77.25 643.05,-64.05 644.53,-40.62 643.72,-25.17"/>
<polygon fill="#000000" fill-opacity="0.200000" stroke="#000000" stroke-opacity="0.200000" points="645.83,-25.23 643.26,-19.42 641.65,-25.57 645.83,-25.23"/>
</g>
<!-- http -->
<g id="node16" class="node">
<title>http</title>
<g id="a_node16"><a xlink:href="https://nodejs.org/api/http.html" xlink:title="http">
<path fill="#ffffcc" stroke="grey" d="M841.08,-17.75C841.08,-17.75 798.92,-17.75 798.92,-17.75 795.96,-17.75 793,-14.79 793,-11.83 793,-11.83 793,-5.92 793,-5.92 793,-2.96 795.96,0 798.92,0 798.92,0 841.08,0 841.08,0 844.04,0 847,-2.96 847,-5.92 847,-5.92 847,-11.83 847,-11.83 847,-14.79 844.04,-17.75 841.08,-17.75"/>
<text text-anchor="middle" x="820" y="-5.2" font-family="Helvetica,sans-Serif" font-size="9.00" fill="grey">http</text>
</a>
</g>
</g>
<!-- app/lib&#45;&gt;http -->
<g id="edge25" class="edge">
<title>app/lib&#45;&gt;http</title>
<path fill="none" stroke="#000000" stroke-dasharray="5,2" stroke-opacity="0.200000" d="M533.17,-93.56C587.67,-94.07 708.34,-93.27 746,-77.25 773.1,-65.72 796.75,-39.92 809.65,-23.8"/>
<polygon fill="#000000" fill-opacity="0.200000" stroke="#000000" stroke-opacity="0.200000" points="811.24,-25.17 813.26,-19.15 807.92,-22.6 811.24,-25.17"/>
</g>
<!-- child_process -->
<g id="node20" class="node">
<title>child_process</title>
<g id="a_node20"><a xlink:href="https://nodejs.org/api/child_process.html" xlink:title="child_process">
<path fill="#ffffcc" stroke="grey" d="M616.58,-51.5C616.58,-51.5 555.42,-51.5 555.42,-51.5 552.46,-51.5 549.5,-48.54 549.5,-45.58 549.5,-45.58 549.5,-39.67 549.5,-39.67 549.5,-36.71 552.46,-33.75 555.42,-33.75 555.42,-33.75 616.58,-33.75 616.58,-33.75 619.54,-33.75 622.5,-36.71 622.5,-39.67 622.5,-39.67 622.5,-45.58 622.5,-45.58 622.5,-48.54 619.54,-51.5 616.58,-51.5"/>
<text text-anchor="middle" x="586" y="-38.95" font-family="Helvetica,sans-Serif" font-size="9.00" fill="grey">child_process</text>
</a>
</g>
</g>
<!-- app/lib&#45;&gt;child_process -->
<g id="edge23" class="edge">
<title>app/lib&#45;&gt;child_process</title>
<path fill="none" stroke="#000000" stroke-dasharray="5,2" stroke-opacity="0.200000" d="M528.61,-84.9C533.8,-82.68 539.2,-80.1 544,-77.25 553.86,-71.4 563.92,-63.43 571.72,-56.72"/>
<polygon fill="#000000" fill-opacity="0.200000" stroke="#000000" stroke-opacity="0.200000" points="572.95,-58.43 576.07,-52.89 570.18,-55.28 572.95,-58.43"/>
</g>
<!-- app/models&#45;&gt;app/lib -->
<g id="edge36" class="edge">
<title>app/models&#45;&gt;app/lib</title>
<path fill="none" stroke="#000000" stroke-width="2" stroke-opacity="0.200000" d="M349.81,-118.5C358.95,-115.78 369.36,-112.96 379,-111 407.95,-105.11 415.68,-106.67 445,-103 453.01,-102 461.6,-100.9 469.74,-99.85"/>
<polygon fill="#000000" fill-opacity="0.200000" stroke="#000000" stroke-width="2" stroke-opacity="0.200000" points="469.99,-101.94 475.67,-99.09 469.45,-97.77 469.99,-101.94"/>
</g>
<!-- app/templates -->
<g id="node9" class="node">
<title>app/templates</title>
<g id="a_node9"><a xlink:href="app/templates" xlink:title="templates">
<polygon fill="#ffffcc" stroke="black" points="438.88,-103 385.1,-103 383.12,-101.03 383.12,-85.25 436.9,-85.25 438.88,-87.22 438.88,-103"/>
<polyline fill="none" stroke="black" points="436.9,-101.03 383.12,-101.03"/>
<polyline fill="none" stroke="black" points="436.9,-101.03 436.9,-85.25"/>
<polyline fill="none" stroke="black" points="436.9,-101.03 438.88,-103"/>
<text text-anchor="start" x="391.12" y="-90.45" font-family="Helvetica,sans-Serif" font-size="9.00">templates</text>
</a>
</g>
</g>
<!-- app/models&#45;&gt;app/templates -->
<g id="edge32" class="edge">
<title>app/models&#45;&gt;app/templates</title>
<g id="a_edge32"><a xlink:title="no&#45;circular">
<path fill="none" stroke="orange" stroke-width="2" d="M342.84,-118.53C349.96,-115.8 358.36,-112.68 366.79,-109.62"/>
<polygon fill="orange" stroke="orange" stroke-width="2" points="376.48,-108.41 381.43,-104.42 375.08,-104.45 376.48,-108.41"/>
<polyline fill="none" stroke="orange" stroke-width="2" points="374.84,-106.77 372.01,-107.77"/>
<ellipse fill="none" stroke="orange" stroke-width="2" cx="368.81" cy="-108.91" rx="2.4" ry="2.4"/>
</a>
</g>
<text text-anchor="middle" x="384.99" y="-112.11" font-family="Helvetica,sans-Serif" font-size="9.00" fill="orange">no&#45;circular</text>
</g>
<!-- app/snip.js -->
<g id="node10" class="node">
<title>app/snip.js</title>
<g id="a_node10"><a xlink:href="app/snip.js" xlink:title="snip.js">
<path fill="#ffffcc" stroke="black" d="M461.08,-51.5C461.08,-51.5 418.92,-51.5 418.92,-51.5 415.96,-51.5 413,-48.54 413,-45.58 413,-45.58 413,-39.67 413,-39.67 413,-36.71 415.96,-33.75 418.92,-33.75 418.92,-33.75 461.08,-33.75 461.08,-33.75 464.04,-33.75 467,-36.71 467,-39.67 467,-39.67 467,-45.58 467,-45.58 467,-48.54 464.04,-51.5 461.08,-51.5"/>
<text text-anchor="start" x="426.88" y="-38.95" font-family="Helvetica,sans-Serif" font-size="9.00">snip.js</text>
</a>
</g>
</g>
<!-- app/models&#45;&gt;app/snip.js -->
<g id="edge30" class="edge">
<title>app/models&#45;&gt;app/snip.js</title>
<path fill="none" stroke="#000000" stroke-width="2" stroke-opacity="0.200000" d="M312.41,-118.7C307.61,-114.6 302.57,-109.19 300,-103 296.97,-95.72 295.28,-91.57 300,-85.25 323.7,-53.48 370.65,-44.99 403.62,-43.19"/>
<polygon fill="#000000" fill-opacity="0.200000" stroke="#000000" stroke-width="2" stroke-opacity="0.200000" points="403.58,-45.3 409.5,-42.97 403.42,-41.1 403.58,-45.3"/>
</g>
<!-- app/models&#45;&gt;fs -->
<g id="edge28" class="edge">
<title>app/models&#45;&gt;fs</title>
<path fill="none" stroke="#000000" stroke-dasharray="5,2" stroke-opacity="0.200000" d="M298.14,-118.5C288.47,-115.68 277.32,-112.79 267,-111 254.93,-108.9 165.35,-111.97 157,-103 133.62,-77.86 132.98,-50.28 157,-25.75 164.43,-18.17 528.4,-18.27 539,-17.75 561.87,-16.64 587.55,-14.68 607.55,-12.99"/>
<polygon fill="#000000" fill-opacity="0.200000" stroke="#000000" stroke-opacity="0.200000" points="607.61,-15.09 613.41,-12.49 607.25,-10.91 607.61,-15.09"/>
</g>
<!-- querystring -->
<g id="node13" class="node">
<title>querystring</title>
<g id="a_node13"><a xlink:href="https://nodejs.org/api/querystring.html" xlink:title="querystring">
<path fill="#ffffcc" stroke="grey" d="M142.96,-17.75C142.96,-17.75 93.04,-17.75 93.04,-17.75 90.08,-17.75 87.12,-14.79 87.12,-11.83 87.12,-11.83 87.12,-5.92 87.12,-5.92 87.12,-2.96 90.08,0 93.04,0 93.04,0 142.96,0 142.96,0 145.92,0 148.88,-2.96 148.88,-5.92 148.88,-5.92 148.88,-11.83 148.88,-11.83 148.88,-14.79 145.92,-17.75 142.96,-17.75"/>
<text text-anchor="middle" x="118" y="-5.2" font-family="Helvetica,sans-Serif" font-size="9.00" fill="grey">querystring</text>
</a>
</g>
</g>
<!-- app/models&#45;&gt;querystring -->
<g id="edge35" class="edge">
<title>app/models&#45;&gt;querystring</title>
<path fill="none" stroke="#000000" stroke-dasharray="5,2" stroke-opacity="0.200000" d="M298.44,-118.51C288.7,-115.66 277.44,-112.75 267,-111 252.4,-108.56 145.03,-112.88 134,-103 112.33,-83.59 113,-46.38 115.47,-25.35"/>
<polygon fill="#000000" fill-opacity="0.200000" stroke="#000000" stroke-opacity="0.200000" points="117.51,-25.88 116.25,-19.65 113.35,-25.31 117.51,-25.88"/>
</g>
<!-- crypto -->
<g id="node14" class="node">
<title>crypto</title>
<g id="a_node14"><a xlink:href="https://nodejs.org/api/crypto.html" xlink:title="crypto">
<path fill="#ffffcc" stroke="grey" d="M93.08,-103C93.08,-103 50.92,-103 50.92,-103 47.96,-103 45,-100.04 45,-97.08 45,-97.08 45,-91.17 45,-91.17 45,-88.21 47.96,-85.25 50.92,-85.25 50.92,-85.25 93.08,-85.25 93.08,-85.25 96.04,-85.25 99,-88.21 99,-91.17 99,-91.17 99,-97.08 99,-97.08 99,-100.04 96.04,-103 93.08,-103"/>
<text text-anchor="middle" x="72" y="-90.45" font-family="Helvetica,sans-Serif" font-size="9.00" fill="grey">crypto</text>
</a>
</g>
</g>
<!-- app/models&#45;&gt;crypto -->
<g id="edge31" class="edge">
<title>app/models&#45;&gt;crypto</title>
<path fill="none" stroke="#000000" stroke-dasharray="5,2" stroke-opacity="0.200000" d="M296.51,-119.19C284.47,-116.13 270.13,-112.89 257,-111 191.36,-101.54 173.72,-111.89 108,-103 107.56,-102.94 107.13,-102.88 106.69,-102.82"/>
<polygon fill="#000000" fill-opacity="0.200000" stroke="#000000" stroke-opacity="0.200000" points="107.19,-100.77 100.93,-101.85 106.5,-104.91 107.19,-100.77"/>
</g>
<!-- app/models&#45;&gt;http -->
<g id="edge37" class="edge">
<title>app/models&#45;&gt;http</title>
<path fill="none" stroke="#000000" stroke-dasharray="5,2" stroke-opacity="0.200000" d="M347.8,-118.58C357.37,-115.62 368.59,-112.62 379,-111 503.33,-91.62 537.45,-120.88 662,-103 706.58,-96.6 721.61,-100.79 760,-77.25 782.2,-63.64 800.87,-39.29 811.23,-23.89"/>
<polygon fill="#000000" fill-opacity="0.200000" stroke="#000000" stroke-opacity="0.200000" points="812.8,-25.34 814.32,-19.17 809.28,-23.04 812.8,-25.34"/>
</g>
<!-- app/features -->
<g id="node18" class="node">
<title>app/features</title>
<g id="a_node18"><a xlink:href="app/features" xlink:title="features">
<polygon fill="#ffffcc" stroke="black" points="371,-103 318.97,-103 317,-101.03 317,-85.25 369.03,-85.25 371,-87.22 371,-103"/>
<polyline fill="none" stroke="black" points="369.03,-101.03 317,-101.03"/>
<polyline fill="none" stroke="black" points="369.03,-101.03 369.03,-85.25"/>
<polyline fill="none" stroke="black" points="369.03,-101.03 371,-103"/>
<text text-anchor="start" x="327.5" y="-90.45" font-family="Helvetica,sans-Serif" font-size="9.00">features</text>
</a>
</g>
</g>
<!-- app/models&#45;&gt;app/features -->
<g id="edge33" class="edge">
<title>app/models&#45;&gt;app/features</title>
<path fill="none" stroke="#000000" stroke-width="2" stroke-opacity="0.200000" d="M329.25,-118.53C330.74,-116.18 332.4,-113.54 334.06,-110.91"/>
<polygon fill="#000000" fill-opacity="0.200000" stroke="#000000" stroke-width="2" stroke-opacity="0.200000" points="335.81,-112.06 337.24,-105.86 332.26,-109.82 335.81,-112.06"/>
</g>
<!-- vm -->
<g id="node21" class="node">
<title>vm</title>
<g id="a_node21"><a xlink:href="https://nodejs.org/api/vm.html" xlink:title="vm">
<path fill="#ffffcc" stroke="grey" d="M211.08,-103C211.08,-103 168.92,-103 168.92,-103 165.96,-103 163,-100.04 163,-97.08 163,-97.08 163,-91.17 163,-91.17 163,-88.21 165.96,-85.25 168.92,-85.25 168.92,-85.25 211.08,-85.25 211.08,-85.25 214.04,-85.25 217,-88.21 217,-91.17 217,-91.17 217,-97.08 217,-97.08 217,-100.04 214.04,-103 211.08,-103"/>
<text text-anchor="middle" x="190" y="-90.45" font-family="Helvetica,sans-Serif" font-size="9.00" fill="grey">vm</text>
</a>
</g>
</g>
<!-- app/models&#45;&gt;vm -->
<g id="edge29" class="edge">
<title>app/models&#45;&gt;vm</title>
<path fill="none" stroke="#000000" stroke-dasharray="5,2" stroke-opacity="0.200000" d="M296.63,-120.34C284.49,-117.45 270.04,-114.04 257,-111 243.52,-107.86 238.78,-106.92 224.51,-103.58"/>
<polygon fill="#000000" fill-opacity="0.200000" stroke="#000000" stroke-opacity="0.200000" points="225.02,-101.54 218.7,-102.21 224.06,-105.63 225.02,-101.54"/>
</g>
<!-- https -->
<g id="node22" class="node">
<title>https</title>
<g id="a_node22"><a xlink:href="https://nodejs.org/api/https.html" xlink:title="https">
<path fill="#ffffcc" stroke="grey" d="M765.08,-17.75C765.08,-17.75 722.92,-17.75 722.92,-17.75 719.96,-17.75 717,-14.79 717,-11.83 717,-11.83 717,-5.92 717,-5.92 717,-2.96 719.96,0 722.92,0 722.92,0 765.08,0 765.08,0 768.04,0 771,-2.96 771,-5.92 771,-5.92 771,-11.83 771,-11.83 771,-14.79 768.04,-17.75 765.08,-17.75"/>
<text text-anchor="middle" x="744" y="-5.2" font-family="Helvetica,sans-Serif" font-size="9.00" fill="grey">https</text>
</a>
</g>
</g>
<!-- app/models&#45;&gt;https -->
<g id="edge34" class="edge">
<title>app/models&#45;&gt;https</title>
<path fill="none" stroke="#000000" stroke-dasharray="5,2" stroke-opacity="0.200000" d="M348.36,-118.53C357.82,-115.64 368.81,-112.7 379,-111 419.39,-104.25 718.89,-107.94 746,-77.25 758.52,-63.08 754.44,-39.96 749.73,-24.83"/>
<polygon fill="#000000" fill-opacity="0.200000" stroke="#000000" stroke-opacity="0.200000" points="751.85,-24.55 747.92,-19.55 747.87,-25.91 751.85,-24.55"/>
</g>
<!-- util -->
<g id="node23" class="node">
<title>util</title>
<g id="a_node23"><a xlink:href="https://nodejs.org/api/util.html" xlink:title="util">
<path fill="#ffffcc" stroke="grey" d="M211.08,-51.5C211.08,-51.5 168.92,-51.5 168.92,-51.5 165.96,-51.5 163,-48.54 163,-45.58 163,-45.58 163,-39.67 163,-39.67 163,-36.71 165.96,-33.75 168.92,-33.75 168.92,-33.75 211.08,-33.75 211.08,-33.75 214.04,-33.75 217,-36.71 217,-39.67 217,-39.67 217,-45.58 217,-45.58 217,-48.54 214.04,-51.5 211.08,-51.5"/>
<text text-anchor="middle" x="190" y="-38.95" font-family="Helvetica,sans-Serif" font-size="9.00" fill="grey">util</text>
</a>
</g>
</g>
<!-- app/models&#45;&gt;util -->
<g id="edge38" class="edge">
<title>app/models&#45;&gt;util</title>
<path fill="none" stroke="#000000" stroke-dasharray="5,2" stroke-opacity="0.200000" d="M301.23,-118.54C279.67,-110.03 246.96,-95.5 222,-77.25 214.33,-71.64 206.94,-64.07 201.19,-57.53"/>
<polygon fill="#000000" fill-opacity="0.200000" stroke="#000000" stroke-opacity="0.200000" points="202.88,-56.27 197.4,-53.05 199.68,-58.99 202.88,-56.27"/>
</g>
<!-- app/controllers&#45;&gt;app/MyController.js -->
<g id="edge8" class="edge">
<title>app/controllers&#45;&gt;app/MyController.js</title>
<path fill="none" stroke="#000000" stroke-width="2" stroke-opacity="0.200000" d="M402.45,-203.31C382.81,-199.44 356.58,-194.27 333.98,-189.82"/>
<polygon fill="#000000" fill-opacity="0.200000" stroke="#000000" stroke-width="2" stroke-opacity="0.200000" points="334.46,-187.78 328.16,-188.68 333.65,-191.9 334.46,-187.78"/>
</g>
<!-- app/controllers&#45;&gt;app/infrastructure -->
<g id="edge16" class="edge">
<title>app/controllers&#45;&gt;app/infrastructure</title>
<path fill="none" stroke="#000000" stroke-width="2" stroke-opacity="0.200000" d="M438.81,-200.96C440.32,-199.16 441.96,-197.19 443.61,-195.21"/>
<polygon fill="#000000" fill-opacity="0.200000" stroke="#000000" stroke-width="2" stroke-opacity="0.200000" points="444.91,-196.93 447.15,-190.98 441.69,-194.24 444.91,-196.93"/>
</g>
<!-- app/controllers&#45;&gt;app/lib -->
<g id="edge13" class="edge">
<title>app/controllers&#45;&gt;app/lib</title>
<path fill="none" stroke="#000000" stroke-width="2" stroke-opacity="0.200000" d="M461.83,-205.5C483.13,-202.38 509.06,-196.98 516,-188.25 537.36,-161.37 529.2,-142.69 516,-111 515.92,-110.82 515.85,-110.64 515.77,-110.46"/>
<polygon fill="#000000" fill-opacity="0.200000" stroke="#000000" stroke-width="2" stroke-opacity="0.200000" points="517.62,-109.46 512.49,-105.71 514.17,-111.84 517.62,-109.46"/>
</g>
<!-- app/controllers&#45;&gt;app/models -->
<g id="edge5" class="edge">
<title>app/controllers&#45;&gt;app/models</title>
<path fill="none" stroke="#000000" stroke-width="2" stroke-opacity="0.200000" d="M425.35,-201.02C422.2,-197.16 418.39,-192.48 415,-188.25 408.72,-180.41 409.14,-176.39 401,-170.5 392.57,-164.41 388.37,-167.01 379,-162.5 366.63,-156.54 353.48,-148.57 343.14,-141.88"/>
<polygon fill="#000000" fill-opacity="0.200000" stroke="#000000" stroke-width="2" stroke-opacity="0.200000" points="344.53,-140.29 338.37,-138.74 342.22,-143.79 344.53,-140.29"/>
</g>
<!-- app/controllers&#45;&gt;app/templates -->
<g id="edge6" class="edge">
<title>app/controllers&#45;&gt;app/templates</title>
<path fill="none" stroke="#000000" stroke-width="2" stroke-opacity="0.200000" d="M461.79,-207.19C474.79,-204.69 488.9,-199.36 497,-188.25 501.65,-181.88 499.77,-177.89 497,-170.5 484.66,-137.62 473.07,-132.11 445,-111 443.43,-109.82 441.77,-108.7 440.05,-107.64"/>
<polygon fill="#000000" fill-opacity="0.200000" stroke="#000000" stroke-width="2" stroke-opacity="0.200000" points="441.2,-105.88 434.93,-104.85 439.19,-109.57 441.2,-105.88"/>
</g>
<!-- app/controllers&#45;&gt;app/snip.js -->
<g id="edge7" class="edge">
<title>app/controllers&#45;&gt;app/snip.js</title>
<path fill="none" stroke="#000000" stroke-width="2" stroke-opacity="0.200000" d="M461.86,-208.15C476.42,-205.98 492.75,-200.66 502,-188.25 506.71,-181.92 503.77,-178.19 502,-170.5 496.73,-147.66 464.74,-88.15 448.89,-59.5"/>
<polygon fill="#000000" fill-opacity="0.200000" stroke="#000000" stroke-width="2" stroke-opacity="0.200000" points="450.76,-58.54 446.01,-54.32 447.09,-60.58 450.76,-58.54"/>
</g>
<!-- app/controllers&#45;&gt;fs -->
<g id="edge9" class="edge">
<title>app/controllers&#45;&gt;fs</title>
<path fill="none" stroke="#000000" stroke-dasharray="5,2" stroke-opacity="0.200000" d="M461.84,-208.03C529.06,-203.69 690.74,-182.3 746,-77.25 756.66,-56.99 760.91,-43.11 746,-25.75 743.69,-23.06 705.89,-17.79 676.52,-14.06"/>
<polygon fill="#000000" fill-opacity="0.200000" stroke="#000000" stroke-opacity="0.200000" points="676.98,-12 670.77,-13.34 676.46,-16.17 676.98,-12"/>
</g>
<!-- app/controllers&#45;&gt;path -->
<g id="edge10" class="edge">
<title>app/controllers&#45;&gt;path</title>
<path fill="none" stroke="#000000" stroke-dasharray="5,2" stroke-opacity="0.200000" d="M402.37,-208.52C355.89,-207.13 268.3,-202.63 241,-188.25 221.78,-178.12 206.68,-157.49 198.05,-143.43"/>
<polygon fill="#000000" fill-opacity="0.200000" stroke="#000000" stroke-opacity="0.200000" points="199.96,-142.53 195.11,-138.43 196.34,-144.66 199.96,-142.53"/>
</g>
<!-- app/controllers&#45;&gt;querystring -->
<g id="edge11" class="edge">
<title>app/controllers&#45;&gt;querystring</title>
<path fill="none" stroke="#000000" stroke-dasharray="5,2" stroke-opacity="0.200000" d="M402.4,-208.98C353.26,-208.26 251.92,-204.68 168,-188.25 130.93,-180.99 122.63,-175.04 87,-162.5 47.9,-148.74 0,-170.33 0,-128.88 0,-128.88 0,-128.88 0,-93.12 0,-53.45 45.09,-31.02 79.52,-19.67"/>
<polygon fill="#000000" fill-opacity="0.200000" stroke="#000000" stroke-opacity="0.200000" points="80.15,-21.67 85.24,-17.87 78.89,-17.66 80.15,-21.67"/>
</g>
<!-- app/controllers&#45;&gt;crypto -->
<g id="edge12" class="edge">
<title>app/controllers&#45;&gt;crypto</title>
<path fill="none" stroke="#000000" stroke-dasharray="5,2" stroke-opacity="0.200000" d="M402.14,-209.18C359.98,-208.61 280.91,-205.1 216,-188.25 188.31,-181.06 181.53,-177.23 157,-162.5 130.26,-146.44 102.53,-122.95 86.3,-108.37"/>
<polygon fill="#000000" fill-opacity="0.200000" stroke="#000000" stroke-opacity="0.200000" points="87.83,-106.93 81.98,-104.45 85.01,-110.04 87.83,-106.93"/>
</g>
<!-- app/genuine.js -->
<g id="node15" class="node">
<title>app/genuine.js</title>
<g id="a_node15"><a xlink:href="app/genuine.js" xlink:title="genuine.js">
<path fill="#ffffcc" stroke="black" d="M389.46,-188.25C389.46,-188.25 342.54,-188.25 342.54,-188.25 339.58,-188.25 336.62,-185.29 336.62,-182.33 336.62,-182.33 336.62,-176.42 336.62,-176.42 336.62,-173.46 339.58,-170.5 342.54,-170.5 342.54,-170.5 389.46,-170.5 389.46,-170.5 392.42,-170.5 395.38,-173.46 395.38,-176.42 395.38,-176.42 395.38,-182.33 395.38,-182.33 395.38,-185.29 392.42,-188.25 389.46,-188.25"/>
<text text-anchor="start" x="344.62" y="-175.7" font-family="Helvetica,sans-Serif" font-size="9.00">genuine.js</text>
</a>
</g>
</g>
<!-- app/controllers&#45;&gt;app/genuine.js -->
<g id="edge14" class="edge">
<title>app/controllers&#45;&gt;app/genuine.js</title>
<path fill="none" stroke="#000000" stroke-width="2" stroke-opacity="0.200000" d="M412.91,-200.81C406.7,-198.1 399.68,-195.05 393.01,-192.14"/>
<polygon fill="#000000" fill-opacity="0.200000" stroke="#000000" stroke-width="2" stroke-opacity="0.200000" points="393.93,-190.25 387.59,-189.78 392.26,-194.1 393.93,-190.25"/>
</g>
<!-- app/controllers&#45;&gt;http -->
<g id="edge15" class="edge">
<title>app/controllers&#45;&gt;http</title>
<path fill="none" stroke="#000000" stroke-dasharray="5,2" stroke-opacity="0.200000" d="M461.55,-206.88C560.21,-198.98 872,-170.71 872,-128.88 872,-128.88 872,-128.88 872,-93.12 872,-64.9 850.23,-38.34 834.86,-23.11"/>
<polygon fill="#000000" fill-opacity="0.200000" stroke="#000000" stroke-opacity="0.200000" points="836.42,-21.7 830.63,-19.08 833.52,-24.74 836.42,-21.7"/>
</g>
<!-- app/templates&#45;&gt;app/models -->
<g id="edge44" class="edge">
<title>app/templates&#45;&gt;app/models</title>
<path fill="none" stroke="#000000" stroke-width="2" stroke-opacity="0.200000" d="M392.3,-103.41C382.65,-107.12 370.61,-111.56 359.31,-115.57"/>
<polygon fill="#000000" fill-opacity="0.200000" stroke="#000000" stroke-width="2" stroke-opacity="0.200000" points="358.69,-113.56 353.73,-117.53 360.09,-117.52 358.69,-113.56"/>
</g>
<!-- app/templates&#45;&gt;app/snip.js -->
<g id="edge46" class="edge">
<title>app/templates&#45;&gt;app/snip.js</title>
<path fill="none" stroke="#000000" stroke-width="2" stroke-opacity="0.200000" d="M415.79,-84.95C419.79,-78.11 425.63,-68.15 430.57,-59.72"/>
<polygon fill="#000000" fill-opacity="0.200000" stroke="#000000" stroke-width="2" stroke-opacity="0.200000" points="432.36,-60.83 433.58,-54.59 428.73,-58.7 432.36,-60.83"/>
</g>
<!-- app/templates&#45;&gt;fs -->
<g id="edge45" class="edge">
<title>app/templates&#45;&gt;fs</title>
<path fill="none" stroke="#000000" stroke-dasharray="5,2" stroke-opacity="0.200000" d="M439.34,-88.95C449.88,-87.55 461.97,-86.12 473,-85.25 487.24,-84.13 720.06,-87.51 730,-77.25 745.93,-60.82 744.68,-43.31 730,-25.75 726.45,-21.5 699.56,-17.06 676.43,-13.96"/>
<polygon fill="#000000" fill-opacity="0.200000" stroke="#000000" stroke-opacity="0.200000" points="676.81,-11.89 670.59,-13.2 676.26,-16.06 676.81,-11.89"/>
</g>
<!-- app/templates&#45;&gt;util -->
<g id="edge47" class="edge">
<title>app/templates&#45;&gt;util</title>
<path fill="none" stroke="#000000" stroke-dasharray="5,2" stroke-opacity="0.200000" d="M382.87,-86.21C380.89,-85.85 378.92,-85.52 377,-85.25 342.85,-80.45 253.34,-91.65 222,-77.25 212.85,-73.04 205,-64.93 199.37,-57.72"/>
<polygon fill="#000000" fill-opacity="0.200000" stroke="#000000" stroke-opacity="0.200000" points="201.31,-56.82 196.08,-53.21 197.92,-59.3 201.31,-56.82"/>
</g>
<!-- app/snip.js&#45;&gt;fs -->
<g id="edge39" class="edge">
<title>app/snip.js&#45;&gt;fs</title>
<path fill="none" stroke="#000000" stroke-dasharray="5,2" stroke-opacity="0.200000" d="M454.35,-33.35C459.99,-30.47 466.63,-27.52 473,-25.75 485.57,-22.26 561.66,-16 607.35,-12.47"/>
<polygon fill="#000000" fill-opacity="0.200000" stroke="#000000" stroke-opacity="0.200000" points="607.35,-14.58 613.17,-12.03 607.03,-10.39 607.35,-14.58"/>
</g>
<!-- app/snip.js&#45;&gt;querystring -->
<g id="edge42" class="edge">
<title>app/snip.js&#45;&gt;querystring</title>
<path fill="none" stroke="#000000" stroke-dasharray="5,2" stroke-opacity="0.200000" d="M412.55,-38.92C355.14,-33.26 222.29,-20.16 156.44,-13.67"/>
<polygon fill="#000000" fill-opacity="0.200000" stroke="#000000" stroke-opacity="0.200000" points="156.81,-11.59 150.64,-13.09 156.4,-15.77 156.81,-11.59"/>
</g>
<!-- app/snip.js&#45;&gt;http -->
<g id="edge40" class="edge">
<title>app/snip.js&#45;&gt;http</title>
<path fill="none" stroke="#000000" stroke-dasharray="5,2" stroke-opacity="0.200000" d="M453.97,-33.29C459.67,-30.33 466.45,-27.33 473,-25.75 538.68,-9.86 709.78,-24.75 777,-17.75 779.89,-17.45 782.87,-17.06 785.86,-16.62"/>
<polygon fill="#000000" fill-opacity="0.200000" stroke="#000000" stroke-opacity="0.200000" points="785.71,-18.77 791.3,-15.75 785.04,-14.63 785.71,-18.77"/>
</g>
<!-- app/snip.js&#45;&gt;https -->
<g id="edge41" class="edge">
<title>app/snip.js&#45;&gt;https</title>
<path fill="none" stroke="#000000" stroke-dasharray="5,2" stroke-opacity="0.200000" d="M453.98,-33.34C459.68,-30.38 466.46,-27.38 473,-25.75 516.59,-14.9 630.21,-21.19 675,-17.75 686.13,-16.9 698.25,-15.63 709.17,-14.36"/>
<polygon fill="#000000" fill-opacity="0.200000" stroke="#000000" stroke-opacity="0.200000" points="709.3,-16.46 715.01,-13.66 708.8,-12.29 709.3,-16.46"/>
</g>
<!-- url -->
<g id="node24" class="node">
<title>url</title>
<g id="a_node24"><a xlink:href="https://nodejs.org/api/url.html" xlink:title="url">
<path fill="#ffffcc" stroke="grey" d="M461.08,-17.75C461.08,-17.75 418.92,-17.75 418.92,-17.75 415.96,-17.75 413,-14.79 413,-11.83 413,-11.83 413,-5.92 413,-5.92 413,-2.96 415.96,0 418.92,0 418.92,0 461.08,0 461.08,0 464.04,0 467,-2.96 467,-5.92 467,-5.92 467,-11.83 467,-11.83 467,-14.79 464.04,-17.75 461.08,-17.75"/>
<text text-anchor="middle" x="440" y="-5.2" font-family="Helvetica,sans-Serif" font-size="9.00" fill="grey">url</text>
</a>
</g>
</g>
<!-- app/snip.js&#45;&gt;url -->
<g id="edge43" class="edge">
<title>app/snip.js&#45;&gt;url</title>
<path fill="none" stroke="#000000" stroke-dasharray="5,2" stroke-opacity="0.200000" d="M440,-33.28C440,-30.78 440,-27.96 440,-25.16"/>
<polygon fill="#000000" fill-opacity="0.200000" stroke="#000000" stroke-opacity="0.200000" points="442.1,-25.56 440,-19.56 437.9,-25.56 442.1,-25.56"/>
</g>
<!-- app/genuine.js&#45;&gt;crypto -->
<g id="edge17" class="edge">
<title>app/genuine.js&#45;&gt;crypto</title>
<path fill="none" stroke="#000000" stroke-dasharray="5,2" stroke-opacity="0.200000" d="M336.22,-171.62C334.46,-171.24 332.71,-170.86 331,-170.5 313.27,-166.73 307.53,-169.94 291,-162.5 256.43,-146.94 258.5,-124.31 223,-111 199.01,-102 133.36,-106.64 108,-103 107.56,-102.94 107.13,-102.87 106.69,-102.81"/>
<polygon fill="#000000" fill-opacity="0.200000" stroke="#000000" stroke-opacity="0.200000" points="107.2,-100.76 100.93,-101.82 106.49,-104.9 107.2,-100.76"/>
</g>
<!-- app/workers -->
<g id="node25" class="node">
<title>app/workers</title>
<g id="a_node25"><a xlink:href="app/workers" xlink:title="workers">
<polygon fill="#ffffcc" stroke="black" points="287,-249.75 234.97,-249.75 233,-247.78 233,-232 285.03,-232 287,-233.97 287,-249.75"/>
<polyline fill="none" stroke="black" points="285.03,-247.78 233,-247.78"/>
<polyline fill="none" stroke="black" points="285.03,-247.78 285.03,-232"/>
<polyline fill="none" stroke="black" points="285.03,-247.78 287,-249.75"/>
<text text-anchor="start" x="243.88" y="-237.2" font-family="Helvetica,sans-Serif" font-size="9.00">workers</text>
</a>
</g>
</g>
<!-- app/workers&#45;&gt;app/models -->
<g id="edge50" class="edge">
<title>app/workers&#45;&gt;app/models</title>
<path fill="none" stroke="#000000" stroke-width="2" stroke-opacity="0.200000" d="M253.78,-231.58C244.36,-217.93 228.8,-190.27 241,-170.5 251.4,-153.64 270.95,-143.38 288.46,-137.26"/>
<polygon fill="#000000" fill-opacity="0.200000" stroke="#000000" stroke-width="2" stroke-opacity="0.200000" points="288.88,-139.33 293.96,-135.5 287.6,-135.33 288.88,-139.33"/>
</g>
<!-- app/workers&#45;&gt;app/controllers -->
<g id="edge49" class="edge">
<title>app/workers&#45;&gt;app/controllers</title>
<path fill="none" stroke="#000000" stroke-width="2" stroke-opacity="0.200000" d="M287.25,-235.32C315.91,-230.53 361.25,-222.95 393.54,-217.55"/>
<polygon fill="#000000" fill-opacity="0.200000" stroke="#000000" stroke-width="2" stroke-opacity="0.200000" points="393.72,-219.65 399.29,-216.59 393.03,-215.51 393.72,-219.65"/>
</g>
<!-- app/workers&#45;&gt;util -->
<g id="edge48" class="edge">
<title>app/workers&#45;&gt;util</title>
<path fill="none" stroke="#000000" stroke-dasharray="5,2" stroke-opacity="0.200000" d="M232.7,-238.68C170.97,-235.22 26,-222.61 26,-180.38 26,-180.38 26,-180.38 26,-126.88 26,-107.49 25.07,-98.72 39,-85.25 70.26,-55.03 121.38,-46.32 155.36,-44.04"/>
<polygon fill="#000000" fill-opacity="0.200000" stroke="#000000" stroke-opacity="0.200000" points="155.37,-46.14 161.25,-43.71 155.14,-41.95 155.37,-46.14"/>
</g>
</g>
</svg>
