<?xml version="1.0" encoding="UTF-8" standalone="no"?>
<!DOCTYPE svg PUBLIC "-//W3C//DTD SVG 1.1//EN"
 "http://www.w3.org/Graphics/SVG/1.1/DTD/svg11.dtd">
<!-- Generated by graphviz version 9.0.0 (20230911.1827)
 -->
<!-- Title: dependency&#45;cruiser output Pages: 1 -->
<svg width="1054pt" height="363pt"
 viewBox="0.00 0.00 1054.00 362.93" xmlns="http://www.w3.org/2000/svg" xmlns:xlink="http://www.w3.org/1999/xlink">
<g id="graph0" class="graph" transform="scale(1 1) rotate(0) translate(4 358.93)">
<title>dependency&#45;cruiser output</title>
<polygon fill="white" stroke="none" points="-4,4 -4,-358.93 1050,-358.93 1050,4 -4,4"/>
<g id="clust1" class="cluster">
<title>cluster_app</title>
<path fill="#ffffff" stroke="black" stroke-width="2" d="M20,-8C20,-8 771,-8 771,-8 777,-8 783,-14 783,-20 783,-20 783,-334.93 783,-334.93 783,-340.93 777,-346.93 771,-346.93 771,-346.93 20,-346.93 20,-346.93 14,-346.93 8,-340.93 8,-334.93 8,-334.93 8,-20 8,-20 8,-14 14,-8 20,-8"/>
<text text-anchor="middle" x="395.5" y="-334.38" font-family="Helvetica,sans-Serif" font-weight="bold" font-size="9.00">app</text>
</g>
<g id="clust2" class="cluster">
<title>cluster_app/controllers</title>
<path fill="#ffffff" stroke="black" stroke-width="2" d="M146,-80.5C146,-80.5 352,-80.5 352,-80.5 358,-80.5 364,-86.5 364,-92.5 364,-92.5 364,-283.43 364,-283.43 364,-289.43 358,-295.43 352,-295.43 352,-295.43 146,-295.43 146,-295.43 140,-295.43 134,-289.43 134,-283.43 134,-283.43 134,-92.5 134,-92.5 134,-86.5 140,-80.5 146,-80.5"/>
<text text-anchor="start" x="225.75" y="-282.88" font-family="Helvetica,sans-Serif" font-weight="bold" font-size="9.00">controllers</text>
</g>
<g id="clust3" class="cluster">
<title>cluster_app/controllers/admin</title>
<path fill="#ffffff" stroke="black" stroke-width="2" d="M154,-218.18C154,-218.18 216,-218.18 216,-218.18 222,-218.18 228,-224.18 228,-230.18 228,-230.18 228,-257.68 228,-257.68 228,-263.68 222,-269.68 216,-269.68 216,-269.68 154,-269.68 154,-269.68 148,-269.68 142,-263.68 142,-257.68 142,-257.68 142,-230.18 142,-230.18 142,-224.18 148,-218.18 154,-218.18"/>
<text text-anchor="start" x="171.88" y="-257.12" font-family="Helvetica,sans-Serif" font-weight="bold" font-size="9.00">admin</text>
</g>
<g id="clust4" class="cluster">
<title>cluster_app/domain</title>
<path fill="#ffffff" stroke="black" stroke-width="2" d="M701,-73.42C701,-73.42 763,-73.42 763,-73.42 769,-73.42 775,-79.42 775,-85.42 775,-85.42 775,-112.92 775,-112.92 775,-118.92 769,-124.92 763,-124.92 763,-124.92 701,-124.92 701,-124.92 695,-124.92 689,-118.92 689,-112.92 689,-112.92 689,-85.42 689,-85.42 689,-79.42 695,-73.42 701,-73.42"/>
<text text-anchor="start" x="716.25" y="-112.38" font-family="Helvetica,sans-Serif" font-weight="bold" font-size="9.00">domain</text>
</g>
<g id="clust5" class="cluster">
<title>cluster_app/infrastructure</title>
<path fill="#ffffff" stroke="black" stroke-width="2" d="M700,-158.68C700,-158.68 763,-158.68 763,-158.68 769,-158.68 775,-164.68 775,-170.68 775,-170.68 775,-198.18 775,-198.18 775,-204.18 769,-210.18 763,-210.18 763,-210.18 700,-210.18 700,-210.18 694,-210.18 688,-204.18 688,-198.18 688,-198.18 688,-170.68 688,-170.68 688,-164.68 694,-158.68 700,-158.68"/>
<text text-anchor="start" x="701.88" y="-197.62" font-family="Helvetica,sans-Serif" font-weight="bold" font-size="9.00">infrastructure</text>
</g>
<g id="clust6" class="cluster">
<title>cluster_app/lib</title>
<path fill="#ffffff" stroke="black" stroke-width="2" d="M384,-65.42C384,-65.42 669,-65.42 669,-65.42 675,-65.42 681,-71.42 681,-77.42 681,-77.42 681,-138.68 681,-138.68 681,-144.68 675,-150.68 669,-150.68 669,-150.68 384,-150.68 384,-150.68 378,-150.68 372,-144.68 372,-138.68 372,-138.68 372,-77.42 372,-77.42 372,-71.42 378,-65.42 384,-65.42"/>
<text text-anchor="middle" x="526.5" y="-138.12" font-family="Helvetica,sans-Serif" font-weight="bold" font-size="9.00">lib</text>
</g>
<g id="clust7" class="cluster">
<title>cluster_app/lib/my&#45;http&#45;wrapper</title>
<path fill="#ffffff" stroke="black" stroke-width="2" d="M536,-73.42C536,-73.42 599,-73.42 599,-73.42 605,-73.42 611,-79.42 611,-85.42 611,-85.42 611,-112.92 611,-112.92 611,-118.92 605,-124.92 599,-124.92 599,-124.92 536,-124.92 536,-124.92 530,-124.92 524,-118.92 524,-112.92 524,-112.92 524,-85.42 524,-85.42 524,-79.42 530,-73.42 536,-73.42"/>
<text text-anchor="middle" x="567.5" y="-112.38" font-family="Helvetica,sans-Serif" font-weight="bold" font-size="9.00">my&#45;http&#45;wrapper</text>
</g>
<!-- . -->
<g id="node1" class="node">
<title>.</title>
<g id="a_node1"><a xlink:href="https://nodejs.org/api/..html" xlink:title=".">
<polygon fill="#ffffcc" stroke="grey" points="930,-26.68 877.97,-26.68 876,-24.7 876,-8.93 928.03,-8.93 930,-10.9 930,-26.68"/>
<polyline fill="none" stroke="grey" points="928.03,-24.7 876,-24.7"/>
<polyline fill="none" stroke="grey" points="928.03,-24.7 928.03,-8.93"/>
<polyline fill="none" stroke="grey" points="928.03,-24.7 930,-26.68"/>
<text text-anchor="middle" x="903" y="-14.12" font-family="Helvetica,sans-Serif" font-size="9.00" fill="grey">.</text>
</a>
</g>
</g>
<!-- .. -->
<g id="node2" class="node">
<title>..</title>
<g id="a_node2"><a xlink:title="..">
<polygon fill="#ffffcc" stroke="black" points="845,-57.42 792.97,-57.42 791,-55.45 791,-39.67 843.03,-39.67 845,-41.65 845,-57.42"/>
<polyline fill="none" stroke="black" points="843.03,-55.45 791,-55.45"/>
<polyline fill="none" stroke="black" points="843.03,-55.45 843.03,-39.67"/>
<polyline fill="none" stroke="black" points="843.03,-55.45 845,-57.42"/>
<text text-anchor="middle" x="818" y="-44.88" font-family="Helvetica,sans-Serif" font-size="9.00">..</text>
</a>
</g>
</g>
<!-- app -->
<!-- app&#45;&gt;. -->
<g id="edge1" class="edge">
<title>app&#45;&gt;.</title>
<path fill="none" stroke="#000000" stroke-dasharray="5,2" stroke-opacity="0.200000" d="M147.22,-17.8C387.55,-17.8 627.89,-17.8 868.22,-17.8"/>
<polygon fill="#000000" fill-opacity="0.200000" stroke="#000000" stroke-opacity="0.200000" points="868.18,-19.9 874.18,-17.8 868.18,-15.7 868.18,-19.9"/>
</g>
<!-- app/controllers -->
<!-- app/controllers&#45;&gt;. -->
<g id="edge5" class="edge">
<title>app/controllers&#45;&gt;.</title>
<path fill="none" stroke="#000000" stroke-dasharray="5,2" stroke-opacity="0.200000" d="M223.74,-88.93C235.83,-86.36 308.77,-71.2 369,-65.42 486.74,-54.14 517.17,-67.66 635,-57.42 719.36,-50.1 817.7,-33.96 868.57,-25.04"/>
<polygon fill="#000000" fill-opacity="0.200000" stroke="#000000" stroke-opacity="0.200000" points="868.69,-27.15 874.24,-24.04 867.96,-23.01 868.69,-27.15"/>
</g>
<!-- app/controllers&#45;&gt;app -->
<g id="edge4" class="edge">
<title>app/controllers&#45;&gt;app</title>
<path fill="none" stroke="#000000" stroke-width="2" stroke-opacity="0.200000" d="M222.09,-88.47C222.63,-83.26 224.82,-54.78 211,-39.67 196.66,-24.01 170.66,-20.02 155.94,-19.06"/>
<polygon fill="#000000" fill-opacity="0.200000" stroke="#000000" stroke-width="2" stroke-opacity="0.200000" points="156.07,-16.96 150.01,-18.87 155.94,-21.16 156.07,-16.96"/>
</g>
<!-- app/models -->
<g id="node5" class="node">
<title>app/models</title>
<g id="a_node5"><a xlink:href="app/models" xlink:title="models">
<polygon fill="#ffffcc" stroke="orange" points="126,-99.17 73.97,-99.17 72,-97.2 72,-81.42 124.03,-81.42 126,-83.4 126,-99.17"/>
<polyline fill="none" stroke="orange" points="124.03,-97.2 72,-97.2"/>
<polyline fill="none" stroke="orange" points="124.03,-97.2 124.03,-81.42"/>
<polyline fill="none" stroke="orange" points="124.03,-97.2 126,-99.17"/>
<text text-anchor="start" x="84" y="-86.62" font-family="Helvetica,sans-Serif" font-size="9.00" fill="orange">models</text>
</a>
</g>
</g>
<!-- app/controllers&#45;&gt;app/models -->
<g id="edge2" class="edge">
<title>app/controllers&#45;&gt;app/models</title>
<path fill="none" stroke="#000000" stroke-width="2" stroke-opacity="0.200000" d="M219.76,-90.3C191.55,-90.3 163.35,-90.3 135.14,-90.3"/>
<polygon fill="#000000" fill-opacity="0.200000" stroke="#000000" stroke-width="2" stroke-opacity="0.200000" points="135.41,-88.2 129.41,-90.3 135.41,-92.4 135.41,-88.2"/>
</g>
<!-- app/templates -->
<g id="node6" class="node">
<title>app/templates</title>
<g id="a_node6"><a xlink:href="app/templates" xlink:title="templates">
<polygon fill="#ffffcc" stroke="black" points="193.88,-57.42 140.1,-57.42 138.12,-55.45 138.12,-39.67 191.9,-39.67 193.88,-41.65 193.88,-57.42"/>
<polyline fill="none" stroke="black" points="191.9,-55.45 138.12,-55.45"/>
<polyline fill="none" stroke="black" points="191.9,-55.45 191.9,-39.67"/>
<polyline fill="none" stroke="black" points="191.9,-55.45 193.88,-57.42"/>
<text text-anchor="start" x="146.12" y="-44.88" font-family="Helvetica,sans-Serif" font-size="9.00">templates</text>
</a>
</g>
</g>
<!-- app/controllers&#45;&gt;app/templates -->
<g id="edge3" class="edge">
<title>app/controllers&#45;&gt;app/templates</title>
<path fill="none" stroke="#000000" stroke-width="2" stroke-opacity="0.200000" d="M222.07,-88.23C222.25,-84.52 222.32,-72.15 216,-65.42 212.23,-61.42 207.46,-58.42 202.37,-56.18"/>
<polygon fill="#000000" fill-opacity="0.200000" stroke="#000000" stroke-width="2" stroke-opacity="0.200000" points="203.41,-54.32 197.05,-54.26 201.98,-58.27 203.41,-54.32"/>
</g>
<!-- app/models&#45;&gt;. -->
<g id="edge36" class="edge">
<title>app/models&#45;&gt;.</title>
<path fill="none" stroke="#000000" stroke-dasharray="5,2" stroke-opacity="0.200000" d="M107.14,-81.09C113.17,-75.58 121.88,-68.75 131,-65.42 165.24,-52.92 749.62,-28.98 786,-26.68 813.68,-24.92 845.04,-22.81 868.32,-21.21"/>
<polygon fill="#000000" fill-opacity="0.200000" stroke="#000000" stroke-opacity="0.200000" points="868.23,-23.32 874.07,-20.81 867.94,-19.13 868.23,-23.32"/>
</g>
<!-- app/models&#45;&gt;app -->
<g id="edge37" class="edge">
<title>app/models&#45;&gt;app</title>
<path fill="none" stroke="#000000" stroke-width="2" stroke-opacity="0.200000" d="M104.46,-80.94C113.26,-67.45 130.49,-41.04 139.39,-27.4"/>
<polygon fill="#000000" fill-opacity="0.200000" stroke="#000000" stroke-width="2" stroke-opacity="0.200000" points="141.11,-28.6 142.63,-22.42 137.6,-26.3 141.11,-28.6"/>
</g>
<!-- app/models&#45;&gt;app/templates -->
<g id="edge38" class="edge">
<title>app/models&#45;&gt;app/templates</title>
<g id="a_edge38"><a xlink:title="no&#45;circular">
<path fill="none" stroke="orange" stroke-width="2" d="M103.53,-81.2C107.32,-77.7 112.59,-73.56 123.48,-67.07"/>
<polygon fill="orange" stroke="orange" stroke-width="2" points="132.98,-64.15 137.18,-59.38 130.92,-60.48 132.98,-64.15"/>
<polyline fill="none" stroke="orange" stroke-width="2" points="131.08,-62.81 128.46,-64.27"/>
<ellipse fill="none" stroke="orange" stroke-width="2" cx="125.5" cy="-65.94" rx="2.4" ry="2.4"/>
</a>
</g>
<text text-anchor="middle" x="99.28" y="-69.75" font-family="Helvetica,sans-Serif" font-size="9.00" fill="orange">no&#45;circular</text>
</g>
<!-- app/features -->
<g id="node17" class="node">
<title>app/features</title>
<g id="a_node17"><a xlink:href="app/features" xlink:title="features">
<polygon fill="#ffffcc" stroke="black" points="112,-57.42 59.97,-57.42 58,-55.45 58,-39.67 110.03,-39.67 112,-41.65 112,-57.42"/>
<polyline fill="none" stroke="black" points="110.03,-55.45 58,-55.45"/>
<polyline fill="none" stroke="black" points="110.03,-55.45 110.03,-39.67"/>
<polyline fill="none" stroke="black" points="110.03,-55.45 112,-57.42"/>
<text text-anchor="start" x="68.5" y="-44.88" font-family="Helvetica,sans-Serif" font-size="9.00">features</text>
</a>
</g>
</g>
<!-- app/models&#45;&gt;app/features -->
<g id="edge39" class="edge">
<title>app/models&#45;&gt;app/features</title>
<path fill="none" stroke="#000000" stroke-width="2" stroke-opacity="0.200000" d="M96.17,-81.26C94.63,-76.9 92.68,-71.34 90.83,-66.1"/>
<polygon fill="#000000" fill-opacity="0.200000" stroke="#000000" stroke-width="2" stroke-opacity="0.200000" points="92.9,-65.67 88.93,-60.71 88.94,-67.07 92.9,-65.67"/>
</g>
<!-- app/lib/auth0 -->
<g id="node21" class="node">
<title>app/lib/auth0</title>
<g id="a_node21"><a xlink:href="app/lib/auth0" xlink:title="auth0">
<polygon fill="#ffffcc" stroke="black" points="434,-99.17 381.97,-99.17 380,-97.2 380,-81.42 432.03,-81.42 434,-83.4 434,-99.17"/>
<polyline fill="none" stroke="black" points="432.03,-97.2 380,-97.2"/>
<polyline fill="none" stroke="black" points="432.03,-97.2 432.03,-81.42"/>
<polyline fill="none" stroke="black" points="432.03,-97.2 434,-99.17"/>
<text text-anchor="start" x="395.38" y="-86.62" font-family="Helvetica,sans-Serif" font-size="9.00">auth0</text>
</a>
</g>
</g>
<!-- app/models&#45;&gt;app/lib/auth0 -->
<g id="edge40" class="edge">
<title>app/models&#45;&gt;app/lib/auth0</title>
<path fill="none" stroke="#000000" stroke-width="2" stroke-opacity="0.200000" d="M100.57,-99.51C103.9,-115.53 113.4,-147.53 137,-154.68 148.91,-158.28 349.09,-158.28 361,-154.68 381.97,-148.33 394.66,-124.91 401.25,-108.15"/>
<polygon fill="#000000" fill-opacity="0.200000" stroke="#000000" stroke-width="2" stroke-opacity="0.200000" points="403.22,-108.88 403.28,-102.52 399.27,-107.46 403.22,-108.88"/>
</g>
<!-- app/templates&#45;&gt;. -->
<g id="edge42" class="edge">
<title>app/templates&#45;&gt;.</title>
<path fill="none" stroke="#000000" stroke-dasharray="5,2" stroke-opacity="0.200000" d="M194.13,-46.94C281.77,-44.96 557.7,-38.2 786,-26.68 813.7,-25.28 845.06,-23.14 868.34,-21.44"/>
<polygon fill="#000000" fill-opacity="0.200000" stroke="#000000" stroke-opacity="0.200000" points="868.25,-23.55 874.08,-21.02 867.95,-19.36 868.25,-23.55"/>
</g>
<!-- app/templates&#45;&gt;app -->
<g id="edge43" class="edge">
<title>app/templates&#45;&gt;app</title>
<path fill="none" stroke="#000000" stroke-width="2" stroke-opacity="0.200000" d="M160.04,-39.39C157.17,-35.47 153.75,-30.78 150.89,-26.87"/>
<polygon fill="#000000" fill-opacity="0.200000" stroke="#000000" stroke-width="2" stroke-opacity="0.200000" points="152.62,-25.68 147.39,-22.07 149.23,-28.15 152.62,-25.68"/>
</g>
<!-- app/templates&#45;&gt;app/models -->
<g id="edge41" class="edge">
<title>app/templates&#45;&gt;app/models</title>
<path fill="none" stroke="#000000" stroke-width="2" stroke-opacity="0.200000" d="M151.45,-57.89C146.74,-60.14 141.6,-62.71 137,-65.42 131.79,-68.5 126.41,-72.26 121.34,-75.87"/>
<polygon fill="#000000" fill-opacity="0.200000" stroke="#000000" stroke-width="2" stroke-opacity="0.200000" points="120.33,-74.02 116.66,-79.21 122.77,-77.44 120.33,-74.02"/>
</g>
<!-- app/controllers/admin -->
<!-- app/controllers/admin&#45;&gt;. -->
<g id="edge9" class="edge">
<title>app/controllers/admin&#45;&gt;.</title>
<path fill="none" stroke="#000000" stroke-dasharray="5,2" stroke-opacity="0.200000" d="M218.02,-232.96C218.16,-229.97 218.98,-221.69 224,-218.18 241.17,-206.18 963.27,-225.06 978,-210.18 1004.65,-183.24 1000.92,-69.85 978,-39.67 968.58,-27.28 952.46,-21.81 937.58,-19.55"/>
<polygon fill="#000000" fill-opacity="0.200000" stroke="#000000" stroke-opacity="0.200000" points="938.11,-17.5 931.9,-18.86 937.61,-21.67 938.11,-17.5"/>
</g>
<!-- app/controllers/admin&#45;&gt;app -->
<g id="edge8" class="edge">
<title>app/controllers/admin&#45;&gt;app</title>
<path fill="none" stroke="#000000" stroke-width="2" stroke-opacity="0.200000" d="M217.83,-232.95C217.3,-229.97 215.38,-221.68 210,-218.18 181.11,-199.34 81.48,-232.28 55,-210.18 34.15,-192.76 44.13,-177.66 41,-150.68 35.31,-101.67 9.74,-77.84 41,-39.67 52.73,-25.35 110.21,-20.65 134.32,-19.29"/>
<polygon fill="#000000" fill-opacity="0.200000" stroke="#000000" stroke-width="2" stroke-opacity="0.200000" points="134.22,-21.4 140.11,-19.01 134.01,-17.2 134.22,-21.4"/>
</g>
<!-- app/controllers/admin&#45;&gt;app/models -->
<g id="edge6" class="edge">
<title>app/controllers/admin&#45;&gt;app/models</title>
<path fill="none" stroke="#000000" stroke-width="2" stroke-opacity="0.200000" d="M217.82,-232.97C217.26,-230.02 215.29,-221.81 210,-218.18 195.46,-208.18 144.45,-221.6 131,-210.18 115.56,-197.06 105.44,-138.18 101.23,-108.51"/>
<polygon fill="#000000" fill-opacity="0.200000" stroke="#000000" stroke-width="2" stroke-opacity="0.200000" points="103.32,-108.34 100.43,-102.67 99.16,-108.9 103.32,-108.34"/>
</g>
<!-- app/controllers/admin&#45;&gt;app/templates -->
<g id="edge7" class="edge">
<title>app/controllers/admin&#45;&gt;app/templates</title>
<path fill="none" stroke="#000000" stroke-width="2" stroke-opacity="0.200000" d="M217.82,-232.96C217.28,-230 215.33,-221.75 210,-218.18 191.12,-205.5 127.76,-221.42 108,-210.18 79.86,-194.17 75.79,-181.53 66,-150.68 54.54,-114.56 41.33,-94.18 66,-65.42 73.61,-56.55 106.45,-59.26 118,-57.42 121.61,-56.85 125.38,-56.25 129.14,-55.64"/>
<polygon fill="#000000" fill-opacity="0.200000" stroke="#000000" stroke-width="2" stroke-opacity="0.200000" points="129.26,-57.74 134.85,-54.71 128.59,-53.6 129.26,-57.74"/>
</g>
<!-- app/controllers/admin/tests -->
<g id="node8" class="node">
<title>app/controllers/admin/tests</title>
<g id="a_node8"><a xlink:href="app/controllers/admin/tests" xlink:title="tests">
<polygon fill="#ffffcc" stroke="black" points="204,-243.93 151.97,-243.93 150,-241.95 150,-226.18 202.03,-226.18 204,-228.15 204,-243.93"/>
<polyline fill="none" stroke="black" points="202.03,-241.95 150,-241.95"/>
<polyline fill="none" stroke="black" points="202.03,-241.95 202.03,-226.18"/>
<polyline fill="none" stroke="black" points="202.03,-241.95 204,-243.93"/>
<text text-anchor="start" x="167.62" y="-231.38" font-family="Helvetica,sans-Serif" font-size="9.00">tests</text>
</a>
</g>
</g>
<!-- app/controllers/admin/tests&#45;&gt;. -->
<g id="edge12" class="edge">
<title>app/controllers/admin/tests&#45;&gt;.</title>
<path fill="none" stroke="#000000" stroke-dasharray="5,2" stroke-opacity="0.200000" d="M190.96,-225.68C196.66,-222.71 203.44,-219.72 210,-218.18 271.44,-203.71 715.78,-220.8 778,-210.18 859.81,-196.2 906.56,-218.06 955,-150.68 977.11,-119.91 966.38,-101.56 955,-65.42 950.81,-52.11 947.16,-49.25 937,-39.67 933.63,-36.5 929.69,-33.55 925.72,-30.94"/>
<polygon fill="#000000" fill-opacity="0.200000" stroke="#000000" stroke-opacity="0.200000" points="927.02,-29.27 920.81,-27.91 924.82,-32.85 927.02,-29.27"/>
</g>
<!-- app/controllers/admin/tests&#45;&gt;app -->
<g id="edge11" class="edge">
<title>app/controllers/admin/tests&#45;&gt;app</title>
<path fill="none" stroke="#000000" stroke-width="2" stroke-opacity="0.200000" d="M149.65,-232.74C114.54,-230.48 56.29,-224.62 41,-210.18 21.25,-191.52 30.13,-177.66 27,-150.68 21.31,-101.67 -4.7,-77.48 27,-39.67 40.68,-23.36 107.9,-19.79 134.32,-19.01"/>
<polygon fill="#000000" fill-opacity="0.200000" stroke="#000000" stroke-width="2" stroke-opacity="0.200000" points="134.26,-21.12 140.21,-18.88 134.17,-16.92 134.26,-21.12"/>
</g>
<!-- app/controllers/admin/tests&#45;&gt;app/models -->
<g id="edge10" class="edge">
<title>app/controllers/admin/tests&#45;&gt;app/models</title>
<path fill="none" stroke="#000000" stroke-width="2" stroke-opacity="0.200000" d="M162.49,-225.75C157.39,-223.07 151.55,-220.26 146,-218.18 132.28,-213.02 123.73,-221.14 114,-210.18 88.89,-181.88 91.89,-133.79 95.73,-108.32"/>
<polygon fill="#000000" fill-opacity="0.200000" stroke="#000000" stroke-width="2" stroke-opacity="0.200000" points="97.79,-108.72 96.73,-102.45 93.65,-108.01 97.79,-108.72"/>
</g>
<!-- app/controllers/api -->
<g id="node9" class="node">
<title>app/controllers/api</title>
<g id="a_node9"><a xlink:href="app/controllers/api" xlink:title="api">
<polygon fill="#ffffcc" stroke="black" points="249,-184.43 196.97,-184.43 195,-182.45 195,-166.68 247.03,-166.68 249,-168.65 249,-184.43"/>
<polyline fill="none" stroke="black" points="247.03,-182.45 195,-182.45"/>
<polyline fill="none" stroke="black" points="247.03,-182.45 247.03,-166.68"/>
<polyline fill="none" stroke="black" points="247.03,-182.45 249,-184.43"/>
<text text-anchor="start" x="215.62" y="-171.88" font-family="Helvetica,sans-Serif" font-size="9.00">api</text>
</a>
</g>
</g>
<!-- app/controllers/api&#45;&gt;. -->
<g id="edge17" class="edge">
<title>app/controllers/api&#45;&gt;.</title>
<path fill="none" stroke="#000000" stroke-dasharray="5,2" stroke-opacity="0.200000" d="M249.28,-173.65C359.39,-169.99 765.81,-156.13 778,-150.68 826.27,-129.07 815.26,-91.96 861,-65.42 873.31,-58.29 881.81,-67.36 892,-57.42 898.14,-51.44 900.92,-42.29 902.15,-34.39"/>
<polygon fill="#000000" fill-opacity="0.200000" stroke="#000000" stroke-opacity="0.200000" points="904.22,-34.78 902.77,-28.59 900.04,-34.33 904.22,-34.78"/>
</g>
<!-- app/controllers/api&#45;&gt;app -->
<g id="edge14" class="edge">
<title>app/controllers/api&#45;&gt;app</title>
<path fill="none" stroke="#000000" stroke-width="2" stroke-opacity="0.200000" d="M218.77,-166.27C217.12,-161.73 215.21,-155.96 214,-150.68 208.47,-126.44 215.38,-59.21 200,-39.67 189.17,-25.91 168.17,-21.22 155.48,-19.62"/>
<polygon fill="#000000" fill-opacity="0.200000" stroke="#000000" stroke-width="2" stroke-opacity="0.200000" points="155.88,-17.55 149.72,-19.12 155.51,-21.73 155.88,-17.55"/>
</g>
<!-- app/controllers/api&#45;&gt;app/controllers -->
<g id="edge16" class="edge">
<title>app/controllers/api&#45;&gt;app/controllers</title>
<path fill="none" stroke="#000000" stroke-width="2" stroke-opacity="0.200000" d="M222,-166.26C222,-150.79 222,-117.6 222,-101.07"/>
<polygon fill="#000000" fill-opacity="0.200000" stroke="#000000" stroke-width="2" stroke-opacity="0.200000" points="224.1,-101.27 222,-95.27 219.9,-101.27 224.1,-101.27"/>
</g>
<!-- app/controllers/api&#45;&gt;app/models -->
<g id="edge13" class="edge">
<title>app/controllers/api&#45;&gt;app/models</title>
<path fill="none" stroke="#000000" stroke-width="2" stroke-opacity="0.200000" d="M208.23,-166.22C203,-163.41 196.89,-160.51 191,-158.68 165.32,-150.65 153.13,-165.97 131,-150.68 116.44,-140.62 107.92,-121.74 103.38,-107.97"/>
<polygon fill="#000000" fill-opacity="0.200000" stroke="#000000" stroke-width="2" stroke-opacity="0.200000" points="105.42,-107.47 101.71,-102.32 101.4,-108.67 105.42,-107.47"/>
</g>
<!-- app/controllers/api&#45;&gt;app/templates -->
<g id="edge15" class="edge">
<title>app/controllers/api&#45;&gt;app/templates</title>
<path fill="none" stroke="#000000" stroke-width="2" stroke-opacity="0.200000" d="M214.22,-166.2C210.44,-161.83 206.08,-156.24 203,-150.68 184.77,-117.72 187.35,-104.45 172.94,-65.95"/>
<polygon fill="#000000" fill-opacity="0.200000" stroke="#000000" stroke-width="2" stroke-opacity="0.200000" points="175.05,-65.56 170.92,-60.73 171.13,-67.08 175.05,-65.56"/>
</g>
<!-- app/lib/hypem -->
<g id="node10" class="node">
<title>app/lib/hypem</title>
<g id="a_node10"><a xlink:href="app/lib/hypem" xlink:title="hypem">
<polygon fill="#ffffcc" stroke="black" points="516,-99.17 463.97,-99.17 462,-97.2 462,-81.42 514.03,-81.42 516,-83.4 516,-99.17"/>
<polyline fill="none" stroke="black" points="514.03,-97.2 462,-97.2"/>
<polyline fill="none" stroke="black" points="514.03,-97.2 514.03,-81.42"/>
<polyline fill="none" stroke="black" points="514.03,-97.2 516,-99.17"/>
<text text-anchor="start" x="475.12" y="-86.62" font-family="Helvetica,sans-Serif" font-size="9.00">hypem</text>
</a>
</g>
</g>
<!-- app/controllers/api&#45;&gt;app/lib/hypem -->
<g id="edge18" class="edge">
<title>app/controllers/api&#45;&gt;app/lib/hypem</title>
<path fill="none" stroke="#000000" stroke-width="2" stroke-opacity="0.200000" d="M249.47,-172.43C309.45,-167.7 447.48,-156.29 456,-150.68 470.88,-140.87 479.69,-121.95 484.42,-108.09"/>
<polygon fill="#000000" fill-opacity="0.200000" stroke="#000000" stroke-width="2" stroke-opacity="0.200000" points="486.42,-108.73 486.17,-102.38 482.4,-107.5 486.42,-108.73"/>
</g>
<!-- app/lib/hypem&#45;&gt;.. -->
<g id="edge32" class="edge">
<title>app/lib/hypem&#45;&gt;..</title>
<g id="a_edge32"><a xlink:title="not&#45;to&#45;unresolvable">
<path fill="none" stroke="red" stroke-width="2" d="M497.14,-81.07C503.16,-75.56 511.88,-68.73 521,-65.42 524.04,-64.33 703.67,-55.25 782.07,-51.34"/>
<polygon fill="red" stroke="red" stroke-width="2" points="781.75,-53.45 787.64,-51.06 781.54,-49.26 781.75,-53.45"/>
</a>
</g>
<text text-anchor="middle" x="583.51" y="-60.64" font-family="Helvetica,sans-Serif" font-size="9.00" fill="red">not&#45;to&#45;unresolvable</text>
</g>
<!-- app/controllers/private -->
<g id="node11" class="node">
<title>app/controllers/private</title>
<g id="a_node11"><a xlink:href="app/controllers/private" xlink:title="private">
<polygon fill="#ffffcc" stroke="black" points="290,-243.93 237.97,-243.93 236,-241.95 236,-226.18 288.03,-226.18 290,-228.15 290,-243.93"/>
<polyline fill="none" stroke="black" points="288.03,-241.95 236,-241.95"/>
<polyline fill="none" stroke="black" points="288.03,-241.95 288.03,-226.18"/>
<polyline fill="none" stroke="black" points="288.03,-241.95 290,-243.93"/>
<text text-anchor="start" x="249.12" y="-231.38" font-family="Helvetica,sans-Serif" font-size="9.00">private</text>
</a>
</g>
</g>
<!-- app/controllers/private&#45;&gt;. -->
<g id="edge25" class="edge">
<title>app/controllers/private&#45;&gt;.</title>
<path fill="none" stroke="#000000" stroke-dasharray="5,2" stroke-opacity="0.200000" d="M276.63,-225.84C282.4,-222.81 289.31,-219.74 296,-218.18 315.15,-213.69 990.17,-224.16 1004,-210.18 1030.64,-183.23 1027.93,-69.05 1004,-39.67 995.66,-29.44 963.43,-24.07 937.58,-21.36"/>
<polygon fill="#000000" fill-opacity="0.200000" stroke="#000000" stroke-opacity="0.200000" points="937.83,-19.27 931.65,-20.78 937.42,-23.45 937.83,-19.27"/>
</g>
<!-- app/controllers/private&#45;&gt;app -->
<g id="edge22" class="edge">
<title>app/controllers/private&#45;&gt;app</title>
<path fill="none" stroke="#000000" stroke-width="2" stroke-opacity="0.200000" d="M249.13,-225.71C243.67,-222.82 237.22,-219.88 231,-218.18 208,-211.87 145.61,-220.25 124,-210.18 90.53,-194.57 82.42,-183.75 66,-150.68 54.94,-128.41 36.46,-59.09 52,-39.67 62.21,-26.91 112.05,-21.42 134.27,-19.57"/>
<polygon fill="#000000" fill-opacity="0.200000" stroke="#000000" stroke-width="2" stroke-opacity="0.200000" points="134.17,-21.69 140,-19.15 133.86,-17.5 134.17,-21.69"/>
</g>
<!-- app/controllers/private&#45;&gt;app/controllers -->
<g id="edge23" class="edge">
<title>app/controllers/private&#45;&gt;app/controllers</title>
<path fill="none" stroke="#000000" stroke-width="2" stroke-opacity="0.200000" d="M263.06,-225.95C262.95,-211.95 261.85,-182.45 255,-158.68 248.53,-136.22 234.92,-112.14 227.35,-99.75"/>
<polygon fill="#000000" fill-opacity="0.200000" stroke="#000000" stroke-width="2" stroke-opacity="0.200000" points="229.19,-98.72 224.21,-94.76 225.63,-100.96 229.19,-98.72"/>
</g>
<!-- app/controllers/private&#45;&gt;app/models -->
<g id="edge19" class="edge">
<title>app/controllers/private&#45;&gt;app/models</title>
<path fill="none" stroke="#000000" stroke-width="2" stroke-opacity="0.200000" d="M249.11,-225.79C243.64,-222.91 237.2,-219.95 231,-218.18 213.61,-213.19 164.59,-220.86 150,-210.18 145.59,-206.95 118.37,-139.82 105.6,-107.89"/>
<polygon fill="#000000" fill-opacity="0.200000" stroke="#000000" stroke-width="2" stroke-opacity="0.200000" points="107.57,-107.17 103.4,-102.37 103.67,-108.73 107.57,-107.17"/>
</g>
<!-- app/controllers/private&#45;&gt;app/templates -->
<g id="edge20" class="edge">
<title>app/controllers/private&#45;&gt;app/templates</title>
<path fill="none" stroke="#000000" stroke-width="2" stroke-opacity="0.200000" d="M248.38,-225.75C243.05,-223.01 236.88,-220.15 231,-218.18 212.99,-212.12 202.83,-223.21 189,-210.18 149.08,-172.53 156.59,-99.19 162.47,-66.26"/>
<polygon fill="#000000" fill-opacity="0.200000" stroke="#000000" stroke-width="2" stroke-opacity="0.200000" points="164.46,-67.02 163.54,-60.73 160.33,-66.23 164.46,-67.02"/>
</g>
<!-- app/controllers/private&#45;&gt;app/controllers/api -->
<g id="edge21" class="edge">
<title>app/controllers/private&#45;&gt;app/controllers/api</title>
<path fill="none" stroke="#000000" stroke-width="2" stroke-opacity="0.200000" d="M257.3,-226.05C251.07,-217.31 240.93,-203.09 233.11,-192.13"/>
<polygon fill="#000000" fill-opacity="0.200000" stroke="#000000" stroke-width="2" stroke-opacity="0.200000" points="234.87,-190.98 229.68,-187.31 231.45,-193.42 234.87,-190.98"/>
</g>
<!-- app/lib/my&#45;img -->
<g id="node12" class="node">
<title>app/lib/my&#45;img</title>
<g id="a_node12"><a xlink:href="app/lib/my-img" xlink:title="my&#45;img">
<polygon fill="#ffffcc" stroke="black" points="673,-99.17 620.97,-99.17 619,-97.2 619,-81.42 671.03,-81.42 673,-83.4 673,-99.17"/>
<polyline fill="none" stroke="black" points="671.03,-97.2 619,-97.2"/>
<polyline fill="none" stroke="black" points="671.03,-97.2 671.03,-81.42"/>
<polyline fill="none" stroke="black" points="671.03,-97.2 673,-99.17"/>
<text text-anchor="start" x="631" y="-86.62" font-family="Helvetica,sans-Serif" font-size="9.00">my&#45;img</text>
</a>
</g>
</g>
<!-- app/controllers/private&#45;&gt;app/lib/my&#45;img -->
<g id="edge24" class="edge">
<title>app/controllers/private&#45;&gt;app/lib/my&#45;img</title>
<path fill="none" stroke="#000000" stroke-width="2" stroke-opacity="0.200000" d="M276.99,-225.81C282.69,-222.86 289.47,-219.85 296,-218.18 361.11,-201.51 381.1,-223.37 447,-210.18 524.26,-194.71 554.21,-202 614,-150.68 627.28,-139.27 635.97,-120.94 640.89,-107.66"/>
<polygon fill="#000000" fill-opacity="0.200000" stroke="#000000" stroke-width="2" stroke-opacity="0.200000" points="642.77,-108.64 642.73,-102.28 638.8,-107.28 642.77,-108.64"/>
</g>
<!-- app/lib/my&#45;img&#45;&gt;. -->
<g id="edge35" class="edge">
<title>app/lib/my&#45;img&#45;&gt;.</title>
<path fill="none" stroke="#000000" stroke-dasharray="5,2" stroke-opacity="0.200000" d="M656.51,-81.03C664.21,-75.5 675.15,-68.67 686,-65.42 706.03,-59.44 855.5,-67.17 874,-57.42 883.84,-52.25 891.26,-42.07 896.14,-33.47"/>
<polygon fill="#000000" fill-opacity="0.200000" stroke="#000000" stroke-opacity="0.200000" points="897.88,-34.66 898.79,-28.37 894.16,-32.72 897.88,-34.66"/>
</g>
<!-- app/controllers/testing -->
<g id="node13" class="node">
<title>app/controllers/testing</title>
<g id="a_node13"><a xlink:href="app/controllers/testing" xlink:title="testing">
<polygon fill="#ffffcc" stroke="black" points="356,-243.93 303.97,-243.93 302,-241.95 302,-226.18 354.03,-226.18 356,-228.15 356,-243.93"/>
<polyline fill="none" stroke="black" points="354.03,-241.95 302,-241.95"/>
<polyline fill="none" stroke="black" points="354.03,-241.95 354.03,-226.18"/>
<polyline fill="none" stroke="black" points="354.03,-241.95 356,-243.93"/>
<text text-anchor="start" x="315.5" y="-231.38" font-family="Helvetica,sans-Serif" font-size="9.00">testing</text>
</a>
</g>
</g>
<!-- app/controllers/testing&#45;&gt;app/models -->
<g id="edge26" class="edge">
<title>app/controllers/testing&#45;&gt;app/models</title>
<path fill="none" stroke="#000000" stroke-width="2" stroke-opacity="0.200000" d="M314.67,-225.71C309.03,-222.82 302.39,-219.88 296,-218.18 272.97,-212.01 210.38,-220.72 189,-210.18 161.48,-196.6 166.18,-178.79 143,-158.68 138.16,-154.47 135.32,-155.41 131,-150.68 119.45,-137.99 110.65,-120.39 105.22,-107.65"/>
<polygon fill="#000000" fill-opacity="0.200000" stroke="#000000" stroke-width="2" stroke-opacity="0.200000" points="107.21,-106.95 103.01,-102.17 103.31,-108.52 107.21,-106.95"/>
</g>
<!-- app/infrastructure -->
<!-- app/controllers/testing&#45;&gt;app/infrastructure -->
<g id="edge27" class="edge">
<title>app/controllers/testing&#45;&gt;app/infrastructure</title>
<path fill="none" stroke="#000000" stroke-width="2" stroke-opacity="0.200000" d="M356.37,-234.39C445.94,-235.24 726.35,-235.81 757,-210.18 763.77,-204.52 765.4,-194.27 765.56,-186.57"/>
<polygon fill="#000000" fill-opacity="0.200000" stroke="#000000" stroke-width="2" stroke-opacity="0.200000" points="767.66,-186.51 765.28,-180.61 763.47,-186.71 767.66,-186.51"/>
</g>
<!-- app/infrastructure&#45;&gt;. -->
<g id="edge29" class="edge">
<title>app/infrastructure&#45;&gt;.</title>
<path fill="none" stroke="#000000" stroke-dasharray="5,2" stroke-opacity="0.200000" d="M766.85,-174.68C777.47,-175.33 831.24,-177.18 860,-150.68 889.43,-123.55 859.12,-92.05 889,-65.42 901.56,-54.23 915.43,-70.52 926,-57.42 930.95,-51.29 929.19,-46.89 926,-39.67 924.77,-36.9 922.97,-34.34 920.91,-32.03"/>
<polygon fill="#000000" fill-opacity="0.200000" stroke="#000000" stroke-opacity="0.200000" points="922.66,-30.79 916.87,-28.16 919.76,-33.83 922.66,-30.79"/>
</g>
<!-- fs -->
<g id="node18" class="node">
<title>fs</title>
<g id="a_node18"><a xlink:href="https://nodejs.org/api/fs.html" xlink:title="fs">
<polygon fill="#ffffcc" stroke="grey" points="949,-99.17 896.97,-99.17 895,-97.2 895,-81.42 947.03,-81.42 949,-83.4 949,-99.17"/>
<polyline fill="none" stroke="grey" points="947.03,-97.2 895,-97.2"/>
<polyline fill="none" stroke="grey" points="947.03,-97.2 947.03,-81.42"/>
<polyline fill="none" stroke="grey" points="947.03,-97.2 949,-99.17"/>
<text text-anchor="middle" x="922" y="-86.62" font-family="Helvetica,sans-Serif" font-size="9.00" fill="grey">fs</text>
</a>
</g>
</g>
<!-- app/infrastructure&#45;&gt;fs -->
<g id="edge28" class="edge">
<title>app/infrastructure&#45;&gt;fs</title>
<path fill="none" stroke="#000000" stroke-dasharray="5,2" stroke-opacity="0.200000" d="M766.92,-174.71C778.99,-175.62 845.29,-179.14 886,-150.68 901.5,-139.83 911.53,-119.97 916.96,-106.22"/>
<polygon fill="#000000" fill-opacity="0.200000" stroke="#000000" stroke-opacity="0.200000" points="918.88,-107.08 918.99,-100.73 914.94,-105.63 918.88,-107.08"/>
</g>
<!-- app/domain -->
<!-- app/domain/user -->
<g id="node16" class="node">
<title>app/domain/user</title>
<g id="a_node16"><a xlink:href="app/domain/user" xlink:title="user">
<polygon fill="#ffffcc" stroke="black" points="751,-99.17 698.97,-99.17 697,-97.2 697,-81.42 749.03,-81.42 751,-83.4 751,-99.17"/>
<polyline fill="none" stroke="black" points="749.03,-97.2 697,-97.2"/>
<polyline fill="none" stroke="black" points="749.03,-97.2 749.03,-81.42"/>
<polyline fill="none" stroke="black" points="749.03,-97.2 751,-99.17"/>
<text text-anchor="start" x="715" y="-86.62" font-family="Helvetica,sans-Serif" font-size="9.00">user</text>
</a>
</g>
</g>
<!-- app/infrastructure/mongodb -->
<g id="node19" class="node">
<title>app/infrastructure/mongodb</title>
<g id="a_node19"><a xlink:href="app/infrastructure/mongodb" xlink:title="mongodb">
<polygon fill="#ffffcc" stroke="black" points="751.5,-184.43 698.47,-184.43 696.5,-182.45 696.5,-166.68 749.53,-166.68 751.5,-168.65 751.5,-184.43"/>
<polyline fill="none" stroke="black" points="749.53,-182.45 696.5,-182.45"/>
<polyline fill="none" stroke="black" points="749.53,-182.45 749.53,-166.68"/>
<polyline fill="none" stroke="black" points="749.53,-182.45 751.5,-184.43"/>
<text text-anchor="start" x="704.5" y="-171.88" font-family="Helvetica,sans-Serif" font-size="9.00">mongodb</text>
</a>
</g>
</g>
<!-- app/infrastructure/mongodb&#45;&gt;app/models -->
<g id="edge31" class="edge">
<title>app/infrastructure/mongodb&#45;&gt;app/models</title>
<path fill="none" stroke="#000000" stroke-width="2" stroke-opacity="0.200000" d="M696.23,-173.22C636.18,-170.35 489.75,-163.48 367,-158.68 353.89,-158.16 142.15,-157.59 131,-150.68 115.82,-141.26 107.36,-121.97 103.01,-107.93"/>
<polygon fill="#000000" fill-opacity="0.200000" stroke="#000000" stroke-width="2" stroke-opacity="0.200000" points="105.14,-107.76 101.52,-102.53 101.1,-108.88 105.14,-107.76"/>
</g>
<!-- app/infrastructure/mongodb&#45;&gt;app/domain/user -->
<g id="edge30" class="edge">
<title>app/infrastructure/mongodb&#45;&gt;app/domain/user</title>
<path fill="none" stroke="#000000" stroke-width="2" stroke-opacity="0.200000" d="M724,-166.26C724,-152.8 724,-125.91 724,-108.26"/>
<polygon fill="#000000" fill-opacity="0.200000" stroke="#000000" stroke-width="2" stroke-opacity="0.200000" points="726.1,-108.58 724,-102.58 721.9,-108.58 726.1,-108.58"/>
</g>
<!-- app/lib -->
<!-- app/lib/my&#45;http&#45;wrapper -->
<!-- app/lib/my&#45;http&#45;wrapper/http -->
<g id="node23" class="node">
<title>app/lib/my&#45;http&#45;wrapper/http</title>
<g id="a_node23"><a xlink:href="app/lib/my-http-wrapper/http" xlink:title="http">
<polygon fill="#ffffcc" stroke="black" points="586,-99.17 533.97,-99.17 532,-97.2 532,-81.42 584.03,-81.42 586,-83.4 586,-99.17"/>
<polyline fill="none" stroke="black" points="584.03,-97.2 532,-97.2"/>
<polyline fill="none" stroke="black" points="584.03,-97.2 584.03,-81.42"/>
<polyline fill="none" stroke="black" points="584.03,-97.2 586,-99.17"/>
<text text-anchor="start" x="551.5" y="-86.62" font-family="Helvetica,sans-Serif" font-size="9.00">http</text>
</a>
</g>
</g>
<!-- app/lib/my&#45;http&#45;wrapper/http&#45;&gt;. -->
<g id="edge34" class="edge">
<title>app/lib/my&#45;http&#45;wrapper/http&#45;&gt;.</title>
<path fill="none" stroke="#000000" stroke-dasharray="5,2" stroke-opacity="0.200000" d="M567.41,-81C573.64,-75.46 582.63,-68.62 592,-65.42 646.5,-46.84 796.62,-76.35 851,-57.42 851.26,-57.33 871.01,-42.64 886.1,-31.4"/>
<polygon fill="#000000" fill-opacity="0.200000" stroke="#000000" stroke-opacity="0.200000" points="887.03,-33.33 890.58,-28.06 884.52,-29.96 887.03,-33.33"/>
</g>
<!-- app/lib/my&#45;http&#45;wrapper/http&#45;&gt;app/controllers/admin -->
<g id="edge33" class="edge">
<title>app/lib/my&#45;http&#45;wrapper/http&#45;&gt;app/controllers/admin</title>
<path fill="none" stroke="#000000" stroke-width="2" stroke-opacity="0.200000" d="M556.83,-99.39C553.05,-112.05 544.06,-136.54 528,-150.68 470.74,-201.08 441.69,-194.65 367,-210.18 351.42,-213.41 236.83,-208.77 224,-218.18 221.99,-219.65 220.66,-221.88 219.77,-224.2"/>
<polygon fill="#000000" fill-opacity="0.200000" stroke="#000000" stroke-width="2" stroke-opacity="0.200000" points="217.73,-223.7 218.62,-230 221.85,-224.52 217.73,-223.7"/>
</g>
<!-- app/workers -->
<g id="node24" class="node">
<title>app/workers</title>
<g id="a_node24"><a xlink:href="app/workers" xlink:title="workers">
<polygon fill="#ffffcc" stroke="black" points="290,-321.18 237.97,-321.18 236,-319.2 236,-303.43 288.03,-303.43 290,-305.4 290,-321.18"/>
<polyline fill="none" stroke="black" points="288.03,-319.2 236,-319.2"/>
<polyline fill="none" stroke="black" points="288.03,-319.2 288.03,-303.43"/>
<polyline fill="none" stroke="black" points="288.03,-319.2 290,-321.18"/>
<text text-anchor="start" x="246.88" y="-308.62" font-family="Helvetica,sans-Serif" font-size="9.00">workers</text>
</a>
</g>
</g>
<!-- app/workers&#45;&gt;. -->
<g id="edge44" class="edge">
<title>app/workers&#45;&gt;.</title>
<path fill="none" stroke="#000000" stroke-dasharray="5,2" stroke-opacity="0.200000" d="M290.44,-310.53C411.16,-306.7 894.71,-286.77 1022,-210.18 1037.73,-200.71 1046,-194.91 1046,-176.55 1046,-176.55 1046,-176.55 1046,-89.3 1046,-63.98 1038.64,-54.35 1018,-39.67 1005.31,-30.65 966.5,-24.94 937.45,-21.82"/>
<polygon fill="#000000" fill-opacity="0.200000" stroke="#000000" stroke-opacity="0.200000" points="937.98,-19.76 931.8,-21.24 937.55,-23.94 937.98,-19.76"/>
</g>
<!-- app/workers&#45;&gt;app/models -->
<g id="edge46" class="edge">
<title>app/workers&#45;&gt;app/models</title>
<path fill="none" stroke="#000000" stroke-width="2" stroke-opacity="0.200000" d="M235.59,-310.64C203.93,-309.39 154.26,-305.8 139,-295.43 85.85,-259.29 88.67,-222.86 92,-158.68 92.89,-141.48 95.05,-121.9 96.74,-108.3"/>
<polygon fill="#000000" fill-opacity="0.200000" stroke="#000000" stroke-width="2" stroke-opacity="0.200000" points="98.8,-108.8 97.48,-102.58 94.63,-108.26 98.8,-108.8"/>
</g>
<!-- app/workers&#45;&gt;app/controllers/private -->
<g id="edge45" class="edge">
<title>app/workers&#45;&gt;app/controllers/private</title>
<path fill="none" stroke="#000000" stroke-width="2" stroke-opacity="0.200000" d="M263,-302.96C263,-290.92 263,-268.4 263,-252.84"/>
<polygon fill="#000000" fill-opacity="0.200000" stroke="#000000" stroke-width="2" stroke-opacity="0.200000" points="265.1,-253.23 263,-247.23 260.9,-253.23 265.1,-253.23"/>
</g>
</g>
</svg>
