<?xml version="1.0" encoding="UTF-8" standalone="no"?>
<!DOCTYPE svg PUBLIC "-//W3C//DTD SVG 1.1//EN"
 "http://www.w3.org/Graphics/SVG/1.1/DTD/svg11.dtd">
<!-- Generated by graphviz version 12.2.1 (20241206.2353)
 -->
<!-- Title: dependency&#45;cruiser output Pages: 1 -->
<svg width="832pt" height="292pt"
 viewBox="0.00 0.00 832.00 291.50" xmlns="http://www.w3.org/2000/svg" xmlns:xlink="http://www.w3.org/1999/xlink">
<g id="graph0" class="graph" transform="scale(1 1) rotate(0) translate(4 287.5)">
<title>dependency&#45;cruiser output</title>
<polygon fill="white" stroke="none" points="-4,4 -4,-287.5 828,-287.5 828,4 -4,4"/>
<g id="clust1" class="cluster">
<title>cluster_..</title>
<path fill="#ffffff" stroke="black" stroke-width="2" d="M197,-25.75C197,-25.75 243,-25.75 243,-25.75 249,-25.75 255,-31.75 255,-37.75 255,-37.75 255,-65.25 255,-65.25 255,-71.25 249,-77.25 243,-77.25 243,-77.25 197,-77.25 197,-77.25 191,-77.25 185,-71.25 185,-65.25 185,-65.25 185,-37.75 185,-37.75 185,-31.75 191,-25.75 197,-25.75"/>
<text text-anchor="middle" x="220" y="-64.7" font-family="Helvetica,sans-Serif" font-weight="bold" font-size="9.00">..</text>
</g>
<g id="clust2" class="cluster">
<title>cluster_app</title>
<path fill="#ffffff" stroke="black" stroke-width="2" d="M275,-25.75C275,-25.75 567,-25.75 567,-25.75 573,-25.75 579,-31.75 579,-37.75 579,-37.75 579,-263.5 579,-263.5 579,-269.5 573,-275.5 567,-275.5 567,-275.5 275,-275.5 275,-275.5 269,-275.5 263,-269.5 263,-263.5 263,-263.5 263,-37.75 263,-37.75 263,-31.75 269,-25.75 275,-25.75"/>
<text text-anchor="middle" x="421" y="-262.95" font-family="Helvetica,sans-Serif" font-weight="bold" font-size="9.00">app</text>
</g>
<g id="clust3" class="cluster">
<title>cluster_fs</title>
<path fill="#ffffff" stroke="black" stroke-width="2" d="M599,-111C599,-111 645,-111 645,-111 651,-111 657,-117 657,-123 657,-123 657,-150.5 657,-150.5 657,-156.5 651,-162.5 645,-162.5 645,-162.5 599,-162.5 599,-162.5 593,-162.5 587,-156.5 587,-150.5 587,-150.5 587,-123 587,-123 587,-117 593,-111 599,-111"/>
<text text-anchor="middle" x="622" y="-149.95" font-family="Helvetica,sans-Serif" font-weight="bold" font-size="9.00">fs</text>
</g>
<!-- ../get -->
<g id="node1" class="node">
<title>../get</title>
<g id="a_node1"><a xlink:title="get">
<path fill="#ffffcc" stroke="black" d="M241.08,-51.5C241.08,-51.5 198.92,-51.5 198.92,-51.5 195.96,-51.5 193,-48.54 193,-45.58 193,-45.58 193,-39.67 193,-39.67 193,-36.71 195.96,-33.75 198.92,-33.75 198.92,-33.75 241.08,-33.75 241.08,-33.75 244.04,-33.75 247,-36.71 247,-39.67 247,-39.67 247,-45.58 247,-45.58 247,-48.54 244.04,-51.5 241.08,-51.5"/>
<text text-anchor="start" x="213.62" y="-38.95" font-family="Helvetica,sans-Serif" font-size="9.00">get</text>
</a>
</g>
</g>
<!-- app/MyController.js -->
<g id="node2" class="node">
<title>app/MyController.js</title>
<g id="a_node2"><a xlink:href="app/MyController.js" xlink:title="MyController.js">
<path fill="#ffffcc" stroke="black" d="M384.83,-188.25C384.83,-188.25 319.17,-188.25 319.17,-188.25 316.21,-188.25 313.25,-185.29 313.25,-182.33 313.25,-182.33 313.25,-176.42 313.25,-176.42 313.25,-173.46 316.21,-170.5 319.17,-170.5 319.17,-170.5 384.83,-170.5 384.83,-170.5 387.79,-170.5 390.75,-173.46 390.75,-176.42 390.75,-176.42 390.75,-182.33 390.75,-182.33 390.75,-185.29 387.79,-188.25 384.83,-188.25"/>
<text text-anchor="start" x="321.25" y="-175.7" font-family="Helvetica,sans-Serif" font-size="9.00">MyController.js</text>
</a>
</g>
</g>
<!-- app/api&#45;v2 -->
<g id="node3" class="node">
<title>app/api&#45;v2</title>
<g id="a_node3"><a xlink:href="app/api-v2" xlink:title="api&#45;v2">
<polygon fill="#ffffcc" stroke="black" points="501,-51.5 448.97,-51.5 447,-49.53 447,-33.75 499.03,-33.75 501,-35.72 501,-51.5"/>
<polyline fill="none" stroke="black" points="499.03,-49.53 447,-49.53"/>
<polyline fill="none" stroke="black" points="499.03,-49.53 499.03,-33.75"/>
<polyline fill="none" stroke="black" points="499.03,-49.53 501,-51.5"/>
<text text-anchor="start" x="461.25" y="-38.95" font-family="Helvetica,sans-Serif" font-size="9.00">api&#45;v2</text>
</a>
</g>
</g>
<!-- app/infrastructure -->
<g id="node4" class="node">
<title>app/infrastructure</title>
<g id="a_node4"><a xlink:href="app/infrastructure" xlink:title="infrastructure">
<polygon fill="#ffffcc" stroke="black" points="500.62,-188.25 433.35,-188.25 431.38,-186.28 431.38,-170.5 498.65,-170.5 500.62,-172.47 500.62,-188.25"/>
<polyline fill="none" stroke="black" points="498.65,-186.28 431.38,-186.28"/>
<polyline fill="none" stroke="black" points="498.65,-186.28 498.65,-170.5"/>
<polyline fill="none" stroke="black" points="498.65,-186.28 500.62,-188.25"/>
<text text-anchor="start" x="439.38" y="-175.7" font-family="Helvetica,sans-Serif" font-size="9.00">infrastructure</text>
</a>
</g>
</g>
<!-- app/api&#45;v2&#45;&gt;app/infrastructure -->
<g id="edge1" class="edge">
<title>app/api&#45;v2&#45;&gt;app/infrastructure</title>
<path fill="none" stroke="#000000" stroke-width="2" stroke-opacity="0.200000" d="M483.32,-51.8C491.34,-59.5 502.33,-71.84 507,-85.25 509.59,-92.7 507.53,-95.13 507,-103 505.22,-129.62 514.68,-140.91 499,-162.5 498.51,-163.18 497.98,-163.82 497.42,-164.44"/>
<polygon fill="#000000" fill-opacity="0.200000" stroke="#000000" stroke-width="2" stroke-opacity="0.200000" points="496.13,-162.79 492.81,-168.22 498.79,-166.04 496.13,-162.79"/>
</g>
<!-- app/lib -->
<g id="node5" class="node">
<title>app/lib</title>
<g id="a_node5"><a xlink:href="app/lib" xlink:title="lib">
<polygon fill="#ffffcc" stroke="black" points="501,-103 448.97,-103 447,-101.03 447,-85.25 499.03,-85.25 501,-87.22 501,-103"/>
<polyline fill="none" stroke="black" points="499.03,-101.03 447,-101.03"/>
<polyline fill="none" stroke="black" points="499.03,-101.03 499.03,-85.25"/>
<polyline fill="none" stroke="black" points="499.03,-101.03 501,-103"/>
<text text-anchor="start" x="469.12" y="-90.45" font-family="Helvetica,sans-Serif" font-size="9.00">lib</text>
</a>
</g>
</g>
<!-- app/api&#45;v2&#45;&gt;app/lib -->
<g id="edge2" class="edge">
<title>app/api&#45;v2&#45;&gt;app/lib</title>
<path fill="none" stroke="#000000" stroke-width="2" stroke-opacity="0.200000" d="M477.47,-51.98C478.46,-58.58 478.74,-68.02 478.29,-76.19"/>
<polygon fill="#000000" fill-opacity="0.200000" stroke="#000000" stroke-width="2" stroke-opacity="0.200000" points="476.23,-75.76 477.74,-81.94 480.41,-76.17 476.23,-75.76"/>
</g>
<!-- assert -->
<g id="node6" class="node">
<title>assert</title>
<g id="a_node6"><a xlink:href="https://nodejs.org/api/assert.html" xlink:title="assert">
<path fill="#ffffcc" stroke="grey" d="M495.08,-17.75C495.08,-17.75 452.92,-17.75 452.92,-17.75 449.96,-17.75 447,-14.79 447,-11.83 447,-11.83 447,-5.92 447,-5.92 447,-2.96 449.96,0 452.92,0 452.92,0 495.08,0 495.08,0 498.04,0 501,-2.96 501,-5.92 501,-5.92 501,-11.83 501,-11.83 501,-14.79 498.04,-17.75 495.08,-17.75"/>
<text text-anchor="middle" x="474" y="-5.2" font-family="Helvetica,sans-Serif" font-size="9.00" fill="grey">assert</text>
</a>
</g>
</g>
<!-- app/api&#45;v2&#45;&gt;assert -->
<g id="edge3" class="edge">
<title>app/api&#45;v2&#45;&gt;assert</title>
<path fill="none" stroke="#000000" stroke-dasharray="5,2" stroke-opacity="0.200000" d="M474,-33.28C474,-30.78 474,-27.96 474,-25.16"/>
<polygon fill="#000000" fill-opacity="0.200000" stroke="#000000" stroke-opacity="0.200000" points="476.1,-25.56 474,-19.56 471.9,-25.56 476.1,-25.56"/>
</g>
<!-- app/models -->
<g id="node7" class="node">
<title>app/models</title>
<g id="a_node7"><a xlink:href="app/models" xlink:title="no&#45;orphans">
<polygon fill="#ffffcc" stroke="orange" points="407,-136.75 354.97,-136.75 353,-134.78 353,-119 405.03,-119 407,-120.97 407,-136.75"/>
<polyline fill="none" stroke="orange" points="405.03,-134.78 353,-134.78"/>
<polyline fill="none" stroke="orange" points="405.03,-134.78 405.03,-119"/>
<polyline fill="none" stroke="orange" points="405.03,-134.78 407,-136.75"/>
<text text-anchor="start" x="365" y="-124.2" font-family="Helvetica,sans-Serif" font-size="9.00" fill="orange">models</text>
</a>
</g>
</g>
<!-- app/api&#45;v2&#45;&gt;app/models -->
<g id="edge4" class="edge">
<title>app/api&#45;v2&#45;&gt;app/models</title>
<path fill="none" stroke="#000000" stroke-width="2" stroke-opacity="0.200000" d="M467.33,-51.94C457.39,-64.03 437.71,-86.81 418,-103 413.23,-106.92 407.77,-110.7 402.5,-114.06"/>
<polygon fill="#000000" fill-opacity="0.200000" stroke="#000000" stroke-width="2" stroke-opacity="0.200000" points="401.63,-112.13 397.61,-117.05 403.83,-115.71 401.63,-112.13"/>
</g>
<!-- app/infrastructure&#45;&gt;app/models -->
<g id="edge19" class="edge">
<title>app/infrastructure&#45;&gt;app/models</title>
<path fill="none" stroke="#000000" stroke-width="2" stroke-opacity="0.200000" d="M447.65,-170.02C442.83,-167.69 437.67,-165.09 433,-162.5 421.57,-156.16 409.22,-148.38 399.32,-141.9"/>
<polygon fill="#000000" fill-opacity="0.200000" stroke="#000000" stroke-width="2" stroke-opacity="0.200000" points="400.65,-140.26 394.49,-138.7 398.33,-143.77 400.65,-140.26"/>
</g>
<!-- path -->
<g id="node12" class="node">
<title>path</title>
<g id="a_node12"><a xlink:href="https://nodejs.org/api/path.html" xlink:title="path">
<path fill="#ffffcc" stroke="grey" d="M739.08,-136.75C739.08,-136.75 696.92,-136.75 696.92,-136.75 693.96,-136.75 691,-133.79 691,-130.83 691,-130.83 691,-124.92 691,-124.92 691,-121.96 693.96,-119 696.92,-119 696.92,-119 739.08,-119 739.08,-119 742.04,-119 745,-121.96 745,-124.92 745,-124.92 745,-130.83 745,-130.83 745,-133.79 742.04,-136.75 739.08,-136.75"/>
<text text-anchor="middle" x="718" y="-124.2" font-family="Helvetica,sans-Serif" font-size="9.00" fill="grey">path</text>
</a>
</g>
</g>
<!-- app/infrastructure&#45;&gt;path -->
<g id="edge21" class="edge">
<title>app/infrastructure&#45;&gt;path</title>
<path fill="none" stroke="#000000" stroke-dasharray="5,2" stroke-opacity="0.200000" d="M500.84,-171.34C502.92,-171.03 504.99,-170.74 507,-170.5 540.8,-166.39 627.36,-172.2 660,-162.5 675.11,-158.01 690.46,-148.86 701.58,-141.24"/>
<polygon fill="#000000" fill-opacity="0.200000" stroke="#000000" stroke-opacity="0.200000" points="702.68,-143.03 706.36,-137.85 700.25,-139.6 702.68,-143.03"/>
</g>
<!-- app/domain -->
<g id="node17" class="node">
<title>app/domain</title>
<g id="a_node17"><a xlink:href="app/domain" xlink:title="no&#45;orphans">
<polygon fill="#ccffcc" stroke="orange" points="493,-136.75 440.97,-136.75 439,-134.78 439,-119 491.03,-119 493,-120.97 493,-136.75"/>
<polyline fill="none" stroke="orange" points="491.03,-134.78 439,-134.78"/>
<polyline fill="none" stroke="orange" points="491.03,-134.78 491.03,-119"/>
<polyline fill="none" stroke="orange" points="491.03,-134.78 493,-136.75"/>
<text text-anchor="start" x="450.62" y="-124.2" font-family="Helvetica,sans-Serif" font-size="9.00" fill="orange">domain</text>
</a>
</g>
</g>
<!-- app/infrastructure&#45;&gt;app/domain -->
<g id="edge18" class="edge">
<title>app/infrastructure&#45;&gt;app/domain</title>
<path fill="none" stroke="#000000" stroke-width="2" stroke-opacity="0.200000" d="M466,-170.2C466,-163.65 466,-154.23 466,-146.03"/>
<polygon fill="#000000" fill-opacity="0.200000" stroke="#000000" stroke-width="2" stroke-opacity="0.200000" points="468.1,-146.25 466,-140.25 463.9,-146.25 468.1,-146.25"/>
</g>
<!-- fs/promises -->
<g id="node19" class="node">
<title>fs/promises</title>
<g id="a_node19"><a xlink:href="https://nodejs.org/api/fs.html" xlink:title="promises">
<path fill="#ffffcc" stroke="grey" d="M643.08,-136.75C643.08,-136.75 600.92,-136.75 600.92,-136.75 597.96,-136.75 595,-133.79 595,-130.83 595,-130.83 595,-124.92 595,-124.92 595,-121.96 597.96,-119 600.92,-119 600.92,-119 643.08,-119 643.08,-119 646.04,-119 649,-121.96 649,-124.92 649,-124.92 649,-130.83 649,-130.83 649,-133.79 646.04,-136.75 643.08,-136.75"/>
<text text-anchor="start" x="603.25" y="-124.2" font-family="Helvetica,sans-Serif" font-size="9.00" fill="grey">promises</text>
</a>
</g>
</g>
<!-- app/infrastructure&#45;&gt;fs/promises -->
<g id="edge20" class="edge">
<title>app/infrastructure&#45;&gt;fs/promises</title>
<path fill="none" stroke="#000000" stroke-dasharray="5,2" stroke-opacity="0.200000" d="M500.86,-171.47C502.93,-171.13 504.99,-170.8 507,-170.5 540.16,-165.56 551.16,-175.64 582,-162.5 592.64,-157.97 602.61,-149.61 609.93,-142.36"/>
<polygon fill="#000000" fill-opacity="0.200000" stroke="#000000" stroke-opacity="0.200000" points="611.28,-143.98 613.93,-138.2 608.25,-141.07 611.28,-143.98"/>
</g>
<!-- app/lib&#45;&gt;../get -->
<g id="edge22" class="edge">
<title>app/lib&#45;&gt;../get</title>
<g id="a_edge22"><a xlink:title="not&#45;to&#45;unresolvable">
<path fill="none" stroke="red" stroke-width="2" d="M446.72,-89.15C436.2,-87.74 424.06,-86.25 413,-85.25 379.09,-82.18 291.67,-89.74 260,-77.25 249.53,-73.12 239.82,-65.1 232.58,-57.93"/>
<polygon fill="red" stroke="red" stroke-width="2" points="234.43,-56.82 228.77,-53.91 231.38,-59.71 234.43,-56.82"/>
</a>
</g>
<text text-anchor="middle" x="295.74" y="-76.23" font-family="Helvetica,sans-Serif" font-size="9.00" fill="red">not&#45;to&#45;unresolvable</text>
</g>
<!-- app/lib&#45;&gt;app/api&#45;v2 -->
<g id="edge26" class="edge">
<title>app/lib&#45;&gt;app/api&#45;v2</title>
<path fill="none" stroke="#000000" stroke-width="2" stroke-opacity="0.200000" d="M470.56,-84.95C469.55,-78.4 469.26,-68.98 469.69,-60.78"/>
<polygon fill="#000000" fill-opacity="0.200000" stroke="#000000" stroke-width="2" stroke-opacity="0.200000" points="471.77,-61.16 470.24,-54.99 467.59,-60.77 471.77,-61.16"/>
</g>
<!-- app/controllers -->
<g id="node8" class="node">
<title>app/controllers</title>
<g id="a_node8"><a xlink:href="app/controllers" xlink:title="no&#45;orphans">
<polygon fill="#ffffcc" stroke="orange" points="440.38,-219 383.6,-219 381.62,-217.03 381.62,-201.25 438.4,-201.25 440.38,-203.22 440.38,-219"/>
<polyline fill="none" stroke="orange" points="438.4,-217.03 381.62,-217.03"/>
<polyline fill="none" stroke="orange" points="438.4,-217.03 438.4,-201.25"/>
<polyline fill="none" stroke="orange" points="438.4,-217.03 440.38,-219"/>
<text text-anchor="start" x="389.62" y="-206.45" font-family="Helvetica,sans-Serif" font-size="9.00" fill="orange">controllers</text>
</a>
</g>
</g>
<!-- app/lib&#45;&gt;app/controllers -->
<g id="edge27" class="edge">
<title>app/lib&#45;&gt;app/controllers</title>
<path fill="none" stroke="#000000" stroke-width="2" stroke-opacity="0.200000" d="M448.67,-103.35C445.07,-105.36 441.69,-107.88 439,-111 428.64,-123.03 421.9,-167.49 416.71,-192.23"/>
<polygon fill="#000000" fill-opacity="0.200000" stroke="#000000" stroke-width="2" stroke-opacity="0.200000" points="414.69,-191.65 415.4,-197.97 418.78,-192.59 414.69,-191.65"/>
</g>
<!-- fs -->
<g id="node11" class="node">
<title>fs</title>
<g id="a_node11"><a xlink:href="https://nodejs.org/api/fs.html" xlink:title="fs">
<path fill="#ffffcc" stroke="grey" d="M165.08,-17.75C165.08,-17.75 122.92,-17.75 122.92,-17.75 119.96,-17.75 117,-14.79 117,-11.83 117,-11.83 117,-5.92 117,-5.92 117,-2.96 119.96,0 122.92,0 122.92,0 165.08,0 165.08,0 168.04,0 171,-2.96 171,-5.92 171,-5.92 171,-11.83 171,-11.83 171,-14.79 168.04,-17.75 165.08,-17.75"/>
<text text-anchor="middle" x="144" y="-5.2" font-family="Helvetica,sans-Serif" font-size="9.00" fill="grey">fs</text>
</a>
</g>
</g>
<!-- app/lib&#45;&gt;fs -->
<g id="edge24" class="edge">
<title>app/lib&#45;&gt;fs</title>
<path fill="none" stroke="#000000" stroke-dasharray="5,2" stroke-opacity="0.200000" d="M446.73,-89.05C436.21,-87.62 424.07,-86.15 413,-85.25 400.2,-84.2 192.65,-84.42 182,-77.25 161.21,-63.25 172.92,-46.6 159,-25.75 158.56,-25.09 158.09,-24.43 157.6,-23.77"/>
<polygon fill="#000000" fill-opacity="0.200000" stroke="#000000" stroke-opacity="0.200000" points="159.29,-22.52 153.8,-19.31 156.09,-25.24 159.29,-22.52"/>
</g>
<!-- http -->
<g id="node16" class="node">
<title>http</title>
<g id="a_node16"><a xlink:href="https://nodejs.org/api/http.html" xlink:title="http">
<path fill="#ffffcc" stroke="grey" d="M766.08,-17.75C766.08,-17.75 723.92,-17.75 723.92,-17.75 720.96,-17.75 718,-14.79 718,-11.83 718,-11.83 718,-5.92 718,-5.92 718,-2.96 720.96,0 723.92,0 723.92,0 766.08,0 766.08,0 769.04,0 772,-2.96 772,-5.92 772,-5.92 772,-11.83 772,-11.83 772,-14.79 769.04,-17.75 766.08,-17.75"/>
<text text-anchor="middle" x="745" y="-5.2" font-family="Helvetica,sans-Serif" font-size="9.00" fill="grey">http</text>
</a>
</g>
</g>
<!-- app/lib&#45;&gt;http -->
<g id="edge25" class="edge">
<title>app/lib&#45;&gt;http</title>
<path fill="none" stroke="#000000" stroke-dasharray="5,2" stroke-opacity="0.200000" d="M501.45,-92.95C547.43,-92.31 637.86,-89.48 667,-77.25 695.22,-65.41 720.54,-39.33 734.25,-23.31"/>
<polygon fill="#000000" fill-opacity="0.200000" stroke="#000000" stroke-opacity="0.200000" points="735.55,-25.02 737.78,-19.07 732.33,-22.33 735.55,-25.02"/>
</g>
<!-- child_process -->
<g id="node20" class="node">
<title>child_process</title>
<g id="a_node20"><a xlink:href="https://nodejs.org/api/child_process.html" xlink:title="child_process">
<path fill="#ffffcc" stroke="grey" d="M654.58,-51.5C654.58,-51.5 593.42,-51.5 593.42,-51.5 590.46,-51.5 587.5,-48.54 587.5,-45.58 587.5,-45.58 587.5,-39.67 587.5,-39.67 587.5,-36.71 590.46,-33.75 593.42,-33.75 593.42,-33.75 654.58,-33.75 654.58,-33.75 657.54,-33.75 660.5,-36.71 660.5,-39.67 660.5,-39.67 660.5,-45.58 660.5,-45.58 660.5,-48.54 657.54,-51.5 654.58,-51.5"/>
<text text-anchor="middle" x="624" y="-38.95" font-family="Helvetica,sans-Serif" font-size="9.00" fill="grey">child_process</text>
</a>
</g>
</g>
<!-- app/lib&#45;&gt;child_process -->
<g id="edge23" class="edge">
<title>app/lib&#45;&gt;child_process</title>
<path fill="none" stroke="#000000" stroke-dasharray="5,2" stroke-opacity="0.200000" d="M501.26,-93.03C523.77,-92.05 556.11,-88.52 582,-77.25 592.92,-72.5 603.38,-64.14 611.13,-56.94"/>
<polygon fill="#000000" fill-opacity="0.200000" stroke="#000000" stroke-opacity="0.200000" points="612.56,-58.48 615.41,-52.8 609.63,-55.47 612.56,-58.48"/>
</g>
<!-- app/models&#45;&gt;app/lib -->
<g id="edge36" class="edge">
<title>app/models&#45;&gt;app/lib</title>
<path fill="none" stroke="#000000" stroke-width="2" stroke-opacity="0.200000" d="M397.37,-118.59C403.21,-115.98 409.82,-113.19 416,-111 423.07,-108.49 430.74,-106.14 438.12,-104.05"/>
<polygon fill="#000000" fill-opacity="0.200000" stroke="#000000" stroke-width="2" stroke-opacity="0.200000" points="438.44,-106.14 443.68,-102.53 437.33,-102.09 438.44,-106.14"/>
</g>
<!-- app/templates -->
<g id="node9" class="node">
<title>app/templates</title>
<g id="a_node9"><a xlink:href="app/templates" xlink:title="templates">
<polygon fill="#ffffcc" stroke="black" points="326.88,-103 273.1,-103 271.12,-101.03 271.12,-85.25 324.9,-85.25 326.88,-87.22 326.88,-103"/>
<polyline fill="none" stroke="black" points="324.9,-101.03 271.12,-101.03"/>
<polyline fill="none" stroke="black" points="324.9,-101.03 324.9,-85.25"/>
<polyline fill="none" stroke="black" points="324.9,-101.03 326.88,-103"/>
<text text-anchor="start" x="279.12" y="-90.45" font-family="Helvetica,sans-Serif" font-size="9.00">templates</text>
</a>
</g>
</g>
<!-- app/models&#45;&gt;app/templates -->
<g id="edge32" class="edge">
<title>app/models&#45;&gt;app/templates</title>
<g id="a_edge32"><a xlink:title="no&#45;circular">
<path fill="none" stroke="orange" stroke-width="2" d="M354.7,-118.53C347.94,-116.02 340.52,-113.17 333.36,-110.36"/>
<polygon fill="orange" stroke="orange" stroke-width="2" points="325.29,-104.84 318.94,-104.54 323.72,-108.73 325.29,-104.84"/>
<polyline fill="none" stroke="orange" stroke-width="2" points="325.43,-107.16 328.21,-108.28"/>
<ellipse fill="none" stroke="orange" stroke-width="2" cx="331.37" cy="-109.55" rx="2.4" ry="2.4"/>
</a>
</g>
<text text-anchor="middle" x="313.63" y="-112.35" font-family="Helvetica,sans-Serif" font-size="9.00" fill="orange">no&#45;circular</text>
</g>
<!-- app/snip.js -->
<g id="node10" class="node">
<title>app/snip.js</title>
<g id="a_node10"><a xlink:href="app/snip.js" xlink:title="snip.js">
<path fill="#ffffcc" stroke="black" d="M377.08,-51.5C377.08,-51.5 334.92,-51.5 334.92,-51.5 331.96,-51.5 329,-48.54 329,-45.58 329,-45.58 329,-39.67 329,-39.67 329,-36.71 331.96,-33.75 334.92,-33.75 334.92,-33.75 377.08,-33.75 377.08,-33.75 380.04,-33.75 383,-36.71 383,-39.67 383,-39.67 383,-45.58 383,-45.58 383,-48.54 380.04,-51.5 377.08,-51.5"/>
<text text-anchor="start" x="342.88" y="-38.95" font-family="Helvetica,sans-Serif" font-size="9.00">snip.js</text>
</a>
</g>
</g>
<!-- app/models&#45;&gt;app/snip.js -->
<g id="edge30" class="edge">
<title>app/models&#45;&gt;app/snip.js</title>
<path fill="none" stroke="#000000" stroke-width="2" stroke-opacity="0.200000" d="M397.55,-118.55C403.58,-114.72 409.65,-109.55 413,-103 416.59,-95.97 416.57,-92.28 413,-85.25 406.64,-72.73 394.56,-63.08 383.15,-56.24"/>
<polygon fill="#000000" fill-opacity="0.200000" stroke="#000000" stroke-width="2" stroke-opacity="0.200000" points="384.35,-54.5 378.08,-53.42 382.3,-58.17 384.35,-54.5"/>
</g>
<!-- app/models&#45;&gt;fs -->
<g id="edge28" class="edge">
<title>app/models&#45;&gt;fs</title>
<path fill="none" stroke="#000000" stroke-dasharray="5,2" stroke-opacity="0.200000" d="M352.69,-127.06C282.77,-126.87 100.34,-122 65,-77.25 50.82,-59.29 50.5,-43.46 65,-25.75 70.75,-18.73 90.97,-14.75 109.52,-12.53"/>
<polygon fill="#000000" fill-opacity="0.200000" stroke="#000000" stroke-opacity="0.200000" points="109.53,-14.64 115.27,-11.9 109.08,-10.46 109.53,-14.64"/>
</g>
<!-- querystring -->
<g id="node13" class="node">
<title>querystring</title>
<g id="a_node13"><a xlink:href="https://nodejs.org/api/querystring.html" xlink:title="querystring">
<path fill="#ffffcc" stroke="grey" d="M396.96,-17.75C396.96,-17.75 347.04,-17.75 347.04,-17.75 344.08,-17.75 341.12,-14.79 341.12,-11.83 341.12,-11.83 341.12,-5.92 341.12,-5.92 341.12,-2.96 344.08,0 347.04,0 347.04,0 396.96,0 396.96,0 399.92,0 402.88,-2.96 402.88,-5.92 402.88,-5.92 402.88,-11.83 402.88,-11.83 402.88,-14.79 399.92,-17.75 396.96,-17.75"/>
<text text-anchor="middle" x="372" y="-5.2" font-family="Helvetica,sans-Serif" font-size="9.00" fill="grey">querystring</text>
</a>
</g>
</g>
<!-- app/models&#45;&gt;querystring -->
<g id="edge35" class="edge">
<title>app/models&#45;&gt;querystring</title>
<path fill="none" stroke="#000000" stroke-dasharray="5,2" stroke-opacity="0.200000" d="M404.3,-118.58C413.24,-115.8 423.49,-112.92 433,-111 484.5,-100.6 632.93,-117.24 667,-77.25 681.84,-59.83 682.9,-42.22 667,-25.75 658.27,-16.71 453.53,-18.69 441,-17.75 431.13,-17.01 420.5,-15.94 410.6,-14.82"/>
<polygon fill="#000000" fill-opacity="0.200000" stroke="#000000" stroke-opacity="0.200000" points="410.91,-12.74 404.71,-14.14 410.43,-16.91 410.91,-12.74"/>
</g>
<!-- crypto -->
<g id="node14" class="node">
<title>crypto</title>
<g id="a_node14"><a xlink:href="https://nodejs.org/api/crypto.html" xlink:title="crypto">
<path fill="#ffffcc" stroke="grey" d="M799.08,-103C799.08,-103 756.92,-103 756.92,-103 753.96,-103 751,-100.04 751,-97.08 751,-97.08 751,-91.17 751,-91.17 751,-88.21 753.96,-85.25 756.92,-85.25 756.92,-85.25 799.08,-85.25 799.08,-85.25 802.04,-85.25 805,-88.21 805,-91.17 805,-91.17 805,-97.08 805,-97.08 805,-100.04 802.04,-103 799.08,-103"/>
<text text-anchor="middle" x="778" y="-90.45" font-family="Helvetica,sans-Serif" font-size="9.00" fill="grey">crypto</text>
</a>
</g>
</g>
<!-- app/models&#45;&gt;crypto -->
<g id="edge31" class="edge">
<title>app/models&#45;&gt;crypto</title>
<path fill="none" stroke="#000000" stroke-dasharray="5,2" stroke-opacity="0.200000" d="M402.91,-118.57C412.13,-115.6 422.95,-112.61 433,-111 500.83,-100.16 673.81,-111.27 742,-103 742.44,-102.95 742.88,-102.89 743.32,-102.83"/>
<polygon fill="#000000" fill-opacity="0.200000" stroke="#000000" stroke-opacity="0.200000" points="743.48,-104.93 749.08,-101.92 742.82,-100.78 743.48,-104.93"/>
</g>
<!-- app/models&#45;&gt;http -->
<g id="edge37" class="edge">
<title>app/models&#45;&gt;http</title>
<path fill="none" stroke="#000000" stroke-dasharray="5,2" stroke-opacity="0.200000" d="M403.18,-118.53C412.34,-115.6 423.05,-112.63 433,-111 483.9,-102.64 615.45,-117.35 665,-103 686.76,-96.7 693.29,-93.58 709,-77.25 723.56,-62.11 733.89,-39.91 739.64,-25.19"/>
<polygon fill="#000000" fill-opacity="0.200000" stroke="#000000" stroke-opacity="0.200000" points="741.57,-26.02 741.7,-19.66 737.64,-24.55 741.57,-26.02"/>
</g>
<!-- app/features -->
<g id="node18" class="node">
<title>app/features</title>
<g id="a_node18"><a xlink:href="app/features" xlink:title="features">
<polygon fill="#ffffcc" stroke="black" points="407,-103 354.97,-103 353,-101.03 353,-85.25 405.03,-85.25 407,-87.22 407,-103"/>
<polyline fill="none" stroke="black" points="405.03,-101.03 353,-101.03"/>
<polyline fill="none" stroke="black" points="405.03,-101.03 405.03,-85.25"/>
<polyline fill="none" stroke="black" points="405.03,-101.03 407,-103"/>
<text text-anchor="start" x="363.5" y="-90.45" font-family="Helvetica,sans-Serif" font-size="9.00">features</text>
</a>
</g>
</g>
<!-- app/models&#45;&gt;app/features -->
<g id="edge33" class="edge">
<title>app/models&#45;&gt;app/features</title>
<path fill="none" stroke="#000000" stroke-width="2" stroke-opacity="0.200000" d="M380,-118.53C380,-116.48 380,-114.2 380,-111.89"/>
<polygon fill="#000000" fill-opacity="0.200000" stroke="#000000" stroke-width="2" stroke-opacity="0.200000" points="382.1,-112.33 380,-106.33 377.9,-112.33 382.1,-112.33"/>
</g>
<!-- vm -->
<g id="node21" class="node">
<title>vm</title>
<g id="a_node21"><a xlink:href="https://nodejs.org/api/vm.html" xlink:title="vm">
<path fill="#ffffcc" stroke="grey" d="M227.08,-103C227.08,-103 184.92,-103 184.92,-103 181.96,-103 179,-100.04 179,-97.08 179,-97.08 179,-91.17 179,-91.17 179,-88.21 181.96,-85.25 184.92,-85.25 184.92,-85.25 227.08,-85.25 227.08,-85.25 230.04,-85.25 233,-88.21 233,-91.17 233,-91.17 233,-97.08 233,-97.08 233,-100.04 230.04,-103 227.08,-103"/>
<text text-anchor="middle" x="206" y="-90.45" font-family="Helvetica,sans-Serif" font-size="9.00" fill="grey">vm</text>
</a>
</g>
</g>
<!-- app/models&#45;&gt;vm -->
<g id="edge29" class="edge">
<title>app/models&#45;&gt;vm</title>
<path fill="none" stroke="#000000" stroke-dasharray="5,2" stroke-opacity="0.200000" d="M352.7,-122.52C324.82,-117.98 280.3,-110.5 242,-103 241.57,-102.92 241.13,-102.83 240.7,-102.74"/>
<polygon fill="#000000" fill-opacity="0.200000" stroke="#000000" stroke-opacity="0.200000" points="241.27,-100.72 234.97,-101.57 240.43,-104.83 241.27,-100.72"/>
</g>
<!-- https -->
<g id="node22" class="node">
<title>https</title>
<g id="a_node22"><a xlink:href="https://nodejs.org/api/https.html" xlink:title="https">
<path fill="#ffffcc" stroke="grey" d="M637.08,-17.75C637.08,-17.75 594.92,-17.75 594.92,-17.75 591.96,-17.75 589,-14.79 589,-11.83 589,-11.83 589,-5.92 589,-5.92 589,-2.96 591.96,0 594.92,0 594.92,0 637.08,0 637.08,0 640.04,0 643,-2.96 643,-5.92 643,-5.92 643,-11.83 643,-11.83 643,-14.79 640.04,-17.75 637.08,-17.75"/>
<text text-anchor="middle" x="616" y="-5.2" font-family="Helvetica,sans-Serif" font-size="9.00" fill="grey">https</text>
</a>
</g>
</g>
<!-- app/models&#45;&gt;https -->
<g id="edge34" class="edge">
<title>app/models&#45;&gt;https</title>
<path fill="none" stroke="#000000" stroke-dasharray="5,2" stroke-opacity="0.200000" d="M403.18,-118.55C412.35,-115.63 423.05,-112.66 433,-111 477.09,-103.64 590.82,-114.57 634,-103 657.76,-96.63 670.28,-98.31 683,-77.25 694.84,-57.66 697.2,-43.7 683,-25.75 678.74,-20.36 664.79,-16.61 650.72,-14.11"/>
<polygon fill="#000000" fill-opacity="0.200000" stroke="#000000" stroke-opacity="0.200000" points="651.15,-12.06 644.89,-13.16 650.48,-16.2 651.15,-12.06"/>
</g>
<!-- util -->
<g id="node23" class="node">
<title>util</title>
<g id="a_node23"><a xlink:href="https://nodejs.org/api/util.html" xlink:title="util">
<path fill="#ffffcc" stroke="grey" d="M119.08,-51.5C119.08,-51.5 76.92,-51.5 76.92,-51.5 73.96,-51.5 71,-48.54 71,-45.58 71,-45.58 71,-39.67 71,-39.67 71,-36.71 73.96,-33.75 76.92,-33.75 76.92,-33.75 119.08,-33.75 119.08,-33.75 122.04,-33.75 125,-36.71 125,-39.67 125,-39.67 125,-45.58 125,-45.58 125,-48.54 122.04,-51.5 119.08,-51.5"/>
<text text-anchor="middle" x="98" y="-38.95" font-family="Helvetica,sans-Serif" font-size="9.00" fill="grey">util</text>
</a>
</g>
</g>
<!-- app/models&#45;&gt;util -->
<g id="edge38" class="edge">
<title>app/models&#45;&gt;util</title>
<path fill="none" stroke="#000000" stroke-dasharray="5,2" stroke-opacity="0.200000" d="M352.61,-124.26C328.72,-121.27 293.53,-115.12 265,-103 252.12,-97.53 252.19,-89.91 239,-85.25 197.38,-70.54 181.03,-93.54 140,-77.25 128.93,-72.86 118.47,-64.5 110.76,-57.21"/>
<polygon fill="#000000" fill-opacity="0.200000" stroke="#000000" stroke-opacity="0.200000" points="112.24,-55.73 106.5,-53 109.29,-58.72 112.24,-55.73"/>
</g>
<!-- app/controllers&#45;&gt;app/MyController.js -->
<g id="edge8" class="edge">
<title>app/controllers&#45;&gt;app/MyController.js</title>
<path fill="none" stroke="#000000" stroke-width="2" stroke-opacity="0.200000" d="M393.93,-200.81C388.51,-198.16 382.39,-195.18 376.54,-192.33"/>
<polygon fill="#000000" fill-opacity="0.200000" stroke="#000000" stroke-width="2" stroke-opacity="0.200000" points="377.86,-190.64 371.54,-189.9 376.02,-194.41 377.86,-190.64"/>
</g>
<!-- app/controllers&#45;&gt;app/infrastructure -->
<g id="edge16" class="edge">
<title>app/controllers&#45;&gt;app/infrastructure</title>
<path fill="none" stroke="#000000" stroke-width="2" stroke-opacity="0.200000" d="M426.91,-200.81C431.74,-198.28 437.15,-195.45 442.38,-192.72"/>
<polygon fill="#000000" fill-opacity="0.200000" stroke="#000000" stroke-width="2" stroke-opacity="0.200000" points="443.29,-194.62 447.63,-189.98 441.34,-190.89 443.29,-194.62"/>
</g>
<!-- app/controllers&#45;&gt;app/lib -->
<g id="edge13" class="edge">
<title>app/controllers&#45;&gt;app/lib</title>
<path fill="none" stroke="#000000" stroke-width="2" stroke-opacity="0.200000" d="M408.97,-200.92C408.17,-179.86 415.27,-124.63 427,-111 430.11,-107.39 434.15,-104.59 438.56,-102.43"/>
<polygon fill="#000000" fill-opacity="0.200000" stroke="#000000" stroke-width="2" stroke-opacity="0.200000" points="439.16,-104.45 443.97,-100.29 437.62,-100.54 439.16,-104.45"/>
</g>
<!-- app/controllers&#45;&gt;app/models -->
<g id="edge5" class="edge">
<title>app/controllers&#45;&gt;app/models</title>
<path fill="none" stroke="#000000" stroke-width="2" stroke-opacity="0.200000" d="M408.09,-200.8C405.32,-192.95 401,-180.88 397,-170.5 393.77,-162.12 390.01,-152.87 386.85,-145.22"/>
<polygon fill="#000000" fill-opacity="0.200000" stroke="#000000" stroke-width="2" stroke-opacity="0.200000" points="388.89,-144.66 384.65,-139.92 385.01,-146.27 388.89,-144.66"/>
</g>
<!-- app/controllers&#45;&gt;app/templates -->
<g id="edge6" class="edge">
<title>app/controllers&#45;&gt;app/templates</title>
<path fill="none" stroke="#000000" stroke-width="2" stroke-opacity="0.200000" d="M381.25,-207.92C350.86,-206 306.66,-201.02 296,-188.25 278.11,-166.82 285.7,-131.97 292.55,-111.52"/>
<polygon fill="#000000" fill-opacity="0.200000" stroke="#000000" stroke-width="2" stroke-opacity="0.200000" points="294.45,-112.45 294.52,-106.09 290.5,-111.02 294.45,-112.45"/>
</g>
<!-- app/controllers&#45;&gt;app/snip.js -->
<g id="edge7" class="edge">
<title>app/controllers&#45;&gt;app/snip.js</title>
<path fill="none" stroke="#000000" stroke-width="2" stroke-opacity="0.200000" d="M381.26,-207.26C353.91,-204.85 316.25,-199.54 307,-188.25 302,-182.15 305.55,-178.26 307,-170.5 307.13,-169.78 336.46,-94.06 349.67,-59.96"/>
<polygon fill="#000000" fill-opacity="0.200000" stroke="#000000" stroke-width="2" stroke-opacity="0.200000" points="351.49,-61.07 351.7,-54.71 347.58,-59.55 351.49,-61.07"/>
</g>
<!-- app/controllers&#45;&gt;fs -->
<g id="edge9" class="edge">
<title>app/controllers&#45;&gt;fs</title>
<path fill="none" stroke="#000000" stroke-dasharray="5,2" stroke-opacity="0.200000" d="M381.15,-208.91C312.71,-208.14 146.29,-204.59 93,-188.25 46.12,-173.87 0,-177.91 0,-128.88 0,-128.88 0,-128.88 0,-93.12 0,-55.57 18.9,-45.25 51,-25.75 68.42,-15.16 90.89,-11.12 109.38,-9.76"/>
<polygon fill="#000000" fill-opacity="0.200000" stroke="#000000" stroke-opacity="0.200000" points="109.13,-11.88 115,-9.43 108.89,-7.68 109.13,-11.88"/>
</g>
<!-- app/controllers&#45;&gt;path -->
<g id="edge10" class="edge">
<title>app/controllers&#45;&gt;path</title>
<path fill="none" stroke="#000000" stroke-dasharray="5,2" stroke-opacity="0.200000" d="M440.62,-206.5C502.15,-200.65 641.52,-185.26 683,-162.5 692.12,-157.5 700.58,-149.5 706.9,-142.56"/>
<polygon fill="#000000" fill-opacity="0.200000" stroke="#000000" stroke-opacity="0.200000" points="708.33,-144.12 710.68,-138.21 705.16,-141.36 708.33,-144.12"/>
</g>
<!-- app/controllers&#45;&gt;querystring -->
<g id="edge11" class="edge">
<title>app/controllers&#45;&gt;querystring</title>
<path fill="none" stroke="#000000" stroke-dasharray="5,2" stroke-opacity="0.200000" d="M381.32,-208.8C295.3,-207.05 52,-196.17 52,-128.88 52,-128.88 52,-128.88 52,-93.12 52,-62.63 41.77,-45.51 65,-25.75 75.65,-16.69 287.87,-19.12 333.72,-17.36"/>
<polygon fill="#000000" fill-opacity="0.200000" stroke="#000000" stroke-opacity="0.200000" points="333.61,-19.47 339.47,-17 333.35,-15.28 333.61,-19.47"/>
</g>
<!-- app/controllers&#45;&gt;crypto -->
<g id="edge12" class="edge">
<title>app/controllers&#45;&gt;crypto</title>
<path fill="none" stroke="#000000" stroke-dasharray="5,2" stroke-opacity="0.200000" d="M440.83,-209.01C514.88,-208.12 704.47,-201.94 751,-162.5 766.55,-149.32 773.23,-125.88 776.04,-110.42"/>
<polygon fill="#000000" fill-opacity="0.200000" stroke="#000000" stroke-opacity="0.200000" points="778.09,-110.91 776.95,-104.66 773.94,-110.26 778.09,-110.91"/>
</g>
<!-- app/genuine.js -->
<g id="node15" class="node">
<title>app/genuine.js</title>
<g id="a_node15"><a xlink:href="app/genuine.js" xlink:title="genuine.js">
<path fill="#ffffcc" stroke="black" d="M565.46,-188.25C565.46,-188.25 518.54,-188.25 518.54,-188.25 515.58,-188.25 512.62,-185.29 512.62,-182.33 512.62,-182.33 512.62,-176.42 512.62,-176.42 512.62,-173.46 515.58,-170.5 518.54,-170.5 518.54,-170.5 565.46,-170.5 565.46,-170.5 568.42,-170.5 571.38,-173.46 571.38,-176.42 571.38,-176.42 571.38,-182.33 571.38,-182.33 571.38,-185.29 568.42,-188.25 565.46,-188.25"/>
<text text-anchor="start" x="520.62" y="-175.7" font-family="Helvetica,sans-Serif" font-size="9.00">genuine.js</text>
</a>
</g>
</g>
<!-- app/controllers&#45;&gt;app/genuine.js -->
<g id="edge14" class="edge">
<title>app/controllers&#45;&gt;app/genuine.js</title>
<path fill="none" stroke="#000000" stroke-width="2" stroke-opacity="0.200000" d="M440.85,-202.69C457.81,-199.03 479.64,-194.28 503.64,-188.99"/>
<polygon fill="#000000" fill-opacity="0.200000" stroke="#000000" stroke-width="2" stroke-opacity="0.200000" points="503.86,-191.09 509.26,-187.74 502.95,-186.99 503.86,-191.09"/>
</g>
<!-- app/controllers&#45;&gt;http -->
<g id="edge15" class="edge">
<title>app/controllers&#45;&gt;http</title>
<path fill="none" stroke="#000000" stroke-dasharray="5,2" stroke-opacity="0.200000" d="M440.7,-209.66C535.4,-210.6 824,-207.03 824,-128.88 824,-128.88 824,-128.88 824,-93.12 824,-60.34 791.37,-35.31 768.05,-21.61"/>
<polygon fill="#000000" fill-opacity="0.200000" stroke="#000000" stroke-opacity="0.200000" points="769.33,-19.92 763.07,-18.79 767.26,-23.57 769.33,-19.92"/>
</g>
<!-- app/templates&#45;&gt;app/models -->
<g id="edge44" class="edge">
<title>app/templates&#45;&gt;app/models</title>
<path fill="none" stroke="#000000" stroke-width="2" stroke-opacity="0.200000" d="M324.15,-103.41C333.84,-107.01 344.89,-111.3 354.61,-115.21"/>
<polygon fill="#000000" fill-opacity="0.200000" stroke="#000000" stroke-width="2" stroke-opacity="0.200000" points="353.58,-117.06 359.93,-117.39 355.17,-113.18 353.58,-117.06"/>
</g>
<!-- app/templates&#45;&gt;app/snip.js -->
<g id="edge46" class="edge">
<title>app/templates&#45;&gt;app/snip.js</title>
<path fill="none" stroke="#000000" stroke-width="2" stroke-opacity="0.200000" d="M308.41,-84.95C316.94,-77.54 329.69,-66.47 339.85,-57.65"/>
<polygon fill="#000000" fill-opacity="0.200000" stroke="#000000" stroke-width="2" stroke-opacity="0.200000" points="340.94,-59.48 344.1,-53.96 338.19,-56.31 340.94,-59.48"/>
</g>
<!-- app/templates&#45;&gt;fs -->
<g id="edge45" class="edge">
<title>app/templates&#45;&gt;fs</title>
<path fill="none" stroke="#000000" stroke-dasharray="5,2" stroke-opacity="0.200000" d="M270.79,-86.72C267.83,-86.17 264.86,-85.66 262,-85.25 250.75,-83.62 168.64,-84.64 160,-77.25 145.22,-64.6 142.73,-41.03 142.9,-25.39"/>
<polygon fill="#000000" fill-opacity="0.200000" stroke="#000000" stroke-opacity="0.200000" points="144.99,-25.63 143.12,-19.55 140.8,-25.47 144.99,-25.63"/>
</g>
<!-- app/templates&#45;&gt;util -->
<g id="edge47" class="edge">
<title>app/templates&#45;&gt;util</title>
<path fill="none" stroke="#000000" stroke-dasharray="5,2" stroke-opacity="0.200000" d="M270.79,-86.67C267.83,-86.13 264.86,-85.64 262,-85.25 233.76,-81.38 160.17,-88.53 134,-77.25 124.18,-73.02 115.37,-64.9 108.92,-57.71"/>
<polygon fill="#000000" fill-opacity="0.200000" stroke="#000000" stroke-opacity="0.200000" points="110.54,-56.37 105.07,-53.14 107.33,-59.08 110.54,-56.37"/>
</g>
<!-- app/snip.js&#45;&gt;fs -->
<g id="edge39" class="edge">
<title>app/snip.js&#45;&gt;fs</title>
<path fill="none" stroke="#000000" stroke-dasharray="5,2" stroke-opacity="0.200000" d="M328.57,-37.01C308.93,-33.75 281.86,-29.34 258,-25.75 231.37,-21.74 201.19,-17.55 178.57,-14.49"/>
<polygon fill="#000000" fill-opacity="0.200000" stroke="#000000" stroke-opacity="0.200000" points="178.93,-12.42 172.7,-13.69 178.37,-16.58 178.93,-12.42"/>
</g>
<!-- app/snip.js&#45;&gt;querystring -->
<g id="edge42" class="edge">
<title>app/snip.js&#45;&gt;querystring</title>
<path fill="none" stroke="#000000" stroke-dasharray="5,2" stroke-opacity="0.200000" d="M360.2,-33.28C361.54,-30.64 363.05,-27.63 364.54,-24.67"/>
<polygon fill="#000000" fill-opacity="0.200000" stroke="#000000" stroke-opacity="0.200000" points="366.37,-25.71 367.2,-19.4 362.62,-23.82 366.37,-25.71"/>
</g>
<!-- app/snip.js&#45;&gt;http -->
<g id="edge40" class="edge">
<title>app/snip.js&#45;&gt;http</title>
<path fill="none" stroke="#000000" stroke-dasharray="5,2" stroke-opacity="0.200000" d="M383.41,-35.45C399.99,-31.98 421.61,-27.92 441,-25.75 532.94,-15.45 556.65,-23.31 649,-17.75 669.48,-16.52 692.39,-14.66 710.68,-13.05"/>
<polygon fill="#000000" fill-opacity="0.200000" stroke="#000000" stroke-opacity="0.200000" points="710.41,-15.19 716.2,-12.56 710.04,-11 710.41,-15.19"/>
</g>
<!-- app/snip.js&#45;&gt;https -->
<g id="edge41" class="edge">
<title>app/snip.js&#45;&gt;https</title>
<path fill="none" stroke="#000000" stroke-dasharray="5,2" stroke-opacity="0.200000" d="M383.45,-35.82C400.05,-32.48 421.67,-28.43 441,-25.75 489.52,-19.03 546.03,-14.5 581.41,-12.05"/>
<polygon fill="#000000" fill-opacity="0.200000" stroke="#000000" stroke-opacity="0.200000" points="581.27,-14.16 587.12,-11.66 580.99,-9.97 581.27,-14.16"/>
</g>
<!-- url -->
<g id="node24" class="node">
<title>url</title>
<g id="a_node24"><a xlink:href="https://nodejs.org/api/url.html" xlink:title="url">
<path fill="#ffffcc" stroke="grey" d="M323.08,-17.75C323.08,-17.75 280.92,-17.75 280.92,-17.75 277.96,-17.75 275,-14.79 275,-11.83 275,-11.83 275,-5.92 275,-5.92 275,-2.96 277.96,0 280.92,0 280.92,0 323.08,0 323.08,0 326.04,0 329,-2.96 329,-5.92 329,-5.92 329,-11.83 329,-11.83 329,-14.79 326.04,-17.75 323.08,-17.75"/>
<text text-anchor="middle" x="302" y="-5.2" font-family="Helvetica,sans-Serif" font-size="9.00" fill="grey">url</text>
</a>
</g>
</g>
<!-- app/snip.js&#45;&gt;url -->
<g id="edge43" class="edge">
<title>app/snip.js&#45;&gt;url</title>
<path fill="none" stroke="#000000" stroke-dasharray="5,2" stroke-opacity="0.200000" d="M341.81,-33.28C335.81,-29.76 328.71,-25.58 322.18,-21.74"/>
<polygon fill="#000000" fill-opacity="0.200000" stroke="#000000" stroke-opacity="0.200000" points="323.45,-20.05 317.21,-18.82 321.32,-23.67 323.45,-20.05"/>
</g>
<!-- app/genuine.js&#45;&gt;crypto -->
<g id="edge17" class="edge">
<title>app/genuine.js&#45;&gt;crypto</title>
<path fill="none" stroke="#000000" stroke-dasharray="5,2" stroke-opacity="0.200000" d="M571.72,-177.53C601.97,-176.13 646.31,-172.4 660,-162.5 680.61,-147.59 664.43,-125.97 685,-111 695.34,-103.47 729.41,-105.26 742,-103 742.43,-102.92 742.87,-102.84 743.31,-102.76"/>
<polygon fill="#000000" fill-opacity="0.200000" stroke="#000000" stroke-opacity="0.200000" points="743.55,-104.85 749.04,-101.65 742.75,-100.73 743.55,-104.85"/>
</g>
<!-- app/workers -->
<g id="node25" class="node">
<title>app/workers</title>
<g id="a_node25"><a xlink:href="app/workers" xlink:title="workers">
<polygon fill="#ffffcc" stroke="black" points="378,-249.75 325.97,-249.75 324,-247.78 324,-232 376.03,-232 378,-233.97 378,-249.75"/>
<polyline fill="none" stroke="black" points="376.03,-247.78 324,-247.78"/>
<polyline fill="none" stroke="black" points="376.03,-247.78 376.03,-232"/>
<polyline fill="none" stroke="black" points="376.03,-247.78 378,-249.75"/>
<text text-anchor="start" x="334.88" y="-237.2" font-family="Helvetica,sans-Serif" font-size="9.00">workers</text>
</a>
</g>
</g>
<!-- app/workers&#45;&gt;app/models -->
<g id="edge49" class="edge">
<title>app/workers&#45;&gt;app/models</title>
<path fill="none" stroke="#000000" stroke-width="2" stroke-opacity="0.200000" d="M339.11,-231.67C322.01,-218.82 293.89,-193.07 307,-170.5 315.21,-156.37 330.21,-146.64 344.49,-140.16"/>
<polygon fill="#000000" fill-opacity="0.200000" stroke="#000000" stroke-width="2" stroke-opacity="0.200000" points="345.23,-142.12 349.96,-137.87 343.62,-138.24 345.23,-142.12"/>
</g>
<!-- app/workers&#45;&gt;app/controllers -->
<g id="edge48" class="edge">
<title>app/workers&#45;&gt;app/controllers</title>
<path fill="none" stroke="#000000" stroke-width="2" stroke-opacity="0.200000" d="M368.35,-231.56C373.87,-228.91 380.09,-225.93 386.04,-223.08"/>
<polygon fill="#000000" fill-opacity="0.200000" stroke="#000000" stroke-width="2" stroke-opacity="0.200000" points="386.66,-225.12 391.16,-220.63 384.84,-221.33 386.66,-225.12"/>
</g>
</g>
</svg>
