<?xml version="1.0" encoding="UTF-8" standalone="no"?>
<!DOCTYPE svg PUBLIC "-//W3C//DTD SVG 1.1//EN"
 "http://www.w3.org/Graphics/SVG/1.1/DTD/svg11.dtd">
<!-- Generated by graphviz version 9.0.0 (20230911.1827)
 -->
<!-- Title: dependency&#45;cruiser output Pages: 1 -->
<svg width="753pt" height="292pt"
 viewBox="0.00 0.00 753.00 291.50" xmlns="http://www.w3.org/2000/svg" xmlns:xlink="http://www.w3.org/1999/xlink">
<g id="graph0" class="graph" transform="scale(1 1) rotate(0) translate(4 287.5)">
<title>dependency&#45;cruiser output</title>
<polygon fill="white" stroke="none" points="-4,4 -4,-287.5 749,-287.5 749,4 -4,4"/>
<g id="clust1" class="cluster">
<title>cluster_..</title>
<path fill="#ffffff" stroke="black" stroke-width="2" d="M231,-25.75C231,-25.75 277,-25.75 277,-25.75 283,-25.75 289,-31.75 289,-37.75 289,-37.75 289,-65.25 289,-65.25 289,-71.25 283,-77.25 277,-77.25 277,-77.25 231,-77.25 231,-77.25 225,-77.25 219,-71.25 219,-65.25 219,-65.25 219,-37.75 219,-37.75 219,-31.75 225,-25.75 231,-25.75"/>
<text text-anchor="middle" x="254" y="-64.7" font-family="Helvetica,sans-Serif" font-weight="bold" font-size="9.00">..</text>
</g>
<g id="clust2" class="cluster">
<title>cluster_app</title>
<path fill="#ffffff" stroke="black" stroke-width="2" d="M309,-25.75C309,-25.75 600,-25.75 600,-25.75 606,-25.75 612,-31.75 612,-37.75 612,-37.75 612,-263.5 612,-263.5 612,-269.5 606,-275.5 600,-275.5 600,-275.5 309,-275.5 309,-275.5 303,-275.5 297,-269.5 297,-263.5 297,-263.5 297,-37.75 297,-37.75 297,-31.75 303,-25.75 309,-25.75"/>
<text text-anchor="middle" x="454.5" y="-262.95" font-family="Helvetica,sans-Serif" font-weight="bold" font-size="9.00">app</text>
</g>
<g id="clust3" class="cluster">
<title>cluster_fs</title>
<path fill="#ffffff" stroke="black" stroke-width="2" d="M231,-111C231,-111 277,-111 277,-111 283,-111 289,-117 289,-123 289,-123 289,-150.5 289,-150.5 289,-156.5 283,-162.5 277,-162.5 277,-162.5 231,-162.5 231,-162.5 225,-162.5 219,-156.5 219,-150.5 219,-150.5 219,-123 219,-123 219,-117 225,-111 231,-111"/>
<text text-anchor="middle" x="254" y="-149.95" font-family="Helvetica,sans-Serif" font-weight="bold" font-size="9.00">fs</text>
</g>
<!-- ../get -->
<g id="node1" class="node">
<title>../get</title>
<g id="a_node1"><a xlink:title="get">
<path fill="#ffffcc" stroke="black" d="M275.08,-51.5C275.08,-51.5 232.92,-51.5 232.92,-51.5 229.96,-51.5 227,-48.54 227,-45.58 227,-45.58 227,-39.67 227,-39.67 227,-36.71 229.96,-33.75 232.92,-33.75 232.92,-33.75 275.08,-33.75 275.08,-33.75 278.04,-33.75 281,-36.71 281,-39.67 281,-39.67 281,-45.58 281,-45.58 281,-48.54 278.04,-51.5 275.08,-51.5"/>
<text text-anchor="start" x="247.62" y="-38.95" font-family="Helvetica,sans-Serif" font-size="9.00">get</text>
</a>
</g>
</g>
<!-- app/MyController.js -->
<g id="node2" class="node">
<title>app/MyController.js</title>
<g id="a_node2"><a xlink:href="app/MyController.js" xlink:title="MyController.js">
<path fill="#ffffcc" stroke="black" d="M499.83,-188.25C499.83,-188.25 434.17,-188.25 434.17,-188.25 431.21,-188.25 428.25,-185.29 428.25,-182.33 428.25,-182.33 428.25,-176.42 428.25,-176.42 428.25,-173.46 431.21,-170.5 434.17,-170.5 434.17,-170.5 499.83,-170.5 499.83,-170.5 502.79,-170.5 505.75,-173.46 505.75,-176.42 505.75,-176.42 505.75,-182.33 505.75,-182.33 505.75,-185.29 502.79,-188.25 499.83,-188.25"/>
<text text-anchor="start" x="436.25" y="-175.7" font-family="Helvetica,sans-Serif" font-size="9.00">MyController.js</text>
</a>
</g>
</g>
<!-- app/controllers -->
<g id="node3" class="node">
<title>app/controllers</title>
<g id="a_node3"><a xlink:href="app/controllers" xlink:title="no&#45;orphans">
<polygon fill="#ffffcc" stroke="orange" points="522.38,-219 465.6,-219 463.62,-217.03 463.62,-201.25 520.4,-201.25 522.38,-203.22 522.38,-219"/>
<polyline fill="none" stroke="orange" points="520.4,-217.03 463.62,-217.03"/>
<polyline fill="none" stroke="orange" points="520.4,-217.03 520.4,-201.25"/>
<polyline fill="none" stroke="orange" points="520.4,-217.03 522.38,-219"/>
<text text-anchor="start" x="471.62" y="-206.45" font-family="Helvetica,sans-Serif" font-size="9.00" fill="orange">controllers</text>
</a>
</g>
</g>
<!-- app/controllers&#45;&gt;app/MyController.js -->
<g id="edge4" class="edge">
<title>app/controllers&#45;&gt;app/MyController.js</title>
<path fill="none" stroke="#000000" stroke-width="2" stroke-opacity="0.200000" d="M485.62,-200.96C483.99,-199.16 482.21,-197.19 480.42,-195.21"/>
<polygon fill="#000000" fill-opacity="0.200000" stroke="#000000" stroke-width="2" stroke-opacity="0.200000" points="482.1,-193.94 476.52,-190.9 478.99,-196.76 482.1,-193.94"/>
</g>
<!-- app/models -->
<g id="node4" class="node">
<title>app/models</title>
<g id="a_node4"><a xlink:href="app/models" xlink:title="no&#45;orphans">
<polygon fill="#ffffcc" stroke="orange" points="417,-136.75 364.97,-136.75 363,-134.78 363,-119 415.03,-119 417,-120.97 417,-136.75"/>
<polyline fill="none" stroke="orange" points="415.03,-134.78 363,-134.78"/>
<polyline fill="none" stroke="orange" points="415.03,-134.78 415.03,-119"/>
<polyline fill="none" stroke="orange" points="415.03,-134.78 417,-136.75"/>
<text text-anchor="start" x="375" y="-124.2" font-family="Helvetica,sans-Serif" font-size="9.00" fill="orange">models</text>
</a>
</g>
</g>
<!-- app/controllers&#45;&gt;app/models -->
<g id="edge1" class="edge">
<title>app/controllers&#45;&gt;app/models</title>
<path fill="none" stroke="#000000" stroke-width="2" stroke-opacity="0.200000" d="M463.27,-209.47C423.6,-209.21 356.54,-206.07 341,-188.25 327.2,-172.42 348.8,-153.65 367.55,-141.52"/>
<polygon fill="#000000" fill-opacity="0.200000" stroke="#000000" stroke-width="2" stroke-opacity="0.200000" points="368.19,-143.59 372.19,-138.65 365.99,-140.01 368.19,-143.59"/>
</g>
<!-- app/templates -->
<g id="node5" class="node">
<title>app/templates</title>
<g id="a_node5"><a xlink:href="app/templates" xlink:title="templates">
<polygon fill="#ffffcc" stroke="black" points="492.88,-103 439.1,-103 437.12,-101.03 437.12,-85.25 490.9,-85.25 492.88,-87.22 492.88,-103"/>
<polyline fill="none" stroke="black" points="490.9,-101.03 437.12,-101.03"/>
<polyline fill="none" stroke="black" points="490.9,-101.03 490.9,-85.25"/>
<polyline fill="none" stroke="black" points="490.9,-101.03 492.88,-103"/>
<text text-anchor="start" x="445.12" y="-90.45" font-family="Helvetica,sans-Serif" font-size="9.00">templates</text>
</a>
</g>
</g>
<!-- app/controllers&#45;&gt;app/templates -->
<g id="edge2" class="edge">
<title>app/controllers&#45;&gt;app/templates</title>
<path fill="none" stroke="#000000" stroke-width="2" stroke-opacity="0.200000" d="M503.2,-200.81C506.68,-197.34 510.16,-193 512,-188.25 514.85,-180.89 513.45,-178.26 512,-170.5 506.8,-142.63 506.77,-133.09 489,-111 488.4,-110.26 487.77,-109.54 487.09,-108.85"/>
<polygon fill="#000000" fill-opacity="0.200000" stroke="#000000" stroke-width="2" stroke-opacity="0.200000" points="488.66,-107.42 482.7,-105.19 485.96,-110.64 488.66,-107.42"/>
</g>
<!-- app/snip.js -->
<g id="node6" class="node">
<title>app/snip.js</title>
<g id="a_node6"><a xlink:href="app/snip.js" xlink:title="snip.js">
<path fill="#ffffcc" stroke="black" d="M502.08,-51.5C502.08,-51.5 459.92,-51.5 459.92,-51.5 456.96,-51.5 454,-48.54 454,-45.58 454,-45.58 454,-39.67 454,-39.67 454,-36.71 456.96,-33.75 459.92,-33.75 459.92,-33.75 502.08,-33.75 502.08,-33.75 505.04,-33.75 508,-36.71 508,-39.67 508,-39.67 508,-45.58 508,-45.58 508,-48.54 505.04,-51.5 502.08,-51.5"/>
<text text-anchor="start" x="467.88" y="-38.95" font-family="Helvetica,sans-Serif" font-size="9.00">snip.js</text>
</a>
</g>
</g>
<!-- app/controllers&#45;&gt;app/snip.js -->
<g id="edge3" class="edge">
<title>app/controllers&#45;&gt;app/snip.js</title>
<path fill="none" stroke="#000000" stroke-width="2" stroke-opacity="0.200000" d="M505.78,-200.81C509.83,-197.44 513.82,-193.18 516,-188.25 519.19,-181.04 516.51,-178.37 516,-170.5 513.55,-132.38 517.22,-121.44 505,-85.25 501.9,-76.08 496.68,-66.67 491.9,-59.12"/>
<polygon fill="#000000" fill-opacity="0.200000" stroke="#000000" stroke-width="2" stroke-opacity="0.200000" points="493.75,-58.12 488.68,-54.29 490.26,-60.44 493.75,-58.12"/>
</g>
<!-- fs -->
<g id="node7" class="node">
<title>fs</title>
<g id="a_node7"><a xlink:href="https://nodejs.org/api/fs.html" xlink:title="fs">
<path fill="#ffffcc" stroke="grey" d="M353.08,-17.75C353.08,-17.75 310.92,-17.75 310.92,-17.75 307.96,-17.75 305,-14.79 305,-11.83 305,-11.83 305,-5.92 305,-5.92 305,-2.96 307.96,0 310.92,0 310.92,0 353.08,0 353.08,0 356.04,0 359,-2.96 359,-5.92 359,-5.92 359,-11.83 359,-11.83 359,-14.79 356.04,-17.75 353.08,-17.75"/>
<text text-anchor="middle" x="332" y="-5.2" font-family="Helvetica,sans-Serif" font-size="9.00" fill="grey">fs</text>
</a>
</g>
</g>
<!-- app/controllers&#45;&gt;fs -->
<g id="edge5" class="edge">
<title>app/controllers&#45;&gt;fs</title>
<path fill="none" stroke="#000000" stroke-dasharray="5,2" stroke-opacity="0.200000" d="M463.43,-207.19C360.78,-200.07 26,-173.45 26,-128.88 26,-128.88 26,-128.88 26,-93.12 26,-61.19 25.3,-44.72 51,-25.75 70.39,-11.43 226.82,-9.76 297.52,-9.74"/>
<polygon fill="#000000" fill-opacity="0.200000" stroke="#000000" stroke-opacity="0.200000" points="297.38,-11.84 303.39,-9.74 297.39,-7.64 297.38,-11.84"/>
</g>
<!-- path -->
<g id="node8" class="node">
<title>path</title>
<g id="a_node8"><a xlink:href="https://nodejs.org/api/path.html" xlink:title="path">
<path fill="#ffffcc" stroke="grey" d="M668.08,-136.75C668.08,-136.75 625.92,-136.75 625.92,-136.75 622.96,-136.75 620,-133.79 620,-130.83 620,-130.83 620,-124.92 620,-124.92 620,-121.96 622.96,-119 625.92,-119 625.92,-119 668.08,-119 668.08,-119 671.04,-119 674,-121.96 674,-124.92 674,-124.92 674,-130.83 674,-130.83 674,-133.79 671.04,-136.75 668.08,-136.75"/>
<text text-anchor="middle" x="647" y="-124.2" font-family="Helvetica,sans-Serif" font-size="9.00" fill="grey">path</text>
</a>
</g>
</g>
<!-- app/controllers&#45;&gt;path -->
<g id="edge6" class="edge">
<title>app/controllers&#45;&gt;path</title>
<path fill="none" stroke="#000000" stroke-dasharray="5,2" stroke-opacity="0.200000" d="M522.87,-206.57C552.72,-203.53 596.12,-197.65 610,-188.25 625.79,-177.57 636.12,-157.67 641.76,-143.87"/>
<polygon fill="#000000" fill-opacity="0.200000" stroke="#000000" stroke-opacity="0.200000" points="643.69,-144.69 643.87,-138.34 639.77,-143.19 643.69,-144.69"/>
</g>
<!-- querystring -->
<g id="node9" class="node">
<title>querystring</title>
<g id="a_node9"><a xlink:href="https://nodejs.org/api/querystring.html" xlink:title="querystring">
<path fill="#ffffcc" stroke="grey" d="M668.96,-17.75C668.96,-17.75 619.04,-17.75 619.04,-17.75 616.08,-17.75 613.12,-14.79 613.12,-11.83 613.12,-11.83 613.12,-5.92 613.12,-5.92 613.12,-2.96 616.08,0 619.04,0 619.04,0 668.96,0 668.96,0 671.92,0 674.88,-2.96 674.88,-5.92 674.88,-5.92 674.88,-11.83 674.88,-11.83 674.88,-14.79 671.92,-17.75 668.96,-17.75"/>
<text text-anchor="middle" x="644" y="-5.2" font-family="Helvetica,sans-Serif" font-size="9.00" fill="grey">querystring</text>
</a>
</g>
</g>
<!-- app/controllers&#45;&gt;querystring -->
<g id="edge7" class="edge">
<title>app/controllers&#45;&gt;querystring</title>
<path fill="none" stroke="#000000" stroke-dasharray="5,2" stroke-opacity="0.200000" d="M522.79,-208.07C569.08,-206.06 655.87,-200.73 684,-188.25 718.58,-172.91 745,-166.71 745,-128.88 745,-128.88 745,-128.88 745,-93.12 745,-56.84 705.7,-33.43 676.13,-20.95"/>
<polygon fill="#000000" fill-opacity="0.200000" stroke="#000000" stroke-opacity="0.200000" points="676.98,-19.03 670.63,-18.72 675.4,-22.92 676.98,-19.03"/>
</g>
<!-- crypto -->
<g id="node10" class="node">
<title>crypto</title>
<g id="a_node10"><a xlink:href="https://nodejs.org/api/crypto.html" xlink:title="crypto">
<path fill="#ffffcc" stroke="grey" d="M694.08,-103C694.08,-103 651.92,-103 651.92,-103 648.96,-103 646,-100.04 646,-97.08 646,-97.08 646,-91.17 646,-91.17 646,-88.21 648.96,-85.25 651.92,-85.25 651.92,-85.25 694.08,-85.25 694.08,-85.25 697.04,-85.25 700,-88.21 700,-91.17 700,-91.17 700,-97.08 700,-97.08 700,-100.04 697.04,-103 694.08,-103"/>
<text text-anchor="middle" x="673" y="-90.45" font-family="Helvetica,sans-Serif" font-size="9.00" fill="grey">crypto</text>
</a>
</g>
</g>
<!-- app/controllers&#45;&gt;crypto -->
<g id="edge8" class="edge">
<title>app/controllers&#45;&gt;crypto</title>
<path fill="none" stroke="#000000" stroke-dasharray="5,2" stroke-opacity="0.200000" d="M522.84,-206.58C571.33,-201.71 663.5,-189.08 680,-162.5 692.07,-143.05 684.72,-133.4 680,-111 679.93,-110.68 679.86,-110.35 679.77,-110.02"/>
<polygon fill="#000000" fill-opacity="0.200000" stroke="#000000" stroke-opacity="0.200000" points="681.88,-109.68 677.89,-104.74 677.93,-111.09 681.88,-109.68"/>
</g>
<!-- app/lib -->
<g id="node11" class="node">
<title>app/lib</title>
<g id="a_node11"><a xlink:href="app/lib" xlink:title="lib">
<polygon fill="#ffffcc" stroke="black" points="359,-103 306.97,-103 305,-101.03 305,-85.25 357.03,-85.25 359,-87.22 359,-103"/>
<polyline fill="none" stroke="black" points="357.03,-101.03 305,-101.03"/>
<polyline fill="none" stroke="black" points="357.03,-101.03 357.03,-85.25"/>
<polyline fill="none" stroke="black" points="357.03,-101.03 359,-103"/>
<text text-anchor="start" x="327.12" y="-90.45" font-family="Helvetica,sans-Serif" font-size="9.00">lib</text>
</a>
</g>
</g>
<!-- app/controllers&#45;&gt;app/lib -->
<g id="edge9" class="edge">
<title>app/controllers&#45;&gt;app/lib</title>
<path fill="none" stroke="#000000" stroke-width="2" stroke-opacity="0.200000" d="M463.14,-209.67C420.1,-209.9 344.2,-207.63 327,-188.25 308.4,-167.29 314.53,-132.01 322.29,-111.42"/>
<polygon fill="#000000" fill-opacity="0.200000" stroke="#000000" stroke-width="2" stroke-opacity="0.200000" points="324.13,-112.46 324.57,-106.12 320.27,-110.8 324.13,-112.46"/>
</g>
<!-- app/genuine.js -->
<g id="node12" class="node">
<title>app/genuine.js</title>
<g id="a_node12"><a xlink:href="app/genuine.js" xlink:title="genuine.js">
<path fill="#ffffcc" stroke="black" d="M598.46,-188.25C598.46,-188.25 551.54,-188.25 551.54,-188.25 548.58,-188.25 545.62,-185.29 545.62,-182.33 545.62,-182.33 545.62,-176.42 545.62,-176.42 545.62,-173.46 548.58,-170.5 551.54,-170.5 551.54,-170.5 598.46,-170.5 598.46,-170.5 601.42,-170.5 604.38,-173.46 604.38,-176.42 604.38,-176.42 604.38,-182.33 604.38,-182.33 604.38,-185.29 601.42,-188.25 598.46,-188.25"/>
<text text-anchor="start" x="553.62" y="-175.7" font-family="Helvetica,sans-Serif" font-size="9.00">genuine.js</text>
</a>
</g>
</g>
<!-- app/controllers&#45;&gt;app/genuine.js -->
<g id="edge10" class="edge">
<title>app/controllers&#45;&gt;app/genuine.js</title>
<path fill="none" stroke="#000000" stroke-width="2" stroke-opacity="0.200000" d="M516.72,-200.81C524.88,-197.95 534.15,-194.7 542.87,-191.64"/>
<polygon fill="#000000" fill-opacity="0.200000" stroke="#000000" stroke-width="2" stroke-opacity="0.200000" points="543.51,-193.64 548.48,-189.67 542.12,-189.68 543.51,-193.64"/>
</g>
<!-- http -->
<g id="node13" class="node">
<title>http</title>
<g id="a_node13"><a xlink:href="https://nodejs.org/api/http.html" xlink:title="http">
<path fill="#ffffcc" stroke="grey" d="M595.08,-17.75C595.08,-17.75 552.92,-17.75 552.92,-17.75 549.96,-17.75 547,-14.79 547,-11.83 547,-11.83 547,-5.92 547,-5.92 547,-2.96 549.96,0 552.92,0 552.92,0 595.08,0 595.08,0 598.04,0 601,-2.96 601,-5.92 601,-5.92 601,-11.83 601,-11.83 601,-14.79 598.04,-17.75 595.08,-17.75"/>
<text text-anchor="middle" x="574" y="-5.2" font-family="Helvetica,sans-Serif" font-size="9.00" fill="grey">http</text>
</a>
</g>
</g>
<!-- app/controllers&#45;&gt;http -->
<g id="edge11" class="edge">
<title>app/controllers&#45;&gt;http</title>
<path fill="none" stroke="#000000" stroke-dasharray="5,2" stroke-opacity="0.200000" d="M522.73,-207.47C564.36,-204.81 637.65,-198.78 662,-188.25 678.44,-181.14 683.69,-177.8 693,-162.5 711.09,-132.75 723.48,-115.36 706,-85.25 685.12,-49.29 639.93,-29.04 608.27,-18.78"/>
<polygon fill="#000000" fill-opacity="0.200000" stroke="#000000" stroke-opacity="0.200000" points="609.13,-16.85 602.78,-17.08 607.89,-20.86 609.13,-16.85"/>
</g>
<!-- app/infrastructure -->
<g id="node14" class="node">
<title>app/infrastructure</title>
<g id="a_node14"><a xlink:href="app/infrastructure" xlink:title="infrastructure">
<polygon fill="#ffffcc" stroke="black" points="416.62,-188.25 349.35,-188.25 347.38,-186.28 347.38,-170.5 414.65,-170.5 416.62,-172.47 416.62,-188.25"/>
<polyline fill="none" stroke="black" points="414.65,-186.28 347.38,-186.28"/>
<polyline fill="none" stroke="black" points="414.65,-186.28 414.65,-170.5"/>
<polyline fill="none" stroke="black" points="414.65,-186.28 416.62,-188.25"/>
<text text-anchor="start" x="355.38" y="-175.7" font-family="Helvetica,sans-Serif" font-size="9.00">infrastructure</text>
</a>
</g>
</g>
<!-- app/controllers&#45;&gt;app/infrastructure -->
<g id="edge12" class="edge">
<title>app/controllers&#45;&gt;app/infrastructure</title>
<path fill="none" stroke="#000000" stroke-width="2" stroke-opacity="0.200000" d="M463.25,-201.42C450.82,-198.2 436.17,-194.41 422.76,-190.93"/>
<polygon fill="#000000" fill-opacity="0.200000" stroke="#000000" stroke-width="2" stroke-opacity="0.200000" points="423.43,-188.94 417.1,-189.47 422.38,-193 423.43,-188.94"/>
</g>
<!-- app/models&#45;&gt;app/templates -->
<g id="edge27" class="edge">
<title>app/models&#45;&gt;app/templates</title>
<g id="a_edge27"><a xlink:title="no&#45;circular">
<path fill="none" stroke="orange" stroke-width="2" d="M400.94,-118.51C405.85,-116 411.62,-113.3 417,-111 417.79,-110.66 418.59,-110.32 419.39,-109.99"/>
<polygon fill="orange" stroke="orange" stroke-width="2" points="429.22,-108.41 434.05,-104.27 427.69,-104.49 429.22,-108.41"/>
<polyline fill="none" stroke="orange" stroke-width="2" points="427.52,-106.81 424.73,-107.9"/>
<ellipse fill="none" stroke="orange" stroke-width="2" cx="421.56" cy="-109.14" rx="2.4" ry="2.4"/>
</a>
</g>
<text text-anchor="middle" x="397.04" y="-111.44" font-family="Helvetica,sans-Serif" font-size="9.00" fill="orange">no&#45;circular</text>
</g>
<!-- app/models&#45;&gt;app/snip.js -->
<g id="edge25" class="edge">
<title>app/models&#45;&gt;app/snip.js</title>
<path fill="none" stroke="#000000" stroke-width="2" stroke-opacity="0.200000" d="M404.36,-118.64C410,-115.76 416.64,-112.81 423,-111 439.34,-106.36 487.64,-115.62 499,-103 509.96,-90.82 501.54,-72.15 492.9,-59"/>
<polygon fill="#000000" fill-opacity="0.200000" stroke="#000000" stroke-width="2" stroke-opacity="0.200000" points="494.86,-58.14 489.68,-54.46 491.44,-60.57 494.86,-58.14"/>
</g>
<!-- app/models&#45;&gt;fs -->
<g id="edge23" class="edge">
<title>app/models&#45;&gt;fs</title>
<path fill="none" stroke="#000000" stroke-dasharray="5,2" stroke-opacity="0.200000" d="M362.65,-121.65C343.05,-118.1 315.99,-113.59 292,-111 241.3,-105.52 95.11,-118.41 65,-77.25 51.49,-58.78 49.3,-42.41 65,-25.75 80.63,-9.16 229.35,-8.68 297.81,-9.36"/>
<polygon fill="#000000" fill-opacity="0.200000" stroke="#000000" stroke-opacity="0.200000" points="297.43,-11.45 303.45,-9.42 297.47,-7.25 297.43,-11.45"/>
</g>
<!-- app/models&#45;&gt;querystring -->
<g id="edge30" class="edge">
<title>app/models&#45;&gt;querystring</title>
<path fill="none" stroke="#000000" stroke-dasharray="5,2" stroke-opacity="0.200000" d="M404.32,-118.52C409.96,-115.62 416.61,-112.69 423,-111 448.41,-104.29 516.81,-113.27 541,-103 581.8,-85.68 617.12,-45.21 633.79,-23.77"/>
<polygon fill="#000000" fill-opacity="0.200000" stroke="#000000" stroke-opacity="0.200000" points="635.29,-25.27 637.25,-19.22 631.95,-22.72 635.29,-25.27"/>
</g>
<!-- app/models&#45;&gt;crypto -->
<g id="edge26" class="edge">
<title>app/models&#45;&gt;crypto</title>
<path fill="none" stroke="#000000" stroke-dasharray="5,2" stroke-opacity="0.200000" d="M403.97,-118.58C409.68,-115.62 416.46,-112.62 423,-111 469.19,-99.56 589.79,-109 637,-103 637.44,-102.94 637.88,-102.89 638.32,-102.83"/>
<polygon fill="#000000" fill-opacity="0.200000" stroke="#000000" stroke-opacity="0.200000" points="638.49,-104.93 644.08,-101.89 637.82,-100.78 638.49,-104.93"/>
</g>
<!-- app/models&#45;&gt;app/lib -->
<g id="edge31" class="edge">
<title>app/models&#45;&gt;app/lib</title>
<path fill="none" stroke="#000000" stroke-width="2" stroke-opacity="0.200000" d="M374.76,-118.53C368.59,-115.15 361.33,-111.18 354.56,-107.47"/>
<polygon fill="#000000" fill-opacity="0.200000" stroke="#000000" stroke-width="2" stroke-opacity="0.200000" points="355.86,-105.79 349.59,-104.75 353.85,-109.48 355.86,-105.79"/>
</g>
<!-- app/models&#45;&gt;http -->
<g id="edge32" class="edge">
<title>app/models&#45;&gt;http</title>
<path fill="none" stroke="#000000" stroke-dasharray="5,2" stroke-opacity="0.200000" d="M404.34,-118.56C409.98,-115.67 416.62,-112.73 423,-111 444.3,-105.23 503.43,-114.93 522,-103 549.89,-85.08 564.2,-46.69 570.29,-25.21"/>
<polygon fill="#000000" fill-opacity="0.200000" stroke="#000000" stroke-opacity="0.200000" points="572.27,-25.94 571.78,-19.6 568.21,-24.86 572.27,-25.94"/>
</g>
<!-- app/features -->
<g id="node16" class="node">
<title>app/features</title>
<g id="a_node16"><a xlink:href="app/features" xlink:title="features">
<polygon fill="#ffffcc" stroke="black" points="425,-103 372.97,-103 371,-101.03 371,-85.25 423.03,-85.25 425,-87.22 425,-103"/>
<polyline fill="none" stroke="black" points="423.03,-101.03 371,-101.03"/>
<polyline fill="none" stroke="black" points="423.03,-101.03 423.03,-85.25"/>
<polyline fill="none" stroke="black" points="423.03,-101.03 425,-103"/>
<text text-anchor="start" x="381.5" y="-90.45" font-family="Helvetica,sans-Serif" font-size="9.00">features</text>
</a>
</g>
</g>
<!-- app/models&#45;&gt;app/features -->
<g id="edge28" class="edge">
<title>app/models&#45;&gt;app/features</title>
<path fill="none" stroke="#000000" stroke-width="2" stroke-opacity="0.200000" d="M392.1,-118.53C392.62,-116.48 393.19,-114.2 393.77,-111.89"/>
<polygon fill="#000000" fill-opacity="0.200000" stroke="#000000" stroke-width="2" stroke-opacity="0.200000" points="395.77,-112.57 395.2,-106.24 391.7,-111.54 395.77,-112.57"/>
</g>
<!-- vm -->
<g id="node19" class="node">
<title>vm</title>
<g id="a_node19"><a xlink:href="https://nodejs.org/api/vm.html" xlink:title="vm">
<path fill="#ffffcc" stroke="grey" d="M283.08,-103C283.08,-103 240.92,-103 240.92,-103 237.96,-103 235,-100.04 235,-97.08 235,-97.08 235,-91.17 235,-91.17 235,-88.21 237.96,-85.25 240.92,-85.25 240.92,-85.25 283.08,-85.25 283.08,-85.25 286.04,-85.25 289,-88.21 289,-91.17 289,-91.17 289,-97.08 289,-97.08 289,-100.04 286.04,-103 283.08,-103"/>
<text text-anchor="middle" x="262" y="-90.45" font-family="Helvetica,sans-Serif" font-size="9.00" fill="grey">vm</text>
</a>
</g>
</g>
<!-- app/models&#45;&gt;vm -->
<g id="edge24" class="edge">
<title>app/models&#45;&gt;vm</title>
<path fill="none" stroke="#000000" stroke-dasharray="5,2" stroke-opacity="0.200000" d="M362.54,-120.06C343.22,-115.27 317.22,-108.82 296.5,-103.68"/>
<polygon fill="#000000" fill-opacity="0.200000" stroke="#000000" stroke-opacity="0.200000" points="297.21,-101.7 290.88,-102.29 296.2,-105.77 297.21,-101.7"/>
</g>
<!-- https -->
<g id="node20" class="node">
<title>https</title>
<g id="a_node20"><a xlink:href="https://nodejs.org/api/https.html" xlink:title="https">
<path fill="#ffffcc" stroke="grey" d="M529.08,-17.75C529.08,-17.75 486.92,-17.75 486.92,-17.75 483.96,-17.75 481,-14.79 481,-11.83 481,-11.83 481,-5.92 481,-5.92 481,-2.96 483.96,0 486.92,0 486.92,0 529.08,0 529.08,0 532.04,0 535,-2.96 535,-5.92 535,-5.92 535,-11.83 535,-11.83 535,-14.79 532.04,-17.75 529.08,-17.75"/>
<text text-anchor="middle" x="508" y="-5.2" font-family="Helvetica,sans-Serif" font-size="9.00" fill="grey">https</text>
</a>
</g>
</g>
<!-- app/models&#45;&gt;https -->
<g id="edge29" class="edge">
<title>app/models&#45;&gt;https</title>
<path fill="none" stroke="#000000" stroke-dasharray="5,2" stroke-opacity="0.200000" d="M404.35,-118.62C409.99,-115.74 416.63,-112.78 423,-111 440.63,-106.07 490.6,-114.31 505,-103 532.18,-81.65 520.21,-59.75 514,-25.75 513.97,-25.59 513.94,-25.43 513.91,-25.27"/>
<polygon fill="#000000" fill-opacity="0.200000" stroke="#000000" stroke-opacity="0.200000" points="515.93,-24.71 512.19,-19.57 511.91,-25.92 515.93,-24.71"/>
</g>
<!-- util -->
<g id="node21" class="node">
<title>util</title>
<g id="a_node21"><a xlink:href="https://nodejs.org/api/util.html" xlink:title="util">
<path fill="#ffffcc" stroke="grey" d="M119.08,-51.5C119.08,-51.5 76.92,-51.5 76.92,-51.5 73.96,-51.5 71,-48.54 71,-45.58 71,-45.58 71,-39.67 71,-39.67 71,-36.71 73.96,-33.75 76.92,-33.75 76.92,-33.75 119.08,-33.75 119.08,-33.75 122.04,-33.75 125,-36.71 125,-39.67 125,-39.67 125,-45.58 125,-45.58 125,-48.54 122.04,-51.5 119.08,-51.5"/>
<text text-anchor="middle" x="98" y="-38.95" font-family="Helvetica,sans-Serif" font-size="9.00" fill="grey">util</text>
</a>
</g>
</g>
<!-- app/models&#45;&gt;util -->
<g id="edge33" class="edge">
<title>app/models&#45;&gt;util</title>
<path fill="none" stroke="#000000" stroke-dasharray="5,2" stroke-opacity="0.200000" d="M362.58,-122.18C342.95,-118.87 315.88,-114.45 292,-111 220.07,-100.61 195.08,-113.34 132,-77.25 123.11,-72.16 114.88,-64.16 108.75,-57.24"/>
<polygon fill="#000000" fill-opacity="0.200000" stroke="#000000" stroke-opacity="0.200000" points="110.58,-56.15 105.1,-52.93 107.38,-58.86 110.58,-56.15"/>
</g>
<!-- app/templates&#45;&gt;app/models -->
<g id="edge39" class="edge">
<title>app/templates&#45;&gt;app/models</title>
<path fill="none" stroke="#000000" stroke-width="2" stroke-opacity="0.200000" d="M447.96,-103.34C441.92,-105.7 435.16,-108.36 429,-111 426.23,-112.19 423.35,-113.48 420.46,-114.8"/>
<polygon fill="#000000" fill-opacity="0.200000" stroke="#000000" stroke-width="2" stroke-opacity="0.200000" points="419.71,-112.84 415.13,-117.25 421.46,-116.65 419.71,-112.84"/>
</g>
<!-- app/templates&#45;&gt;app/snip.js -->
<g id="edge41" class="edge">
<title>app/templates&#45;&gt;app/snip.js</title>
<path fill="none" stroke="#000000" stroke-width="2" stroke-opacity="0.200000" d="M467.64,-84.95C469.78,-78.33 472.87,-68.77 475.54,-60.52"/>
<polygon fill="#000000" fill-opacity="0.200000" stroke="#000000" stroke-width="2" stroke-opacity="0.200000" points="477.52,-61.21 477.37,-54.86 473.53,-59.92 477.52,-61.21"/>
</g>
<!-- app/templates&#45;&gt;fs -->
<g id="edge40" class="edge">
<title>app/templates&#45;&gt;fs</title>
<path fill="none" stroke="#000000" stroke-dasharray="5,2" stroke-opacity="0.200000" d="M451.76,-84.84C428.16,-70.07 378.73,-39.12 351.33,-21.97"/>
<polygon fill="#000000" fill-opacity="0.200000" stroke="#000000" stroke-opacity="0.200000" points="352.67,-20.33 346.47,-18.93 350.44,-23.89 352.67,-20.33"/>
</g>
<!-- app/templates&#45;&gt;util -->
<g id="edge42" class="edge">
<title>app/templates&#45;&gt;util</title>
<path fill="none" stroke="#000000" stroke-dasharray="5,2" stroke-opacity="0.200000" d="M436.88,-86.15C434.9,-85.8 432.92,-85.5 431,-85.25 398.03,-81.03 162.57,-90.29 132,-77.25 122.34,-73.13 113.92,-64.86 107.87,-57.56"/>
<polygon fill="#000000" fill-opacity="0.200000" stroke="#000000" stroke-opacity="0.200000" points="109.64,-56.41 104.31,-52.96 106.32,-58.99 109.64,-56.41"/>
</g>
<!-- app/snip.js&#45;&gt;fs -->
<g id="edge34" class="edge">
<title>app/snip.js&#45;&gt;fs</title>
<path fill="none" stroke="#000000" stroke-dasharray="5,2" stroke-opacity="0.200000" d="M453.59,-35.73C439.64,-32.73 422.42,-29.04 407,-25.75 393.83,-22.94 379.36,-19.88 366.67,-17.19"/>
<polygon fill="#000000" fill-opacity="0.200000" stroke="#000000" stroke-opacity="0.200000" points="367.22,-15.16 360.91,-15.98 366.35,-19.27 367.22,-15.16"/>
</g>
<!-- app/snip.js&#45;&gt;querystring -->
<g id="edge37" class="edge">
<title>app/snip.js&#45;&gt;querystring</title>
<path fill="none" stroke="#000000" stroke-dasharray="5,2" stroke-opacity="0.200000" d="M508.07,-36.68C532.11,-32.24 568.39,-25.45 605.9,-17.95"/>
<polygon fill="#000000" fill-opacity="0.200000" stroke="#000000" stroke-opacity="0.200000" points="605.97,-20.08 611.44,-16.84 605.14,-15.96 605.97,-20.08"/>
</g>
<!-- app/snip.js&#45;&gt;http -->
<g id="edge35" class="edge">
<title>app/snip.js&#45;&gt;http</title>
<path fill="none" stroke="#000000" stroke-dasharray="5,2" stroke-opacity="0.200000" d="M498.37,-33.36C504.22,-30.74 510.83,-27.96 517,-25.75 524.33,-23.13 532.32,-20.67 539.93,-18.5"/>
<polygon fill="#000000" fill-opacity="0.200000" stroke="#000000" stroke-opacity="0.200000" points="540.11,-20.63 545.33,-17 538.98,-16.58 540.11,-20.63"/>
</g>
<!-- app/snip.js&#45;&gt;https -->
<g id="edge36" class="edge">
<title>app/snip.js&#45;&gt;https</title>
<path fill="none" stroke="#000000" stroke-dasharray="5,2" stroke-opacity="0.200000" d="M488.09,-33.28C490.59,-30.34 493.48,-26.96 496.26,-23.69"/>
<polygon fill="#000000" fill-opacity="0.200000" stroke="#000000" stroke-opacity="0.200000" points="497.78,-25.14 500.07,-19.2 494.58,-22.41 497.78,-25.14"/>
</g>
<!-- url -->
<g id="node22" class="node">
<title>url</title>
<g id="a_node22"><a xlink:href="https://nodejs.org/api/url.html" xlink:title="url">
<path fill="#ffffcc" stroke="grey" d="M463.08,-17.75C463.08,-17.75 420.92,-17.75 420.92,-17.75 417.96,-17.75 415,-14.79 415,-11.83 415,-11.83 415,-5.92 415,-5.92 415,-2.96 417.96,0 420.92,0 420.92,0 463.08,0 463.08,0 466.04,0 469,-2.96 469,-5.92 469,-5.92 469,-11.83 469,-11.83 469,-14.79 466.04,-17.75 463.08,-17.75"/>
<text text-anchor="middle" x="442" y="-5.2" font-family="Helvetica,sans-Serif" font-size="9.00" fill="grey">url</text>
</a>
</g>
</g>
<!-- app/snip.js&#45;&gt;url -->
<g id="edge38" class="edge">
<title>app/snip.js&#45;&gt;url</title>
<path fill="none" stroke="#000000" stroke-dasharray="5,2" stroke-opacity="0.200000" d="M470.75,-33.28C466.78,-30.05 462.14,-26.27 457.76,-22.71"/>
<polygon fill="#000000" fill-opacity="0.200000" stroke="#000000" stroke-opacity="0.200000" points="459.2,-21.17 453.22,-19.01 456.54,-24.42 459.2,-21.17"/>
</g>
<!-- app/lib&#45;&gt;../get -->
<g id="edge18" class="edge">
<title>app/lib&#45;&gt;../get</title>
<g id="a_edge18"><a xlink:title="not&#45;to&#45;unresolvable">
<path fill="none" stroke="red" stroke-width="2" d="M308.94,-84.81C303.87,-82.63 298.64,-80.08 294,-77.25 285.05,-71.8 276.04,-64.42 268.84,-57.96"/>
<polygon fill="red" stroke="red" stroke-width="2" points="270.36,-56.51 264.53,-53.98 267.51,-59.6 270.36,-56.51"/>
</a>
</g>
<text text-anchor="middle" x="323.75" y="-71.65" font-family="Helvetica,sans-Serif" font-size="9.00" fill="red">not&#45;to&#45;unresolvable</text>
</g>
<!-- app/lib&#45;&gt;app/controllers -->
<g id="edge22" class="edge">
<title>app/lib&#45;&gt;app/controllers</title>
<path fill="none" stroke="#000000" stroke-width="2" stroke-opacity="0.200000" d="M332.13,-103.34C328.88,-121.26 317.64,-164.19 339,-188.25 354.04,-205.2 413.96,-209.06 454.52,-209.61"/>
<polygon fill="#000000" fill-opacity="0.200000" stroke="#000000" stroke-width="2" stroke-opacity="0.200000" points="454.32,-211.71 460.34,-209.66 454.35,-207.51 454.32,-211.71"/>
</g>
<!-- app/lib&#45;&gt;fs -->
<g id="edge20" class="edge">
<title>app/lib&#45;&gt;fs</title>
<path fill="none" stroke="#000000" stroke-dasharray="5,2" stroke-opacity="0.200000" d="M332,-84.84C332,-71 332,-42.98 332,-25.39"/>
<polygon fill="#000000" fill-opacity="0.200000" stroke="#000000" stroke-opacity="0.200000" points="334.1,-25.64 332,-19.64 329.9,-25.64 334.1,-25.64"/>
</g>
<!-- app/lib&#45;&gt;http -->
<g id="edge21" class="edge">
<title>app/lib&#45;&gt;http</title>
<path fill="none" stroke="#000000" stroke-dasharray="5,2" stroke-opacity="0.200000" d="M359.3,-86.21C361.22,-85.85 363.13,-85.52 365,-85.25 397.82,-80.49 484.12,-91.63 514,-77.25 537.71,-65.84 556.14,-40.39 566.01,-24.24"/>
<polygon fill="#000000" fill-opacity="0.200000" stroke="#000000" stroke-opacity="0.200000" points="567.71,-25.5 568.94,-19.26 564.09,-23.37 567.71,-25.5"/>
</g>
<!-- child_process -->
<g id="node18" class="node">
<title>child_process</title>
<g id="a_node18"><a xlink:href="https://nodejs.org/api/child_process.html" xlink:title="child_process">
<path fill="#ffffcc" stroke="grey" d="M204.58,-51.5C204.58,-51.5 143.42,-51.5 143.42,-51.5 140.46,-51.5 137.5,-48.54 137.5,-45.58 137.5,-45.58 137.5,-39.67 137.5,-39.67 137.5,-36.71 140.46,-33.75 143.42,-33.75 143.42,-33.75 204.58,-33.75 204.58,-33.75 207.54,-33.75 210.5,-36.71 210.5,-39.67 210.5,-39.67 210.5,-45.58 210.5,-45.58 210.5,-48.54 207.54,-51.5 204.58,-51.5"/>
<text text-anchor="middle" x="174" y="-38.95" font-family="Helvetica,sans-Serif" font-size="9.00" fill="grey">child_process</text>
</a>
</g>
</g>
<!-- app/lib&#45;&gt;child_process -->
<g id="edge19" class="edge">
<title>app/lib&#45;&gt;child_process</title>
<path fill="none" stroke="#000000" stroke-dasharray="5,2" stroke-opacity="0.200000" d="M304.58,-86.94C301.36,-86.32 298.11,-85.74 295,-85.25 260.13,-79.79 248.67,-90.6 216,-77.25 204.98,-72.74 194.51,-64.39 186.79,-57.13"/>
<polygon fill="#000000" fill-opacity="0.200000" stroke="#000000" stroke-opacity="0.200000" points="188.28,-55.65 182.53,-52.94 185.34,-58.65 188.28,-55.65"/>
</g>
<!-- app/genuine.js&#45;&gt;crypto -->
<g id="edge13" class="edge">
<title>app/genuine.js&#45;&gt;crypto</title>
<path fill="none" stroke="#000000" stroke-dasharray="5,2" stroke-opacity="0.200000" d="M577.38,-170.37C582.01,-156.17 593.63,-126.63 614,-111 616.23,-109.29 626.73,-106.27 638.27,-103.33"/>
<polygon fill="#000000" fill-opacity="0.200000" stroke="#000000" stroke-opacity="0.200000" points="638.74,-105.37 644.05,-101.88 637.72,-101.3 638.74,-105.37"/>
</g>
<!-- app/infrastructure&#45;&gt;app/models -->
<g id="edge17" class="edge">
<title>app/infrastructure&#45;&gt;app/models</title>
<path fill="none" stroke="#000000" stroke-width="2" stroke-opacity="0.200000" d="M383.32,-170.2C384.38,-163.65 385.9,-154.23 387.23,-146.03"/>
<polygon fill="#000000" fill-opacity="0.200000" stroke="#000000" stroke-width="2" stroke-opacity="0.200000" points="389.28,-146.47 388.17,-140.21 385.14,-145.8 389.28,-146.47"/>
</g>
<!-- app/infrastructure&#45;&gt;path -->
<g id="edge15" class="edge">
<title>app/infrastructure&#45;&gt;path</title>
<path fill="none" stroke="#000000" stroke-dasharray="5,2" stroke-opacity="0.200000" d="M416.86,-171.19C418.59,-170.93 420.31,-170.7 422,-170.5 443.31,-167.98 595.45,-171.37 615,-162.5 624.29,-158.29 632.21,-150.02 637.85,-142.74"/>
<polygon fill="#000000" fill-opacity="0.200000" stroke="#000000" stroke-opacity="0.200000" points="639.33,-144.28 641.15,-138.19 635.93,-141.82 639.33,-144.28"/>
</g>
<!-- app/domain -->
<g id="node15" class="node">
<title>app/domain</title>
<g id="a_node15"><a xlink:href="app/domain" xlink:title="no&#45;orphans">
<polygon fill="#ffffcc" stroke="orange" points="483,-136.75 430.97,-136.75 429,-134.78 429,-119 481.03,-119 483,-120.97 483,-136.75"/>
<polyline fill="none" stroke="orange" points="481.03,-134.78 429,-134.78"/>
<polyline fill="none" stroke="orange" points="481.03,-134.78 481.03,-119"/>
<polyline fill="none" stroke="orange" points="481.03,-134.78 483,-136.75"/>
<text text-anchor="start" x="440.62" y="-124.2" font-family="Helvetica,sans-Serif" font-size="9.00" fill="orange">domain</text>
</a>
</g>
</g>
<!-- app/infrastructure&#45;&gt;app/domain -->
<g id="edge16" class="edge">
<title>app/infrastructure&#45;&gt;app/domain</title>
<path fill="none" stroke="#000000" stroke-width="2" stroke-opacity="0.200000" d="M408.41,-170.06C413.45,-167.96 418.54,-165.44 423,-162.5 430.83,-157.35 438.26,-150.07 444.08,-143.61"/>
<polygon fill="#000000" fill-opacity="0.200000" stroke="#000000" stroke-width="2" stroke-opacity="0.200000" points="445.42,-145.27 447.74,-139.35 442.24,-142.53 445.42,-145.27"/>
</g>
<!-- fs/promises -->
<g id="node17" class="node">
<title>fs/promises</title>
<g id="a_node17"><a xlink:href="https://nodejs.org/api/fs.html" xlink:title="promises">
<path fill="#ffffcc" stroke="grey" d="M275.08,-136.75C275.08,-136.75 232.92,-136.75 232.92,-136.75 229.96,-136.75 227,-133.79 227,-130.83 227,-130.83 227,-124.92 227,-124.92 227,-121.96 229.96,-119 232.92,-119 232.92,-119 275.08,-119 275.08,-119 278.04,-119 281,-121.96 281,-124.92 281,-124.92 281,-130.83 281,-130.83 281,-133.79 278.04,-136.75 275.08,-136.75"/>
<text text-anchor="start" x="235.25" y="-124.2" font-family="Helvetica,sans-Serif" font-size="9.00" fill="grey">promises</text>
</a>
</g>
</g>
<!-- app/infrastructure&#45;&gt;fs/promises -->
<g id="edge14" class="edge">
<title>app/infrastructure&#45;&gt;fs/promises</title>
<path fill="none" stroke="#000000" stroke-dasharray="5,2" stroke-opacity="0.200000" d="M346.89,-176.24C330.24,-174.2 310.44,-170.22 294,-162.5 283.66,-157.65 273.81,-149.43 266.48,-142.34"/>
<polygon fill="#000000" fill-opacity="0.200000" stroke="#000000" stroke-opacity="0.200000" points="268.17,-141.07 262.46,-138.28 265.19,-144.02 268.17,-141.07"/>
</g>
<!-- app/workers -->
<g id="node23" class="node">
<title>app/workers</title>
<g id="a_node23"><a xlink:href="app/workers" xlink:title="workers">
<polygon fill="#ffffcc" stroke="black" points="359,-249.75 306.97,-249.75 305,-247.78 305,-232 357.03,-232 359,-233.97 359,-249.75"/>
<polyline fill="none" stroke="black" points="357.03,-247.78 305,-247.78"/>
<polyline fill="none" stroke="black" points="357.03,-247.78 357.03,-232"/>
<polyline fill="none" stroke="black" points="357.03,-247.78 359,-249.75"/>
<text text-anchor="start" x="315.88" y="-237.2" font-family="Helvetica,sans-Serif" font-size="9.00">workers</text>
</a>
</g>
</g>
<!-- app/workers&#45;&gt;app/controllers -->
<g id="edge44" class="edge">
<title>app/workers&#45;&gt;app/controllers</title>
<path fill="none" stroke="#000000" stroke-width="2" stroke-opacity="0.200000" d="M359.31,-235C385.49,-230.32 425.26,-223.22 454.62,-217.98"/>
<polygon fill="#000000" fill-opacity="0.200000" stroke="#000000" stroke-width="2" stroke-opacity="0.200000" points="454.85,-220.07 460.39,-216.95 454.11,-215.94 454.85,-220.07"/>
</g>
<!-- app/workers&#45;&gt;app/models -->
<g id="edge45" class="edge">
<title>app/workers&#45;&gt;app/models</title>
<path fill="none" stroke="#000000" stroke-width="2" stroke-opacity="0.200000" d="M329.88,-231.61C326.84,-218.01 322.71,-190.4 333,-170.5 339.45,-158.03 351.54,-148.39 362.93,-141.53"/>
<polygon fill="#000000" fill-opacity="0.200000" stroke="#000000" stroke-width="2" stroke-opacity="0.200000" points="363.77,-143.47 367.99,-138.71 361.73,-139.8 363.77,-143.47"/>
</g>
<!-- app/workers&#45;&gt;util -->
<g id="edge43" class="edge">
<title>app/workers&#45;&gt;util</title>
<path fill="none" stroke="#000000" stroke-dasharray="5,2" stroke-opacity="0.200000" d="M304.55,-237.85C225.01,-231.61 0,-211.23 0,-180.38 0,-180.38 0,-180.38 0,-126.88 0,-91.02 38.58,-67.38 67.33,-54.75"/>
<polygon fill="#000000" fill-opacity="0.200000" stroke="#000000" stroke-opacity="0.200000" points="67.92,-56.78 72.63,-52.51 66.29,-52.91 67.92,-56.78"/>
</g>
</g>
</svg>
